<?xml version="1.0" encoding="utf-8"?>
<!-- Generator: Adobe Illustrator 16.0.0, SVG Export Plug-In . SVG Version: 6.00 Build 0)  -->
<!DOCTYPE svg PUBLIC "-//W3C//DTD SVG 1.1//EN" "http://www.w3.org/Graphics/SVG/1.1/DTD/svg11.dtd">
<svg version="1.1" id="レイヤー_1" xmlns="http://www.w3.org/2000/svg" xmlns:xlink="http://www.w3.org/1999/xlink" x="0px"
	 y="0px" width="45.354px" height="51.023px" viewBox="0 0 45.354 51.023" enable-background="new 0 0 45.354 51.023"
	 xml:space="preserve">
<rect y="-0.468" fill="#FFFFFF" width="45.354" height="51.898"/>
<g>
	<g>
		<path fill="#828282" d="M6.563,41.791v-4.85H7.1l1.595,2.924h0.013l1.587-2.924h0.559v4.85h-0.532v-3.957h-0.014l-1.361,2.518
			H8.449l-1.362-2.518H7.073v3.957H6.563z"/>
		<path fill="#828282" d="M16.012,37.387h-2.303v1.58h2.172v0.426h-2.172v1.953h2.304v0.443h-2.836v-4.85h2.836L16.012,37.387
			L16.012,37.387z"/>
		<path fill="#828282" d="M18.272,41.791v-4.85h0.544l2.351,3.984h0.014v-3.984h0.518v4.85h-0.544l-2.351-3.984H18.79v3.984H18.272z
			"/>
		<path fill="#828282" d="M24.494,36.941v3.209c0,0.432,0.095,0.746,0.282,0.949c0.188,0.205,0.479,0.307,0.864,0.307
			c0.393,0,0.683-0.102,0.87-0.307c0.19-0.203,0.285-0.52,0.285-0.949v-3.209h0.521v3.189c0,0.57-0.146,1-0.433,1.291
			c-0.289,0.289-0.705,0.436-1.25,0.436c-0.543,0-0.961-0.146-1.248-0.436c-0.286-0.291-0.432-0.721-0.432-1.291v-3.189H24.494z"/>
	</g>
	<g>
		<rect x="0.195" y="8.884" fill="#828282" width="34.2" height="1.322"/>
		<rect x="5.93" y="13.274" fill="#828282" width="22.729" height="1.323"/>
		<rect x="5.93" y="18.019" fill="#828282" width="22.729" height="1.323"/>
		<rect x="5.93" y="22.762" fill="#828282" width="22.729" height="1.323"/>
		<rect x="5.93" y="27.506" fill="#828282" width="22.729" height="1.324"/>
		<rect x="0.195" y="31.766" fill="#828282" width="34.2" height="1.322"/>
	</g>
</g>
</svg>
