<svg width="305" height="105" viewBox="0 0 305 105" fill="none" xmlns="http://www.w3.org/2000/svg">
<path d="M20.877 60.2C20.8103 60.4 20.6436 60.5 20.377 60.5C19.777 60.5 19.577 60.2333 19.777 59.7C21.3103 56.8333 23.6436 53.8667 26.777 50.8C29.9103 47.7333 33.7103 45.0667 38.177 42.8C42.6436 40.4667 47.6103 39.0667 53.077 38.6C53.5436 38.5333 53.977 38.5 54.377 38.5C54.777 38.5 55.2103 38.5 55.677 38.5C60.0103 38.5 63.1436 39.4667 65.077 41.4C67.0103 43.2667 67.8436 45.6333 67.577 48.5C67.2436 52.5 65.8103 56.1667 63.277 59.5C60.8103 62.8333 57.6103 65.7 53.677 68.1C49.8103 70.5 45.577 72.3333 40.977 73.6C36.377 74.9333 31.8103 75.6 27.277 75.6C22.477 75.6 18.0103 74.7667 13.877 73.1C9.81029 71.5 6.51029 68.9667 3.97695 65.5C1.51029 61.9667 0.276954 57.3667 0.276954 51.7C0.276954 51.1667 0.276954 50.6333 0.276954 50.1C0.276954 49.5667 0.310287 49.0333 0.376953 48.5C0.776953 44.2333 1.97695 39.8333 3.97695 35.3C6.04362 30.7667 8.81029 26.4333 12.277 22.3C15.8103 18.1667 19.9436 14.4667 24.677 11.2C29.477 7.93333 34.777 5.33333 40.577 3.4C46.377 1.46666 52.6103 0.499995 59.277 0.499995C63.677 0.499995 66.9103 1.3 68.977 2.9C71.1103 4.5 72.177 6.36667 72.177 8.5C72.177 10.1667 71.5436 11.9 70.277 13.7C69.0103 15.4333 67.177 16.9667 64.777 18.3C62.1103 19.7667 59.177 20.9333 55.977 21.8C52.8436 22.6 49.8103 23.2 46.877 23.6C43.9436 23.9333 41.5103 24.2 39.577 24.4H39.477C39.277 24.4 39.177 24.3 39.177 24.1C39.177 23.7667 39.4103 23.5667 39.877 23.5C44.277 23.0333 48.577 22.1667 52.777 20.9C56.977 19.5667 60.577 18 63.577 16.2C65.2436 15.2 66.577 13.9667 67.577 12.5C68.577 11.0333 69.077 9.56667 69.077 8.1C69.077 6.43333 68.2436 4.99999 66.577 3.79999C64.977 2.53333 62.277 1.89999 58.477 1.89999C52.677 1.89999 47.2436 2.86666 42.177 4.8C37.177 6.66667 32.6103 9.23333 28.477 12.5C24.4103 15.7 20.8436 19.3667 17.777 23.5C14.777 27.5667 12.377 31.8333 10.577 36.3C8.84362 40.7 7.77695 45 7.37695 49.2C7.31029 49.8667 7.24362 50.5 7.17695 51.1C7.17695 51.7 7.17695 52.3 7.17695 52.9C7.17695 58.0333 8.14362 62.2 10.077 65.4C12.0103 68.6 14.577 70.9 17.777 72.3C20.977 73.7667 24.477 74.5 28.277 74.5C32.2103 74.5 36.177 73.8333 40.177 72.5C44.177 71.1667 47.9103 69.3333 51.377 67C54.8436 64.6 57.677 61.8 59.877 58.6C62.1436 55.4 63.4103 51.9667 63.677 48.3C63.9436 45.5667 63.2103 43.4 61.477 41.8C59.8103 40.1333 57.0103 39.4667 53.077 39.8C47.8103 40.2667 43.0103 41.6333 38.677 43.9C34.3436 46.1 30.6436 48.6667 27.577 51.6C24.577 54.5333 22.3436 57.4 20.877 60.2ZM78.1152 72C75.5819 72 73.3819 71.2 71.5152 69.6C69.7152 67.9333 68.8152 65.4 68.8152 62C68.8152 59.8667 69.1819 57.6667 69.9152 55.4C70.7152 53.0667 71.5819 51 72.5152 49.2C74.2486 45.9333 76.4152 43.1 79.0152 40.7C81.6819 38.2333 84.8486 37 88.5152 37C92.0486 37 94.5152 37.9667 95.9152 39.9C97.3152 41.8333 98.0152 44.2 98.0152 47C98.0152 48.1333 97.9152 49.3 97.7152 50.5C97.1819 53.7667 96.0819 56.9333 94.4152 60C94.8819 60.6667 95.4819 61.2333 96.2152 61.7C97.0152 62.1 97.8819 62.3 98.8152 62.3C100.415 62.3 101.782 61.8667 102.915 61C104.049 60.1333 105.015 59.0667 105.815 57.8C106.682 56.4667 107.415 55.2333 108.015 54.1C108.415 53.3667 108.782 53 109.115 53C109.315 53 109.415 53.1333 109.415 53.4C109.415 53.6667 109.215 54.2667 108.815 55.2C107.682 57.4667 106.349 59.4333 104.815 61.1C103.282 62.7667 101.282 63.6 98.8152 63.6C96.5486 63.6 94.8152 62.8 93.6152 61.2C91.7486 64.2667 89.4819 66.8333 86.8152 68.9C84.1486 70.9667 81.2486 72 78.1152 72ZM78.3152 70.8C81.5819 70.8 84.8152 69.2 88.0152 66C88.9486 65.0667 89.7819 64.1 90.5152 63.1C91.3152 62.0333 92.0152 60.9667 92.6152 59.9C91.7486 58.9 91.1152 57.8333 90.7152 56.7C90.3819 55.5 90.2152 54.3667 90.2152 53.3C90.2152 51.6333 90.5152 50.1667 91.1152 48.9C91.7152 47.5667 92.5486 46.9 93.6152 46.9C94.1486 46.9 94.6486 47.1667 95.1152 47.7C95.6486 48.2333 95.9819 49.0667 96.1152 50.2C96.3152 49.2667 96.4152 48.2667 96.4152 47.2C96.4152 44.6667 95.9486 42.6667 95.0152 41.2C94.0819 39.6667 92.5152 38.9 90.3152 38.9C88.9819 38.9 87.6152 39.4333 86.2152 40.5C84.8152 41.5 83.4819 42.7333 82.2152 44.2C81.0152 45.6667 79.9486 47.1667 79.0152 48.7C78.0819 50.2333 77.3819 51.5 76.9152 52.5C75.7819 54.9667 74.9486 57.1667 74.4152 59.1C73.9486 61.0333 73.7152 62.7333 73.7152 64.2C73.7152 66.3333 74.1486 67.9667 75.0152 69.1C75.9486 70.2333 77.0486 70.8 78.3152 70.8ZM145.108 70.6C143.108 70.6 141.575 70 140.508 68.8C139.442 67.5333 138.908 65.9667 138.908 64.1C138.908 62.0333 139.442 59.9667 140.508 57.9C141.575 55.7667 142.775 53.7 144.108 51.7C145.508 49.7 146.742 47.8 147.808 46C148.875 44.2 149.408 42.6 149.408 41.2C149.408 40.6667 149.275 40.2 149.008 39.8C148.742 39.3333 148.242 39.1 147.508 39.1C145.375 39.1 143.142 40.1 140.808 42.1C138.542 44.0333 136.342 46.5333 134.208 49.6C132.075 52.6667 130.142 55.8667 128.408 59.2C126.742 62.5333 125.442 65.6 124.508 68.4C123.442 68.1333 122.708 67.7333 122.308 67.2C121.975 66.6 121.808 65.9667 121.808 65.3C121.808 64.2333 121.942 63.2 122.208 62.2C122.542 61.2 123.042 59.9667 123.708 58.5C124.375 57.0333 125.242 55.1667 126.308 52.9C127.375 50.5667 128.642 47.5667 130.108 43.9C130.308 43.3667 130.442 42.9 130.508 42.5C130.575 42.1 130.608 41.7333 130.608 41.4C130.608 39.8667 129.975 39.1 128.708 39.1C127.108 39.1 125.475 39.7667 123.808 41.1C122.142 42.3667 120.508 44.0667 118.908 46.2C117.375 48.3333 115.908 50.6333 114.508 53.1C113.108 55.5667 111.842 58 110.708 60.4C109.575 62.7333 108.642 64.7667 107.908 66.5C107.242 68.0333 106.442 69.0333 105.508 69.5C104.575 69.9 103.675 70.1 102.808 70.1C102.542 70.1 102.208 70.0667 101.808 70C101.475 70 101.142 70 100.808 70C102.142 67.3333 103.542 64.4333 105.008 61.3C106.542 58.1 107.942 54.9 109.208 51.7C110.475 48.5 111.508 45.4333 112.308 42.5C113.108 39.5667 113.508 37.0333 113.508 34.9C113.508 34.6333 113.475 34.4333 113.408 34.3C113.408 34.1667 113.408 34.0333 113.408 33.9C113.408 33.7 113.475 33.6 113.608 33.6C114.275 33.6 114.808 34.0333 115.208 34.9C115.608 35.7 115.875 36.6333 116.008 37.7C116.208 38.7 116.308 39.5 116.308 40.1C116.308 41.7667 116.108 43.5 115.708 45.3C115.308 47.0333 114.842 48.5 114.308 49.7C116.842 46.3 119.442 43.4 122.108 41C124.842 38.6 127.542 37.4 130.208 37.4C132.008 37.4 133.308 37.7667 134.108 38.5C134.908 39.2333 135.308 40.2667 135.308 41.6C135.308 42.5333 135.142 43.4667 134.808 44.4C134.542 45.3333 134.075 46.6 133.408 48.2C135.942 44.7333 138.408 42.0667 140.808 40.2C143.275 38.3333 145.708 37.4 148.108 37.4C150.042 37.4 151.475 37.8333 152.408 38.7C153.408 39.5667 153.908 40.7333 153.908 42.2C153.908 43.8 153.375 45.7 152.308 47.9C151.308 50.0333 150.142 52.2667 148.808 54.6C147.475 56.8667 146.275 59.0333 145.208 61.1C144.208 63.1 143.708 64.7667 143.708 66.1C143.708 66.8333 143.875 67.5 144.208 68.1C144.542 68.7 145.142 69 146.008 69C147.142 69 148.208 68.6333 149.208 67.9C150.275 67.1 151.175 66.2667 151.908 65.4C153.442 63.7333 154.842 61.9 156.108 59.9C157.442 57.8333 158.742 55.6667 160.008 53.4C160.208 53.1333 160.342 53 160.408 53C160.675 53 160.808 53.3 160.808 53.9C160.808 54.3 160.742 54.6 160.608 54.8C159.408 57 158.142 59.1667 156.808 61.3C155.475 63.3667 153.842 65.3667 151.908 67.3C151.042 68.1667 150.042 68.9333 148.908 69.6C147.775 70.2667 146.508 70.6 145.108 70.6ZM129.273 103.5C127.206 104.233 125.106 104.6 122.973 104.6C120.04 104.6 117.406 103.9 115.073 102.5C112.74 101.1 111.573 98.9667 111.573 96.1C111.573 95.5667 111.606 95.0333 111.673 94.5C111.74 94.0333 111.873 93.5 112.073 92.9C112.273 92.4333 112.44 92.2333 112.573 92.3C112.64 92.4333 112.673 92.6333 112.673 92.9C112.673 96.1667 113.806 98.6667 116.073 100.4C118.273 102.133 120.84 103 123.773 103C125.573 103 127.306 102.7 128.973 102.1C131.706 101.167 134.14 99.7 136.273 97.7C138.406 95.7 140.24 93.5667 141.773 91.3C143.24 89.1667 144.706 86.7 146.173 83.9C147.64 81.1 149.04 78.1667 150.373 75.1C151.706 72.0333 152.973 69.0667 154.173 66.2C155.373 63.2667 156.406 60.6667 157.273 58.4C158.273 55.8 159.44 52.9667 160.773 49.9C162.173 46.8333 163.706 43.7667 165.373 40.7C167.04 37.5667 168.84 34.7333 170.773 32.2C172.773 29.6 174.84 27.5 176.973 25.9C178.506 24.7 180.106 24.1 181.773 24.1C182.04 24.1 182.273 24.1 182.473 24.1C182.74 24.1 183.006 24.1667 183.273 24.3C183.406 24.3667 183.473 24.4667 183.473 24.6C183.473 24.6667 183.34 24.7 183.073 24.7C182.406 24.7667 181.606 25.1 180.673 25.7C179.74 26.2333 178.606 27.4 177.273 29.2C176.74 30 175.54 31.7 173.673 34.3C171.873 36.9 170.173 40.0333 168.573 43.7C170.506 41.5 172.306 39.9333 173.973 39C175.64 38.0667 177.14 37.6 178.473 37.6C180.606 37.6 182.073 38.1333 182.873 39.2C183.673 40.2667 184.073 41.6 184.073 43.2C184.073 44.6667 183.806 46.2333 183.273 47.9C182.806 49.5667 182.206 51.1667 181.473 52.7C180.806 54.2333 180.173 55.5333 179.573 56.6C179.106 57.4667 178.406 58.5 177.473 59.7C176.54 60.9 175.473 62.1333 174.273 63.4C174.473 64.3333 174.873 65 175.473 65.4C176.14 65.8 176.906 66 177.773 66C178.706 66 179.673 65.8 180.673 65.4C181.74 65 182.606 64.5 183.273 63.9C184.806 62.6333 186.206 61.1333 187.473 59.4C188.74 57.6667 189.906 55.8667 190.973 54C191.04 53.8667 191.073 53.8 191.073 53.8C191.14 53.8 191.173 53.8 191.173 53.8C191.306 53.8 191.373 54.1 191.373 54.7C191.373 54.9667 191.373 55.2333 191.373 55.5C191.373 55.7 191.306 55.9 191.173 56.1C190.04 58.1 188.873 59.9 187.673 61.5C186.473 63.0333 185.006 64.4 183.273 65.6C182.406 66.1333 181.44 66.6 180.373 67C179.373 67.3333 178.373 67.5 177.373 67.5C176.373 67.5 175.473 67.3 174.673 66.9C173.94 66.4333 173.406 65.7 173.073 64.7C171.94 65.7667 170.573 66.8667 168.973 68C167.44 69.0667 165.84 69.6667 164.173 69.8C163.906 69.8667 163.64 69.9 163.373 69.9C163.173 69.9 162.973 69.9 162.773 69.9C160.44 69.9 159.006 69 158.473 67.2C157.473 70.0667 156.073 73.3 154.273 76.9C152.473 80.5 150.34 84.0667 147.873 87.6C145.406 91.2 142.64 94.4 139.573 97.2C136.44 100.067 133.006 102.167 129.273 103.5ZM162.173 68.4C163.373 68.4 164.573 67.9333 165.773 67C167.04 66 168.24 64.7667 169.373 63.3C170.573 61.8333 171.673 60.3 172.673 58.7C173.74 57.1 174.606 55.6667 175.273 54.4C175.673 53.7333 176.206 52.7 176.873 51.3C177.54 49.8333 178.14 48.2667 178.673 46.6C179.206 44.9333 179.473 43.4667 179.473 42.2C179.473 41.2667 179.306 40.5333 178.973 40C178.64 39.4667 178.006 39.2 177.073 39.2C176.006 39.2 174.773 39.8 173.373 41C172.04 42.2 170.673 43.7 169.273 45.5C167.94 47.3 166.706 49.1 165.573 50.9C165.306 51.3667 164.84 52.1667 164.173 53.3C163.506 54.4333 162.806 55.7333 162.073 57.2C161.406 58.6667 160.806 60.1333 160.273 61.6C159.806 63.0667 159.573 64.3667 159.573 65.5C159.573 67.4333 160.44 68.4 162.173 68.4ZM212.018 70.7C209.885 70.7 208.418 70.0333 207.618 68.7C206.818 67.3 206.418 65.7667 206.418 64.1C206.418 63.7667 206.452 63.2 206.518 62.4C206.652 61.5333 206.785 60.7333 206.918 60C205.985 61.2667 204.852 62.6667 203.518 64.2C202.252 65.7333 200.952 67.0333 199.618 68.1C197.485 69.8333 195.552 70.7 193.818 70.7C192.152 70.7 190.852 70 189.918 68.6C189.052 67.2 188.618 65.4333 188.618 63.3C188.618 60.5667 189.218 57.8 190.418 55C191.618 52.2 193.185 49.5667 195.118 47.1C197.118 44.5667 199.318 42.4 201.718 40.6C203.118 39.6 204.818 38.8 206.818 38.2C208.885 37.5333 210.952 37.2 213.018 37.2C215.352 37.2 217.385 37.5667 219.118 38.3C220.918 38.9667 222.152 39.9333 222.818 41.2C221.418 43 219.985 45.2333 218.518 47.9C217.052 50.5 215.785 52.8667 214.718 55C213.985 56.4667 213.185 58.3 212.318 60.5C211.452 62.6333 211.018 64.4667 211.018 66C211.018 66.6667 211.185 67.3333 211.518 68C211.852 68.6667 212.485 69 213.418 69C214.485 69 215.518 68.6 216.518 67.8C217.518 67 218.352 66.2 219.018 65.4C220.552 63.7333 221.952 61.9 223.218 59.9C224.485 57.9 225.752 55.7667 227.018 53.5C227.218 53.2333 227.418 53.1 227.618 53.1C227.885 53.1 228.018 53.3 228.018 53.7C228.018 54.0333 227.952 54.3 227.818 54.5C226.685 56.7 225.418 58.9 224.018 61.1C222.618 63.3 220.952 65.3667 219.018 67.3C218.085 68.2333 216.985 69.0333 215.718 69.7C214.452 70.3667 213.218 70.7 212.018 70.7ZM196.018 67.6C197.285 67.6 198.652 66.9333 200.118 65.6C201.652 64.2 203.118 62.5333 204.518 60.6C205.985 58.6 207.285 56.7 208.418 54.9C209.618 53.0333 210.552 51.6 211.218 50.6C212.618 48.4 213.918 46.5667 215.118 45.1C216.318 43.6333 218.185 42.5 220.718 41.7C220.852 41.7 220.952 41.7 221.018 41.7C221.152 41.6333 221.285 41.6 221.418 41.6C220.818 40.6667 219.818 39.9667 218.418 39.5C217.018 39.0333 215.652 38.8 214.318 38.8C212.252 38.8 210.252 39.3667 208.318 40.5C206.385 41.6333 204.618 43.0667 203.018 44.8C201.485 46.6 199.985 48.5667 198.518 50.7C197.052 52.8333 195.852 55 194.918 57.2C194.052 59.4 193.618 61.5 193.618 63.5C193.618 64.5667 193.785 65.5333 194.118 66.4C194.518 67.2 195.152 67.6 196.018 67.6ZM244.861 70.6C242.927 70.6 241.394 70 240.261 68.8C239.194 67.6 238.661 66.1 238.661 64.3C238.661 63.4333 238.827 62.4333 239.161 61.3C240.094 58.3667 241.561 55.4667 243.561 52.6C245.627 49.6667 247.327 46.7667 248.661 43.9C249.127 42.9667 249.361 42.1333 249.361 41.4C249.361 40.6667 249.127 40.1333 248.661 39.8C248.261 39.4 247.761 39.2 247.161 39.2C246.294 39.2 245.194 39.5667 243.861 40.3C242.594 40.9667 241.127 42.2667 239.461 44.2C238.461 45.4 237.327 46.8667 236.061 48.6C234.794 50.3333 233.761 51.9 232.961 53.3C231.627 55.5667 230.427 57.8667 229.361 60.2C228.294 62.4667 227.361 64.5667 226.561 66.5C225.894 68.0333 225.094 69.0333 224.161 69.5C223.227 69.9 222.327 70.0667 221.461 70C220.594 69.9333 219.927 69.9333 219.461 70C221.327 66.3333 223.161 62.4667 224.961 58.4C226.761 54.3333 228.294 50.2667 229.561 46.2C230.161 44.3333 230.661 42.5333 231.061 40.8C231.461 39 231.627 37.8333 231.561 37.3V37.1C231.561 36.5667 231.827 36.4333 232.361 36.7C233.227 37.1667 233.827 37.8667 234.161 38.8C234.494 39.6667 234.661 40.6667 234.661 41.8C234.661 43.0667 234.494 44.4333 234.161 45.9C233.827 47.3 233.427 48.5667 232.961 49.7C233.827 48.5 234.761 47.3 235.761 46.1C236.761 44.8333 237.861 43.6333 239.061 42.5C240.461 41.1 241.961 39.9 243.561 38.9C245.161 37.8333 246.894 37.3 248.761 37.3C250.561 37.3 251.861 37.7 252.661 38.5C253.527 39.3 253.961 40.3667 253.961 41.7C253.961 43.1 253.561 44.7 252.761 46.5C251.894 48.5667 250.827 50.6333 249.561 52.7C248.361 54.7667 247.261 56.7667 246.261 58.7C246.061 59.1 245.727 59.7333 245.261 60.6C244.861 61.4 244.494 62.3 244.161 63.3C244.027 63.7667 243.894 64.2667 243.761 64.8C243.627 65.2667 243.561 65.7667 243.561 66.3C243.561 66.9667 243.694 67.6 243.961 68.2C244.294 68.7333 244.894 69 245.761 69C246.894 69 247.961 68.6333 248.961 67.9C250.027 67.1 250.927 66.2667 251.661 65.4C253.194 63.7333 254.594 61.9 255.861 59.9C257.194 57.8333 258.494 55.6667 259.761 53.4C259.961 53.1333 260.094 53 260.161 53C260.427 53 260.561 53.3 260.561 53.9C260.561 54.3 260.494 54.6 260.361 54.8C259.161 57 257.894 59.1667 256.561 61.3C255.227 63.3667 253.594 65.3667 251.661 67.3C250.794 68.1667 249.794 68.9333 248.661 69.6C247.527 70.2667 246.261 70.6 244.861 70.6ZM262.178 98.2C261.111 98.4667 260.044 98.6 258.978 98.6C257.044 98.6 255.578 98.1333 254.578 97.2C253.578 96.2667 253.078 95.1 253.078 93.7C253.078 92.5 253.478 91.2 254.278 89.8C255.078 88.4667 256.278 87.2667 257.878 86.2C259.944 84.8 261.811 83.6667 263.478 82.8C265.211 81.9333 267.078 81.0667 269.078 80.2C271.078 79.4 273.578 78.3 276.578 76.9C276.911 76.1667 277.278 75.3 277.678 74.3C278.078 73.3 278.744 71.6333 279.678 69.3C280.611 66.9667 281.978 63.5 283.778 58.9C282.311 60.7 280.844 62.3667 279.378 63.9C277.911 65.4333 276.711 66.6333 275.778 67.5C274.444 68.5 273.144 69.3 271.878 69.9C270.678 70.4333 269.478 70.7 268.278 70.7C266.678 70.7 265.544 70.2333 264.878 69.3C264.278 68.3667 263.978 67.2667 263.978 66C263.978 64.9333 264.111 63.8333 264.378 62.7C264.711 61.5667 265.078 60.5 265.478 59.5C266.411 57.1667 267.411 54.9667 268.478 52.9C269.611 50.7667 270.711 48.5667 271.778 46.3C272.044 45.7667 272.411 44.9 272.878 43.7C273.411 42.5 273.678 41.4 273.678 40.4C273.678 39.2667 273.178 38.7 272.178 38.7C271.244 38.7 270.278 39.1667 269.278 40.1C268.344 40.9667 267.511 41.9667 266.778 43.1C266.044 44.2333 265.478 45.1333 265.078 45.8C265.078 45.8 264.744 46.4333 264.078 47.7C263.478 48.9667 262.678 50.5333 261.678 52.4C260.744 54.2 259.778 55.9 258.778 57.5C258.578 57.8333 258.311 58 257.978 58C257.711 58 257.578 57.8667 257.578 57.6C257.578 57.4667 257.744 57.0667 258.078 56.4C259.544 53.8 260.678 51.6333 261.478 49.9C262.344 48.1667 263.311 46.3667 264.378 44.5C265.444 42.5667 266.678 40.7333 268.078 39C269.011 38 270.011 37.2667 271.078 36.8C272.211 36.2667 273.311 36 274.378 36C276.244 36 277.511 36.4333 278.178 37.3C278.911 38.1 279.278 39.1 279.278 40.3C279.278 41.5667 279.011 42.8667 278.478 44.2C277.944 45.5333 277.411 46.7 276.878 47.7C275.211 50.6333 273.844 53.2 272.778 55.4C271.711 57.5333 270.778 59.6 269.978 61.6C269.378 63.0667 269.078 64.2667 269.078 65.2C269.078 66.9333 269.811 67.8 271.278 67.8C272.478 67.8 273.711 67.2667 274.978 66.2C278.511 63.3333 281.378 59.9667 283.578 56.1C285.778 52.2333 287.878 48.2 289.878 44C290.544 42.6667 291.378 41.2333 292.378 39.7C293.378 38.1 294.611 36.7667 296.078 35.7C297.544 34.5667 299.244 34.0667 301.178 34.2C300.244 35.0667 299.111 36.6667 297.778 39C296.511 41.3333 295.144 44.0667 293.678 47.2C292.278 50.3333 290.878 53.6 289.478 57C288.078 60.4 286.744 63.6667 285.478 66.8C284.278 69.8667 283.244 72.4667 282.378 74.6C284.178 73.8667 286.278 72.7333 288.678 71.2C291.144 69.7333 293.444 67.8 295.578 65.4C297.111 63.8 298.478 62 299.678 60C300.944 57.9333 302.211 55.7667 303.478 53.5C303.678 53.2333 303.878 53.1 304.078 53.1C304.344 53.1 304.478 53.3 304.478 53.7C304.478 54.0333 304.411 54.3 304.278 54.5C303.078 56.7 301.811 58.9 300.478 61.1C299.144 63.3 297.511 65.3667 295.578 67.3C293.178 69.5667 290.744 71.5 288.278 73.1C285.878 74.7667 283.611 75.9667 281.478 76.7C279.878 80.3 278.178 83.6 276.378 86.6C274.644 89.6 272.644 92.1 270.378 94.1C268.111 96.1 265.378 97.4667 262.178 98.2ZM261.578 96.2C263.978 95.4667 266.044 94.1667 267.778 92.3C269.511 90.5 271.011 88.4 272.278 86C273.611 83.6 274.744 81.2 275.678 78.8C273.544 79.9333 270.878 81.1 267.678 82.3C264.478 83.5667 261.444 85.2667 258.578 87.4C257.311 88.4 256.344 89.4333 255.678 90.5C255.011 91.5667 254.678 92.5667 254.678 93.5C254.678 94.4333 255.011 95.2 255.678 95.8C256.344 96.4 257.311 96.7 258.578 96.7C258.978 96.7 259.411 96.6667 259.878 96.6C260.411 96.5333 260.978 96.4 261.578 96.2Z" fill="#B5943E"/>
</svg>
