<svg width="244" height="76" viewBox="0 0 244 76" fill="none" xmlns="http://www.w3.org/2000/svg">
<path d="M20.6875 60.2C20.6208 60.4 20.4542 60.5 20.1875 60.5C19.5875 60.5 19.3875 60.2333 19.5875 59.7C21.1208 56.8333 23.4542 53.8667 26.5875 50.8C29.7208 47.7333 33.5208 45.0667 37.9875 42.8C42.4542 40.4667 47.4208 39.0667 52.8875 38.6C53.3542 38.5333 53.7875 38.5 54.1875 38.5C54.5875 38.5 55.0208 38.5 55.4875 38.5C59.8208 38.5 62.9542 39.4667 64.8875 41.4C66.8208 43.2667 67.6542 45.6333 67.3875 48.5C67.0542 52.5 65.6208 56.1667 63.0875 59.5C60.6208 62.8333 57.4208 65.7 53.4875 68.1C49.6208 70.5 45.3875 72.3333 40.7875 73.6C36.1875 74.9333 31.6208 75.6 27.0875 75.6C22.2875 75.6 17.8208 74.7667 13.6875 73.1C9.62083 71.5 6.32083 68.9667 3.7875 65.5C1.32083 61.9667 0.0875006 57.3667 0.0875006 51.7C0.0875006 51.1667 0.0875006 50.6333 0.0875006 50.1C0.0875006 49.5667 0.120834 49.0333 0.1875 48.5C0.5875 44.2333 1.7875 39.8333 3.7875 35.3C5.85417 30.7667 8.62083 26.4333 12.0875 22.3C15.6208 18.1667 19.7542 14.4667 24.4875 11.2C29.2875 7.93333 34.5875 5.33333 40.3875 3.4C46.1875 1.46666 52.4208 0.499995 59.0875 0.499995C63.4875 0.499995 66.7208 1.3 68.7875 2.9C70.9208 4.5 71.9875 6.36667 71.9875 8.5C71.9875 10.1667 71.3542 11.9 70.0875 13.7C68.8208 15.4333 66.9875 16.9667 64.5875 18.3C61.9208 19.7667 58.9875 20.9333 55.7875 21.8C52.6542 22.6 49.6208 23.2 46.6875 23.6C43.7542 23.9333 41.3208 24.2 39.3875 24.4H39.2875C39.0875 24.4 38.9875 24.3 38.9875 24.1C38.9875 23.7667 39.2208 23.5667 39.6875 23.5C44.0875 23.0333 48.3875 22.1667 52.5875 20.9C56.7875 19.5667 60.3875 18 63.3875 16.2C65.0542 15.2 66.3875 13.9667 67.3875 12.5C68.3875 11.0333 68.8875 9.56667 68.8875 8.1C68.8875 6.43333 68.0542 4.99999 66.3875 3.79999C64.7875 2.53333 62.0875 1.89999 58.2875 1.89999C52.4875 1.89999 47.0542 2.86666 41.9875 4.8C36.9875 6.66667 32.4208 9.23333 28.2875 12.5C24.2208 15.7 20.6542 19.3667 17.5875 23.5C14.5875 27.5667 12.1875 31.8333 10.3875 36.3C8.65417 40.7 7.5875 45 7.1875 49.2C7.12083 49.8667 7.05417 50.5 6.9875 51.1C6.9875 51.7 6.9875 52.3 6.9875 52.9C6.9875 58.0333 7.95417 62.2 9.8875 65.4C11.8208 68.6 14.3875 70.9 17.5875 72.3C20.7875 73.7667 24.2875 74.5 28.0875 74.5C32.0208 74.5 35.9875 73.8333 39.9875 72.5C43.9875 71.1667 47.7208 69.3333 51.1875 67C54.6542 64.6 57.4875 61.8 59.6875 58.6C61.9542 55.4 63.2208 51.9667 63.4875 48.3C63.7542 45.5667 63.0208 43.4 61.2875 41.8C59.6208 40.1333 56.8208 39.4667 52.8875 39.8C47.6208 40.2667 42.8208 41.6333 38.4875 43.9C34.1542 46.1 30.4542 48.6667 27.3875 51.6C24.3875 54.5333 22.1542 57.4 20.6875 60.2ZM77.9258 72C75.3924 72 73.1924 71.2 71.3258 69.6C69.5258 67.9333 68.6258 65.4 68.6258 62C68.6258 59.8667 68.9924 57.6667 69.7258 55.4C70.5258 53.0667 71.3924 51 72.3258 49.2C74.0591 45.9333 76.2258 43.1 78.8258 40.7C81.4924 38.2333 84.6591 37 88.3258 37C91.8591 37 94.3258 37.9667 95.7258 39.9C97.1258 41.8333 97.8258 44.2 97.8258 47C97.8258 48.1333 97.7258 49.3 97.5258 50.5C96.9924 53.7667 95.8925 56.9333 94.2258 60C94.6924 60.6667 95.2924 61.2333 96.0258 61.7C96.8258 62.1 97.6924 62.3 98.6258 62.3C100.226 62.3 101.592 61.8667 102.726 61C103.859 60.1333 104.826 59.0667 105.626 57.8C106.492 56.4667 107.226 55.2333 107.826 54.1C108.226 53.3667 108.592 53 108.926 53C109.126 53 109.226 53.1333 109.226 53.4C109.226 53.6667 109.026 54.2667 108.626 55.2C107.492 57.4667 106.159 59.4333 104.626 61.1C103.092 62.7667 101.092 63.6 98.6258 63.6C96.3591 63.6 94.6258 62.8 93.4258 61.2C91.5591 64.2667 89.2924 66.8333 86.6258 68.9C83.9591 70.9667 81.0591 72 77.9258 72ZM78.1258 70.8C81.3924 70.8 84.6258 69.2 87.8258 66C88.7591 65.0667 89.5924 64.1 90.3258 63.1C91.1258 62.0333 91.8258 60.9667 92.4258 59.9C91.5591 58.9 90.9258 57.8333 90.5258 56.7C90.1925 55.5 90.0258 54.3667 90.0258 53.3C90.0258 51.6333 90.3258 50.1667 90.9258 48.9C91.5258 47.5667 92.3591 46.9 93.4258 46.9C93.9591 46.9 94.4591 47.1667 94.9258 47.7C95.4591 48.2333 95.7924 49.0667 95.9258 50.2C96.1258 49.2667 96.2258 48.2667 96.2258 47.2C96.2258 44.6667 95.7591 42.6667 94.8258 41.2C93.8924 39.6667 92.3258 38.9 90.1258 38.9C88.7924 38.9 87.4258 39.4333 86.0258 40.5C84.6258 41.5 83.2924 42.7333 82.0258 44.2C80.8258 45.6667 79.7591 47.1667 78.8258 48.7C77.8924 50.2333 77.1924 51.5 76.7258 52.5C75.5924 54.9667 74.7591 57.1667 74.2258 59.1C73.7591 61.0333 73.5258 62.7333 73.5258 64.2C73.5258 66.3333 73.9591 67.9667 74.8258 69.1C75.7591 70.2333 76.8591 70.8 78.1258 70.8ZM126.019 70.6C124.085 70.6 122.552 70 121.419 68.8C120.352 67.6 119.819 66.1 119.819 64.3C119.819 63.4333 119.985 62.4333 120.319 61.3C121.252 58.3667 122.719 55.4667 124.719 52.6C126.785 49.6667 128.485 46.7667 129.819 43.9C130.285 42.9667 130.519 42.1333 130.519 41.4C130.519 40.6667 130.285 40.1333 129.819 39.8C129.419 39.4 128.919 39.2 128.319 39.2C127.452 39.2 126.352 39.5667 125.019 40.3C123.752 40.9667 122.285 42.2667 120.619 44.2C119.619 45.4 118.485 46.8667 117.219 48.6C115.952 50.3333 114.919 51.9 114.119 53.3C112.785 55.5667 111.585 57.8667 110.519 60.2C109.452 62.4667 108.519 64.5667 107.719 66.5C107.052 68.0333 106.252 69.0333 105.319 69.5C104.385 69.9 103.485 70.0667 102.619 70C101.752 69.9333 101.085 69.9333 100.619 70C102.485 66.3333 104.319 62.4667 106.119 58.4C107.919 54.3333 109.452 50.2667 110.719 46.2C111.319 44.3333 111.819 42.5333 112.219 40.8C112.619 39 112.785 37.8333 112.719 37.3V37.1C112.719 36.5667 112.985 36.4333 113.519 36.7C114.385 37.1667 114.985 37.8667 115.319 38.8C115.652 39.6667 115.819 40.6667 115.819 41.8C115.819 43.0667 115.652 44.4333 115.319 45.9C114.985 47.3 114.585 48.5667 114.119 49.7C114.985 48.5 115.919 47.3 116.919 46.1C117.919 44.8333 119.019 43.6333 120.219 42.5C121.619 41.1 123.119 39.9 124.719 38.9C126.319 37.8333 128.052 37.3 129.919 37.3C131.719 37.3 133.019 37.7 133.819 38.5C134.685 39.3 135.119 40.3667 135.119 41.7C135.119 43.1 134.719 44.7 133.919 46.5C133.052 48.5667 131.985 50.6333 130.719 52.7C129.519 54.7667 128.419 56.7667 127.419 58.7C127.219 59.1 126.885 59.7333 126.419 60.6C126.019 61.4 125.652 62.3 125.319 63.3C125.185 63.7667 125.052 64.2667 124.919 64.8C124.785 65.2667 124.719 65.7667 124.719 66.3C124.719 66.9667 124.852 67.6 125.119 68.2C125.452 68.7333 126.052 69 126.919 69C128.052 69 129.119 68.6333 130.119 67.9C131.185 67.1 132.085 66.2667 132.819 65.4C134.352 63.7333 135.752 61.9 137.019 59.9C138.352 57.8333 139.652 55.6667 140.919 53.4C141.119 53.1333 141.252 53 141.319 53C141.585 53 141.719 53.3 141.719 53.9C141.719 54.3 141.652 54.6 141.519 54.8C140.319 57 139.052 59.1667 137.719 61.3C136.385 63.3667 134.752 65.3667 132.819 67.3C131.952 68.1667 130.952 68.9333 129.819 69.6C128.685 70.2667 127.419 70.6 126.019 70.6ZM144.236 70.7C142.569 70.7 141.069 70.2333 139.736 69.3C138.469 68.3 137.836 66.7 137.836 64.5C137.836 62.1667 138.403 59.6 139.536 56.8C140.669 54 141.736 51.5 142.736 49.3C143.269 48.2333 143.969 46.8 144.836 45C145.769 43.1333 146.769 41.3 147.836 39.5H143.136C142.936 39.5 142.836 39.3333 142.836 39C142.836 38.7333 142.936 38.4667 143.136 38.2C143.336 37.8667 143.569 37.7 143.836 37.7C145.703 37.7 147.103 37.5333 148.036 37.2C148.969 36.8667 149.769 36.4 150.436 35.8C151.503 34.8667 152.536 33.6667 153.536 32.2C154.603 30.7333 155.636 29.4667 156.636 28.4C157.369 27.4667 158.269 26.7667 159.336 26.3C160.469 25.8333 161.203 25.6667 161.536 25.8C161.203 26.2667 160.669 27.0667 159.936 28.2C159.203 29.3333 158.436 30.5667 157.636 31.9C156.836 33.2333 156.103 34.4667 155.436 35.6C154.769 36.7333 154.336 37.5 154.136 37.9H160.736C160.936 37.9 161.036 37.9667 161.036 38.1C161.036 38.3667 160.869 38.6667 160.536 39C160.269 39.3333 160.003 39.5 159.736 39.5H153.236C152.036 41.5667 150.603 44.2667 148.936 47.6C147.336 50.8667 145.903 54.0333 144.636 57.1C144.369 57.7 143.903 58.9 143.236 60.7C142.636 62.5 142.336 64.1667 142.336 65.7C142.336 66.7 142.536 67.5333 142.936 68.2C143.403 68.8667 144.169 69.2 145.236 69.2C146.369 69.2 147.603 68.8 148.936 68C150.269 67.1333 151.303 66.2667 152.036 65.4C153.569 63.7333 154.969 61.9 156.236 59.9C157.503 57.9 158.769 55.7667 160.036 53.5C160.236 53.2333 160.436 53.1 160.636 53.1C160.903 53.1 161.036 53.3 161.036 53.7C161.036 54.0333 160.969 54.3 160.836 54.5C159.636 56.7 158.336 58.9 156.936 61.1C155.603 63.3 153.969 65.3667 152.036 67.3C151.169 68.1667 150.003 68.9667 148.536 69.7C147.069 70.3667 145.636 70.7 144.236 70.7ZM162.574 70.6C160.508 70.6 159.008 70 158.074 68.8C157.208 67.6 156.774 66.1333 156.774 64.4C156.774 62.2 157.208 59.8 158.074 57.2C159.008 54.6 160.074 52.1333 161.274 49.8C162.474 47.4 163.441 45.5333 164.174 44.2C165.641 41.7333 167.108 40.2 168.574 39.6C170.108 39 171.974 38.7 174.174 38.7C173.508 38.9 172.641 39.7 171.574 41.1C170.508 42.4333 169.374 44.1 168.174 46.1C167.041 48.1 165.941 50.2667 164.874 52.6C163.874 54.8667 163.041 57.1 162.374 59.3C161.774 61.4333 161.474 63.2667 161.474 64.8C161.474 65.9333 161.674 66.8667 162.074 67.6C162.541 68.3333 163.241 68.7 164.174 68.7C164.974 68.7 165.908 68.4 166.974 67.8C168.041 67.1333 169.008 66.3333 169.874 65.4C172.808 62.1333 175.174 58.5667 176.974 54.7C178.841 50.7667 180.908 46.8667 183.174 43C184.641 40.5333 186.108 39 187.574 38.4C189.108 37.8 190.974 37.5 193.174 37.5C192.508 37.7 191.608 38.5333 190.474 40C189.341 41.4 188.141 43.1667 186.874 45.3C185.674 47.4333 184.541 49.7333 183.474 52.2C182.408 54.6 181.508 56.9333 180.774 59.2C180.108 61.4667 179.774 63.4 179.774 65C179.774 66.0667 179.974 66.9667 180.374 67.7C180.841 68.3667 181.508 68.7 182.374 68.7C183.174 68.7 184.108 68.3667 185.174 67.7C186.241 67.0333 187.208 66.2667 188.074 65.4C189.608 63.7333 191.008 61.9 192.274 59.9C193.541 57.9 194.808 55.7667 196.074 53.5C196.274 53.2333 196.441 53.1 196.574 53.1C196.841 53.1 196.974 53.3 196.974 53.7C196.974 54.0333 196.908 54.3 196.774 54.5C195.574 56.7 194.308 58.9 192.974 61.1C191.641 63.3 190.008 65.3667 188.074 67.3C187.008 68.3667 185.741 69.2667 184.274 70C182.874 70.6667 181.474 70.8667 180.074 70.6C178.208 70.2667 176.874 69.5333 176.074 68.4C175.274 67.2 174.874 65.7667 174.874 64.1C174.874 62.7667 175.074 61.3667 175.474 59.9C174.674 61.1667 173.808 62.4333 172.874 63.7C172.008 64.9667 171.008 66.1667 169.874 67.3C168.941 68.2333 167.808 69.0333 166.474 69.7C165.208 70.3 163.908 70.6 162.574 70.6ZM204.409 71.1C200.943 71.1 198.476 70.0667 197.009 68C195.543 65.8667 194.809 63.3667 194.809 60.5C194.809 57.3667 195.476 54.2 196.809 51C197.809 48.6 199.109 46.3667 200.709 44.3C202.309 42.1667 204.209 40.4333 206.409 39.1C208.676 37.7667 211.143 37.1 213.809 37.1C215.809 37.1 217.343 37.5667 218.409 38.5C219.543 39.4333 220.109 40.7333 220.109 42.4C220.109 42.9333 220.043 43.5 219.909 44.1C219.843 44.7 219.643 45.3667 219.309 46.1C218.843 47.3 218.243 48.3667 217.509 49.3C216.776 50.2333 215.943 50.9667 215.009 51.5C214.543 51.7667 214.009 51.9 213.409 51.9C212.943 51.9 212.509 51.7667 212.109 51.5C211.709 51.2333 211.509 50.8 211.509 50.2C211.509 49.1333 212.076 48 213.209 46.8C214.409 45.5333 215.943 44.8667 217.809 44.8C218.143 43.9333 218.309 43.1667 218.309 42.5C218.309 41.4333 217.976 40.5333 217.309 39.8C216.643 39 215.609 38.6 214.209 38.6C212.476 38.6 210.776 39.2667 209.109 40.6C207.443 41.8667 205.943 43.5667 204.609 45.7C203.343 47.7667 202.309 49.9667 201.509 52.3C201.109 53.3667 200.743 54.7333 200.409 56.4C200.076 58 199.909 59.6 199.909 61.2C199.909 63.2667 200.343 65.1333 201.209 66.8C202.143 68.4 203.876 69.2 206.409 69.2C208.209 69.2 209.909 68.7 211.509 67.7C213.109 66.6333 214.543 65.3333 215.809 63.8C217.143 62.2667 218.309 60.7 219.309 59.1C220.376 57.4333 221.243 55.9667 221.909 54.7C221.976 54.4333 222.143 54.3 222.409 54.3C222.743 54.3 222.909 54.5667 222.909 55.1C222.909 55.3667 222.809 55.6667 222.609 56C221.209 58.4667 219.709 60.8667 218.109 63.2C216.509 65.4667 214.609 67.3667 212.409 68.9C210.209 70.3667 207.543 71.1 204.409 71.1ZM225.974 70.7C224.308 70.7 222.808 70.2333 221.474 69.3C220.208 68.3 219.574 66.7 219.574 64.5C219.574 62.1667 220.141 59.6 221.274 56.8C222.408 54 223.474 51.5 224.474 49.3C225.008 48.2333 225.708 46.8 226.574 45C227.508 43.1333 228.508 41.3 229.574 39.5H224.874C224.674 39.5 224.574 39.3333 224.574 39C224.574 38.7333 224.674 38.4667 224.874 38.2C225.074 37.8667 225.308 37.7 225.574 37.7C227.441 37.7 228.841 37.5333 229.774 37.2C230.708 36.8667 231.508 36.4 232.174 35.8C233.241 34.8667 234.274 33.6667 235.274 32.2C236.341 30.7333 237.374 29.4667 238.374 28.4C239.108 27.4667 240.008 26.7667 241.074 26.3C242.208 25.8333 242.941 25.6667 243.274 25.8C242.941 26.2667 242.408 27.0667 241.674 28.2C240.941 29.3333 240.174 30.5667 239.374 31.9C238.574 33.2333 237.841 34.4667 237.174 35.6C236.508 36.7333 236.074 37.5 235.874 37.9H242.474C242.674 37.9 242.774 37.9667 242.774 38.1C242.774 38.3667 242.608 38.6667 242.274 39C242.008 39.3333 241.741 39.5 241.474 39.5H234.974C233.774 41.5667 232.341 44.2667 230.674 47.6C229.074 50.8667 227.641 54.0333 226.374 57.1C226.108 57.7 225.641 58.9 224.974 60.7C224.374 62.5 224.074 64.1667 224.074 65.7C224.074 66.7 224.274 67.5333 224.674 68.2C225.141 68.8667 225.908 69.2 226.974 69.2C228.108 69.2 229.341 68.8 230.674 68C232.008 67.1333 233.041 66.2667 233.774 65.4C235.308 63.7333 236.708 61.9 237.974 59.9C239.241 57.9 240.508 55.7667 241.774 53.5C241.974 53.2333 242.174 53.1 242.374 53.1C242.641 53.1 242.774 53.3 242.774 53.7C242.774 54.0333 242.708 54.3 242.574 54.5C241.374 56.7 240.074 58.9 238.674 61.1C237.341 63.3 235.708 65.3667 233.774 67.3C232.908 68.1667 231.741 68.9667 230.274 69.7C228.808 70.3667 227.374 70.7 225.974 70.7Z" fill="#B5943E"/>
</svg>
