<?xml version="1.0" encoding="utf-8"?>
<!-- Generator: Adobe Illustrator 16.0.0, SVG Export Plug-In . SVG Version: 6.00 Build 0)  -->
<!DOCTYPE svg PUBLIC "-//W3C//DTD SVG 1.1//EN" "http://www.w3.org/Graphics/SVG/1.1/DTD/svg11.dtd">
<svg version="1.1" id="レイヤー_1" xmlns="http://www.w3.org/2000/svg" xmlns:xlink="http://www.w3.org/1999/xlink" x="0px"
	 y="0px" width="450px" height="150px" viewBox="0 0 450 150" enable-background="new 0 0 450 150" xml:space="preserve">
<g>
	<g>
		<path fill="#FFFFFF" d="M164.15,139.447c-1.129-0.773-1.95-1.296-2.461-1.567c-0.199-0.094-0.303-0.209-0.313-0.345
			c-0.011-0.136,0.052-0.298,0.188-0.486c0.209-0.324,0.46-0.407,0.752-0.251c0.868,0.491,1.746,1.024,2.634,1.6
			c0.167,0.136,0.248,0.253,0.243,0.353s-0.07,0.248-0.196,0.447c-0.125,0.198-0.251,0.318-0.376,0.36
			S164.338,139.562,164.15,139.447z M167.176,142.427c2.331-1.349,4.149-2.995,5.456-4.938c0.345-0.533,0.679-0.522,1.003,0.031
			c0.167,0.292,0.162,0.574-0.016,0.847c-0.69,0.982-1.534,1.926-2.532,2.829c-0.998,0.904-2.083,1.701-3.253,2.392
			c-1.359,0.794-2.938,1.411-4.735,1.85c-0.188,0.042-0.34,0.029-0.455-0.039c-0.115-0.068-0.219-0.19-0.313-0.368
			c-0.282-0.512-0.146-0.82,0.408-0.925C164.432,143.696,165.911,143.138,167.176,142.427z M166.078,134.133
			c0.439,0.282,0.826,0.549,1.16,0.8c0.178,0.115,0.269,0.235,0.274,0.36s-0.055,0.277-0.18,0.455
			c-0.136,0.198-0.259,0.318-0.368,0.36c-0.11,0.042-0.264,0-0.463-0.126c-0.564-0.407-1.379-0.945-2.446-1.614
			c-0.324-0.188-0.366-0.476-0.125-0.862c0.23-0.335,0.486-0.418,0.769-0.251C164.792,133.308,165.252,133.6,166.078,134.133z
			 M171.346,135.669c-0.23-0.47-0.543-1.019-0.941-1.646c-0.188-0.262-0.115-0.466,0.22-0.612c0.24-0.114,0.418-0.078,0.533,0.11
			c0.543,0.847,0.898,1.427,1.066,1.74c0.157,0.282,0.079,0.491-0.235,0.627C171.696,136.014,171.482,135.941,171.346,135.669z
			 M173.447,134.901c-0.397-0.711-0.721-1.244-0.972-1.6c-0.22-0.303-0.152-0.522,0.204-0.658c0.24-0.095,0.423-0.058,0.549,0.109
			c0.292,0.418,0.659,0.993,1.098,1.725c0.146,0.272,0.068,0.481-0.235,0.627C173.797,135.23,173.583,135.162,173.447,134.901z"/>
		<path fill="#FFFFFF" d="M189.854,136.406c0.042,0,0.128-0.003,0.259-0.008c0.13-0.005,0.225-0.005,0.282,0
			c0.057,0.005,0.125,0.019,0.204,0.039c0.079,0.021,0.133,0.058,0.165,0.109c0.032,0.053,0.042,0.126,0.032,0.22v8.435
			c0.01,0.439-0.194,0.659-0.612,0.659c-0.397,0-0.59-0.204-0.58-0.611v-0.032h-6.35c-0.334,0-0.575,0.006-0.721,0.017
			c-0.209,0.01-0.355-0.029-0.439-0.118s-0.125-0.248-0.125-0.479c0-0.229,0.042-0.389,0.125-0.478s0.235-0.128,0.455-0.118
			c0.136,0.011,0.371,0.016,0.706,0.016h6.35v-2.79h-5.691c-0.408,0-0.695,0.005-0.862,0.016c-0.209,0.011-0.353-0.031-0.431-0.126
			c-0.079-0.094-0.118-0.251-0.118-0.47c0-0.22,0.039-0.371,0.118-0.455c0.078-0.083,0.222-0.12,0.431-0.109
			c0.334,0.021,0.617,0.031,0.847,0.031h5.707v-2.305c0-0.22-0.115-0.329-0.345-0.329h-5.487c-0.209,0-0.564,0.01-1.066,0.031
			c-0.209,0.011-0.353-0.029-0.431-0.118c-0.078-0.088-0.117-0.242-0.117-0.462s0.042-0.377,0.125-0.471s0.235-0.136,0.455-0.125
			c0.48,0.021,0.825,0.031,1.035,0.031H189.854z"/>
		<path fill="#FFFFFF" d="M200.513,137.849h4.735v-2.854c-1.003,0.094-2.388,0.162-4.155,0.204c-0.167,0-0.29-0.037-0.368-0.11
			c-0.079-0.073-0.139-0.193-0.18-0.36c-0.074-0.229-0.086-0.399-0.04-0.51c0.047-0.109,0.18-0.159,0.4-0.148
			c1.62,0.021,3.204-0.068,4.75-0.267c1.495-0.209,2.723-0.465,3.685-0.769c0.198-0.052,0.337-0.06,0.416-0.023
			c0.078,0.037,0.18,0.139,0.306,0.306c0.355,0.449,0.219,0.753-0.408,0.909c-0.972,0.241-2.012,0.444-3.12,0.611v3.011h4.343
			c0.251,0,0.444-0.005,0.58-0.016c0.45-0.031,0.674,0.172,0.674,0.611c0,0.229-0.05,0.392-0.149,0.486
			c-0.1,0.094-0.264,0.136-0.494,0.125c-0.125-0.01-0.319-0.016-0.58-0.016h-4.39c-0.084,1.391-0.4,2.593-0.949,3.606
			c-0.548,1.014-1.393,1.892-2.532,2.634c-0.366,0.229-0.69,0.24-0.972,0.031c-0.523-0.387-0.46-0.747,0.188-1.082
			c1.84-1.129,2.833-2.858,2.979-5.189h-4.688c-0.084,0-0.214,0.003-0.392,0.008c-0.178,0.006-0.309,0.008-0.392,0.008
			c-0.219,0.011-0.376-0.034-0.47-0.133c-0.094-0.1-0.141-0.259-0.141-0.479c0-0.439,0.214-0.643,0.643-0.611
			c0.083,0,0.204,0.003,0.361,0.008S200.43,137.849,200.513,137.849z"/>
		<path fill="#FFFFFF" d="M229.145,136.688h-4.406c-0.262,2.049-0.748,3.729-1.458,5.04c-0.711,1.312-1.688,2.428-2.932,3.348
			c-0.292,0.209-0.591,0.193-0.894-0.047c-0.46-0.366-0.45-0.7,0.031-1.004c0.334-0.229,0.632-0.47,0.894-0.721
			c1.693-1.537,2.733-3.742,3.12-6.616h-2.649c-0.512,0-0.894,0.005-1.145,0.016c-0.241,0.011-0.413-0.031-0.518-0.126
			c-0.104-0.094-0.157-0.256-0.157-0.485c0-0.449,0.23-0.653,0.69-0.611c0.501,0.021,0.873,0.031,1.113,0.031h2.775
			c0.042-0.669,0.062-1.207,0.062-1.615c0-0.188-0.005-0.334-0.016-0.438c-0.062-0.575,0.151-0.862,0.643-0.862
			c0.501,0,0.726,0.271,0.674,0.814c-0.021,0.23-0.031,0.388-0.031,0.471c-0.011,0.418-0.037,0.962-0.078,1.631h3.747
			c0.105,0,0.246-0.006,0.424-0.016c0.178-0.011,0.309-0.016,0.393-0.016c0.082,0,0.188,0.016,0.312,0.047s0.246,0.078,0.361,0.141
			c0.25,0.136,0.359,0.361,0.328,0.675c-0.01,0.073-0.016,0.172-0.016,0.298c-0.166,4.065-0.486,6.601-0.955,7.604
			c-0.283,0.627-0.848,0.94-1.693,0.94c-0.418,0-1.067-0.021-1.945-0.062c-0.387-0.011-0.601-0.209-0.643-0.596
			c-0.032-0.251,0.013-0.429,0.133-0.533c0.12-0.104,0.311-0.146,0.572-0.125c0.627,0.052,1.144,0.078,1.552,0.078
			c0.461,0,0.764-0.167,0.91-0.502c0.26-0.533,0.459-1.513,0.596-2.939C229.076,139.079,229.145,137.807,229.145,136.688z"/>
		<path fill="#FFFFFF" d="M241.057,139.447c-1.129-0.773-1.949-1.296-2.462-1.567c-0.198-0.094-0.303-0.209-0.313-0.345
			c-0.01-0.136,0.053-0.298,0.188-0.486c0.209-0.324,0.46-0.407,0.753-0.251c0.867,0.491,1.745,1.024,2.634,1.6
			c0.167,0.136,0.248,0.253,0.243,0.353c-0.006,0.1-0.071,0.248-0.196,0.447c-0.126,0.198-0.251,0.318-0.376,0.36
			C241.401,139.6,241.245,139.562,241.057,139.447z M244.083,142.427c2.33-1.349,4.148-2.995,5.455-4.938
			c0.346-0.533,0.68-0.522,1.004,0.031c0.167,0.292,0.162,0.574-0.016,0.847c-0.689,0.982-1.534,1.926-2.532,2.829
			c-0.998,0.904-2.083,1.701-3.253,2.392c-1.359,0.794-2.938,1.411-4.735,1.85c-0.188,0.042-0.34,0.029-0.454-0.039
			c-0.115-0.068-0.22-0.19-0.313-0.368c-0.282-0.512-0.146-0.82,0.407-0.925C241.339,143.696,242.817,143.138,244.083,142.427z
			 M242.985,134.133c0.438,0.282,0.825,0.549,1.16,0.8c0.178,0.115,0.269,0.235,0.274,0.36c0.005,0.125-0.056,0.277-0.181,0.455
			c-0.136,0.198-0.259,0.318-0.368,0.36c-0.11,0.042-0.265,0-0.463-0.126c-0.564-0.407-1.38-0.945-2.445-1.614
			c-0.324-0.188-0.366-0.476-0.126-0.862c0.23-0.335,0.486-0.418,0.769-0.251C241.699,133.308,242.159,133.6,242.985,134.133z
			 M248.253,135.669c-0.23-0.47-0.544-1.019-0.94-1.646c-0.188-0.262-0.115-0.466,0.22-0.612c0.24-0.114,0.417-0.078,0.532,0.11
			c0.544,0.847,0.899,1.427,1.066,1.74c0.157,0.282,0.078,0.491-0.235,0.627C248.603,136.014,248.389,135.941,248.253,135.669z
			 M250.354,134.901c-0.397-0.711-0.721-1.244-0.972-1.6c-0.22-0.303-0.151-0.522,0.204-0.658c0.24-0.095,0.423-0.058,0.549,0.109
			c0.292,0.418,0.658,0.993,1.097,1.725c0.146,0.272,0.068,0.481-0.234,0.627C250.704,135.23,250.489,135.162,250.354,134.901z"/>
		<path fill="#FFFFFF" d="M268.351,145.045h-9.438c-0.471,0.031-0.706-0.173-0.706-0.611c0-0.439,0.235-0.643,0.706-0.611
			c0.094,0.01,0.234,0.016,0.423,0.016h3.622v-5.77h-3.277c-0.47,0.031-0.705-0.162-0.705-0.58c0-0.439,0.24-0.633,0.721-0.58h7.589
			c0.219,0,0.381-0.006,0.485-0.016c0.429-0.032,0.644,0.162,0.644,0.58c0,0.429-0.22,0.632-0.659,0.611
			c-0.104-0.011-0.261-0.016-0.47-0.016h-3.058v5.77h3.81c0.167,0,0.293-0.006,0.377-0.016c0.449-0.031,0.674,0.172,0.674,0.611
			C269.088,144.872,268.842,145.076,268.351,145.045z"/>
		<path fill="#FFFFFF" d="M280.965,134.353c0,3.261-0.157,5.492-0.471,6.694c-0.46,1.558-1.254,2.869-2.383,3.936
			c-0.282,0.251-0.58,0.271-0.894,0.062c-0.481-0.313-0.492-0.658-0.031-1.035c0.95-0.888,1.635-1.996,2.054-3.323
			c0.323-0.993,0.485-3.1,0.485-6.318c0-0.178-0.005-0.304-0.016-0.377c-0.031-0.271,0-0.467,0.095-0.588
			c0.094-0.12,0.276-0.18,0.549-0.18c0.261,0,0.436,0.05,0.524,0.148c0.089,0.1,0.123,0.28,0.103,0.541
			C280.97,133.997,280.965,134.144,280.965,134.353z M283.818,143.774v-9.422c0-0.198-0.011-0.402-0.031-0.611
			c-0.021-0.23,0.016-0.382,0.109-0.455s0.271-0.109,0.533-0.109c0.271,0,0.46,0.041,0.564,0.125s0.151,0.251,0.141,0.502
			c-0.011,0.104-0.016,0.287-0.016,0.549v9.077c0.658-0.292,1.354-0.721,2.085-1.285s1.385-1.191,1.96-1.882
			c0.355-0.491,0.685-0.507,0.988-0.047c0.188,0.272,0.178,0.544-0.031,0.815c-0.648,0.794-1.425,1.539-2.329,2.234
			c-0.903,0.695-1.806,1.268-2.704,1.717c-0.22,0.125-0.34,0.193-0.36,0.203c-0.136,0.115-0.272,0.11-0.408-0.016l-0.234-0.203
			c-0.241-0.199-0.34-0.46-0.298-0.784C283.808,144.016,283.818,143.88,283.818,143.774z"/>
	</g>
	<g>
		<path fill="#FFFFFF" d="M29.667,26.589c-0.496,0-0.729-0.35-0.729-0.699c0-0.378,0.233-0.728,0.729-0.728h12.176
			c1.66-3.641,3.408-9.379,3.991-12.351c0.087-0.408,0.437-0.612,0.787-0.612c0.466,0,0.961,0.32,0.961,0.845
			c0,0.553-2.185,7.981-4.194,12.118h9.525c0.466,0,0.699,0.35,0.699,0.728c0,0.35-0.233,0.699-0.699,0.699H29.667z M31.356,10.481
			c-0.466,0-0.729-0.378-0.729-0.728c0-0.379,0.262-0.729,0.729-0.729l9.088,0.029l-0.029-4.661c0-0.524,0.437-0.757,0.845-0.757
			c0.437,0,0.845,0.233,0.845,0.757l-0.029,4.661l9.059-0.029c0.495,0,0.729,0.379,0.729,0.729c0,0.378-0.233,0.728-0.729,0.728
			H31.356z M37.59,21.899c-0.495-2.68-1.602-5.884-2.854-8.36c-0.059-0.117-0.087-0.233-0.087-0.35c0-0.408,0.408-0.67,0.815-0.67
			c0.32,0,0.612,0.146,0.757,0.466c1.631,3.467,3.059,8.186,3.059,8.71c0,0.583-0.466,0.961-0.903,0.961
			C38.027,22.657,37.677,22.424,37.59,21.899z"/>
		<path fill="#FFFFFF" d="M68.333,27.609l0.35-15.788c-3,4.253-3.816,4.37-4.078,4.37c-0.408,0-0.757-0.35-0.757-0.729
			c0-0.175,0.087-0.378,0.262-0.553c2.913-2.796,5.68-6.787,7.079-11.069c0.116-0.378,0.408-0.524,0.699-0.524
			c0.437,0,0.903,0.349,0.903,0.786c0,0.379-1.049,2.796-2.593,5.389l-0.32,18.089c-0.029,0.495-0.408,0.729-0.815,0.729
			c-0.379,0-0.729-0.204-0.729-0.67V27.609z M79.518,21.637l-3.379,0.029c-0.466,0-0.699-0.32-0.699-0.641
			c0-0.35,0.233-0.699,0.699-0.699l3.379,0.029v-1.194l0.117-7.021c-1.806,3.816-4.224,7.137-7.486,10.137
			c-0.175,0.175-0.378,0.233-0.583,0.233c-0.408,0-0.787-0.35-0.787-0.757c0-0.204,0.087-0.437,0.321-0.612
			c3.32-2.796,5.913-5.942,7.894-10.37l-6.292,0.087c-0.496,0-0.729-0.35-0.729-0.699s0.233-0.699,0.699-0.699h6.845v-5.68
			c0-0.466,0.379-0.67,0.757-0.67c0.379,0,0.757,0.204,0.757,0.67v5.68h7.457c0.466,0,0.699,0.35,0.699,0.729
			c0,0.32-0.233,0.67-0.67,0.67l-7.107-0.087c2.243,4.282,5.476,7.428,8.535,9.758c0.233,0.175,0.32,0.379,0.32,0.612
			c0,0.437-0.378,0.845-0.845,0.845c-0.175,0-0.378-0.058-0.583-0.233c-2.709-2.214-5.855-5.709-7.923-9.496l0.087,6.875v1.224
			l3.466-0.029c0.466,0,0.67,0.32,0.67,0.67c0,0.32-0.204,0.67-0.67,0.67l-3.466-0.029v5.914c0,0.437-0.379,0.67-0.729,0.67
			c-0.378,0-0.757-0.233-0.757-0.67V21.637z"/>
		<path fill="#FFFFFF" d="M115.323,16.511l-3.962-0.058l-0.087,0.058c-0.786,0.757-1.602,1.457-2.417,2.097v5.04
			c1.252-0.437,2.447-0.874,3.175-1.194c0.087-0.029,0.175-0.059,0.233-0.059c0.35,0,0.583,0.321,0.583,0.641
			c0,0.233-0.087,0.437-0.379,0.583c-3.059,1.486-7.806,2.796-7.923,2.796c-0.466,0-0.699-0.379-0.699-0.728
			c0-0.292,0.175-0.583,0.554-0.67c0.786-0.175,1.922-0.524,3.117-0.903v-4.544c-1.748,1.194-3.67,2.185-4.049,2.185
			c-0.408,0-0.67-0.32-0.67-0.67c0-0.233,0.146-0.466,0.408-0.583c2.01-0.874,4.34-2.156,6.408-4.078l-5.156,0.087h-0.029
			c-0.437,0-0.67-0.32-0.67-0.641c0-0.32,0.233-0.67,0.699-0.67l4.923,0.029l-0.029-1.777c0-0.466,0.379-0.67,0.757-0.67
			c0.35,0,0.729,0.204,0.729,0.67l-0.029,1.777l4.515-0.029c0.466,0,0.67,0.321,0.67,0.67c0,0.321-0.204,0.641-0.641,0.641H115.323z
			 M119.081,11.85c0.204,2.942,0.67,5.884,1.544,8.506c1.34-1.777,2.331-3.787,3-5.855c0.116-0.35,0.378-0.496,0.67-0.496
			c0.437,0,0.903,0.321,0.903,0.787c0,0.408-1.136,3.67-3.991,7.079c0.379,0.874,1.923,4.078,3.321,4.078
			c0.787,0,1.398-0.961,1.748-2.913c0.059-0.408,0.379-0.554,0.699-0.554c0.408,0,0.845,0.292,0.845,0.787
			c0,0.175-0.553,4.253-3.292,4.253c-0.845,0-2.592-0.437-4.428-4.428c-3.612,3.7-6.962,4.69-7.224,4.69
			c-0.496,0-0.845-0.379-0.845-0.757c0-0.292,0.175-0.583,0.611-0.729c2.738-1.02,5.04-2.622,6.875-4.631
			c-1.078-2.913-1.631-6.292-1.893-9.816l-13.924,0.029c-0.466,0-0.699-0.35-0.699-0.67c0-0.349,0.233-0.699,0.699-0.699h5.651
			l-0.029-2.913h-4.02c-0.495,0-0.699-0.291-0.699-0.612c0-0.32,0.233-0.67,0.699-0.67l4.02,0.029V3.869
			c0-0.437,0.378-0.67,0.728-0.67c0.378,0,0.757,0.233,0.757,0.67v2.476l3.729-0.029c0.437,0,0.67,0.32,0.67,0.641
			c0,0.32-0.233,0.641-0.67,0.641h-3.729v2.913l4.282,0.029h2.447c-0.117-2.185-0.146-4.457-0.175-6.67
			c0-0.466,0.408-0.728,0.786-0.728c0.379,0,0.757,0.233,0.757,0.786c0,0.67-0.029,1.369-0.029,2.068
			c0,1.457,0.029,2.971,0.116,4.515h7.632c0.466,0,0.699,0.35,0.699,0.67c0,0.35-0.233,0.699-0.699,0.699L119.081,11.85z
			 M116.284,22.832c0,0.437-0.349,0.757-0.728,0.757c-0.204,0-0.408-0.087-0.554-0.291c-0.961-1.34-2.243-2.476-3.787-3.321
			c-0.204-0.117-0.291-0.262-0.291-0.437c0-0.291,0.262-0.612,0.67-0.612c0.35,0,1.369,0.612,1.748,0.874
			c0.699-0.495,1.398-1.078,2.126-1.806c0.117-0.116,0.233-0.146,0.379-0.146c0.378,0,0.815,0.32,0.815,0.728
			c0,0.262-0.175,0.641-2.301,1.981C114.741,20.851,116.284,22.162,116.284,22.832z M124.237,8.267
			c-1.049-1.223-2.185-1.952-3.088-2.534c-0.204-0.146-0.292-0.32-0.292-0.466c0-0.35,0.35-0.67,0.757-0.67
			c0.524,0,3.962,2.185,3.962,3.146c0,0.437-0.35,0.816-0.757,0.816C124.615,8.559,124.411,8.471,124.237,8.267z"/>
		<path fill="#FFFFFF" d="M150.726,23.91c0.379,0,0.583,0.32,0.583,0.67s-0.204,0.699-0.612,0.699
			c-1.252,0.059-2.942,0.087-4.457,0.087c-0.845,0-1.631,0-2.272-0.029c-1.864-0.059-2.796-1.194-2.826-2.738
			c0-1.457-0.029-4.923-0.029-8.506c0-3.583,0.029-7.282,0.029-9.146c0-0.437,0.379-0.67,0.729-0.67c0.378,0,0.728,0.233,0.728,0.67
			c-0.029,1.428-0.029,4.253-0.029,7.282c0,4.107,0,8.535,0.029,10.021c0,1.777,1.165,1.777,3.612,1.777
			c1.457,0,3.059-0.029,4.486-0.116H150.726z M147.638,14.821c-1.019,2.068-2.155,4.078-3.408,5.563
			c-0.175,0.233-0.408,0.32-0.612,0.32c-0.408,0-0.728-0.32-0.728-0.67c0-0.175,0.058-0.32,0.204-0.495
			c1.311-1.427,3-3.845,4.166-6.379l-3.204,0.029c-0.408,0-0.612-0.32-0.612-0.641c0-0.292,0.204-0.612,0.612-0.612l3.554,0.029
			l-0.087-7.516c0-0.466,0.378-0.699,0.757-0.699c0.35,0,0.728,0.233,0.728,0.699l-0.058,7.516l3.175-0.029
			c0.408,0,0.611,0.32,0.611,0.612c0,0.32-0.204,0.641-0.611,0.641l-3.205-0.029v1.603c0,0.961,0.087,7.865,0.087,7.865
			c0,0.408-0.378,0.641-0.728,0.641c-0.379,0-0.757-0.233-0.757-0.641L147.638,14.821z M145.425,9.957
			c-0.408-1.136-1.253-2.447-1.602-2.913c-0.087-0.117-0.117-0.204-0.117-0.292c0-0.32,0.35-0.583,0.699-0.583
			c0.786,0,2.272,2.913,2.272,3.466c0,0.466-0.35,0.728-0.699,0.728C145.745,10.364,145.541,10.248,145.425,9.957z M151.6,18.229
			c-0.641-0.932-1.486-1.894-2.214-2.476c-0.146-0.117-0.175-0.233-0.175-0.379c0-0.291,0.262-0.583,0.612-0.583
			c0.612,0,3,2.331,3,2.971c0,0.408-0.35,0.757-0.728,0.757C151.92,18.521,151.746,18.433,151.6,18.229z M150.318,10.394
			c-0.32,0-0.641-0.291-0.641-0.583c0-0.117,0.029-0.204,0.087-0.292c0.466-0.728,1.224-2.126,1.631-3.087
			c0.117-0.262,0.32-0.379,0.524-0.379c0.379,0,0.787,0.321,0.787,0.699c0,0.437-1.107,2.331-1.894,3.379
			C150.668,10.306,150.493,10.394,150.318,10.394z M159.989,13.307h-4.282c-0.087,4.719-0.641,10.341-3.321,13.865
			c-0.204,0.262-0.466,0.379-0.728,0.379c-0.437,0-0.845-0.321-0.845-0.729c0-0.116,0.029-0.262,0.146-0.408
			c2.884-3.612,3.292-9.321,3.292-14.127c0-1.224-0.029-2.418-0.058-3.466V8.733c0-1.806,0.787-2.476,2.447-2.913
			c1.544-0.408,4.049-1.252,5.535-1.835c0.117-0.059,0.233-0.059,0.35-0.059c0.466,0,0.787,0.408,0.787,0.816
			c0,0.262-0.146,0.553-0.524,0.699c-1.457,0.553-4.195,1.369-5.535,1.689c-1.194,0.291-1.573,0.815-1.573,1.718v0.117
			c0,0.903,0.029,1.894,0.029,2.971h9.001c0.495,0,0.757,0.35,0.757,0.699c0,0.349-0.262,0.699-0.757,0.699l-3.175-0.029
			l0.029,14.127c0,0.466-0.408,0.67-0.787,0.67c-0.408,0-0.815-0.204-0.815-0.67L159.989,13.307z"/>
		<path fill="#FFFFFF" d="M186.884,12.607c-0.932,1.049-1.952,2.039-3,2.971c1.281-0.029,2.301-0.029,3.816-0.029
			c0.961,0,1.515,0.524,1.515,1.194c0,0.35-0.146,1.282-3.088,3.233c0.204,0.262,0.35,0.495,0.495,0.787
			c1.602-0.292,3.088-0.612,4.107-0.874c0.058,0,0.087-0.029,0.146-0.029c0.32,0,0.583,0.321,0.583,0.641
			c0,0.495-0.116,0.641-4.398,1.427c0.117,0.437,0.175,0.903,0.175,1.34c0,0.408-0.029,4.603-3.991,4.603
			c-1.427,0-2.272-0.262-2.272-0.903c0-0.35,0.292-0.699,0.728-0.699c0.059,0,0.117,0,0.204,0.029
			c0.495,0.117,0.961,0.204,1.427,0.204c1.515,0,2.476-0.932,2.476-3.175c0-0.378-0.058-0.757-0.146-1.136
			c-0.991,0.175-5.68,1.02-6.379,1.02c-0.466,0-0.699-0.32-0.699-0.67c0-0.292,0.204-0.612,0.641-0.641
			c1.602-0.175,3.845-0.495,6-0.874c-0.379-0.67-0.991-1.224-1.806-1.544c-0.262-0.087-0.378-0.262-0.378-0.437
			c0-0.292,0.32-0.583,0.757-0.583c0.641,0,1.515,0.699,1.515,0.699c0.262-0.175,2.243-1.631,2.243-2.185
			c0-0.175-0.175-0.291-0.495-0.291c-1.573,0-2.505,0-4.603,0.058c-1.806,1.369-3.466,2.418-3.845,2.418
			c-0.408,0-0.729-0.379-0.729-0.729c0-0.233,0.117-0.466,0.408-0.612c2.563-1.369,4.894-3.146,6.874-5.214l-6.641,0.058
			c-0.437,0-0.67-0.32-0.67-0.67c0-0.32,0.233-0.641,0.67-0.641l5.126,0.029l-0.029-3.175h-3.787c-0.437,0-0.67-0.32-0.67-0.641
			c0-0.291,0.233-0.611,0.67-0.611h3.787V3.694c0-0.466,0.35-0.67,0.699-0.67c0.379,0,0.757,0.233,0.757,0.67v3.263h2.768
			c0.408,0,0.612,0.32,0.612,0.641c0,0.292-0.204,0.612-0.612,0.612h-2.768l-0.029,3.175h1.223c1.602-1.922,2.942-4.049,3.933-6.379
			c0.117-0.292,0.379-0.408,0.612-0.408c0.408,0,0.815,0.32,0.815,0.728c0,0.35-1.544,3.321-3.699,6.059l2.389-0.029
			c0.466,0,0.699,0.32,0.699,0.641c0,0.35-0.233,0.67-0.699,0.67L186.884,12.607z M200.575,10.743
			c-0.262,3.991-1.282,7.574-3.233,10.603c1.398,1.922,3.35,3.554,5.942,4.777c0.32,0.146,0.466,0.408,0.466,0.699
			c0,0.437-0.378,0.903-0.874,0.903c-0.408,0-3.757-1.573-6.35-5.214c-2.854,3.787-6.729,5.505-7.166,5.505
			c-0.466,0-0.815-0.408-0.815-0.815c0-0.262,0.146-0.524,0.524-0.699c2.884-1.252,5.069-3.029,6.671-5.214
			c-1.573-2.68-2.389-5.651-2.709-8.448c-1.224,2.331-1.689,2.826-2.185,2.826c-0.378,0-0.699-0.262-0.699-0.641
			c0-0.116,0.058-0.262,0.146-0.408c2.243-3.292,3.583-6.35,4.457-10.719c0.087-0.437,0.379-0.612,0.699-0.612
			c0.408,0,0.845,0.292,0.845,0.757c0,0.058,0,0.117-0.029,0.204c-0.466,1.806-1.02,3.524-1.66,5.156h8.04
			c0.466,0,0.699,0.35,0.699,0.67c0,0.35-0.233,0.699-0.699,0.699L200.575,10.743z M194.079,10.743
			c0.175,3.437,0.874,6.642,2.447,9.351c1.573-2.651,2.389-5.826,2.593-9.351H194.079z"/>
		<path fill="#FFFFFF" d="M217.303,27.201c-0.437,0-0.67-0.32-0.67-0.67s0.233-0.67,0.67-0.67h10.429v-3.67l-7.458,0.029
			c-0.466,0-0.699-0.321-0.699-0.67c0-0.32,0.233-0.67,0.699-0.67l7.458,0.029l-0.029-2.331c0-0.524,0.379-0.757,0.786-0.757
			c0.379,0,0.758,0.233,0.758,0.757v2.331l7.398-0.029c0.438,0,0.67,0.35,0.67,0.67c0,0.35-0.232,0.67-0.67,0.67l-7.398-0.029
			l-0.029,3.67h10.282c0.438,0,0.67,0.349,0.67,0.699c0,0.321-0.232,0.641-0.67,0.641H217.303z M237.897,9.403
			c-0.029-1.136-0.466-1.689-1.952-1.689c-2.155-0.029-4.923-0.029-7.66-0.029c-2.71,0-5.39,0-7.429,0.029
			c-1.515,0-1.894,0.67-1.922,1.631v2.505c0,0.466-0.408,0.699-0.787,0.699c-0.816,0-0.845-0.408-0.845-2.039
			c0-0.524,0.029-1.049,0.029-1.515c0.029-1.428,0.874-2.534,3.059-2.563c2.476-0.029,4.865-0.058,7.283-0.058V3.432
			c0-0.495,0.408-0.728,0.845-0.728c0.408,0,0.815,0.233,0.815,0.728l-0.028,2.942c2.388,0,4.748,0.029,7.224,0.058
			c1.951,0.029,3,1.194,3.029,2.592c0.029,0.35,0.029,0.874,0.029,1.369c0,1.573,0,2.097-0.874,2.097
			c-0.408,0-0.815-0.233-0.815-0.699V9.403z M227.003,11.996c-0.204,0.67-1.166,2.796-1.748,3.933
			c2.942-0.204,5.826-0.466,8.623-0.845c-0.67-0.495-1.369-0.932-2.011-1.282c-0.232-0.117-0.32-0.292-0.32-0.466
			c0-0.32,0.32-0.641,0.758-0.641c0.815,0,5.709,3.262,5.709,4.631c0,0.466-0.379,0.816-0.757,0.816
			c-0.233,0-0.495-0.117-0.699-0.408c-0.438-0.611-0.962-1.165-1.515-1.689c-7.282,1.224-14.74,1.631-15.672,1.631
			c-0.524,0-0.786-0.35-0.786-0.728c0-0.35,0.262-0.729,0.757-0.729c1.485-0.058,2.913-0.087,4.34-0.175
			c0.466-0.99,1.252-3.029,1.573-4.049l-3.933,0.029c-0.408,0-0.611-0.32-0.611-0.67c0-0.32,0.204-0.641,0.611-0.641h14.303
			c0.379,0,0.583,0.321,0.583,0.641c0,0.35-0.204,0.67-0.583,0.67L227.003,11.996z"/>
		<path fill="#FFFFFF" d="M257.561,15.404c0-1.282,1.02-2.272,2.301-2.272s2.301,0.99,2.301,2.272c0,1.311-1.02,2.33-2.301,2.33
			S257.561,16.714,257.561,15.404z"/>
		<path fill="#FFFFFF" d="M280.382,26.123c-0.35,0-0.699-0.233-0.699-0.611c0-0.117,0.029-0.233,0.088-0.35
			c0.757-1.398,1.398-3.961,1.485-5.651c0.029-0.408,0.32-0.612,0.641-0.612c0.35,0,0.699,0.262,0.699,0.728
			c0,1.165-0.728,4.69-1.485,6.059C280.936,26.007,280.674,26.123,280.382,26.123z M284.228,16.423
			c-1.457,0.233-3.525,0.524-3.903,0.524c-0.379,0-0.583-0.35-0.583-0.699c0-0.32,0.146-0.612,0.495-0.641
			c0.466-0.029,1.049-0.087,1.719-0.175c0.554-0.729,1.165-1.631,1.748-2.622c-0.699-1.078-2.797-2.971-3.467-3.554
			c-0.146-0.146-0.204-0.291-0.204-0.466c0-0.35,0.263-0.67,0.642-0.67c0.262,0,0.523,0.146,1.136,0.67
			c0.757-1.427,1.719-3.729,2.039-5.36c0.058-0.35,0.35-0.524,0.67-0.524c0.379,0,0.815,0.292,0.815,0.729
			c0,0.67-1.602,4.369-2.593,6.059c0.642,0.67,1.282,1.398,1.661,1.894c0.961-1.777,1.835-3.612,2.271-4.952
			c0.116-0.32,0.35-0.466,0.612-0.466c0.407,0,0.845,0.32,0.845,0.757c0,0.379-1.952,4.515-4.573,8.331
			c1.602-0.204,3.262-0.466,4.106-0.583c-0.407-0.641-0.874-1.224-1.281-1.631c-0.088-0.087-0.116-0.175-0.116-0.262
			c0-0.262,0.32-0.524,0.641-0.524c0.699,0,2.621,2.854,2.621,3.438c0,0.058-0.029,0.116-0.029,0.174
			c0.379,0,0.816,0.029,1.107,0.029c1.573,0.058,1.98,0.641,1.98,2.185c0,0.961-0.029,3.35-0.029,4.748
			c1.573,2.768,4.195,3.321,7.137,3.321c1.923,0,3.962-0.233,5.447-0.408h0.088c0.437,0,0.699,0.378,0.699,0.757
			c0,0.35-0.233,0.728-0.699,0.787c-1.224,0.175-3.088,0.35-4.981,0.35c-3.612,0-6.438-0.466-8.389-3.729
			c-1.864,2.534-3.176,3.583-3.612,3.583c-0.408,0-0.786-0.408-0.786-0.815c0-0.204,0.087-0.408,0.32-0.554
			c1.34-0.903,2.33-1.952,3.408-3.35c0.028-1.34,0.028-3.583,0.028-4.457c0-0.874-0.203-1.049-0.902-1.078h-1.369
			c-0.408,0-0.641-0.32-0.641-0.67c0-0.116,0.028-0.262,0.116-0.378l-0.088-0.204c-0.028-0.117-0.058-0.204-0.116-0.32
			c-0.437,0.117-1.456,0.32-2.65,0.524l0.058,11.214c0,0.554-0.378,0.816-0.757,0.816s-0.729-0.262-0.729-0.787L284.228,16.423z
			 M287.868,22.453c-0.146-1.194-0.466-2.097-0.99-3.088c-0.059-0.087-0.059-0.175-0.059-0.262c0-0.291,0.292-0.495,0.583-0.495
			c0.99,0,1.748,3.117,1.748,3.612c0,0.437-0.379,0.728-0.729,0.728C288.159,22.948,287.927,22.803,287.868,22.453z M290.636,9.52
			c-0.32-1.311-1.165-2.767-1.689-3.466c-0.088-0.116-0.117-0.204-0.117-0.32c0-0.32,0.379-0.553,0.758-0.553
			c0.874,0,2.505,3.146,2.505,4.02c0,0.524-0.437,0.845-0.845,0.845C290.985,10.044,290.723,9.898,290.636,9.52z M300.889,5.296
			h0.088c1.224,0,1.835,0.495,1.835,1.224c0,1.369-2.185,3.466-2.622,3.874c1.486,0.99,3.292,1.748,5.156,2.068
			c0.379,0.058,0.554,0.35,0.554,0.611c0,0.379-0.292,0.758-0.758,0.758c-0.379,0-3.146-0.496-5.942-2.593
			c-2.941,2.243-6.233,3.088-6.583,3.088c-0.437,0-0.67-0.321-0.67-0.641c0-0.262,0.146-0.524,0.495-0.612
			c2.214-0.524,4.194-1.485,5.768-2.65c-0.845-0.757-1.515-1.544-2.039-2.359c-0.729,0.932-2.185,2.505-2.796,2.505
			c-0.408,0-0.699-0.35-0.699-0.67c0-0.175,0.058-0.32,0.232-0.466c2.272-1.777,3.351-3.554,4.282-5.768
			c0.116-0.262,0.35-0.408,0.611-0.408c0.35,0,0.758,0.262,0.758,0.67c0,0.204-0.35,0.816-0.67,1.428L300.889,5.296z
			 M299.782,22.657v2.156c0,0.437-0.35,0.67-0.699,0.67c-0.379,0-0.729-0.233-0.729-0.67l0.029-2.156l-4.165,0.029
			c-0.408,0-0.612-0.292-0.612-0.583c0-0.32,0.204-0.612,0.612-0.612l4.165,0.029v-2.214h-3.029c-0.408,0-0.611-0.292-0.611-0.583
			c0-0.292,0.203-0.583,0.611-0.583l3.029,0.029v-1.922l-3.67,0.029c-0.408,0-0.642-0.292-0.642-0.612
			c0-0.292,0.233-0.583,0.642-0.583l3.67,0.029l0.029-1.456c0-0.437,0.35-0.67,0.699-0.67c0.32,0,0.641,0.204,0.641,0.67v1.456
			l3.845-0.029c0.408,0,0.612,0.291,0.612,0.583c0,0.32-0.204,0.612-0.612,0.612l-3.845-0.029v1.922l3-0.029
			c0.408,0,0.583,0.291,0.583,0.583c0,0.291-0.175,0.583-0.583,0.583l-3-0.029l0.029,2.243l4.398-0.029
			c0.407,0,0.582,0.292,0.582,0.583c0,0.32-0.175,0.612-0.582,0.612L299.782,22.657z M301.268,6.782c0-0.204-0.175-0.32-0.524-0.32
			h-0.087c-0.35,0-2.156,0-3.408,0.029l-0.35,0.554c0.554,0.932,1.34,1.835,2.271,2.592C300.656,8.296,301.268,6.985,301.268,6.782z
			"/>
		<path fill="#FFFFFF" d="M331.823,19.424c0.467,1.106,1.137,2.155,2.068,3.087c1.253-0.495,3.438-1.34,4.632-1.981
			c0.116-0.058,0.233-0.087,0.35-0.087c0.437,0,0.786,0.379,0.786,0.787c0,0.554-0.058,0.583-4.777,2.185
			c1.777,1.428,4.195,2.535,7.107,2.971c0.408,0.059,0.612,0.408,0.612,0.729c0,0.378-0.291,0.757-0.815,0.757
			c-1.165,0-8.826-1.689-11.244-8.389c-0.933,0.583-1.864,1.136-2.796,1.631v4.194c1.631-0.35,3.116-0.757,4.281-1.078
			c0.059-0.029,0.146-0.029,0.204-0.029c0.379,0,0.67,0.32,0.67,0.67c0,0.233-0.175,0.495-0.554,0.612
			c-6,1.719-10.719,2.505-11.186,2.505c-0.553,0-0.815-0.378-0.815-0.728s0.233-0.699,0.699-0.757
			c1.748-0.233,3.583-0.553,5.302-0.903v-3.816c-4.137,1.952-7.574,2.738-7.836,2.738c-0.495,0-0.786-0.408-0.786-0.786
			c0-0.262,0.175-0.524,0.524-0.612c3.611-0.816,6.961-1.922,10.078-3.67l-9.001,0.059c-0.437,0-0.641-0.321-0.641-0.641
			s0.204-0.641,0.641-0.641l10.225,0.029l-0.029-1.544c0-0.437,0.379-0.641,0.758-0.641c0.349,0,0.728,0.204,0.728,0.641v1.544
			l10.166-0.029c0.408,0,0.612,0.32,0.612,0.641s-0.204,0.641-0.612,0.641L331.823,19.424z M331.212,14.297
			c0,1.136-0.699,1.835-2.33,1.835c-1.369,0-1.864-0.204-1.864-0.67c0-0.32,0.232-0.612,0.554-0.612h0.058
			c0.379,0.059,0.815,0.146,1.194,0.146c0.874,0,1.02-0.292,1.02-1.515c0-1.311-0.175-1.34-3.903-1.34v3.962
			c0,0.466-0.35,0.728-0.699,0.728s-0.699-0.262-0.699-0.728v-3.962c-3.611,0-3.611,0.029-3.611,1.69c0,0.583,0,1.223,0.029,1.835
			v0.029c0,0.378-0.35,0.583-0.699,0.583c-0.758,0-0.758-0.379-0.758-1.981c0-2.942,0.059-3.204,5.039-3.204V9.491h-5.884
			c-0.407,0-0.611-0.292-0.611-0.612c0-0.292,0.204-0.583,0.611-0.583h5.884V6.228l-3.175,0.029
			c-1.136,1.457-1.485,1.602-1.748,1.602c-0.378,0-0.698-0.32-0.698-0.641c0-0.117,0.058-0.233,0.146-0.321
			c0.845-0.757,1.747-2.01,2.271-3.204c0.117-0.262,0.32-0.35,0.554-0.35c0.379,0,0.758,0.292,0.758,0.67
			c0,0.233-0.263,0.67-0.524,1.107h2.417V3.403c0-0.466,0.35-0.67,0.699-0.67s0.699,0.204,0.699,0.67v1.718l4.457-0.029
			c0.379,0,0.582,0.291,0.582,0.583c0,0.291-0.203,0.583-0.582,0.583l-4.457-0.029v2.068h5.972c0.408,0,0.611,0.291,0.611,0.583
			c0,0.32-0.203,0.612-0.611,0.612h-5.972v1.602c0.933,0,1.835,0,2.797,0.029c1.66,0.029,2.446,0.583,2.476,1.777V14.297z
			 M334.066,5.18c0-0.466,0.379-0.699,0.729-0.699c0.379,0,0.729,0.233,0.729,0.699V11.5c0,0.437-0.379,0.641-0.729,0.641
			c-0.379,0-0.729-0.204-0.729-0.641V5.18z M340.795,13.452c0,1.457-0.786,2.68-3.262,2.68c-1.689,0-2.622-0.233-2.622-0.932
			c0-0.378,0.263-0.757,0.729-0.757c0.059,0,0.146,0,0.204,0.029c0.67,0.146,1.252,0.262,1.747,0.262
			c1.02,0,1.632-0.408,1.661-1.486V4.131c0-0.495,0.378-0.757,0.757-0.757s0.758,0.262,0.758,0.757c0,1.894,0.028,6.321,0.028,7.02
			V13.452z"/>
		<path fill="#FFFFFF" d="M363.898,12.607c-0.933,1.049-1.952,2.039-3.001,2.971c1.282-0.029,2.302-0.029,3.816-0.029
			c0.961,0,1.515,0.524,1.515,1.194c0,0.35-0.146,1.282-3.088,3.233c0.204,0.262,0.35,0.495,0.495,0.787
			c1.603-0.292,3.088-0.612,4.107-0.874c0.059,0,0.087-0.029,0.146-0.029c0.32,0,0.583,0.321,0.583,0.641
			c0,0.495-0.117,0.641-4.398,1.427c0.116,0.437,0.175,0.903,0.175,1.34c0,0.408-0.029,4.603-3.991,4.603
			c-1.428,0-2.272-0.262-2.272-0.903c0-0.35,0.292-0.699,0.729-0.699c0.059,0,0.116,0,0.204,0.029
			c0.495,0.117,0.961,0.204,1.428,0.204c1.515,0,2.476-0.932,2.476-3.175c0-0.378-0.059-0.757-0.146-1.136
			c-0.99,0.175-5.681,1.02-6.38,1.02c-0.466,0-0.698-0.32-0.698-0.67c0-0.292,0.203-0.612,0.641-0.641
			c1.602-0.175,3.845-0.495,6-0.874c-0.378-0.67-0.99-1.224-1.806-1.544c-0.262-0.087-0.379-0.262-0.379-0.437
			c0-0.292,0.32-0.583,0.758-0.583c0.641,0,1.515,0.699,1.515,0.699c0.262-0.175,2.243-1.631,2.243-2.185
			c0-0.175-0.175-0.291-0.495-0.291c-1.573,0-2.506,0-4.603,0.058c-1.807,1.369-3.467,2.418-3.846,2.418
			c-0.407,0-0.728-0.379-0.728-0.729c0-0.233,0.116-0.466,0.407-0.612c2.563-1.369,4.894-3.146,6.875-5.214l-6.642,0.058
			c-0.438,0-0.67-0.32-0.67-0.67c0-0.32,0.232-0.641,0.67-0.641l5.127,0.029l-0.029-3.175h-3.787c-0.437,0-0.67-0.32-0.67-0.641
			c0-0.291,0.233-0.611,0.67-0.611h3.787V3.694c0-0.466,0.35-0.67,0.699-0.67c0.378,0,0.757,0.233,0.757,0.67v3.263h2.768
			c0.408,0,0.611,0.32,0.611,0.641c0,0.292-0.203,0.612-0.611,0.612h-2.768l-0.029,3.175h1.224c1.603-1.922,2.942-4.049,3.933-6.379
			c0.116-0.292,0.379-0.408,0.611-0.408c0.408,0,0.816,0.32,0.816,0.728c0,0.35-1.544,3.321-3.7,6.059l2.389-0.029
			c0.467,0,0.699,0.32,0.699,0.641c0,0.35-0.232,0.67-0.699,0.67L363.898,12.607z M377.589,10.743
			c-0.263,3.991-1.282,7.574-3.233,10.603c1.398,1.922,3.35,3.554,5.942,4.777c0.32,0.146,0.466,0.408,0.466,0.699
			c0,0.437-0.379,0.903-0.874,0.903c-0.407,0-3.758-1.573-6.35-5.214c-2.854,3.787-6.729,5.505-7.166,5.505
			c-0.466,0-0.815-0.408-0.815-0.815c0-0.262,0.146-0.524,0.524-0.699c2.884-1.252,5.068-3.029,6.67-5.214
			c-1.572-2.68-2.389-5.651-2.709-8.448c-1.223,2.331-1.689,2.826-2.185,2.826c-0.379,0-0.699-0.262-0.699-0.641
			c0-0.116,0.059-0.262,0.146-0.408c2.243-3.292,3.583-6.35,4.457-10.719c0.088-0.437,0.379-0.612,0.699-0.612
			c0.408,0,0.845,0.292,0.845,0.757c0,0.058,0,0.117-0.029,0.204c-0.466,1.806-1.02,3.524-1.66,5.156h8.04
			c0.466,0,0.698,0.35,0.698,0.67c0,0.35-0.232,0.699-0.698,0.699L377.589,10.743z M371.093,10.743
			c0.175,3.437,0.874,6.642,2.447,9.351c1.572-2.651,2.389-5.826,2.592-9.351H371.093z"/>
		<path fill="#FFFFFF" d="M394.317,27.201c-0.438,0-0.67-0.32-0.67-0.67s0.232-0.67,0.67-0.67h10.428v-3.67l-7.457,0.029
			c-0.466,0-0.699-0.321-0.699-0.67c0-0.32,0.233-0.67,0.699-0.67l7.457,0.029l-0.028-2.331c0-0.524,0.378-0.757,0.786-0.757
			c0.379,0,0.757,0.233,0.757,0.757v2.331l7.399-0.029c0.437,0,0.67,0.35,0.67,0.67c0,0.35-0.233,0.67-0.67,0.67l-7.399-0.029
			l-0.028,3.67h10.282c0.437,0,0.67,0.349,0.67,0.699c0,0.321-0.233,0.641-0.67,0.641H394.317z M414.911,9.403
			c-0.028-1.136-0.466-1.689-1.951-1.689c-2.155-0.029-4.923-0.029-7.661-0.029c-2.709,0-5.389,0-7.428,0.029
			c-1.515,0-1.894,0.67-1.923,1.631v2.505c0,0.466-0.407,0.699-0.786,0.699c-0.815,0-0.845-0.408-0.845-2.039
			c0-0.524,0.029-1.049,0.029-1.515c0.029-1.428,0.874-2.534,3.059-2.563c2.476-0.029,4.864-0.058,7.282-0.058V3.432
			c0-0.495,0.407-0.728,0.845-0.728c0.407,0,0.815,0.233,0.815,0.728l-0.029,2.942c2.389,0,4.748,0.029,7.224,0.058
			c1.952,0.029,3.001,1.194,3.03,2.592c0.028,0.35,0.028,0.874,0.028,1.369c0,1.573,0,2.097-0.873,2.097
			c-0.408,0-0.816-0.233-0.816-0.699V9.403z M404.018,11.996c-0.204,0.67-1.165,2.796-1.748,3.933
			c2.942-0.204,5.826-0.466,8.622-0.845c-0.67-0.495-1.369-0.932-2.01-1.282c-0.233-0.117-0.32-0.292-0.32-0.466
			c0-0.32,0.32-0.641,0.757-0.641c0.816,0,5.71,3.262,5.71,4.631c0,0.466-0.379,0.816-0.758,0.816c-0.232,0-0.495-0.117-0.699-0.408
			c-0.437-0.611-0.961-1.165-1.515-1.689c-7.282,1.224-14.739,1.631-15.671,1.631c-0.524,0-0.787-0.35-0.787-0.728
			c0-0.35,0.263-0.729,0.758-0.729c1.485-0.058,2.913-0.087,4.34-0.175c0.466-0.99,1.253-3.029,1.573-4.049l-3.933,0.029
			c-0.407,0-0.611-0.32-0.611-0.67c0-0.32,0.204-0.641,0.611-0.641h14.303c0.379,0,0.582,0.321,0.582,0.641
			c0,0.35-0.203,0.67-0.582,0.67L404.018,11.996z"/>
	</g>
	<g>
		<path fill="#FFFFFF" d="M22.5,59.239c-0.137,6.167-0.137,13.5-0.137,20.559c0,5.756,0,11.307,0.069,15.762v0.205
			c0,7.881-5.551,11.787-12.609,11.787c-1.918,0-4.043-0.274-6.099-0.892c-1.302-0.342-1.919-1.438-1.919-2.398
			c0-1.165,0.754-2.192,2.193-2.192c0.411,0,0.754,0.068,1.233,0.205c1.782,0.617,3.563,0.96,5.14,0.96
			c4.386,0,7.606-2.398,7.675-7.812c0.068-4.111,0.068-9.045,0.068-14.254c0-7.333-0.068-15.145-0.206-21.792v-0.069
			c0-1.439,1.165-2.193,2.33-2.193S22.5,57.8,22.5,59.171V59.239z"/>
		<path fill="#FFFFFF" d="M37.029,82.265c0-14.871,10.622-25.629,24.875-25.629c14.254,0,24.875,10.759,24.875,25.629
			c0,15.419-10.622,25.492-24.875,25.492C47.651,107.757,37.029,97.684,37.029,82.265z M82.326,82.265
			c0-13.089-9.114-21.792-20.421-21.792c-11.307,0-20.421,8.703-20.421,21.792c0,13.021,9.114,21.586,20.421,21.586
			C73.211,103.851,82.326,95.285,82.326,82.265z"/>
		<path fill="#FFFFFF" d="M122.28,107.688c-15.898,0-24.533-12.267-24.533-25.081c0-12.747,8.498-25.835,24.944-25.835
			c10.485,0,17.269,6.167,17.269,8.634c0,1.302-1.028,2.261-2.262,2.261c-0.617,0-1.37-0.274-1.918-1.028
			c-3.221-4.043-8.292-5.962-13.432-5.962c-13.5,0-20.147,11.924-20.147,21.655c0,10.143,6.579,20.97,19.941,20.97
			c6.167,0,12.267-2.467,15.625-6.99c0.548-0.822,1.302-1.096,1.987-1.096c1.302,0,2.535,1.096,2.535,2.467
			C142.29,100.219,134.341,107.688,122.28,107.688z"/>
		<path fill="#FFFFFF" d="M193.957,105.222c0,1.302-1.097,1.987-2.193,1.987c-1.165,0-2.262-0.686-2.262-1.987v-0.068
			c0.069-3.427,0.069-7.059,0.069-10.348c0-4.454,0-8.224-0.069-10.005c0-1.371-0.548-1.646-1.233-1.646
			c-2.604-0.068-8.223-0.137-13.774-0.137s-11.033,0.068-13.568,0.137c-0.891,0-1.508,0.069-1.508,1.371
			c-0.068,1.851-0.137,6.099-0.137,11.033c0,3.015,0,6.304,0.137,9.594v0.068c0,1.37-1.096,2.056-2.193,2.056
			c-1.096,0-2.193-0.686-2.193-2.056v-0.068c0.137-7.538,0.206-16.858,0.206-25.63c0-7.606-0.068-14.802-0.206-20.079v-0.068
			c0-1.371,1.097-2.125,2.193-2.125c1.097,0,2.193,0.754,2.193,2.125v0.068c-0.068,2.878-0.137,5.825-0.137,8.566
			c0,4.18,0.068,7.812,0.137,9.595c0,1.233,0.548,1.438,1.234,1.507c1.713,0.069,7.401,0.138,13.294,0.138
			c5.962,0,12.061-0.068,14.528-0.138c0.891,0,1.028-0.616,1.028-1.438c0.069-1.646,0.137-5.346,0.137-9.595
			c0-2.741-0.068-5.756-0.137-8.634v-0.068c0-1.439,1.097-2.125,2.193-2.125c1.165,0,2.262,0.754,2.262,2.125v0.068
			c-0.069,5.825-0.137,14.596-0.137,23.231s0.068,17.132,0.137,22.478V105.222z"/>
		<path fill="#FFFFFF" d="M218.562,105.016c0,1.439-1.165,2.125-2.33,2.125c-1.096,0-2.261-0.686-2.261-2.125v-0.068
			c0.137-7.675,0.206-16.172,0.206-24.464c0-7.402-0.068-14.666-0.206-21.039v-0.068c0-1.508,1.165-2.262,2.33-2.262
			c1.096,0,2.261,0.754,2.261,2.125v0.068c-0.068,6.647-0.137,14.185-0.137,21.998c0,7.812,0.069,15.898,0.137,23.642V105.016z"/>
		<path fill="#FFFFFF" d="M257.829,107.688c-15.898,0-24.532-12.267-24.532-25.081c0-12.747,8.497-25.835,24.943-25.835
			c10.484,0,17.269,6.167,17.269,8.634c0,1.302-1.027,2.261-2.261,2.261c-0.617,0-1.371-0.274-1.919-1.028
			c-3.221-4.043-8.292-5.962-13.432-5.962c-13.5,0-20.146,11.924-20.146,21.655c0,10.143,6.578,20.97,19.941,20.97
			c6.167,0,12.266-2.467,15.624-6.99c0.548-0.822,1.302-1.096,1.987-1.096c1.302,0,2.535,1.096,2.535,2.467
			C277.839,100.219,269.89,107.688,257.829,107.688z"/>
		<path fill="#FFFFFF" d="M326.072,107.209c-0.822,0-1.713-0.479-2.124-1.576c-0.822-1.987-3.427-9.046-5.551-15.351
			c-0.206-0.548-0.411-0.822-1.097-0.822c-1.097-0.068-4.386-0.068-7.881-0.068c-4.865,0-10.279,0-11.718,0.068
			c-0.617,0-0.891,0.411-1.028,0.822c-1.781,5.482-3.906,11.924-4.934,15.282c-0.343,1.165-1.302,1.645-2.193,1.645
			c-1.027,0-2.124-0.686-2.124-1.851c0-0.205,0.068-0.479,0.137-0.686c3.838-12.403,11.855-34.401,15.145-43.857
			c0.892-2.467,2.81-3.632,4.66-3.632c1.987,0,3.975,1.233,4.865,3.7c4.523,12.609,13.568,37.622,15.898,43.104
			c0.137,0.343,0.206,0.685,0.206,1.027C328.334,106.318,327.237,107.209,326.072,107.209z M316.479,84.663
			c-2.124-6.441-6.51-18.229-7.606-21.655c-0.343-1.028-0.822-1.508-1.371-1.508c-0.548,0-1.096,0.548-1.507,1.645
			c-1.439,3.906-7.538,21.518-7.538,22.066c0,0.273,0.205,0.411,0.754,0.411c1.37,0,5.07,0.068,8.634,0.068
			c3.632,0,7.127-0.068,8.155-0.068c0.479,0,0.616-0.138,0.616-0.343C316.615,85.074,316.547,84.869,316.479,84.663z"/>
		<path fill="#FFFFFF" d="M359.161,59.239c-0.138,6.167-0.138,13.5-0.138,20.559c0,5.756,0,11.307,0.068,15.762v0.205
			c0,7.881-5.551,11.787-12.608,11.787c-1.919,0-4.043-0.274-6.1-0.892c-1.302-0.342-1.918-1.438-1.918-2.398
			c0-1.165,0.753-2.192,2.192-2.192c0.411,0,0.754,0.068,1.233,0.205c1.782,0.617,3.563,0.96,5.14,0.96
			c4.386,0,7.606-2.398,7.675-7.812c0.069-4.111,0.069-9.045,0.069-14.254c0-7.333-0.069-15.145-0.206-21.792v-0.069
			c0-1.439,1.165-2.193,2.33-2.193s2.262,0.686,2.262,2.056V59.239z"/>
		<path fill="#FFFFFF" d="M403.712,107.141c-0.891,0.068-4.934,0.068-8.977,0.068c-3.975,0-8.018,0-8.908-0.068
			c-6.031-0.48-8.978-3.221-9.183-7.676c-0.138-2.878-0.138-7.812-0.138-13.226c0-8.154,0.068-17.201,0.206-21.518
			c0.137-4.454,2.878-7.126,7.949-7.401c1.302-0.068,5.14-0.137,8.908-0.137c3.838,0,7.538,0.068,8.565,0.137
			c1.439,0.069,2.193,1.028,2.193,1.987s-0.822,1.919-2.33,1.919c-0.343,0-6.853-0.068-11.718-0.068c-6.922,0-9.114,0-9.457,4.18
			c-0.137,1.645-0.068,7.401-0.137,11.444c0,1.303,0.685,1.303,1.37,1.303c1.371,0.068,4.865,0.068,8.36,0.068s7.059,0,8.429-0.068
			c2.125-0.068,2.33,1.508,2.33,1.987c0,1.027-0.822,2.124-2.33,2.124h-0.137c-2.124-0.137-5.962-0.137-9.525-0.137
			c-8.497,0-8.565,0-8.565,1.37c0,10.554,0,13.774,0.205,15.419c0.274,2.604,1.713,4.111,5.345,4.386
			c1.165,0.068,4.935,0.068,8.703,0.068c3.838,0,7.675,0,8.909-0.068h0.205c1.371,0,2.124,0.891,2.124,1.85
			C406.11,106.044,405.357,107.071,403.712,107.141z"/>
		<path fill="#FFFFFF" d="M445.495,106.798c-0.891,0.068-5.071,0.068-9.251,0.068c-4.111,0-8.292,0-9.183-0.068
			c-6.03-0.479-8.703-2.604-8.84-7.401c-0.068-1.508-0.068-3.7-0.068-6.373c0-9.662,0.273-25.081,0.273-32.002v-1.508
			c0-1.507,1.097-2.261,2.262-2.261s2.33,0.822,2.33,2.33v0.137c-0.206,4.317-0.411,18.64-0.411,28.714
			c0,4.865,0.068,8.703,0.137,10.005c0.274,4.043,1.851,4.317,12.609,4.317c4.18,0,8.703-0.069,10.073-0.138h0.205
			c1.439,0,2.262,1.028,2.262,2.056C447.894,105.701,447.14,106.729,445.495,106.798z"/>
	</g>
</g>
<g>
</g>
<g>
</g>
<g>
</g>
<g>
</g>
<g>
</g>
<g>
</g>
</svg>
