<?xml version="1.0" encoding="utf-8"?>
<!-- Generator: Adobe Illustrator 16.0.0, SVG Export Plug-In . SVG Version: 6.00 Build 0)  -->
<!DOCTYPE svg PUBLIC "-//W3C//DTD SVG 1.1//EN" "http://www.w3.org/Graphics/SVG/1.1/DTD/svg11.dtd">
<svg version="1.1" id="レイヤー_1" xmlns="http://www.w3.org/2000/svg" xmlns:xlink="http://www.w3.org/1999/xlink" x="0px"
	 y="0px" width="249.449px" height="70px" viewBox="0 0 249.449 70" enable-background="new 0 0 249.449 70" xml:space="preserve">
<rect fill="#FFFFFF" width="249.449" height="70.536"/>
<g>
	<g>
		<path fill="#B5943E" d="M34.975,24.385c-0.248,0-0.365-0.173-0.365-0.345c0-0.187,0.117-0.358,0.365-0.358h6.088
			c0.83-1.793,1.704-4.619,1.996-6.082c0.043-0.203,0.219-0.303,0.395-0.303c0.232,0,0.479,0.157,0.479,0.416
			c0,0.271-1.093,3.932-2.097,5.969h4.763c0.233,0,0.349,0.172,0.349,0.358c0,0.172-0.115,0.345-0.349,0.345H34.975z M35.819,16.451
			c-0.232,0-0.363-0.186-0.363-0.359c0-0.187,0.131-0.359,0.363-0.359l4.545,0.015l-0.015-2.295c0-0.259,0.218-0.373,0.423-0.373
			c0.217,0,0.422,0.114,0.422,0.373l-0.015,2.295l4.529-0.015c0.247,0,0.364,0.188,0.364,0.359c0,0.188-0.117,0.359-0.364,0.359
			H35.819z M38.936,22.074c-0.248-1.32-0.801-2.898-1.427-4.118c-0.028-0.058-0.043-0.115-0.043-0.172
			c0-0.201,0.204-0.33,0.408-0.33c0.159,0,0.306,0.071,0.378,0.229c0.814,1.707,1.529,4.031,1.529,4.289
			c0,0.287-0.233,0.475-0.451,0.475C39.155,22.447,38.981,22.332,38.936,22.074z"/>
		<path fill="#B5943E" d="M54.308,24.887l0.175-7.777c-1.5,2.096-1.908,2.152-2.039,2.152c-0.203,0-0.377-0.172-0.377-0.358
			c0-0.087,0.043-0.188,0.131-0.272c1.457-1.378,2.84-3.343,3.539-5.451c0.059-0.188,0.205-0.259,0.351-0.259
			c0.219,0,0.452,0.173,0.452,0.388c0,0.187-0.524,1.377-1.297,2.653l-0.16,8.909c-0.016,0.244-0.204,0.359-0.408,0.359
			c-0.189,0-0.364-0.101-0.364-0.33L54.308,24.887L54.308,24.887z M59.901,21.945l-1.689,0.014c-0.232,0-0.35-0.156-0.35-0.314
			c0-0.174,0.117-0.345,0.35-0.345l1.689,0.015v-0.588l0.059-3.459c-0.903,1.881-2.112,3.516-3.743,4.992
			c-0.087,0.088-0.188,0.115-0.292,0.115c-0.204,0-0.395-0.172-0.395-0.373c0-0.102,0.045-0.215,0.162-0.301
			c1.659-1.377,2.957-2.926,3.946-5.107l-3.146,0.043c-0.248,0-0.365-0.173-0.365-0.345s0.117-0.345,0.35-0.345h3.422V13.15
			c0-0.229,0.189-0.33,0.379-0.33c0.188,0,0.377,0.101,0.377,0.33v2.797h3.729c0.233,0,0.351,0.173,0.351,0.359
			c0,0.156-0.117,0.33-0.336,0.33l-3.553-0.043c1.121,2.108,2.738,3.658,4.268,4.805c0.117,0.088,0.16,0.188,0.16,0.303
			c0,0.215-0.189,0.416-0.423,0.416c-0.087,0-0.188-0.028-0.292-0.114c-1.354-1.091-2.928-2.812-3.961-4.678l0.043,3.387v0.603
			l1.733-0.014c0.233,0,0.335,0.158,0.335,0.33c0,0.158-0.102,0.33-0.335,0.33l-1.733-0.014v2.912c0,0.217-0.189,0.33-0.365,0.33
			c-0.188,0-0.377-0.113-0.377-0.33v-2.913L59.901,21.945L59.901,21.945z"/>
		<path fill="#B5943E" d="M77.803,19.42l-1.98-0.027L75.78,19.42c-0.394,0.373-0.801,0.719-1.209,1.033v2.482
			c0.627-0.217,1.225-0.432,1.588-0.588c0.043-0.016,0.088-0.029,0.117-0.029c0.174,0,0.291,0.158,0.291,0.314
			c0,0.115-0.043,0.215-0.188,0.287c-1.529,0.732-3.903,1.377-3.961,1.377c-0.233,0-0.351-0.188-0.351-0.357
			c0-0.145,0.088-0.287,0.277-0.33c0.393-0.086,0.961-0.258,1.559-0.444v-2.237c-0.873,0.588-1.834,1.075-2.023,1.075
			c-0.204,0-0.335-0.157-0.335-0.33c0-0.114,0.073-0.229,0.204-0.286c1.005-0.432,2.17-1.062,3.203-2.009l-2.577,0.042H72.36
			c-0.219,0-0.336-0.156-0.336-0.314s0.117-0.33,0.351-0.33l2.461,0.015l-0.015-0.875c0-0.229,0.188-0.33,0.377-0.33
			c0.176,0,0.365,0.101,0.365,0.33l-0.015,0.875l2.258-0.015c0.233,0,0.335,0.158,0.335,0.33c0,0.158-0.102,0.314-0.32,0.314H77.803
			L77.803,19.42z M79.682,17.125c0.102,1.448,0.335,2.896,0.771,4.189c0.671-0.875,1.166-1.866,1.5-2.885
			c0.059-0.173,0.189-0.244,0.336-0.244c0.218,0,0.451,0.158,0.451,0.388c0,0.2-0.568,1.808-1.996,3.487
			c0.189,0.431,0.962,2.008,1.66,2.008c0.395,0,0.699-0.473,0.875-1.436c0.029-0.201,0.188-0.273,0.35-0.273
			c0.204,0,0.422,0.145,0.422,0.389c0,0.086-0.275,2.096-1.646,2.096c-0.422,0-1.295-0.216-2.213-2.182
			c-1.807,1.822-3.481,2.311-3.613,2.311c-0.247,0-0.422-0.188-0.422-0.373c0-0.145,0.088-0.287,0.306-0.359
			c1.369-0.502,2.521-1.292,3.438-2.28c-0.539-1.435-0.815-3.099-0.947-4.835l-6.961,0.016c-0.233,0-0.351-0.174-0.351-0.33
			c0-0.172,0.116-0.346,0.351-0.346h2.824l-0.015-1.434h-2.01c-0.248,0-0.351-0.143-0.351-0.303c0-0.157,0.117-0.33,0.351-0.33
			l2.01,0.015v-1.22c0-0.215,0.188-0.329,0.364-0.329c0.189,0,0.378,0.114,0.378,0.329v1.22l1.864-0.015
			c0.219,0,0.336,0.158,0.336,0.315c0,0.158-0.117,0.316-0.336,0.316h-1.864v1.434l2.141,0.015h1.224
			c-0.059-1.075-0.072-2.194-0.088-3.285c0-0.229,0.205-0.357,0.394-0.357s0.378,0.115,0.378,0.387c0,0.33-0.014,0.674-0.014,1.02
			c0,0.717,0.014,1.463,0.058,2.223h3.815c0.233,0,0.35,0.174,0.35,0.331c0,0.173-0.116,0.345-0.35,0.345L79.682,17.125z
			 M78.284,22.533c0,0.215-0.174,0.373-0.363,0.373c-0.102,0-0.204-0.043-0.277-0.145c-0.48-0.66-1.121-1.219-1.894-1.635
			c-0.103-0.059-0.146-0.129-0.146-0.215c0-0.145,0.131-0.303,0.334-0.303c0.176,0,0.686,0.303,0.875,0.432
			c0.35-0.244,0.698-0.531,1.062-0.891c0.059-0.057,0.117-0.07,0.189-0.07c0.188,0,0.407,0.157,0.407,0.357
			c0,0.129-0.088,0.315-1.151,0.977C77.512,21.559,78.284,22.204,78.284,22.533z M82.26,15.359
			c-0.523-0.603-1.092-0.961-1.544-1.247c-0.103-0.072-0.146-0.158-0.146-0.229c0-0.173,0.174-0.33,0.377-0.33
			c0.263,0,1.981,1.076,1.981,1.549c0,0.215-0.175,0.402-0.379,0.402C82.45,15.504,82.347,15.461,82.26,15.359z"/>
		<path fill="#B5943E" d="M95.504,23.064c0.189,0,0.292,0.156,0.292,0.33c0,0.172-0.103,0.344-0.306,0.344
			c-0.627,0.029-1.471,0.043-2.229,0.043c-0.422,0-0.815,0-1.136-0.014c-0.932-0.029-1.398-0.588-1.413-1.35
			c0-0.718-0.015-2.425-0.015-4.189c0-1.764,0.015-3.586,0.015-4.504c0-0.215,0.188-0.33,0.364-0.33c0.189,0,0.365,0.115,0.365,0.33
			c-0.016,0.705-0.016,2.096-0.016,3.586c0,2.022,0,4.205,0.016,4.937c0,0.875,0.582,0.875,1.805,0.875
			c0.729,0,1.529-0.015,2.244-0.058H95.504L95.504,23.064z M93.96,18.588c-0.509,1.02-1.078,2.01-1.704,2.74
			c-0.087,0.115-0.204,0.158-0.307,0.158c-0.203,0-0.363-0.158-0.363-0.33c0-0.086,0.029-0.157,0.102-0.244
			c0.655-0.703,1.5-1.895,2.084-3.141l-1.603,0.014c-0.204,0-0.306-0.157-0.306-0.316c0-0.144,0.102-0.301,0.306-0.301l1.776,0.016
			l-0.043-3.703c0-0.229,0.189-0.344,0.379-0.344c0.174,0,0.363,0.114,0.363,0.344l-0.029,3.703l1.588-0.016
			c0.203,0,0.305,0.157,0.305,0.301c0,0.158-0.102,0.316-0.305,0.316L94.6,17.771v0.789c0,0.473,0.043,3.873,0.043,3.873
			c0,0.201-0.189,0.315-0.363,0.315c-0.189,0-0.379-0.114-0.379-0.315L93.96,18.588z M92.854,16.191
			c-0.203-0.56-0.626-1.204-0.801-1.435c-0.043-0.058-0.059-0.101-0.059-0.144c0-0.158,0.176-0.288,0.35-0.288
			c0.393,0,1.137,1.435,1.137,1.708c0,0.229-0.176,0.357-0.351,0.357C93.014,16.393,92.913,16.336,92.854,16.191z M95.942,20.268
			c-0.32-0.459-0.744-0.934-1.107-1.221c-0.073-0.058-0.088-0.113-0.088-0.188c0-0.144,0.132-0.286,0.307-0.286
			c0.307,0,1.5,1.147,1.5,1.463c0,0.201-0.175,0.373-0.363,0.373C96.102,20.41,96.015,20.367,95.942,20.268z M95.3,16.408
			c-0.16,0-0.319-0.143-0.319-0.288c0-0.058,0.014-0.101,0.043-0.144c0.232-0.358,0.611-1.047,0.814-1.521
			c0.059-0.129,0.16-0.187,0.262-0.187c0.189,0,0.395,0.158,0.395,0.345c0,0.215-0.555,1.147-0.947,1.664
			C95.476,16.364,95.388,16.408,95.3,16.408z M100.136,17.842h-2.142c-0.043,2.324-0.32,5.094-1.66,6.829
			c-0.102,0.129-0.233,0.187-0.364,0.187c-0.219,0-0.423-0.157-0.423-0.358c0-0.058,0.016-0.129,0.072-0.201
			c1.443-1.778,1.646-4.591,1.646-6.958c0-0.603-0.015-1.189-0.029-1.707V15.59c0-0.89,0.395-1.22,1.225-1.435
			c0.771-0.201,2.023-0.617,2.768-0.904c0.059-0.028,0.117-0.028,0.176-0.028c0.232,0,0.394,0.2,0.394,0.401
			c0,0.129-0.073,0.272-0.263,0.345c-0.729,0.271-2.098,0.674-2.768,0.831c-0.597,0.144-0.787,0.401-0.787,0.847v0.059
			c0,0.443,0.016,0.934,0.016,1.463h4.5c0.248,0,0.378,0.173,0.378,0.344c0,0.172-0.132,0.344-0.378,0.344l-1.588-0.014l0.015,6.957
			c0,0.229-0.204,0.33-0.394,0.33c-0.205,0-0.408-0.101-0.408-0.33L100.136,17.842z"/>
		<path fill="#B5943E" d="M113.583,17.497c-0.466,0.519-0.976,1.005-1.5,1.464c0.641-0.015,1.149-0.015,1.907-0.015
			c0.48,0,0.758,0.258,0.758,0.588c0,0.172-0.073,0.631-1.545,1.592c0.103,0.129,0.176,0.244,0.248,0.388
			c0.802-0.144,1.545-0.302,2.054-0.431c0.028,0,0.043-0.015,0.073-0.015c0.16,0,0.291,0.158,0.291,0.316
			c0,0.243-0.057,0.315-2.198,0.702c0.06,0.216,0.087,0.445,0.087,0.66c0,0.201-0.014,2.267-1.995,2.267
			c-0.714,0-1.136-0.129-1.136-0.445c0-0.172,0.146-0.344,0.363-0.344c0.029,0,0.059,0,0.103,0.015
			c0.248,0.058,0.479,0.101,0.714,0.101c0.758,0,1.238-0.459,1.238-1.562c0-0.187-0.029-0.373-0.073-0.561
			c-0.496,0.086-2.84,0.502-3.19,0.502c-0.232,0-0.349-0.156-0.349-0.33c0-0.144,0.103-0.301,0.32-0.315
			c0.801-0.086,1.922-0.243,3-0.431c-0.188-0.33-0.496-0.604-0.903-0.761c-0.131-0.043-0.189-0.129-0.189-0.216
			c0-0.145,0.16-0.287,0.379-0.287c0.32,0,0.757,0.346,0.757,0.346c0.131-0.086,1.122-0.804,1.122-1.076
			c0-0.086-0.087-0.145-0.248-0.145c-0.787,0-1.252,0-2.301,0.029c-0.903,0.674-1.733,1.191-1.924,1.191
			c-0.203,0-0.363-0.188-0.363-0.359c0-0.114,0.059-0.229,0.203-0.303c1.281-0.674,2.447-1.549,3.438-2.566l-3.32,0.029
			c-0.219,0-0.336-0.158-0.336-0.332c0-0.156,0.117-0.314,0.336-0.314l2.562,0.016l-0.014-1.564h-1.895
			c-0.219,0-0.335-0.158-0.335-0.316c0-0.143,0.116-0.301,0.335-0.301h1.895v-1.605c0-0.229,0.175-0.332,0.349-0.332
			c0.188,0,0.379,0.115,0.379,0.332v1.606h1.384c0.204,0,0.307,0.158,0.307,0.316c0,0.144-0.103,0.301-0.307,0.301h-1.384
			l-0.015,1.563h0.611c0.801-0.946,1.471-1.994,1.967-3.143c0.058-0.145,0.188-0.201,0.306-0.201c0.204,0,0.408,0.158,0.408,0.359
			c0,0.172-0.772,1.635-1.851,2.982l1.194-0.014c0.233,0,0.351,0.158,0.351,0.316c0,0.172-0.117,0.33-0.351,0.33L113.583,17.497z
			 M120.43,16.58c-0.131,1.965-0.643,3.73-1.617,5.223c0.699,0.945,1.673,1.75,2.97,2.353c0.16,0.071,0.232,0.2,0.232,0.344
			c0,0.215-0.189,0.444-0.438,0.444c-0.203,0-1.877-0.774-3.173-2.567c-1.428,1.865-3.364,2.712-3.584,2.712
			c-0.232,0-0.406-0.201-0.406-0.4c0-0.129,0.072-0.26,0.262-0.346c1.441-0.615,2.535-1.492,3.336-2.568
			c-0.787-1.319-1.195-2.782-1.355-4.16c-0.611,1.148-0.844,1.392-1.092,1.392c-0.188,0-0.35-0.129-0.35-0.315
			c0-0.057,0.029-0.129,0.072-0.2c1.123-1.622,1.793-3.127,2.229-5.28c0.043-0.215,0.188-0.301,0.351-0.301
			c0.203,0,0.422,0.145,0.422,0.373c0,0.029,0,0.058-0.016,0.101c-0.232,0.89-0.51,1.736-0.83,2.539h4.021
			c0.232,0,0.35,0.173,0.35,0.331c0,0.172-0.117,0.344-0.35,0.344L120.43,16.58z M117.181,16.58
			c0.087,1.693,0.437,3.271,1.224,4.605c0.787-1.307,1.195-2.869,1.296-4.605H117.181z"/>
		<path fill="#B5943E" d="M128.793,24.686c-0.219,0-0.334-0.158-0.334-0.33c0-0.174,0.115-0.33,0.334-0.33h5.215v-1.809l-3.73,0.014
			c-0.232,0-0.348-0.157-0.348-0.33c0-0.157,0.115-0.329,0.348-0.329l3.73,0.015l-0.016-1.148c0-0.258,0.189-0.373,0.393-0.373
			c0.189,0,0.381,0.115,0.381,0.373v1.148l3.697-0.015c0.221,0,0.336,0.172,0.336,0.329c0,0.173-0.115,0.33-0.336,0.33l-3.697-0.014
			l-0.016,1.809h5.141c0.219,0,0.336,0.172,0.336,0.344c0,0.158-0.117,0.316-0.336,0.316H128.793z M139.09,15.919
			c-0.016-0.56-0.232-0.832-0.977-0.832c-1.078-0.015-2.461-0.015-3.83-0.015c-1.354,0-2.695,0-3.715,0.015
			c-0.756,0-0.947,0.33-0.961,0.804v1.233c0,0.229-0.203,0.345-0.393,0.345c-0.408,0-0.422-0.201-0.422-1.005
			c0-0.258,0.014-0.517,0.014-0.745c0.014-0.703,0.438-1.248,1.529-1.263c1.238-0.015,2.434-0.028,3.643-0.028v-1.449
			c0-0.244,0.203-0.359,0.422-0.359c0.203,0,0.408,0.115,0.408,0.359l-0.016,1.449c1.193,0,2.375,0.014,3.611,0.028
			c0.977,0.015,1.5,0.588,1.516,1.276c0.016,0.172,0.016,0.43,0.016,0.674c0,0.773,0,1.033-0.438,1.033
			c-0.205,0-0.408-0.115-0.408-0.344V15.919L139.09,15.919z M133.643,17.196c-0.102,0.331-0.582,1.377-0.873,1.938
			c1.471-0.102,2.912-0.229,4.311-0.418c-0.334-0.244-0.684-0.457-1.006-0.631c-0.113-0.058-0.158-0.145-0.158-0.229
			c0-0.157,0.158-0.315,0.379-0.315c0.406,0,2.854,1.606,2.854,2.281c0,0.229-0.188,0.401-0.379,0.401
			c-0.117,0-0.248-0.058-0.35-0.201c-0.219-0.301-0.48-0.573-0.758-0.832c-3.641,0.604-7.369,0.805-7.836,0.805
			c-0.262,0-0.393-0.172-0.393-0.357c0-0.174,0.131-0.359,0.379-0.359c0.742-0.028,1.457-0.043,2.17-0.086
			c0.232-0.487,0.625-1.492,0.787-1.994l-1.967,0.014c-0.205,0-0.307-0.158-0.307-0.33c0-0.158,0.104-0.316,0.307-0.316h7.15
			c0.189,0,0.291,0.158,0.291,0.316c0,0.172-0.102,0.33-0.291,0.33L133.643,17.196z"/>
		<path fill="#B5943E" d="M148.922,18.875c0-0.631,0.51-1.119,1.15-1.119s1.15,0.488,1.15,1.119c0,0.646-0.51,1.146-1.15,1.146
			S148.922,19.52,148.922,18.875z"/>
		<path fill="#B5943E" d="M160.332,24.154c-0.176,0-0.35-0.115-0.35-0.301c0-0.059,0.014-0.115,0.043-0.174
			c0.379-0.688,0.699-1.949,0.744-2.783c0.014-0.199,0.16-0.301,0.32-0.301c0.174,0,0.35,0.129,0.35,0.358
			c0,0.574-0.365,2.31-0.744,2.983C160.609,24.098,160.479,24.154,160.332,24.154z M162.256,19.377
			c-0.73,0.115-1.764,0.258-1.951,0.258c-0.191,0-0.293-0.172-0.293-0.344c0-0.158,0.074-0.302,0.248-0.316
			c0.232-0.014,0.523-0.041,0.859-0.086c0.277-0.357,0.582-0.803,0.873-1.291c-0.35-0.531-1.398-1.463-1.732-1.75
			c-0.072-0.072-0.104-0.144-0.104-0.229c0-0.172,0.133-0.33,0.322-0.33c0.131,0,0.262,0.071,0.568,0.33
			c0.377-0.703,0.857-1.836,1.02-2.64c0.027-0.172,0.174-0.258,0.334-0.258c0.189,0,0.408,0.144,0.408,0.358
			c0,0.33-0.801,2.151-1.297,2.983c0.32,0.33,0.641,0.688,0.83,0.933c0.479-0.875,0.918-1.779,1.137-2.438
			c0.057-0.158,0.174-0.229,0.305-0.229c0.203,0,0.424,0.157,0.424,0.373c0,0.187-0.977,2.224-2.287,4.103
			c0.801-0.1,1.631-0.229,2.053-0.287c-0.203-0.315-0.438-0.604-0.641-0.804c-0.043-0.043-0.059-0.086-0.059-0.129
			c0-0.129,0.16-0.259,0.32-0.259c0.35,0,1.311,1.406,1.311,1.693c0,0.028-0.014,0.058-0.014,0.086c0.188,0,0.408,0.015,0.553,0.015
			c0.787,0.028,0.99,0.315,0.99,1.075c0,0.474-0.014,1.65-0.014,2.339c0.785,1.362,2.098,1.636,3.566,1.636
			c0.963,0,1.98-0.115,2.725-0.201h0.045c0.219,0,0.35,0.187,0.35,0.373c0,0.172-0.117,0.359-0.35,0.389
			c-0.611,0.086-1.545,0.172-2.49,0.172c-1.809,0-3.219-0.229-4.195-1.836c-0.932,1.248-1.588,1.765-1.805,1.765
			c-0.205,0-0.395-0.201-0.395-0.401c0-0.101,0.043-0.201,0.158-0.272c0.672-0.445,1.166-0.962,1.705-1.65
			c0.014-0.659,0.014-1.765,0.014-2.194c0-0.431-0.102-0.518-0.449-0.53h-0.686c-0.205,0-0.32-0.158-0.32-0.331
			c0-0.057,0.016-0.128,0.059-0.186l-0.043-0.102c-0.016-0.059-0.029-0.102-0.061-0.157c-0.219,0.058-0.729,0.157-1.324,0.259
			l0.029,5.522c0,0.272-0.188,0.401-0.379,0.401c-0.189,0-0.363-0.129-0.363-0.388L162.256,19.377z M164.076,22.348
			c-0.072-0.588-0.232-1.033-0.494-1.521c-0.029-0.043-0.029-0.087-0.029-0.129c0-0.145,0.145-0.244,0.291-0.244
			c0.494,0,0.873,1.535,0.873,1.779c0,0.215-0.189,0.358-0.363,0.358C164.221,22.591,164.105,22.52,164.076,22.348z M165.459,15.977
			c-0.16-0.646-0.582-1.362-0.846-1.707c-0.043-0.058-0.057-0.101-0.057-0.157c0-0.157,0.188-0.272,0.379-0.272
			c0.436,0,1.252,1.549,1.252,1.98c0,0.258-0.219,0.416-0.422,0.416C165.633,16.234,165.502,16.163,165.459,15.977z M170.586,13.896
			h0.043c0.613,0,0.918,0.244,0.918,0.604c0,0.674-1.092,1.707-1.311,1.908c0.742,0.488,1.646,0.861,2.578,1.02
			c0.189,0.028,0.275,0.172,0.275,0.301c0,0.186-0.146,0.373-0.379,0.373c-0.189,0-1.572-0.246-2.971-1.277
			c-1.471,1.104-3.115,1.521-3.293,1.521c-0.219,0-0.334-0.158-0.334-0.316c0-0.129,0.072-0.258,0.246-0.301
			c1.107-0.26,2.1-0.732,2.885-1.307c-0.422-0.373-0.758-0.761-1.02-1.162c-0.365,0.459-1.092,1.234-1.398,1.234
			c-0.201,0-0.35-0.173-0.35-0.33c0-0.086,0.029-0.158,0.117-0.229c1.135-0.875,1.676-1.75,2.141-2.842
			c0.059-0.129,0.176-0.201,0.307-0.201c0.176,0,0.379,0.129,0.379,0.33c0,0.102-0.176,0.402-0.334,0.703L170.586,13.896z
			 M170.033,22.447v1.062c0,0.215-0.176,0.329-0.35,0.329c-0.189,0-0.365-0.114-0.365-0.329l0.016-1.062l-2.082,0.014
			c-0.205,0-0.309-0.145-0.309-0.287c0-0.158,0.104-0.302,0.309-0.302l2.082,0.015v-1.091h-1.516c-0.205,0-0.305-0.144-0.305-0.286
			c0-0.144,0.1-0.287,0.305-0.287l1.516,0.015V19.29l-1.834,0.015c-0.205,0-0.322-0.144-0.322-0.302
			c0-0.144,0.117-0.287,0.322-0.287l1.834,0.015l0.016-0.717c0-0.216,0.174-0.33,0.348-0.33c0.16,0,0.322,0.101,0.322,0.33v0.717
			l1.922-0.015c0.203,0,0.307,0.144,0.307,0.287c0,0.158-0.104,0.302-0.307,0.302l-1.922-0.015v0.947l1.5-0.015
			c0.203,0,0.291,0.144,0.291,0.287c0,0.143-0.088,0.286-0.291,0.286l-1.5-0.015l0.014,1.105l2.199-0.015
			c0.203,0,0.291,0.144,0.291,0.287c0,0.157-0.088,0.301-0.291,0.301L170.033,22.447z M170.775,14.629
			c0-0.101-0.088-0.158-0.262-0.158h-0.043c-0.176,0-1.078,0-1.705,0.014l-0.176,0.272c0.277,0.459,0.67,0.904,1.137,1.277
			C170.469,15.374,170.775,14.729,170.775,14.629z"/>
		<path fill="#B5943E" d="M186.053,20.855c0.232,0.543,0.568,1.061,1.033,1.52c0.627-0.243,1.719-0.66,2.316-0.977
			c0.059-0.027,0.117-0.043,0.174-0.043c0.221,0,0.395,0.188,0.395,0.389c0,0.273-0.029,0.288-2.389,1.076
			c0.889,0.703,2.098,1.248,3.553,1.463c0.205,0.029,0.307,0.201,0.307,0.359c0,0.186-0.145,0.373-0.408,0.373
			c-0.582,0-4.41-0.832-5.621-4.133c-0.467,0.287-0.932,0.561-1.396,0.805v2.064c0.816-0.172,1.559-0.373,2.141-0.531
			c0.029-0.014,0.072-0.014,0.102-0.014c0.189,0,0.336,0.157,0.336,0.33c0,0.115-0.088,0.244-0.277,0.301
			c-3,0.848-5.357,1.234-5.594,1.234c-0.275,0-0.406-0.186-0.406-0.359c0-0.172,0.115-0.344,0.352-0.373
			c0.871-0.115,1.791-0.271,2.648-0.445v-1.879c-2.066,0.961-3.787,1.349-3.918,1.349c-0.248,0-0.393-0.201-0.393-0.388
			c0-0.129,0.088-0.258,0.262-0.301c1.805-0.402,3.48-0.947,5.039-1.807l-4.5,0.029c-0.219,0-0.32-0.159-0.32-0.316
			s0.104-0.314,0.32-0.314l5.111,0.014l-0.014-0.76c0-0.217,0.189-0.316,0.379-0.316c0.174,0,0.363,0.1,0.363,0.316v0.76
			l5.084-0.014c0.203,0,0.305,0.156,0.305,0.314s-0.102,0.316-0.305,0.316L186.053,20.855z M185.748,18.33
			c0,0.561-0.35,0.904-1.164,0.904c-0.686,0-0.934-0.102-0.934-0.33c0-0.158,0.115-0.301,0.277-0.301h0.027
			c0.189,0.028,0.408,0.071,0.598,0.071c0.438,0,0.51-0.144,0.51-0.747c0-0.646-0.086-0.66-1.951-0.66v1.953
			c0,0.229-0.174,0.357-0.35,0.357c-0.174,0-0.35-0.129-0.35-0.357v-1.953c-1.805,0-1.805,0.015-1.805,0.834
			c0,0.287,0,0.603,0.014,0.902v0.016c0,0.186-0.176,0.287-0.35,0.287c-0.379,0-0.379-0.188-0.379-0.977
			c0-1.449,0.029-1.578,2.52-1.578v-0.789h-2.941c-0.203,0-0.307-0.145-0.307-0.302c0-0.144,0.104-0.287,0.307-0.287h2.941v-1.019
			l-1.588,0.014c-0.566,0.718-0.742,0.789-0.873,0.789c-0.189,0-0.35-0.158-0.35-0.316c0-0.057,0.029-0.115,0.072-0.158
			c0.424-0.373,0.875-0.99,1.137-1.578c0.059-0.129,0.16-0.172,0.277-0.172c0.188,0,0.379,0.145,0.379,0.33
			c0,0.115-0.133,0.332-0.264,0.547h1.209v-0.847c0-0.229,0.176-0.329,0.35-0.329c0.176,0,0.35,0.1,0.35,0.329v0.847l2.229-0.015
			c0.189,0,0.291,0.144,0.291,0.287s-0.102,0.287-0.291,0.287l-2.229-0.015v1.02h2.986c0.203,0,0.305,0.145,0.305,0.287
			c0,0.158-0.102,0.302-0.305,0.302h-2.986v0.788c0.467,0,0.918,0,1.398,0.016c0.83,0.014,1.223,0.287,1.236,0.875L185.748,18.33
			L185.748,18.33z M187.174,13.84c0-0.229,0.189-0.344,0.365-0.344c0.189,0,0.363,0.115,0.363,0.344v3.112
			c0,0.215-0.189,0.315-0.363,0.315c-0.189,0-0.365-0.101-0.365-0.315V13.84z M190.541,17.914c0,0.718-0.395,1.32-1.633,1.32
			c-0.846,0-1.312-0.114-1.312-0.459c0-0.187,0.133-0.373,0.365-0.373c0.029,0,0.072,0,0.102,0.015
			c0.336,0.072,0.627,0.129,0.875,0.129c0.51,0,0.814-0.2,0.83-0.731v-4.489c0-0.244,0.188-0.373,0.379-0.373
			c0.189,0,0.379,0.129,0.379,0.373c0,0.933,0.014,3.112,0.014,3.457v1.132H190.541z"/>
		<path fill="#B5943E" d="M202.09,17.497c-0.467,0.519-0.977,1.005-1.5,1.464c0.641-0.015,1.15-0.015,1.908-0.015
			c0.48,0,0.758,0.258,0.758,0.588c0,0.172-0.074,0.631-1.545,1.592c0.102,0.129,0.176,0.244,0.248,0.388
			c0.801-0.144,1.543-0.302,2.053-0.431c0.029,0,0.043-0.015,0.074-0.015c0.158,0,0.291,0.158,0.291,0.316
			c0,0.243-0.059,0.315-2.199,0.702c0.059,0.216,0.088,0.445,0.088,0.66c0,0.201-0.016,2.267-1.996,2.267
			c-0.715,0-1.137-0.129-1.137-0.445c0-0.172,0.146-0.344,0.365-0.344c0.029,0,0.059,0,0.102,0.015
			c0.248,0.058,0.48,0.101,0.715,0.101c0.758,0,1.238-0.459,1.238-1.562c0-0.187-0.029-0.373-0.074-0.561
			c-0.494,0.086-2.84,0.502-3.189,0.502c-0.232,0-0.35-0.156-0.35-0.33c0-0.144,0.102-0.301,0.32-0.315
			c0.803-0.086,1.924-0.243,3-0.431c-0.188-0.33-0.494-0.604-0.902-0.761c-0.131-0.043-0.188-0.129-0.188-0.216
			c0-0.145,0.158-0.287,0.379-0.287c0.318,0,0.758,0.346,0.758,0.346c0.131-0.086,1.121-0.804,1.121-1.076
			c0-0.086-0.088-0.145-0.248-0.145c-0.785,0-1.252,0-2.301,0.029c-0.904,0.674-1.734,1.191-1.924,1.191
			c-0.203,0-0.363-0.188-0.363-0.359c0-0.114,0.059-0.229,0.203-0.303c1.279-0.674,2.445-1.549,3.438-2.566l-3.32,0.029
			c-0.219,0-0.336-0.158-0.336-0.332c0-0.156,0.117-0.314,0.336-0.314l2.562,0.016l-0.016-1.564h-1.893
			c-0.219,0-0.336-0.158-0.336-0.316c0-0.143,0.117-0.301,0.336-0.301h1.893v-1.605c0-0.229,0.176-0.332,0.352-0.332
			c0.188,0,0.379,0.115,0.379,0.332v1.606h1.383c0.205,0,0.307,0.158,0.307,0.316c0,0.144-0.102,0.301-0.307,0.301h-1.383
			l-0.016,1.563h0.611c0.803-0.946,1.473-1.994,1.967-3.143c0.059-0.145,0.189-0.201,0.307-0.201c0.203,0,0.408,0.158,0.408,0.359
			c0,0.172-0.773,1.635-1.852,2.982l1.193-0.014c0.234,0,0.35,0.158,0.35,0.316c0,0.172-0.113,0.33-0.35,0.33L202.09,17.497z
			 M208.936,16.58c-0.131,1.965-0.641,3.73-1.617,5.223c0.699,0.945,1.676,1.75,2.973,2.353c0.158,0.071,0.232,0.2,0.232,0.344
			c0,0.215-0.188,0.444-0.438,0.444c-0.203,0-1.879-0.774-3.176-2.567c-1.426,1.865-3.363,2.712-3.582,2.712
			c-0.232,0-0.408-0.201-0.408-0.4c0-0.129,0.072-0.26,0.262-0.346c1.443-0.615,2.535-1.492,3.336-2.568
			c-0.785-1.319-1.195-2.782-1.354-4.16c-0.611,1.148-0.846,1.392-1.094,1.392c-0.188,0-0.35-0.129-0.35-0.315
			c0-0.057,0.029-0.129,0.074-0.2c1.121-1.622,1.791-3.127,2.229-5.28c0.043-0.215,0.189-0.301,0.35-0.301
			c0.203,0,0.424,0.145,0.424,0.373c0,0.029,0,0.058-0.018,0.101c-0.23,0.89-0.51,1.736-0.83,2.539h4.021
			c0.232,0,0.35,0.173,0.35,0.331c0,0.172-0.115,0.344-0.35,0.344L208.936,16.58z M205.688,16.58
			c0.088,1.693,0.439,3.271,1.223,4.605c0.787-1.307,1.195-2.869,1.299-4.605H205.688z"/>
		<path fill="#B5943E" d="M217.299,24.686c-0.219,0-0.334-0.158-0.334-0.33c0-0.174,0.115-0.33,0.334-0.33h5.215v-1.809
			l-3.729,0.014c-0.232,0-0.35-0.157-0.35-0.33c0-0.157,0.115-0.329,0.35-0.329l3.729,0.015l-0.014-1.148
			c0-0.258,0.188-0.373,0.393-0.373c0.189,0,0.379,0.115,0.379,0.373v1.148l3.699-0.015c0.219,0,0.334,0.172,0.334,0.329
			c0,0.173-0.115,0.33-0.334,0.33l-3.699-0.014l-0.014,1.809h5.141c0.219,0,0.334,0.172,0.334,0.344
			c0,0.158-0.115,0.316-0.334,0.316H217.299z M227.596,15.919c-0.014-0.56-0.232-0.832-0.975-0.832
			c-1.078-0.015-2.463-0.015-3.83-0.015c-1.355,0-2.695,0-3.715,0.015c-0.758,0-0.947,0.33-0.961,0.804v1.233
			c0,0.229-0.205,0.345-0.395,0.345c-0.406,0-0.422-0.201-0.422-1.005c0-0.258,0.016-0.517,0.016-0.745
			c0.014-0.703,0.438-1.248,1.529-1.263c1.236-0.015,2.432-0.028,3.641-0.028v-1.449c0-0.244,0.203-0.359,0.422-0.359
			c0.203,0,0.408,0.115,0.408,0.359l-0.016,1.449c1.193,0,2.375,0.014,3.611,0.028c0.977,0.015,1.5,0.588,1.516,1.276
			c0.016,0.172,0.016,0.43,0.016,0.674c0,0.773,0,1.033-0.438,1.033c-0.203,0-0.408-0.115-0.408-0.344V15.919L227.596,15.919z
			 M222.15,17.196c-0.102,0.331-0.582,1.377-0.875,1.938c1.473-0.102,2.914-0.229,4.312-0.418c-0.334-0.244-0.686-0.457-1.004-0.631
			c-0.117-0.058-0.16-0.145-0.16-0.229c0-0.157,0.16-0.315,0.379-0.315c0.408,0,2.854,1.606,2.854,2.281
			c0,0.229-0.189,0.401-0.379,0.401c-0.117,0-0.248-0.058-0.35-0.201c-0.219-0.301-0.48-0.573-0.758-0.832
			c-3.643,0.604-7.369,0.805-7.836,0.805c-0.262,0-0.395-0.172-0.395-0.357c0-0.174,0.133-0.359,0.379-0.359
			c0.744-0.028,1.457-0.043,2.17-0.086c0.234-0.487,0.627-1.492,0.787-1.994l-1.967,0.014c-0.203,0-0.305-0.158-0.305-0.33
			c0-0.158,0.102-0.316,0.305-0.316h7.152c0.188,0,0.291,0.158,0.291,0.316c0,0.172-0.104,0.33-0.291,0.33L222.15,17.196z"/>
	</g>
	<g>
		<path fill="#B5943E" d="M31.392,33.377c-0.069,3.037-0.069,6.648-0.069,10.124c0,2.837,0,5.569,0.035,7.765v0.102
			c0,3.881-2.774,5.805-6.304,5.805c-0.959,0-2.022-0.136-3.05-0.438c-0.651-0.169-0.959-0.708-0.959-1.183
			c0-0.572,0.377-1.078,1.097-1.078c0.206,0,0.377,0.033,0.616,0.102c0.891,0.304,1.782,0.473,2.57,0.473
			c2.194,0,3.803-1.182,3.837-3.848c0.034-2.023,0.034-4.455,0.034-7.021c0-3.61-0.034-7.459-0.104-10.73v-0.034
			c0-0.708,0.583-1.079,1.165-1.079c0.583,0,1.131,0.336,1.131,1.013V33.377L31.392,33.377z"/>
		<path fill="#B5943E" d="M38.657,44.717c0-7.324,5.311-12.621,12.438-12.621s12.438,5.296,12.438,12.621
			c0,7.594-5.311,12.555-12.438,12.555S38.657,52.311,38.657,44.717z M61.305,44.717c0-6.447-4.557-10.731-10.211-10.731
			c-5.652,0-10.21,4.284-10.21,10.731c0,6.412,4.558,10.631,10.21,10.631S61.305,51.129,61.305,44.717z"/>
		<path fill="#B5943E" d="M81.282,57.237c-7.949,0-12.267-6.041-12.267-12.353c0-6.279,4.249-12.722,12.472-12.722
			c5.244,0,8.635,3.035,8.635,4.25c0,0.641-0.514,1.114-1.131,1.114c-0.308,0-0.685-0.136-0.959-0.507
			c-1.609-1.991-4.146-2.937-6.715-2.937c-6.75,0-10.074,5.872-10.074,10.665c0,4.995,3.289,10.327,9.971,10.327
			c3.083,0,6.134-1.215,7.812-3.442c0.273-0.404,0.65-0.539,0.993-0.539c0.651,0,1.269,0.539,1.269,1.215
			C91.288,53.559,87.313,57.237,81.282,57.237z"/>
		<path fill="#B5943E" d="M117.12,56.023c0,0.641-0.549,0.979-1.096,0.979c-0.584,0-1.132-0.338-1.132-0.979v-0.034
			c0.034-1.688,0.034-3.478,0.034-5.097c0-2.193,0-4.051-0.034-4.928c0-0.676-0.274-0.811-0.616-0.811
			c-1.303-0.033-4.111-0.068-6.888-0.068s-5.517,0.034-6.784,0.068c-0.445,0-0.754,0.033-0.754,0.674
			c-0.033,0.912-0.068,3.005-0.068,5.436c0,1.484,0,3.104,0.068,4.725v0.033c0,0.676-0.548,1.014-1.097,1.014
			c-0.548,0-1.097-0.338-1.097-1.014v-0.033c0.068-3.711,0.104-8.303,0.104-12.622c0-3.746-0.034-7.29-0.104-9.888v-0.033
			c0-0.675,0.549-1.046,1.097-1.046c0.549,0,1.097,0.373,1.097,1.046v0.033c-0.033,1.417-0.068,2.868-0.068,4.218
			c0,2.06,0.035,3.848,0.068,4.726c0,0.606,0.274,0.709,0.617,0.741c0.857,0.035,3.701,0.067,6.646,0.067
			c2.981,0,6.031-0.032,7.265-0.067c0.446,0,0.514-0.303,0.514-0.708c0.034-0.811,0.068-2.633,0.068-4.725
			c0-1.35-0.034-2.833-0.068-4.25v-0.033c0-0.708,0.548-1.046,1.097-1.046c0.582,0,1.131,0.371,1.131,1.046v0.033
			c-0.035,2.868-0.069,7.187-0.069,11.439c0,4.253,0.034,8.438,0.069,11.07V56.023L117.12,56.023z"/>
		<path fill="#B5943E" d="M129.422,55.922c0,0.709-0.582,1.047-1.164,1.047c-0.549,0-1.131-0.338-1.131-1.047v-0.033
			c0.068-3.779,0.104-7.965,0.104-12.049c0-3.646-0.035-7.224-0.104-10.36v-0.033c0-0.743,0.584-1.113,1.166-1.113
			c0.547,0,1.129,0.371,1.129,1.046v0.033c-0.033,3.271-0.068,6.984-0.068,10.833s0.035,7.83,0.068,11.644V55.922z"/>
		<path fill="#B5943E" d="M149.057,57.237c-7.949,0-12.268-6.041-12.268-12.353c0-6.279,4.248-12.722,12.473-12.722
			c5.242,0,8.635,3.035,8.635,4.25c0,0.641-0.514,1.114-1.131,1.114c-0.309,0-0.686-0.136-0.959-0.507
			c-1.611-1.991-4.146-2.937-6.717-2.937c-6.75,0-10.072,5.872-10.072,10.665c0,4.995,3.289,10.327,9.969,10.327
			c3.084,0,6.135-1.215,7.812-3.442c0.273-0.404,0.65-0.539,0.994-0.539c0.65,0,1.268,0.539,1.268,1.215
			C159.061,53.559,155.086,57.237,149.057,57.237z"/>
		<path fill="#B5943E" d="M183.178,57.002c-0.412,0-0.857-0.236-1.062-0.775c-0.412-0.979-1.715-4.455-2.775-7.562
			c-0.104-0.271-0.205-0.405-0.549-0.405c-0.549-0.031-2.193-0.031-3.939-0.031c-2.434,0-5.141,0-5.859,0.031
			c-0.309,0-0.445,0.203-0.514,0.405c-0.891,2.7-1.953,5.872-2.469,7.526c-0.17,0.572-0.65,0.811-1.096,0.811
			c-0.514,0-1.062-0.338-1.062-0.912c0-0.102,0.035-0.234,0.068-0.338c1.92-6.107,5.928-16.941,7.572-21.599
			c0.447-1.214,1.406-1.788,2.33-1.788c0.994,0,1.988,0.607,2.434,1.821c2.262,6.208,6.783,18.528,7.949,21.228
			c0.068,0.17,0.102,0.338,0.102,0.506C184.309,56.562,183.76,57.002,183.178,57.002z M178.381,45.896
			c-1.062-3.172-3.256-8.978-3.805-10.664c-0.17-0.505-0.41-0.743-0.684-0.743c-0.275,0-0.549,0.271-0.754,0.809
			c-0.721,1.923-3.771,10.597-3.771,10.867c0,0.137,0.105,0.203,0.377,0.203c0.688,0,2.535,0.033,4.318,0.033
			c1.814,0,3.562-0.033,4.076-0.033c0.24,0,0.309-0.066,0.309-0.169C178.449,46.1,178.416,45.999,178.381,45.896z"/>
		<path fill="#B5943E" d="M199.721,33.377c-0.068,3.037-0.068,6.648-0.068,10.124c0,2.837,0,5.569,0.035,7.765v0.102
			c0,3.881-2.777,5.805-6.305,5.805c-0.959,0-2.021-0.136-3.051-0.438c-0.65-0.169-0.959-0.708-0.959-1.183
			c0-0.572,0.377-1.078,1.096-1.078c0.207,0,0.377,0.033,0.617,0.102c0.891,0.304,1.781,0.473,2.57,0.473
			c2.191,0,3.803-1.182,3.836-3.848c0.035-2.023,0.035-4.455,0.035-7.021c0-3.61-0.035-7.459-0.104-10.73v-0.034
			c0-0.708,0.584-1.079,1.166-1.079s1.131,0.337,1.131,1.013V33.377L199.721,33.377z"/>
		<path fill="#B5943E" d="M221.998,56.969c-0.445,0.033-2.469,0.033-4.488,0.033c-1.986,0-4.008,0-4.453-0.033
			c-3.016-0.236-4.49-1.586-4.592-3.781c-0.068-1.416-0.068-3.848-0.068-6.514c0-4.017,0.033-8.472,0.104-10.598
			c0.066-2.192,1.438-3.507,3.973-3.642c0.652-0.035,2.57-0.068,4.455-0.068c1.918,0,3.77,0.033,4.283,0.068
			c0.719,0.033,1.096,0.505,1.096,0.978c0,0.473-0.41,0.945-1.166,0.945c-0.17,0-3.426-0.034-5.857-0.034
			c-3.461,0-4.559,0-4.729,2.059c-0.068,0.809-0.035,3.645-0.068,5.637c0,0.641,0.342,0.641,0.686,0.641
			c0.686,0.034,2.434,0.034,4.18,0.034c1.748,0,3.529,0,4.215-0.034c1.062-0.032,1.166,0.743,1.166,0.979
			c0,0.506-0.412,1.047-1.166,1.047h-0.068c-1.062-0.067-2.98-0.067-4.762-0.067c-4.25,0-4.283,0-4.283,0.675
			c0,5.197,0,6.783,0.104,7.594c0.137,1.282,0.855,2.025,2.672,2.16c0.582,0.033,2.467,0.033,4.352,0.033c1.92,0,3.84,0,4.455-0.033
			h0.104c0.686,0,1.061,0.438,1.061,0.911C223.199,56.43,222.82,56.932,221.998,56.969z"/>
		<path fill="#B5943E" d="M242.889,56.799c-0.445,0.034-2.535,0.034-4.625,0.034c-2.057,0-4.146,0-4.592-0.034
			c-3.016-0.234-4.352-1.281-4.42-3.645c-0.035-0.743-0.035-1.822-0.035-3.139c0-4.76,0.137-12.354,0.137-15.762v-0.741
			c0-0.742,0.549-1.114,1.131-1.114c0.584,0,1.166,0.406,1.166,1.147v0.067c-0.104,2.125-0.205,9.178-0.205,14.14
			c0,2.396,0.033,4.286,0.068,4.928c0.137,1.992,0.926,2.127,6.305,2.127c2.09,0,4.352-0.033,5.035-0.068h0.105
			c0.719,0,1.131,0.507,1.131,1.013C244.09,56.26,243.711,56.764,242.889,56.799z"/>
	</g>
</g>
</svg>
