<svg width="527" height="102" viewBox="0 0 527 102" fill="none" xmlns="http://www.w3.org/2000/svg">
<path d="M9.7457 82.1C9.07904 82.1 8.01237 82 6.5457 81.8C5.1457 81.6 3.8457 81.1667 2.6457 80.5C1.4457 79.8333 0.845703 78.8 0.845703 77.4C0.845703 76.5333 1.0457 75.8667 1.4457 75.4C1.71237 75.0667 1.97904 74.9 2.2457 74.9C2.51237 74.9 2.57904 75.0667 2.4457 75.4C2.2457 76.4 2.61237 77.3333 3.5457 78.2C4.47904 79.1333 5.41237 79.7333 6.3457 80C7.01237 80.1333 7.6457 80.2333 8.2457 80.3C8.8457 80.4333 9.41237 80.5 9.9457 80.5C12.6124 80.5 15.0457 79.8 17.2457 78.4C19.4457 77.0667 21.4124 75.3333 23.1457 73.2C24.9457 71.1333 26.5457 69.0333 27.9457 66.9C29.9457 63.8333 31.9124 60.3333 33.8457 56.4C35.779 52.4667 37.779 48.4333 39.8457 44.3C41.9124 40.1 44.079 36.0333 46.3457 32.1C48.679 28.1667 51.2124 24.6667 53.9457 21.6C56.679 18.4667 59.679 16.0667 62.9457 14.4C65.079 13.2667 67.1124 12.7 69.0457 12.7C70.1124 12.7 71.079 12.8333 71.9457 13.1C72.2124 13.1667 72.279 13.3333 72.1457 13.6C72.079 13.8667 71.9124 13.9667 71.6457 13.9C71.379 13.7667 71.079 13.7 70.7457 13.7C70.479 13.7 70.179 13.7 69.8457 13.7C66.379 13.7 62.7457 15.9333 58.9457 20.4C55.5457 24.4 52.7124 28.7 50.4457 33.3C48.179 37.8333 45.979 42.4667 43.8457 47.2H43.9457C44.6124 47.5333 45.3457 47.8333 46.1457 48.1C49.079 49.0333 52.0124 49.5 54.9457 49.5C58.1457 49.5 61.3457 48.9667 64.5457 47.9C67.7457 46.8333 70.6457 45.3 73.2457 43.3C75.9124 41.3 78.0457 38.9 79.6457 36.1C81.2457 33.2333 82.0457 30.0333 82.0457 26.5C82.0457 23.3667 81.279 20.3667 79.7457 17.5C78.2124 14.6333 75.879 12.2333 72.7457 10.3C69.479 8.16666 65.579 6.63333 61.0457 5.7C56.579 4.7 51.9124 4.2 47.0457 4.2C41.4457 4.2 35.979 5.1 30.6457 6.9C25.379 8.63333 21.079 11.1 17.7457 14.3C16.0124 15.9667 14.4457 18.2 13.0457 21C11.7124 23.7333 11.0457 26.4667 11.0457 29.2C11.0457 29.8 11.079 30.4 11.1457 31C11.2124 31.6 11.3457 32.2 11.5457 32.8C12.1457 34.6667 13.279 36.1 14.9457 37.1C16.679 38.1 18.579 38.6 20.6457 38.6C21.5124 38.6 22.379 38.5 23.2457 38.3C24.179 38.1 25.079 37.8667 25.9457 37.6H26.1457C26.3457 37.6 26.4457 37.7 26.4457 37.9C26.4457 38.1667 26.279 38.3667 25.9457 38.5C24.079 39.1 22.079 39.4 19.9457 39.4C17.8124 39.4 15.7457 39.0333 13.7457 38.3C11.8124 37.5 10.2124 36.3 8.9457 34.7C7.7457 33.0333 7.1457 30.8667 7.1457 28.2C7.1457 26.1333 7.41237 24.2 7.9457 22.4C8.5457 20.6 9.3457 18.9333 10.3457 17.4C12.5457 14.0667 15.6457 11.3333 19.6457 9.2C23.7124 7 28.179 5.36667 33.0457 4.3C37.979 3.16666 42.8457 2.59999 47.6457 2.59999C52.579 2.59999 57.3457 2.93333 61.9457 3.6C66.5457 4.26667 70.5457 5.36667 73.9457 6.9C78.879 8.96666 82.4124 11.6667 84.5457 15C86.7457 18.2667 87.8457 21.7 87.8457 25.3C87.8457 29.4333 86.879 33.1333 84.9457 36.4C83.0124 39.6 80.4457 42.3 77.2457 44.5C74.0457 46.7 70.5457 48.3667 66.7457 49.5C63.0124 50.6333 59.3457 51.2 55.7457 51.2C53.9457 51.2 52.179 51.0667 50.4457 50.8C48.7124 50.4667 47.0124 50.0667 45.3457 49.6C45.0124 49.4667 44.679 49.3333 44.3457 49.2C44.079 49.0667 43.779 48.9333 43.4457 48.8C43.379 48.8 43.3124 48.8 43.2457 48.8C43.179 48.7333 43.1124 48.7 43.0457 48.7C41.579 51.9 40.0457 55.0667 38.4457 58.2C36.9124 61.2667 35.1457 64.2333 33.1457 67.1C31.3457 69.6333 29.3124 72 27.0457 74.2C24.779 76.4667 22.279 78.3 19.5457 79.7C18.0124 80.4333 16.4124 81 14.7457 81.4C13.1457 81.8667 11.479 82.1 9.7457 82.1ZM70.0059 76C68.6059 76 67.2059 75.7 65.8059 75.1C64.4059 74.5 63.5392 73.3667 63.2059 71.7C63.1392 71.4333 63.1059 71.2 63.1059 71C63.0392 70.7333 63.0059 70.4667 63.0059 70.2C63.0059 67.4 64.4059 65.4 67.2059 64.2C67.5392 64.0667 67.8725 64.0333 68.2059 64.1C68.4725 64.1 68.4725 64.2667 68.2059 64.6C67.4725 65 66.8392 65.5 66.3059 66.1C65.4392 67.0333 65.0059 68.2667 65.0059 69.8C65.0059 70.6667 65.2725 71.5 65.8059 72.3C66.2725 73.1 67.0392 73.6333 68.1059 73.9C68.9059 74.1 69.7392 74.2 70.6059 74.2C73.1392 74.2 75.6059 73.4333 78.0059 71.9C80.3392 70.3667 82.5059 68.3667 84.5059 65.9C86.5725 63.4333 88.4392 60.8 90.1059 58C91.8392 55.2 93.3392 52.5 94.6059 49.9C95.8725 47.2333 96.8725 45 97.6059 43.2C96.0725 42.2 95.0392 40.6667 94.5059 38.6C94.4392 38.2667 94.3725 37.9667 94.3059 37.7C94.3059 37.3667 94.3059 37.0667 94.3059 36.8C94.3059 35.6 94.5392 34.6 95.0059 33.8C95.5392 32.9333 96.1392 32.5 96.8059 32.5C97.7392 32.5 98.5059 33.4 99.1059 35.2C99.2392 35.6667 99.3392 36.2 99.4059 36.8C99.4725 37.3333 99.5059 37.8667 99.5059 38.4C99.5059 39 99.4725 39.5667 99.4059 40.1C99.4059 40.5667 99.3725 40.9667 99.3059 41.3C99.7725 41.4333 100.373 41.5333 101.106 41.6C101.906 41.6667 102.773 41.7 103.706 41.7C105.106 41.7 106.573 41.6667 108.106 41.6C109.639 41.4667 110.939 41.4 112.006 41.4C113.273 41.4 114.139 41.6667 114.606 42.2C115.073 42.7333 115.306 43.4 115.306 44.2C115.306 45.2 115.039 46.3 114.506 47.5C114.039 48.6333 113.573 49.6 113.106 50.4C112.239 52 111.406 53.4333 110.606 54.7C109.873 55.9 109.039 57.2 108.106 58.6C106.706 60.7333 105.673 62.7 105.006 64.5C104.406 66.2333 104.106 67.7 104.106 68.9C104.106 70.9667 104.873 72 106.406 72C107.673 72 109.306 71.1 111.306 69.3C112.573 68.1667 113.739 66.8333 114.806 65.3C115.939 63.7 116.939 62.1 117.806 60.5C118.739 58.8333 119.506 57.4667 120.106 56.4C120.239 56.2 120.373 56.1 120.506 56.1C120.773 56.1 120.906 56.3667 120.906 56.9C120.906 57.3 120.806 57.6667 120.606 58C119.473 60.0667 118.173 62.3333 116.706 64.8C115.239 67.2667 113.439 69.4 111.306 71.2C110.173 72.1333 109.039 72.8 107.906 73.2C106.839 73.6667 105.839 73.9 104.906 73.9C103.239 73.9 101.839 73.3333 100.706 72.2C99.6392 71 99.1059 69.4333 99.1059 67.5C99.1059 66.3667 99.3725 65 99.9059 63.4C100.773 61 102.073 58.7 103.806 56.5C105.539 54.3 107.206 52.0667 108.806 49.8C109.806 48.4667 110.306 47.1667 110.306 45.9C110.306 45.2333 110.106 44.6667 109.706 44.2C109.373 43.7333 108.739 43.4667 107.806 43.4C107.273 43.2667 106.673 43.2 106.006 43.2C105.339 43.2 104.673 43.2 104.006 43.2H101.306C100.839 43.2 100.439 43.2 100.106 43.2C99.7725 43.2 99.4725 43.1667 99.2059 43.1C97.9392 46.4333 96.3392 49.9667 94.4059 53.7C92.4725 57.4333 90.2392 61 87.7059 64.4C85.2392 67.7333 82.4725 70.5333 79.4059 72.8C78.1392 73.6667 76.6725 74.4 75.0059 75C73.2725 75.6667 71.6059 76 70.0059 76ZM121.507 73.6C119.64 73.6 118.273 73 117.407 71.8C116.54 70.5333 116.107 69 116.107 67.2C116.107 66.6667 116.14 66.1333 116.207 65.6C116.34 65 116.473 64.4 116.607 63.8C117.34 61.1333 118.473 58.1667 120.007 54.9C121.607 51.5667 123.14 48.6 124.607 46C125.473 44.5333 126.273 43.5 127.007 42.9C127.74 42.2333 128.54 41.7667 129.407 41.5C130.273 41.1667 131.307 40.8 132.507 40.4C132.84 40.2667 133.173 40.1667 133.507 40.1C133.84 40.0333 134.207 39.9667 134.607 39.9C133.273 41.2333 131.907 42.8333 130.507 44.7C129.173 46.5667 127.707 49.1333 126.107 52.4C125.24 54.1333 124.373 56.0667 123.507 58.2C122.707 60.3333 122.007 62.3333 121.407 64.2C120.807 66.0667 120.473 67.5333 120.407 68.6C120.34 69.8667 120.507 70.7667 120.907 71.3C121.307 71.8333 121.84 72.1 122.507 72.1C123.64 72.1 124.707 71.7 125.707 70.9C126.773 70.1 127.707 69.2667 128.507 68.4C129.973 66.7333 131.34 64.9 132.607 62.9C133.94 60.9 135.24 58.7667 136.507 56.5C136.707 56.2333 136.873 56.1 137.007 56.1C137.273 56.1 137.407 56.3 137.407 56.7C137.407 57.0333 137.34 57.3 137.207 57.5C136.007 59.7 134.74 61.9 133.407 64.1C132.073 66.3 130.44 68.3667 128.507 70.3C127.64 71.1667 126.607 71.9333 125.407 72.6C124.273 73.2667 122.973 73.6 121.507 73.6ZM133.707 34.3C132.973 34.3 132.34 34.0333 131.807 33.5C131.34 32.9667 131.107 32.3333 131.107 31.6C131.107 30.6667 131.473 29.8333 132.207 29.1C133.007 28.3667 133.873 27.9333 134.807 27.8C135.54 27.8 136.14 28.0667 136.607 28.6C137.14 29.0667 137.407 29.7 137.407 30.5C137.407 31.3667 137.04 32.2333 136.307 33.1C135.573 33.9 134.707 34.3 133.707 34.3ZM148.894 73.7C146.294 73.7 144.494 72.9667 143.494 71.5C142.494 70.0333 141.994 68.3667 141.994 66.5C141.994 65.6333 142.061 64.7667 142.194 63.9C142.394 62.9667 142.627 62.1 142.894 61.3C143.694 58.9667 144.761 56.5667 146.094 54.1C147.427 51.5667 148.394 49.1 148.994 46.7C149.194 46.1 149.294 45.4 149.294 44.6C149.294 44.0667 149.194 43.6333 148.994 43.3C148.794 42.9 148.327 42.7 147.594 42.7C146.794 42.7 146.027 43.0667 145.294 43.8C144.561 44.5333 143.894 45.3667 143.294 46.3C142.694 47.2333 142.227 48.0333 141.894 48.7C140.694 51.1 139.661 53.1333 138.794 54.8C137.927 56.4667 136.927 58.2333 135.794 60.1C135.394 60.7 135.094 61 134.894 61C134.761 61 134.694 60.8667 134.694 60.6C134.694 60.4 134.727 60.1667 134.794 59.9C134.861 59.5667 134.994 59.2 135.194 58.8C136.727 55.8667 137.994 53.3667 138.994 51.3C140.061 49.1667 140.794 47.7333 141.194 47C141.927 45.4 142.961 43.9667 144.294 42.7C145.627 41.3667 147.327 40.7 149.394 40.7C150.727 40.7 151.861 41.0667 152.794 41.8C153.794 42.4667 154.294 43.5 154.294 44.9C154.294 46.8333 153.927 48.6667 153.194 50.4C152.527 52.0667 151.727 53.8333 150.794 55.7C150.061 57.2333 149.327 58.7667 148.594 60.3C147.927 61.8333 147.427 63.3333 147.094 64.8C147.027 65.2667 146.927 65.7333 146.794 66.2C146.727 66.6667 146.694 67.1333 146.694 67.6C146.694 68.6667 146.961 69.6 147.494 70.4C148.027 71.2 148.961 71.6 150.294 71.6C152.027 71.6 153.661 71.0333 155.194 69.9C156.727 68.7667 158.127 67.3333 159.394 65.6C160.661 63.8667 161.761 62.1 162.694 60.3C163.627 58.4333 164.361 56.8333 164.894 55.5C164.627 54.4333 164.494 52.5333 164.494 49.8C164.494 48.1333 164.594 46.4333 164.794 44.7C164.994 42.9667 165.327 41.4667 165.794 40.2C166.461 38.5333 167.494 37.7 168.894 37.7C169.427 37.7 169.894 37.9667 170.294 38.5C170.761 39.0333 170.994 39.9333 170.994 41.2C170.994 43.0667 170.694 45 170.094 47C169.561 48.9333 169.127 50.2667 168.794 51C168.527 51.6667 168.194 52.5 167.794 53.5C167.394 54.4333 166.927 55.4667 166.394 56.6C166.327 58.6667 166.661 60.3667 167.394 61.7C168.194 62.9667 169.161 63.6 170.294 63.6C171.561 63.6 172.661 63.2333 173.594 62.5C174.594 61.7 175.427 60.7667 176.094 59.7C176.827 58.5667 177.427 57.5333 177.894 56.6C178.094 56.2 178.361 56 178.694 56C178.961 56 179.094 56.1667 179.094 56.5C179.094 56.7 178.994 57 178.794 57.4C177.994 59.2 176.861 60.9 175.394 62.5C173.927 64.1 172.127 64.9 169.994 64.9C168.927 64.9 167.861 64.5 166.794 63.7C165.794 62.8333 165.194 61.4333 164.994 59.5C164.327 60.8333 163.561 62.2 162.694 63.6C161.827 65 160.894 66.3 159.894 67.5C158.427 69.3 156.761 70.8 154.894 72C153.094 73.1333 151.094 73.7 148.894 73.7ZM198.698 73.7C196.565 73.7 195.098 73.0333 194.298 71.7C193.498 70.3 193.098 68.7667 193.098 67.1C193.098 66.7667 193.131 66.2 193.198 65.4C193.331 64.5333 193.465 63.7333 193.598 63C192.665 64.2667 191.531 65.6667 190.198 67.2C188.931 68.7333 187.631 70.0333 186.298 71.1C184.165 72.8333 182.231 73.7 180.498 73.7C178.831 73.7 177.531 73 176.598 71.6C175.731 70.2 175.298 68.4333 175.298 66.3C175.298 63.5667 175.898 60.8 177.098 58C178.298 55.2 179.865 52.5667 181.798 50.1C183.798 47.5667 185.998 45.4 188.398 43.6C189.798 42.6 191.498 41.8 193.498 41.2C195.565 40.5333 197.631 40.2 199.698 40.2C202.031 40.2 204.065 40.5667 205.798 41.3C207.598 41.9667 208.831 42.9333 209.498 44.2C208.098 46 206.665 48.2333 205.198 50.9C203.731 53.5 202.465 55.8667 201.398 58C200.665 59.4667 199.865 61.3 198.998 63.5C198.131 65.6333 197.698 67.4667 197.698 69C197.698 69.6667 197.865 70.3333 198.198 71C198.531 71.6667 199.165 72 200.098 72C201.165 72 202.198 71.6 203.198 70.8C204.198 70 205.031 69.2 205.698 68.4C207.231 66.7333 208.631 64.9 209.898 62.9C211.165 60.9 212.431 58.7667 213.698 56.5C213.898 56.2333 214.098 56.1 214.298 56.1C214.565 56.1 214.698 56.3 214.698 56.7C214.698 57.0333 214.631 57.3 214.498 57.5C213.365 59.7 212.098 61.9 210.698 64.1C209.298 66.3 207.631 68.3667 205.698 70.3C204.765 71.2333 203.665 72.0333 202.398 72.7C201.131 73.3667 199.898 73.7 198.698 73.7ZM182.698 70.6C183.965 70.6 185.331 69.9333 186.798 68.6C188.331 67.2 189.798 65.5333 191.198 63.6C192.665 61.6 193.965 59.7 195.098 57.9C196.298 56.0333 197.231 54.6 197.898 53.6C199.298 51.4 200.598 49.5667 201.798 48.1C202.998 46.6333 204.865 45.5 207.398 44.7C207.531 44.7 207.631 44.7 207.698 44.7C207.831 44.6333 207.965 44.6 208.098 44.6C207.498 43.6667 206.498 42.9667 205.098 42.5C203.698 42.0333 202.331 41.8 200.998 41.8C198.931 41.8 196.931 42.3667 194.998 43.5C193.065 44.6333 191.298 46.0667 189.698 47.8C188.165 49.6 186.665 51.5667 185.198 53.7C183.731 55.8333 182.531 58 181.598 60.2C180.731 62.4 180.298 64.5 180.298 66.5C180.298 67.5667 180.465 68.5333 180.798 69.4C181.198 70.2 181.831 70.6 182.698 70.6ZM222.04 74.1C218.574 74.1 216.107 73.0667 214.64 71C213.174 68.8667 212.44 66.3667 212.44 63.5C212.44 60.3667 213.107 57.2 214.44 54C215.44 51.6 216.74 49.3667 218.34 47.3C219.94 45.1667 221.84 43.4333 224.04 42.1C226.307 40.7667 228.774 40.1 231.44 40.1C233.44 40.1 234.974 40.5667 236.04 41.5C237.174 42.4333 237.74 43.7333 237.74 45.4C237.74 45.9333 237.674 46.5 237.54 47.1C237.474 47.7 237.274 48.3667 236.94 49.1C236.474 50.3 235.874 51.3667 235.14 52.3C234.407 53.2333 233.574 53.9667 232.64 54.5C232.174 54.7667 231.64 54.9 231.04 54.9C230.574 54.9 230.14 54.7667 229.74 54.5C229.34 54.2333 229.14 53.8 229.14 53.2C229.14 52.1333 229.707 51 230.84 49.8C232.04 48.5333 233.574 47.8667 235.44 47.8C235.774 46.9333 235.94 46.1667 235.94 45.5C235.94 44.4333 235.607 43.5333 234.94 42.8C234.274 42 233.24 41.6 231.84 41.6C230.107 41.6 228.407 42.2667 226.74 43.6C225.074 44.8667 223.574 46.5667 222.24 48.7C220.974 50.7667 219.94 52.9667 219.14 55.3C218.74 56.3667 218.374 57.7333 218.04 59.4C217.707 61 217.54 62.6 217.54 64.2C217.54 66.2667 217.974 68.1333 218.84 69.8C219.774 71.4 221.507 72.2 224.04 72.2C225.84 72.2 227.54 71.7 229.14 70.7C230.74 69.6333 232.174 68.3333 233.44 66.8C234.774 65.2667 235.94 63.7 236.94 62.1C238.007 60.4333 238.874 58.9667 239.54 57.7C239.607 57.4333 239.774 57.3 240.04 57.3C240.374 57.3 240.54 57.5667 240.54 58.1C240.54 58.3667 240.44 58.6667 240.24 59C238.84 61.4667 237.34 63.8667 235.74 66.2C234.14 68.4667 232.24 70.3667 230.04 71.9C227.84 73.3667 225.174 74.1 222.04 74.1ZM242.705 101.2C241.638 101.467 240.572 101.6 239.505 101.6C237.572 101.6 236.105 101.133 235.105 100.2C234.105 99.2667 233.605 98.1 233.605 96.7C233.605 95.5 234.005 94.2 234.805 92.8C235.605 91.4667 236.805 90.2667 238.405 89.2C240.472 87.8 242.338 86.6667 244.005 85.8C245.738 84.9333 247.605 84.0667 249.605 83.2C251.605 82.4 254.105 81.3 257.105 79.9C257.438 79.1667 257.805 78.3 258.205 77.3C258.605 76.3 259.272 74.6333 260.205 72.3C261.138 69.9667 262.505 66.5 264.305 61.9C262.838 63.7 261.372 65.3667 259.905 66.9C258.438 68.4333 257.238 69.6333 256.305 70.5C254.972 71.5 253.672 72.3 252.405 72.9C251.205 73.4333 250.005 73.7 248.805 73.7C247.205 73.7 246.072 73.2333 245.405 72.3C244.805 71.3667 244.505 70.2667 244.505 69C244.505 67.9333 244.638 66.8333 244.905 65.7C245.238 64.5667 245.605 63.5 246.005 62.5C246.938 60.1667 247.938 57.9667 249.005 55.9C250.138 53.7667 251.238 51.5667 252.305 49.3C252.572 48.7667 252.938 47.9 253.405 46.7C253.938 45.5 254.205 44.4 254.205 43.4C254.205 42.2667 253.705 41.7 252.705 41.7C251.772 41.7 250.805 42.1667 249.805 43.1C248.872 43.9667 248.038 44.9667 247.305 46.1C246.572 47.2333 246.005 48.1333 245.605 48.8C245.605 48.8 245.272 49.4333 244.605 50.7C244.005 51.9667 243.205 53.5333 242.205 55.4C241.272 57.2 240.305 58.9 239.305 60.5C239.105 60.8333 238.838 61 238.505 61C238.238 61 238.105 60.8667 238.105 60.6C238.105 60.4667 238.272 60.0667 238.605 59.4C240.072 56.8 241.205 54.6333 242.005 52.9C242.872 51.1667 243.838 49.3667 244.905 47.5C245.972 45.5667 247.205 43.7333 248.605 42C249.538 41 250.538 40.2667 251.605 39.8C252.738 39.2667 253.838 39 254.905 39C256.772 39 258.038 39.4333 258.705 40.3C259.438 41.1 259.805 42.1 259.805 43.3C259.805 44.5667 259.538 45.8667 259.005 47.2C258.472 48.5333 257.938 49.7 257.405 50.7C255.738 53.6333 254.372 56.2 253.305 58.4C252.238 60.5333 251.305 62.6 250.505 64.6C249.905 66.0667 249.605 67.2667 249.605 68.2C249.605 69.9333 250.338 70.8 251.805 70.8C253.005 70.8 254.238 70.2667 255.505 69.2C259.038 66.3333 261.905 62.9667 264.105 59.1C266.305 55.2333 268.405 51.2 270.405 47C271.072 45.6667 271.905 44.2333 272.905 42.7C273.905 41.1 275.138 39.7667 276.605 38.7C278.072 37.5667 279.772 37.0667 281.705 37.2C280.772 38.0667 279.638 39.6667 278.305 42C277.038 44.3333 275.672 47.0667 274.205 50.2C272.805 53.3333 271.405 56.6 270.005 60C268.605 63.4 267.272 66.6667 266.005 69.8C264.805 72.8667 263.772 75.4667 262.905 77.6C264.705 76.8667 266.805 75.7333 269.205 74.2C271.672 72.7333 273.972 70.8 276.105 68.4C277.638 66.8 279.005 65 280.205 63C281.472 60.9333 282.738 58.7667 284.005 56.5C284.205 56.2333 284.405 56.1 284.605 56.1C284.872 56.1 285.005 56.3 285.005 56.7C285.005 57.0333 284.938 57.3 284.805 57.5C283.605 59.7 282.338 61.9 281.005 64.1C279.672 66.3 278.038 68.3667 276.105 70.3C273.705 72.5667 271.272 74.5 268.805 76.1C266.405 77.7667 264.138 78.9667 262.005 79.7C260.405 83.3 258.705 86.6 256.905 89.6C255.172 92.6 253.172 95.1 250.905 97.1C248.638 99.1 245.905 100.467 242.705 101.2ZM242.105 99.2C244.505 98.4667 246.572 97.1667 248.305 95.3C250.038 93.5 251.538 91.4 252.805 89C254.138 86.6 255.272 84.2 256.205 81.8C254.072 82.9333 251.405 84.1 248.205 85.3C245.005 86.5667 241.972 88.2667 239.105 90.4C237.838 91.4 236.872 92.4333 236.205 93.5C235.538 94.5667 235.205 95.5667 235.205 96.5C235.205 97.4333 235.538 98.2 236.205 98.8C236.872 99.4 237.838 99.7 239.105 99.7C239.505 99.7 239.938 99.6667 240.405 99.6C240.938 99.5333 241.505 99.4 242.105 99.2ZM301.445 82.1C300.778 82.1 299.712 82 298.245 81.8C296.845 81.6 295.545 81.1667 294.345 80.5C293.145 79.8333 292.545 78.8 292.545 77.4C292.545 76.5333 292.745 75.8667 293.145 75.4C293.412 75.0667 293.678 74.9 293.945 74.9C294.212 74.9 294.278 75.0667 294.145 75.4C293.945 76.4 294.312 77.3333 295.245 78.2C296.178 79.1333 297.112 79.7333 298.045 80C298.712 80.1333 299.345 80.2333 299.945 80.3C300.545 80.4333 301.112 80.5 301.645 80.5C304.312 80.5 306.745 79.8 308.945 78.4C311.145 77.0667 313.112 75.3333 314.845 73.2C316.645 71.1333 318.245 69.0333 319.645 66.9C321.645 63.8333 323.612 60.3333 325.545 56.4C327.478 52.4667 329.478 48.4333 331.545 44.3C333.612 40.1 335.778 36.0333 338.045 32.1C340.378 28.1667 342.912 24.6667 345.645 21.6C348.378 18.4667 351.378 16.0667 354.645 14.4C356.778 13.2667 358.812 12.7 360.745 12.7C361.812 12.7 362.778 12.8333 363.645 13.1C363.912 13.1667 363.978 13.3333 363.845 13.6C363.778 13.8667 363.612 13.9667 363.345 13.9C363.078 13.7667 362.778 13.7 362.445 13.7C362.178 13.7 361.878 13.7 361.545 13.7C358.078 13.7 354.445 15.9333 350.645 20.4C347.245 24.4 344.412 28.7 342.145 33.3C339.878 37.8333 337.678 42.4667 335.545 47.2H335.645C336.312 47.5333 337.045 47.8333 337.845 48.1C340.778 49.0333 343.712 49.5 346.645 49.5C349.845 49.5 353.045 48.9667 356.245 47.9C359.445 46.8333 362.345 45.3 364.945 43.3C367.612 41.3 369.745 38.9 371.345 36.1C372.945 33.2333 373.745 30.0333 373.745 26.5C373.745 23.3667 372.978 20.3667 371.445 17.5C369.912 14.6333 367.578 12.2333 364.445 10.3C361.178 8.16666 357.278 6.63333 352.745 5.7C348.278 4.7 343.612 4.2 338.745 4.2C333.145 4.2 327.678 5.1 322.345 6.9C317.078 8.63333 312.778 11.1 309.445 14.3C307.712 15.9667 306.145 18.2 304.745 21C303.412 23.7333 302.745 26.4667 302.745 29.2C302.745 29.8 302.778 30.4 302.845 31C302.912 31.6 303.045 32.2 303.245 32.8C303.845 34.6667 304.978 36.1 306.645 37.1C308.378 38.1 310.278 38.6 312.345 38.6C313.212 38.6 314.078 38.5 314.945 38.3C315.878 38.1 316.778 37.8667 317.645 37.6H317.845C318.045 37.6 318.145 37.7 318.145 37.9C318.145 38.1667 317.978 38.3667 317.645 38.5C315.778 39.1 313.778 39.4 311.645 39.4C309.512 39.4 307.445 39.0333 305.445 38.3C303.512 37.5 301.912 36.3 300.645 34.7C299.445 33.0333 298.845 30.8667 298.845 28.2C298.845 26.1333 299.112 24.2 299.645 22.4C300.245 20.6 301.045 18.9333 302.045 17.4C304.245 14.0667 307.345 11.3333 311.345 9.2C315.412 7 319.878 5.36667 324.745 4.3C329.678 3.16666 334.545 2.59999 339.345 2.59999C344.278 2.59999 349.045 2.93333 353.645 3.6C358.245 4.26667 362.245 5.36667 365.645 6.9C370.578 8.96666 374.112 11.6667 376.245 15C378.445 18.2667 379.545 21.7 379.545 25.3C379.545 29.4333 378.578 33.1333 376.645 36.4C374.712 39.6 372.145 42.3 368.945 44.5C365.745 46.7 362.245 48.3667 358.445 49.5C354.712 50.6333 351.045 51.2 347.445 51.2C345.645 51.2 343.878 51.0667 342.145 50.8C340.412 50.4667 338.712 50.0667 337.045 49.6C336.712 49.4667 336.378 49.3333 336.045 49.2C335.778 49.0667 335.478 48.9333 335.145 48.8C335.078 48.8 335.012 48.8 334.945 48.8C334.878 48.7333 334.812 48.7 334.745 48.7C333.278 51.9 331.745 55.0667 330.145 58.2C328.612 61.2667 326.845 64.2333 324.845 67.1C323.045 69.6333 321.012 72 318.745 74.2C316.478 76.4667 313.978 78.3 311.245 79.7C309.712 80.4333 308.112 81 306.445 81.4C304.845 81.8667 303.178 82.1 301.445 82.1ZM392.605 72.8C390.205 74.2 387.738 74.9 385.205 74.9C382.672 74.9 380.472 74.1 378.605 72.5C376.805 70.9 375.905 68.4 375.905 65C375.905 63.5333 376.105 61.9667 376.505 60.3C376.838 58.8333 377.272 57.4 377.805 56C378.338 54.6 378.938 53.3333 379.605 52.2C379.872 51.7333 380.138 51.3 380.405 50.9C380.672 50.4333 380.938 49.9667 381.205 49.5C380.672 49.7667 379.872 50.4667 378.805 51.6C377.805 52.6667 376.938 53.6 376.205 54.4C373.938 57 371.572 59.7 369.105 62.5C366.638 65.3 363.838 67.6667 360.705 69.6C359.438 70.3333 358.005 70.9667 356.405 71.5C354.805 71.9667 353.238 72.2 351.705 72.2C350.238 72.2 348.738 71.8333 347.205 71.1C345.672 70.3 344.905 68.8667 344.905 66.8C344.905 65.8667 345.105 64.9333 345.505 64C345.838 63.0667 346.372 62.2667 347.105 61.6C347.438 61.2667 347.905 60.9667 348.505 60.7C349.105 60.4333 349.572 60.2333 349.905 60.1C350.238 59.9667 350.572 59.9667 350.905 60.1C351.172 60.1667 351.138 60.3333 350.805 60.6C350.405 60.8 350.038 61 349.705 61.2C349.372 61.4 349.038 61.6667 348.705 62C347.438 63.1333 346.805 64.5667 346.805 66.3C346.805 67.1 347.005 67.8333 347.405 68.5C347.805 69.1 348.438 69.5667 349.305 69.9C350.038 70.1 350.772 70.2 351.505 70.2C353.505 70.2 355.672 69.6 358.005 68.4C360.272 67.2 362.538 65.7 364.805 63.9C367.005 62.0333 369.038 60.1667 370.905 58.3C372.772 56.3667 374.305 54.7 375.505 53.3C376.972 51.5667 378.772 49.6667 380.905 47.6C383.105 45.5333 385.472 43.7667 388.005 42.3C390.538 40.7667 393.072 40 395.605 40C399.138 40 401.605 40.9667 403.005 42.9C404.405 44.8333 405.105 47.2 405.105 50C405.105 51.1333 405.005 52.3 404.805 53.5C404.538 54.9667 404.138 56.4333 403.605 57.9C403.138 59.3667 402.405 61.0333 401.405 62.9C401.938 63.5667 402.605 64.1333 403.405 64.6C404.205 65.0667 405.072 65.3 406.005 65.3C406.272 65.3 406.505 65.3 406.705 65.3C406.972 65.2333 407.238 65.1667 407.505 65.1C408.438 64.9 409.405 64.4 410.405 63.6C411.272 62.9333 412.172 61.8667 413.105 60.4C414.038 58.9333 414.705 57.8333 415.105 57.1C415.505 56.3667 415.872 56 416.205 56C416.405 56 416.505 56.1333 416.505 56.4C416.505 56.6667 416.305 57.2667 415.905 58.2C415.438 59.2 414.772 60.3333 413.905 61.6C413.105 62.8667 412.238 63.8667 411.305 64.6C410.105 65.4667 408.838 66.0667 407.505 66.4C407.238 66.4667 406.938 66.5333 406.605 66.6C406.338 66.6 406.072 66.6 405.805 66.6C403.605 66.6 401.905 65.8 400.705 64.2C399.772 65.8 398.605 67.4 397.205 69C395.872 70.5333 394.338 71.8 392.605 72.8ZM385.405 73.8C388.672 73.8 391.905 72.2 395.105 69C396.038 68.0667 396.872 67.1 397.605 66.1C398.405 65.0333 399.105 63.9667 399.705 62.9C398.838 61.9 398.205 60.6667 397.805 59.2C397.405 57.7333 397.205 56.3 397.205 54.9C397.205 53.7 397.372 52.5333 397.705 51.4C398.038 50.4667 398.538 49.7 399.205 49.1C399.872 48.5 400.572 48.2 401.305 48.2C401.638 48.2 402.005 48.3 402.405 48.5C402.738 48.6333 402.972 48.8333 403.105 49.1C403.305 49.3 403.438 49.5 403.505 49.7C403.572 47.5 403.105 45.6667 402.105 44.2C401.172 42.6667 399.605 41.9 397.405 41.9C396.072 41.9 394.705 42.4333 393.305 43.5C391.905 44.5 390.572 45.7333 389.305 47.2C388.105 48.6667 387.038 50.1667 386.105 51.7C385.172 53.2333 384.472 54.5 384.005 55.5C382.872 57.9667 382.038 60.1667 381.505 62.1C381.038 64.0333 380.805 65.7333 380.805 67.2C380.805 69.3333 381.238 70.9667 382.105 72.1C383.038 73.2333 384.138 73.8 385.405 73.8ZM420.298 74C417.631 74 415.765 73.3 414.698 71.9C413.631 70.4333 413.098 68.6 413.098 66.4C413.098 64.4 413.398 62.2 413.998 59.8C414.665 57.3333 415.465 54.9 416.398 52.5C417.398 50.1 418.365 47.9 419.298 45.9C420.298 43.9 421.098 42.2667 421.698 41C422.898 38.5333 424.398 35.7 426.198 32.5C427.998 29.3 429.998 26.0333 432.198 22.7C434.398 19.3 436.731 16.1 439.198 13.1C441.731 10.1 444.331 7.49999 446.998 5.3C449.665 3.1 452.331 1.6 454.998 0.799994C455.731 0.599996 456.398 0.499998 456.998 0.499998C458.131 0.499998 459.065 0.833331 459.798 1.5C460.598 2.1 460.998 3.16666 460.998 4.7C460.998 5.76666 460.731 7.1 460.198 8.7C459.331 11.0333 457.865 13.6333 455.798 16.5C453.731 19.3 451.298 22.2333 448.498 25.3C445.698 28.3 442.731 31.2667 439.598 34.2C436.531 37.1333 433.531 39.8667 430.598 42.4C427.665 44.9333 425.065 47.1 422.798 48.9C422.398 49.9667 421.765 51.5333 420.898 53.6C420.098 55.6667 419.365 57.8667 418.698 60.2C418.031 62.4667 417.698 64.5667 417.698 66.5C417.698 68.1667 418.065 69.5333 418.798 70.6C419.531 71.6667 420.798 72.2 422.598 72.2C423.731 72.2 424.931 71.8667 426.198 71.2C427.531 70.5333 428.831 69.5 430.098 68.1C431.765 66.3667 433.265 64.4333 434.598 62.3C435.998 60.1 437.065 58.3333 437.798 57C437.865 56.8667 437.965 56.8 438.098 56.8C438.298 56.8 438.398 57.0333 438.398 57.5C438.398 57.9667 438.265 58.4667 437.998 59C437.331 60.4 436.265 62.1667 434.798 64.3C433.398 66.4333 431.831 68.3333 430.098 70C428.831 71.2667 427.298 72.2667 425.498 73C423.698 73.6667 421.965 74 420.298 74ZM423.898 46.6C425.965 44.8 428.365 42.6667 431.098 40.2C433.831 37.6667 436.631 34.9667 439.498 32.1C442.365 29.2333 445.065 26.3667 447.598 23.5C450.198 20.6333 452.431 17.9333 454.298 15.4C456.231 12.8667 457.531 10.6667 458.198 8.8C458.798 7.06666 459.098 5.73333 459.098 4.8C459.098 3.06667 458.331 2.2 456.798 2.2C455.931 2.2 454.898 2.53333 453.698 3.2C452.498 3.8 451.398 4.6 450.398 5.6C448.731 7.2 446.765 9.5 444.498 12.5C442.298 15.4333 439.965 18.8 437.498 22.6C435.031 26.4 432.598 30.3667 430.198 34.5C427.865 38.6333 425.765 42.6667 423.898 46.6ZM440.257 73.6C438.39 73.6 437.023 73 436.157 71.8C435.29 70.5333 434.857 69 434.857 67.2C434.857 66.6667 434.89 66.1333 434.957 65.6C435.09 65 435.223 64.4 435.357 63.8C436.09 61.1333 437.223 58.1667 438.757 54.9C440.357 51.5667 441.89 48.6 443.357 46C444.223 44.5333 445.023 43.5 445.757 42.9C446.49 42.2333 447.29 41.7667 448.157 41.5C449.023 41.1667 450.057 40.8 451.257 40.4C451.59 40.2667 451.923 40.1667 452.257 40.1C452.59 40.0333 452.957 39.9667 453.357 39.9C452.023 41.2333 450.657 42.8333 449.257 44.7C447.923 46.5667 446.457 49.1333 444.857 52.4C443.99 54.1333 443.123 56.0667 442.257 58.2C441.457 60.3333 440.757 62.3333 440.157 64.2C439.557 66.0667 439.223 67.5333 439.157 68.6C439.09 69.8667 439.257 70.7667 439.657 71.3C440.057 71.8333 440.59 72.1 441.257 72.1C442.39 72.1 443.457 71.7 444.457 70.9C445.523 70.1 446.457 69.2667 447.257 68.4C448.723 66.7333 450.09 64.9 451.357 62.9C452.69 60.9 453.99 58.7667 455.257 56.5C455.457 56.2333 455.623 56.1 455.757 56.1C456.023 56.1 456.157 56.3 456.157 56.7C456.157 57.0333 456.09 57.3 455.957 57.5C454.757 59.7 453.49 61.9 452.157 64.1C450.823 66.3 449.19 68.3667 447.257 70.3C446.39 71.1667 445.357 71.9333 444.157 72.6C443.023 73.2667 441.723 73.6 440.257 73.6ZM452.457 34.3C451.723 34.3 451.09 34.0333 450.557 33.5C450.09 32.9667 449.857 32.3333 449.857 31.6C449.857 30.6667 450.223 29.8333 450.957 29.1C451.757 28.3667 452.623 27.9333 453.557 27.8C454.29 27.8 454.89 28.0667 455.357 28.6C455.89 29.0667 456.157 29.7 456.157 30.5C456.157 31.3667 455.79 32.2333 455.057 33.1C454.323 33.9 453.457 34.3 452.457 34.3ZM463.544 74.1C460.077 74.1 457.611 73.0667 456.144 71C454.677 68.8667 453.944 66.3667 453.944 63.5C453.944 60.3667 454.611 57.2 455.944 54C456.944 51.6 458.244 49.3667 459.844 47.3C461.444 45.1667 463.344 43.4333 465.544 42.1C467.811 40.7667 470.277 40.1 472.944 40.1C474.944 40.1 476.477 40.5667 477.544 41.5C478.677 42.4333 479.244 43.7333 479.244 45.4C479.244 45.9333 479.177 46.5 479.044 47.1C478.977 47.7 478.777 48.3667 478.444 49.1C477.977 50.3 477.377 51.3667 476.644 52.3C475.911 53.2333 475.077 53.9667 474.144 54.5C473.677 54.7667 473.144 54.9 472.544 54.9C472.077 54.9 471.644 54.7667 471.244 54.5C470.844 54.2333 470.644 53.8 470.644 53.2C470.644 52.1333 471.211 51 472.344 49.8C473.544 48.5333 475.077 47.8667 476.944 47.8C477.277 46.9333 477.444 46.1667 477.444 45.5C477.444 44.4333 477.111 43.5333 476.444 42.8C475.777 42 474.744 41.6 473.344 41.6C471.611 41.6 469.911 42.2667 468.244 43.6C466.577 44.8667 465.077 46.5667 463.744 48.7C462.477 50.7667 461.444 52.9667 460.644 55.3C460.244 56.3667 459.877 57.7333 459.544 59.4C459.211 61 459.044 62.6 459.044 64.2C459.044 66.2667 459.477 68.1333 460.344 69.8C461.277 71.4 463.011 72.2 465.544 72.2C467.344 72.2 469.044 71.7 470.644 70.7C472.244 69.6333 473.677 68.3333 474.944 66.8C476.277 65.2667 477.444 63.7 478.444 62.1C479.511 60.4333 480.377 58.9667 481.044 57.7C481.111 57.4333 481.277 57.3 481.544 57.3C481.877 57.3 482.044 57.5667 482.044 58.1C482.044 58.3667 481.944 58.6667 481.744 59C480.344 61.4667 478.844 63.8667 477.244 66.2C475.644 68.4667 473.744 70.3667 471.544 71.9C469.344 73.3667 466.677 74.1 463.544 74.1ZM484.209 101.2C483.142 101.467 482.076 101.6 481.009 101.6C479.076 101.6 477.609 101.133 476.609 100.2C475.609 99.2667 475.109 98.1 475.109 96.7C475.109 95.5 475.509 94.2 476.309 92.8C477.109 91.4667 478.309 90.2667 479.909 89.2C481.976 87.8 483.842 86.6667 485.509 85.8C487.242 84.9333 489.109 84.0667 491.109 83.2C493.109 82.4 495.609 81.3 498.609 79.9C498.942 79.1667 499.309 78.3 499.709 77.3C500.109 76.3 500.776 74.6333 501.709 72.3C502.642 69.9667 504.009 66.5 505.809 61.9C504.342 63.7 502.876 65.3667 501.409 66.9C499.942 68.4333 498.742 69.6333 497.809 70.5C496.476 71.5 495.176 72.3 493.909 72.9C492.709 73.4333 491.509 73.7 490.309 73.7C488.709 73.7 487.576 73.2333 486.909 72.3C486.309 71.3667 486.009 70.2667 486.009 69C486.009 67.9333 486.142 66.8333 486.409 65.7C486.742 64.5667 487.109 63.5 487.509 62.5C488.442 60.1667 489.442 57.9667 490.509 55.9C491.642 53.7667 492.742 51.5667 493.809 49.3C494.076 48.7667 494.442 47.9 494.909 46.7C495.442 45.5 495.709 44.4 495.709 43.4C495.709 42.2667 495.209 41.7 494.209 41.7C493.276 41.7 492.309 42.1667 491.309 43.1C490.376 43.9667 489.542 44.9667 488.809 46.1C488.076 47.2333 487.509 48.1333 487.109 48.8C487.109 48.8 486.776 49.4333 486.109 50.7C485.509 51.9667 484.709 53.5333 483.709 55.4C482.776 57.2 481.809 58.9 480.809 60.5C480.609 60.8333 480.342 61 480.009 61C479.742 61 479.609 60.8667 479.609 60.6C479.609 60.4667 479.776 60.0667 480.109 59.4C481.576 56.8 482.709 54.6333 483.509 52.9C484.376 51.1667 485.342 49.3667 486.409 47.5C487.476 45.5667 488.709 43.7333 490.109 42C491.042 41 492.042 40.2667 493.109 39.8C494.242 39.2667 495.342 39 496.409 39C498.276 39 499.542 39.4333 500.209 40.3C500.942 41.1 501.309 42.1 501.309 43.3C501.309 44.5667 501.042 45.8667 500.509 47.2C499.976 48.5333 499.442 49.7 498.909 50.7C497.242 53.6333 495.876 56.2 494.809 58.4C493.742 60.5333 492.809 62.6 492.009 64.6C491.409 66.0667 491.109 67.2667 491.109 68.2C491.109 69.9333 491.842 70.8 493.309 70.8C494.509 70.8 495.742 70.2667 497.009 69.2C500.542 66.3333 503.409 62.9667 505.609 59.1C507.809 55.2333 509.909 51.2 511.909 47C512.576 45.6667 513.409 44.2333 514.409 42.7C515.409 41.1 516.642 39.7667 518.109 38.7C519.576 37.5667 521.276 37.0667 523.209 37.2C522.276 38.0667 521.142 39.6667 519.809 42C518.542 44.3333 517.176 47.0667 515.709 50.2C514.309 53.3333 512.909 56.6 511.509 60C510.109 63.4 508.776 66.6667 507.509 69.8C506.309 72.8667 505.276 75.4667 504.409 77.6C506.209 76.8667 508.309 75.7333 510.709 74.2C513.176 72.7333 515.476 70.8 517.609 68.4C519.142 66.8 520.509 65 521.709 63C522.976 60.9333 524.242 58.7667 525.509 56.5C525.709 56.2333 525.909 56.1 526.109 56.1C526.376 56.1 526.509 56.3 526.509 56.7C526.509 57.0333 526.442 57.3 526.309 57.5C525.109 59.7 523.842 61.9 522.509 64.1C521.176 66.3 519.542 68.3667 517.609 70.3C515.209 72.5667 512.776 74.5 510.309 76.1C507.909 77.7667 505.642 78.9667 503.509 79.7C501.909 83.3 500.209 86.6 498.409 89.6C496.676 92.6 494.676 95.1 492.409 97.1C490.142 99.1 487.409 100.467 484.209 101.2ZM483.609 99.2C486.009 98.4667 488.076 97.1667 489.809 95.3C491.542 93.5 493.042 91.4 494.309 89C495.642 86.6 496.776 84.2 497.709 81.8C495.576 82.9333 492.909 84.1 489.709 85.3C486.509 86.5667 483.476 88.2667 480.609 90.4C479.342 91.4 478.376 92.4333 477.709 93.5C477.042 94.5667 476.709 95.5667 476.709 96.5C476.709 97.4333 477.042 98.2 477.709 98.8C478.376 99.4 479.342 99.7 480.609 99.7C481.009 99.7 481.442 99.6667 481.909 99.6C482.442 99.5333 483.009 99.4 483.609 99.2Z" fill="#B5943E"/>
</svg>
