<svg width="527" height="86" viewBox="0 0 527 86" fill="none" xmlns="http://www.w3.org/2000/svg">
<path d="M23.0953 85.2C18.0953 85.2 13.8953 84.3333 10.4953 82.6C7.16198 80.9333 4.62865 78.6667 2.89531 75.8C1.22865 73 0.395313 69.8667 0.395313 66.4C0.395313 63.7333 0.86198 61 1.79531 58.2C2.79531 55.4 4.26198 52.6333 6.19531 49.9C8.19531 47.1667 10.662 44.6667 13.5953 42.4C16.5286 40.1333 19.7286 38.3333 23.1953 37C26.662 35.6 30.0953 34.9 33.4953 34.9C36.8953 34.9 39.3953 35.6 40.9953 37C42.662 38.3333 43.4953 40.0667 43.4953 42.2C43.4953 43.4667 43.1953 44.8667 42.5953 46.4C41.9953 47.9333 41.062 49.4667 39.7953 51C38.062 53.2 35.9286 55.1667 33.3953 56.9C30.862 58.5667 28.162 59.9 25.2953 60.9C22.4953 61.8333 19.6953 62.3 16.8953 62.3C16.4286 62.3 15.9953 62.3 15.5953 62.3C15.1953 62.2333 14.762 62.1667 14.2953 62.1C14.0286 62.0333 13.8953 61.8667 13.8953 61.6C13.962 61.2667 14.1286 61.1333 14.3953 61.2C17.1286 61.4 20.0286 60.9667 23.0953 59.9C26.2286 58.8333 29.1953 57.3667 31.9953 55.5C34.7953 53.6333 36.9953 51.6 38.5953 49.4C40.462 46.8 41.3953 44.4 41.3953 42.2C41.3953 40.6 40.8286 39.2667 39.6953 38.2C38.562 37.0667 36.762 36.5 34.2953 36.5C31.0286 36.5 27.862 37.2 24.7953 38.6C21.7286 39.9333 18.862 41.7 16.1953 43.9C13.5953 46.1 11.362 48.5 9.49531 51.1C7.69531 53.5667 6.32865 56.1667 5.39531 58.9C4.46198 61.6333 3.99531 64.2667 3.99531 66.8C3.99531 69.7333 4.66198 72.4667 5.99531 75C7.32865 77.4667 9.36198 79.4333 12.0953 80.9C14.8286 82.4333 18.3286 83.2 22.5953 83.2C27.3286 83.2 31.6286 82.3667 35.4953 80.7C39.362 79.1 42.6953 76.9 45.4953 74.1C48.2953 71.2333 50.4286 68 51.8953 64.4C53.4286 60.7333 54.1953 56.8667 54.1953 52.8C54.1953 51.0667 54.1286 49.4 53.9953 47.8C53.9287 46.1333 53.6287 44.5333 53.0953 43C52.362 40.6667 51.4286 38.2333 50.2953 35.7C49.162 33.1667 48.1286 30.5667 47.1953 27.9C46.3286 25.2333 45.8953 22.5333 45.8953 19.8C45.8953 17.3333 46.3953 14.8667 47.3953 12.4C48.7287 9.4 50.662 7 53.1953 5.2C55.7953 3.33333 58.8287 2.4 62.2953 2.4C63.562 2.4 64.8286 2.6 66.0953 3C67.4286 3.33333 68.562 3.93333 69.4953 4.8C70.4286 5.66667 70.8953 6.86667 70.8953 8.4C70.8953 9.46666 70.562 10.2333 69.8953 10.7C69.2286 11.1667 68.5286 11.4 67.7953 11.4C67.3953 11.4 67.1286 11.3667 66.9953 11.3L67.2953 9.3C67.2953 7.63333 66.7953 6.4 65.7953 5.6C64.862 4.73333 63.6286 4.3 62.0953 4.3C60.2286 4.3 58.3953 4.83333 56.5953 5.9C54.7953 6.89999 53.462 8.2 52.5953 9.8C51.262 12.2667 50.5953 14.8 50.5953 17.4C50.5953 19.6667 50.962 21.9 51.6953 24.1C52.4953 26.2333 53.4286 28.3333 54.4953 30.4C55.6287 32.4 56.662 34.3333 57.5953 36.2C60.262 41.2667 61.5953 46.5667 61.5953 52.1C61.5953 56.9 60.5953 61.3333 58.5953 65.4C56.5953 69.4 53.8286 72.8667 50.2953 75.8C46.762 78.8 42.662 81.1 37.9953 82.7C33.3953 84.3667 28.4286 85.2 23.0953 85.2ZM70.1227 75.7C68.456 75.7 66.956 75.2333 65.6227 74.3C64.356 73.3 63.7227 71.7 63.7227 69.5C63.7227 67.1667 64.2893 64.6 65.4227 61.8C66.556 59 67.6227 56.5 68.6227 54.3C69.156 53.2333 69.856 51.8 70.7227 50C71.656 48.1333 72.656 46.3 73.7227 44.5H69.0227C68.8227 44.5 68.7227 44.3333 68.7227 44C68.7227 43.7333 68.8227 43.4667 69.0227 43.2C69.2227 42.8667 69.456 42.7 69.7227 42.7C71.5893 42.7 72.9893 42.5333 73.9227 42.2C74.856 41.8667 75.656 41.4 76.3227 40.8C77.3893 39.8667 78.4227 38.6667 79.4227 37.2C80.4893 35.7333 81.5227 34.4667 82.5227 33.4C83.256 32.4667 84.156 31.7667 85.2227 31.3C86.356 30.8333 87.0893 30.6667 87.4227 30.8C87.0893 31.2667 86.556 32.0667 85.8227 33.2C85.0893 34.3333 84.3227 35.5667 83.5227 36.9C82.7227 38.2333 81.9893 39.4667 81.3227 40.6C80.656 41.7333 80.2227 42.5 80.0227 42.9H86.6227C86.8227 42.9 86.9227 42.9667 86.9227 43.1C86.9227 43.3667 86.756 43.6667 86.4227 44C86.156 44.3333 85.8893 44.5 85.6227 44.5H79.1227C77.9227 46.5667 76.4893 49.2667 74.8227 52.6C73.2227 55.8667 71.7893 59.0333 70.5227 62.1C70.256 62.7 69.7893 63.9 69.1227 65.7C68.5227 67.5 68.2227 69.1667 68.2227 70.7C68.2227 71.7 68.4227 72.5333 68.8227 73.2C69.2893 73.8667 70.056 74.2 71.1227 74.2C72.256 74.2 73.4893 73.8 74.8227 73C76.156 72.1333 77.1893 71.2667 77.9227 70.4C79.456 68.7333 80.856 66.9 82.1227 64.9C83.3893 62.9 84.656 60.7667 85.9227 58.5C86.1227 58.2333 86.3227 58.1 86.5227 58.1C86.7893 58.1 86.9227 58.3 86.9227 58.7C86.9227 59.0333 86.856 59.3 86.7227 59.5C85.5227 61.7 84.2227 63.9 82.8227 66.1C81.4893 68.3 79.856 70.3667 77.9227 72.3C77.056 73.1667 75.8893 73.9667 74.4227 74.7C72.956 75.3667 71.5227 75.7 70.1227 75.7ZM88.4609 75.6C86.3943 75.6 84.8943 75 83.9609 73.8C83.0943 72.6 82.6609 71.1333 82.6609 69.4C82.6609 67.2 83.0943 64.8 83.9609 62.2C84.8943 59.6 85.9609 57.1333 87.1609 54.8C88.3609 52.4 89.3276 50.5333 90.0609 49.2C91.5276 46.7333 92.9943 45.2 94.4609 44.6C95.9943 44 97.8609 43.7 100.061 43.7C99.3943 43.9 98.5276 44.7 97.4609 46.1C96.3943 47.4333 95.2609 49.1 94.0609 51.1C92.9276 53.1 91.8276 55.2667 90.7609 57.6C89.7609 59.8667 88.9276 62.1 88.2609 64.3C87.6609 66.4333 87.3609 68.2667 87.3609 69.8C87.3609 70.9333 87.5609 71.8667 87.9609 72.6C88.4276 73.3333 89.1276 73.7 90.0609 73.7C90.8609 73.7 91.7943 73.4 92.8609 72.8C93.9276 72.1333 94.8943 71.3333 95.7609 70.4C98.6943 67.1333 101.061 63.5667 102.861 59.7C104.728 55.7667 106.794 51.8667 109.061 48C110.528 45.5333 111.994 44 113.461 43.4C114.994 42.8 116.861 42.5 119.061 42.5C118.394 42.7 117.494 43.5333 116.361 45C115.228 46.4 114.028 48.1667 112.761 50.3C111.561 52.4333 110.428 54.7333 109.361 57.2C108.294 59.6 107.394 61.9333 106.661 64.2C105.994 66.4667 105.661 68.4 105.661 70C105.661 71.0667 105.861 71.9667 106.261 72.7C106.728 73.3667 107.394 73.7 108.261 73.7C109.061 73.7 109.994 73.3667 111.061 72.7C112.128 72.0333 113.094 71.2667 113.961 70.4C115.494 68.7333 116.894 66.9 118.161 64.9C119.428 62.9 120.694 60.7667 121.961 58.5C122.161 58.2333 122.328 58.1 122.461 58.1C122.728 58.1 122.861 58.3 122.861 58.7C122.861 59.0333 122.794 59.3 122.661 59.5C121.461 61.7 120.194 63.9 118.861 66.1C117.528 68.3 115.894 70.3667 113.961 72.3C112.894 73.3667 111.628 74.2667 110.161 75C108.761 75.6667 107.361 75.8667 105.961 75.6C104.094 75.2667 102.761 74.5333 101.961 73.4C101.161 72.2 100.761 70.7667 100.761 69.1C100.761 67.7667 100.961 66.3667 101.361 64.9C100.561 66.1667 99.6943 67.4333 98.7609 68.7C97.8943 69.9667 96.8943 71.1667 95.7609 72.3C94.8276 73.2333 93.6943 74.0333 92.3609 74.7C91.0943 75.3 89.7943 75.6 88.4609 75.6ZM145.696 75.7C143.429 75.7 141.796 74.9333 140.796 73.4C139.796 71.8 139.296 69.8333 139.296 67.5C139.296 65.1667 139.696 62.8667 140.496 60.6L141.496 57.7L137.796 63.4C136.863 64.8667 135.629 66.5333 134.096 68.4C132.629 70.2 131.063 71.7667 129.396 73.1C127.263 74.8333 125.329 75.7 123.596 75.7C121.929 75.7 120.629 75 119.696 73.6C118.829 72.2 118.396 70.4333 118.396 68.3C118.396 66.8333 118.596 65.3667 118.996 63.9C119.996 60.1667 121.529 56.7667 123.596 53.7C125.663 50.5667 128.263 47.8667 131.396 45.6C132.729 44.6 134.429 43.8 136.496 43.2C138.563 42.5333 140.629 42.2 142.696 42.2C143.496 42.2 144.296 42.2667 145.096 42.4C145.896 42.5333 146.629 42.7 147.296 42.9C147.829 41.7 148.429 40.3667 149.096 38.9C149.829 37.4333 150.529 36 151.196 34.6C151.929 33.1333 152.529 31.9333 152.996 31C154.329 28.2667 155.996 25 157.996 21.2C159.996 17.4 162.329 13.8667 164.996 10.6C167.063 8 169.429 5.73333 172.096 3.8C174.829 1.8 177.463 0.799996 179.996 0.799996C181.529 0.799996 182.663 1.26666 183.396 2.2C184.196 3.13333 184.596 4.26666 184.596 5.6C184.596 6.8 184.363 7.9 183.896 8.9C182.829 11.3 181.129 13.8333 178.796 16.5C176.529 19.1667 174.063 21.7667 171.396 24.3C168.796 26.7667 166.463 29 164.396 31C162.663 32.6667 161.129 34.1333 159.796 35.4C158.463 36.6 157.229 37.8 156.096 39C154.963 40.2 153.729 41.5333 152.396 43C150.929 46.3333 149.563 49.6667 148.296 53C147.096 56.3333 146.096 59.4333 145.296 62.3C144.563 65.1667 144.196 67.5667 144.196 69.5C144.196 72.2333 145.029 73.7 146.696 73.9C147.829 73.9 148.896 73.5333 149.896 72.8C150.896 72.0667 151.763 71.2667 152.496 70.4C154.029 68.7333 155.429 66.9 156.696 64.9C157.963 62.9 159.229 60.7667 160.496 58.5C160.696 58.2333 160.896 58.1 161.096 58.1C161.363 58.1 161.496 58.3 161.496 58.7C161.496 59.0333 161.429 59.3 161.296 59.5C160.096 61.7 158.796 63.9 157.396 66.1C156.063 68.3 154.429 70.3667 152.496 72.3C151.629 73.1667 150.629 73.9667 149.496 74.7C148.363 75.3667 147.096 75.7 145.696 75.7ZM153.996 39.5C155.529 37.7667 156.963 36.2333 158.296 34.9C159.629 33.5 161.263 31.8 163.196 29.8C165.063 27.9333 167.196 25.7333 169.596 23.2C172.063 20.6667 174.363 18.1 176.496 15.5C178.696 12.9 180.296 10.6 181.296 8.6C182.096 7 182.496 5.7 182.496 4.7C182.496 3.03333 181.663 2.2 179.996 2.2C177.929 2.2 175.763 3.16666 173.496 5.09999C171.296 6.96666 169.129 9.53333 166.996 12.8C165.196 15.6 163.496 18.6667 161.896 22C160.296 25.2667 158.829 28.4333 157.496 31.5C156.163 34.5667 154.996 37.2333 153.996 39.5ZM125.696 72.6C126.896 72.6 128.329 71.8 129.996 70.2C131.729 68.5333 133.496 66.5 135.296 64.1C137.163 61.6333 138.863 59.2333 140.396 56.9C140.863 56.2333 141.463 55.1333 142.196 53.6C142.996 52.0667 143.829 50.4333 144.696 48.7C145.563 46.9 146.296 45.3333 146.896 44C146.496 43.8667 146.096 43.8 145.696 43.8C145.363 43.8 144.996 43.8 144.596 43.8C142.529 43.8 140.463 44.3667 138.396 45.5C136.396 46.5667 134.596 48 132.996 49.8C130.729 52.2667 128.829 54.9333 127.296 57.8C125.763 60.6 124.696 63.0667 124.096 65.2C123.763 66.4 123.596 67.6333 123.596 68.9C123.596 69.9 123.729 70.7667 123.996 71.5C124.329 72.2333 124.896 72.6 125.696 72.6ZM169.473 75.8C165.606 75.8 162.873 74.8 161.273 72.8C160.473 71.9333 159.906 70.9 159.573 69.7C159.239 68.5 159.073 67.2667 159.073 66C159.073 64.4 159.273 62.8 159.673 61.2C160.073 59.5333 160.573 58 161.173 56.6C162.106 54.4 163.339 52.2 164.873 50C166.406 47.7333 168.239 45.8333 170.373 44.3C172.573 42.7667 174.973 42 177.573 42C179.306 42 180.673 42.4333 181.673 43.3C182.673 44.1667 183.173 45.5 183.173 47.3C183.173 49.3667 182.539 51.4667 181.273 53.6C180.006 55.6667 178.406 57.4 176.473 58.8C174.539 60.2 172.539 60.9 170.473 60.9C168.606 60.9 166.973 60.2333 165.573 58.9C165.173 59.9667 164.839 61.1667 164.573 62.5C164.306 63.7667 164.173 65.0667 164.173 66.4C164.173 68.4667 164.573 70.2667 165.373 71.8C166.239 73.3333 167.773 74.1 169.973 74.1C171.573 74.1 173.106 73.7 174.573 72.9C176.106 72.0333 177.473 71 178.673 69.8C180.006 68.4 181.273 66.9 182.473 65.3C183.673 63.7 184.839 61.8333 185.973 59.7C186.106 59.5 186.206 59.4 186.273 59.4C186.539 59.4 186.673 59.7 186.673 60.3C186.673 60.7 186.539 61.1333 186.273 61.6C185.273 63.4 184.106 65.2333 182.773 67.1C181.439 68.9 180.073 70.4667 178.673 71.8C177.406 73 176.039 73.9667 174.573 74.7C173.106 75.4333 171.406 75.8 169.473 75.8ZM166.073 57.4C166.539 58.0667 167.073 58.5667 167.673 58.9C168.339 59.1667 169.006 59.3 169.673 59.3C171.273 59.3 172.939 58.7 174.673 57.5C176.406 56.2333 177.806 54.7667 178.873 53.1C179.339 52.3667 179.739 51.4 180.073 50.2C180.473 49 180.673 47.8667 180.673 46.8C180.673 45.8667 180.473 45.0667 180.073 44.4C179.739 43.6667 179.039 43.3 177.973 43.3C176.773 43.3 175.339 44.0333 173.673 45.5C172.073 46.9667 170.539 48.8667 169.073 51.2C168.606 52 168.073 52.9333 167.473 54C166.939 55.0667 166.473 56.2 166.073 57.4ZM204.445 75.6C202.511 75.6 200.978 75 199.845 73.8C198.778 72.6 198.245 71.1 198.245 69.3C198.245 68.4333 198.411 67.4333 198.745 66.3C199.678 63.3667 201.145 60.4667 203.145 57.6C205.211 54.6667 206.911 51.7667 208.245 48.9C208.711 47.9667 208.945 47.1333 208.945 46.4C208.945 45.6667 208.711 45.1333 208.245 44.8C207.845 44.4 207.345 44.2 206.745 44.2C205.878 44.2 204.778 44.5667 203.445 45.3C202.178 45.9667 200.711 47.2667 199.045 49.2C198.045 50.4 196.911 51.8667 195.645 53.6C194.378 55.3333 193.345 56.9 192.545 58.3C191.211 60.5667 190.011 62.8667 188.945 65.2C187.878 67.4667 186.945 69.5667 186.145 71.5C185.478 73.0333 184.678 74.0333 183.745 74.5C182.811 74.9 181.911 75.0667 181.045 75C180.178 74.9333 179.511 74.9333 179.045 75C180.911 71.3333 182.745 67.4667 184.545 63.4C186.345 59.3333 187.878 55.2667 189.145 51.2C189.745 49.3333 190.245 47.5333 190.645 45.8C191.045 44 191.211 42.8333 191.145 42.3V42.1C191.145 41.5667 191.411 41.4333 191.945 41.7C192.811 42.1667 193.411 42.8667 193.745 43.8C194.078 44.6667 194.245 45.6667 194.245 46.8C194.245 48.0667 194.078 49.4333 193.745 50.9C193.411 52.3 193.011 53.5667 192.545 54.7C193.411 53.5 194.345 52.3 195.345 51.1C196.345 49.8333 197.445 48.6333 198.645 47.5C200.045 46.1 201.545 44.9 203.145 43.9C204.745 42.8333 206.478 42.3 208.345 42.3C210.145 42.3 211.445 42.7 212.245 43.5C213.111 44.3 213.545 45.3667 213.545 46.7C213.545 48.1 213.145 49.7 212.345 51.5C211.478 53.5667 210.411 55.6333 209.145 57.7C207.945 59.7667 206.845 61.7667 205.845 63.7C205.645 64.1 205.311 64.7333 204.845 65.6C204.445 66.4 204.078 67.3 203.745 68.3C203.611 68.7667 203.478 69.2667 203.345 69.8C203.211 70.2667 203.145 70.7667 203.145 71.3C203.145 71.9667 203.278 72.6 203.545 73.2C203.878 73.7333 204.478 74 205.345 74C206.478 74 207.545 73.6333 208.545 72.9C209.611 72.1 210.511 71.2667 211.245 70.4C212.778 68.7333 214.178 66.9 215.445 64.9C216.778 62.8333 218.078 60.6667 219.345 58.4C219.545 58.1333 219.678 58 219.745 58C220.011 58 220.145 58.3 220.145 58.9C220.145 59.3 220.078 59.6 219.945 59.8C218.745 62 217.478 64.1667 216.145 66.3C214.811 68.3667 213.178 70.3667 211.245 72.3C210.378 73.1667 209.378 73.9333 208.245 74.6C207.111 75.2667 205.845 75.6 204.445 75.6ZM222.662 75.7C220.995 75.7 219.495 75.2333 218.162 74.3C216.895 73.3 216.262 71.7 216.262 69.5C216.262 67.1667 216.828 64.6 217.962 61.8C219.095 59 220.162 56.5 221.162 54.3C221.695 53.2333 222.395 51.8 223.262 50C224.195 48.1333 225.195 46.3 226.262 44.5H221.562C221.362 44.5 221.262 44.3333 221.262 44C221.262 43.7333 221.362 43.4667 221.562 43.2C221.762 42.8667 221.995 42.7 222.262 42.7C224.128 42.7 225.528 42.5333 226.462 42.2C227.395 41.8667 228.195 41.4 228.862 40.8C229.928 39.8667 230.962 38.6667 231.962 37.2C233.028 35.7333 234.062 34.4667 235.062 33.4C235.795 32.4667 236.695 31.7667 237.762 31.3C238.895 30.8333 239.628 30.6667 239.962 30.8C239.628 31.2667 239.095 32.0667 238.362 33.2C237.628 34.3333 236.862 35.5667 236.062 36.9C235.262 38.2333 234.528 39.4667 233.862 40.6C233.195 41.7333 232.762 42.5 232.562 42.9H239.162C239.362 42.9 239.462 42.9667 239.462 43.1C239.462 43.3667 239.295 43.6667 238.962 44C238.695 44.3333 238.428 44.5 238.162 44.5H231.662C230.462 46.5667 229.028 49.2667 227.362 52.6C225.762 55.8667 224.328 59.0333 223.062 62.1C222.795 62.7 222.328 63.9 221.662 65.7C221.062 67.5 220.762 69.1667 220.762 70.7C220.762 71.7 220.962 72.5333 221.362 73.2C221.828 73.8667 222.595 74.2 223.662 74.2C224.795 74.2 226.028 73.8 227.362 73C228.695 72.1333 229.728 71.2667 230.462 70.4C231.995 68.7333 233.395 66.9 234.662 64.9C235.928 62.9 237.195 60.7667 238.462 58.5C238.662 58.2333 238.862 58.1 239.062 58.1C239.328 58.1 239.462 58.3 239.462 58.7C239.462 59.0333 239.395 59.3 239.262 59.5C238.062 61.7 236.762 63.9 235.362 66.1C234.028 68.3 232.395 70.3667 230.462 72.3C229.595 73.1667 228.428 73.9667 226.962 74.7C225.495 75.3667 224.062 75.7 222.662 75.7ZM244.5 23C243.7 23 243.3 22.7 243.3 22.1C243.3 21.7 243.667 21.5 244.4 21.5C246.533 21.0333 248.3 20.1 249.7 18.7C251.1 17.2333 252.167 15.9 252.9 14.7H252.3C251.433 14.7 250.733 14.4667 250.2 14C249.667 13.4667 249.4 12.8 249.4 12C249.4 10.9333 249.767 10.0333 250.5 9.3C251.3 8.5 252.233 8.06666 253.3 8C255.3 8 256.3 9.13333 256.3 11.4C256.233 12.5333 255.667 13.9667 254.6 15.7C253.6 17.3667 252.233 18.9 250.5 20.3C248.767 21.7 246.767 22.6 244.5 23ZM266.87 75.8C265.47 75.8 264.17 75.5333 262.97 75C261.836 74.4 260.903 73.4 260.17 72C259.636 70.8 259.37 69.5 259.37 68.1C259.37 66.6333 259.636 65.2667 260.17 64C260.703 62.8667 261.303 61.8667 261.97 61C262.636 60.1333 263.37 59.6333 264.17 59.5C264.77 58.1667 265.603 56.6333 266.67 54.9C267.736 53.1 268.936 51.3 270.27 49.5C271.67 47.7 273.07 46.1 274.47 44.7C276.27 42.9 278.203 41.4667 280.27 40.4C282.336 39.3333 284.403 38.8 286.47 38.8C288.07 38.8 289.536 39.1333 290.87 39.8C292.003 40.3333 292.57 41.1 292.57 42.1C292.57 42.5667 292.403 42.9667 292.07 43.3C291.803 43.6333 291.503 43.8 291.17 43.8C290.77 43.8 290.37 43.5667 289.97 43.1C289.236 42.1667 288.003 41.4667 286.27 41C286.003 40.9333 285.736 40.9 285.47 40.9C285.203 40.8333 284.936 40.8 284.67 40.8C282.87 40.8 281.536 41.4 280.67 42.6C279.803 43.8 279.37 45.2667 279.37 47C279.37 48.6667 279.736 50.6 280.47 52.8C281.203 54.9333 281.57 57.3333 281.57 60C281.57 62.1333 281.136 64.3 280.27 66.5C279.803 67.5667 279.236 68.6 278.57 69.6C277.97 70.6 277.203 71.5 276.27 72.3L274.87 73.3C275.07 73.3667 275.27 73.4333 275.47 73.5C275.67 73.5 275.87 73.5 276.07 73.5C277.203 73.5 278.47 73.1667 279.87 72.5C281.27 71.7667 282.503 70.8667 283.57 69.8C285.17 68.2667 286.536 66.6333 287.67 64.9C288.87 63.1667 289.97 61.3667 290.97 59.5C291.036 59.2333 291.203 59.1 291.47 59.1C291.803 59.1 291.97 59.3667 291.97 59.9C291.97 60.1667 291.87 60.4667 291.67 60.8C290.67 62.6667 289.436 64.6333 287.97 66.7C286.57 68.7 285.103 70.4 283.57 71.8C282.37 72.8667 281.07 73.6667 279.67 74.2C278.336 74.6667 277.203 74.9 276.27 74.9C275.603 74.9 275.07 74.8333 274.67 74.7C274.27 74.5667 273.903 74.3667 273.57 74.1C272.636 74.5667 271.57 74.9667 270.37 75.3C269.236 75.6333 268.07 75.8 266.87 75.8ZM270.67 73.2C272.003 72.2667 273.036 71.0667 273.77 69.6C274.57 68.1333 275.17 66.5667 275.57 64.9C276.103 62.9 276.403 60.9667 276.47 59.1C276.603 57.1667 276.67 55.4667 276.67 54V50.9C276.67 49.5 276.836 48.0667 277.17 46.6C277.57 45.0667 278.103 43.9333 278.77 43.2C277.903 43.4 276.836 44.1667 275.57 45.5C274.303 46.7667 273.036 48.2667 271.77 50C270.503 51.7333 269.336 53.4667 268.27 55.2C267.27 56.9333 266.503 58.3667 265.97 59.5C267.236 59.4333 268.103 59.8 268.57 60.6C269.036 61.3333 269.17 61.8667 268.97 62.2C268.436 62.0667 268.07 62 267.87 62C266.87 62 265.936 62.3667 265.07 63.1C264.203 63.7667 263.47 64.7667 262.87 66.1C262.27 67.3667 261.97 68.6 261.97 69.8C261.97 71.4 262.436 72.5667 263.37 73.3C264.303 74.0333 265.403 74.4 266.67 74.4C268.136 74.4 269.47 74 270.67 73.2ZM333.238 79C332.904 79 332.704 78.8667 332.638 78.6C332.571 78.3333 332.671 78.1 332.938 77.9C333.871 77.1667 334.771 76.4 335.638 75.6C336.571 74.8 337.304 73.9333 337.838 73L338.938 71.1C340.404 68.5 341.504 65.6333 342.238 62.5C342.971 59.3 343.504 55.9667 343.838 52.5C344.238 49.0333 344.571 45.6333 344.838 42.3C345.104 38.9 345.538 35.7 346.138 32.7C346.471 30.9667 346.871 29.3333 347.338 27.8C347.871 26.2 348.504 24.7333 349.238 23.4C349.971 22.1333 350.938 20.7333 352.138 19.2C353.338 17.6667 354.671 16.4 356.138 15.4C357.071 14.7333 357.904 14.2333 358.638 13.9C359.438 13.5667 360.071 13.3333 360.538 13.2C358.671 12.2 356.271 11.3333 353.338 10.6C350.471 9.8 347.604 9.4 344.738 9.4C341.671 9.4 338.604 9.83333 335.538 10.7C332.538 11.5 329.704 12.6333 327.038 14.1C324.238 15.6333 321.604 17.7 319.138 20.3C316.671 22.8333 314.638 25.6333 313.038 28.7C311.438 31.7667 310.504 34.9 310.238 38.1C310.171 39.7 310.371 41.2 310.838 42.6C311.304 43.9333 312.104 44.9667 313.238 45.7C313.771 46.0333 314.404 46.3 315.138 46.5C315.938 46.6333 316.738 46.7 317.538 46.7C319.004 46.7 320.371 46.4667 321.638 46C321.838 45.9333 322.071 45.9 322.338 45.9C322.671 45.9 322.838 46 322.838 46.2C322.838 46.6 322.471 46.9333 321.738 47.2C320.404 47.8667 318.771 48.2 316.838 48.2C314.838 48.2 313.038 47.8 311.438 47C309.638 46.0667 308.371 44.7 307.638 42.9C306.971 41.0333 306.638 39.1333 306.638 37.2C306.638 33.2667 307.604 29.6 309.538 26.2C311.471 22.8 313.938 19.8 316.938 17.2C320.004 14.6 323.238 12.6 326.638 11.2C329.571 9.93333 332.571 9.03333 335.638 8.5C338.704 7.96666 341.704 7.7 344.638 7.7C347.504 7.7 350.538 8.13333 353.738 9C357.004 9.8 359.771 11.0667 362.038 12.8C362.304 13 362.438 13.2 362.438 13.4V13.5C362.438 13.9 362.204 14.1 361.738 14.1C359.538 14.1 357.704 14.8667 356.238 16.4C354.838 17.9333 353.704 19.8333 352.838 22.1C352.038 24.3667 351.438 26.7 351.038 29.1C350.704 31.4333 350.504 33.4 350.438 35C350.371 39.8 350.204 44.4667 349.938 49C349.671 53.5333 348.938 57.8 347.738 61.8C346.604 65.8 344.604 69.4333 341.738 72.7C341.671 72.7667 341.638 72.8667 341.638 73C341.638 73.4667 341.971 73.4667 342.638 73C344.638 71.2667 346.671 69 348.738 66.2C350.804 63.4 352.771 60.5 354.638 57.5C356.571 54.4333 358.271 51.7 359.738 49.3C362.538 44.7 365.238 40.2 367.838 35.8C370.504 31.3333 372.971 27.4333 375.238 24.1C377.504 20.7667 379.471 18.5 381.138 17.3C383.938 15.3 386.104 14.0333 387.638 13.5C389.238 12.9 390.771 12.6667 392.238 12.8C392.704 12.8 392.938 13 392.938 13.4C392.938 13.8667 392.704 14.1 392.238 14.1C390.171 14.1 388.504 14.8 387.238 16.2C385.971 17.6 384.738 19.3667 383.538 21.5C382.471 23.4333 381.771 25.7667 381.438 28.5C381.104 31.1667 380.904 34.1 380.838 37.3C380.771 40.4333 380.671 43.7 380.538 47.1C380.471 50.4333 380.138 53.7667 379.538 57.1C378.938 60.4333 377.871 63.6333 376.338 66.7C374.871 69.7 372.738 72.4667 369.938 75C372.204 74.2 374.571 72.2333 377.038 69.1C379.571 65.9667 382.171 62.1 384.838 57.5C387.571 52.9 390.371 47.9667 393.238 42.7C396.171 37.4333 399.138 32.2333 402.138 27.1C405.204 21.9 408.271 17.2 411.338 13C414.271 9.06667 417.371 6.4 420.638 5C423.971 3.53333 426.871 2.79999 429.338 2.79999C432.538 2.79999 435.004 3.93333 436.738 6.2C436.871 6.33333 436.938 6.5 436.938 6.7C436.938 6.9 436.838 7.03333 436.638 7.1C436.504 7.16666 436.338 7.1 436.138 6.89999C435.738 6.56666 435.271 6.33333 434.738 6.2C434.204 6.06666 433.604 5.99999 432.938 5.99999C432.071 5.99999 431.138 6.09999 430.138 6.3C426.671 7.03333 423.338 8.63333 420.138 11.1C416.938 13.5667 413.871 16.6333 410.938 20.3C408.071 23.9 405.271 27.8667 402.538 32.2C399.871 36.4667 397.238 40.8333 394.638 45.3C392.038 49.7667 389.471 54.0333 386.938 58.1C384.471 62.1667 381.971 65.8 379.438 69C376.904 72.2 374.338 74.7 371.738 76.5C369.138 78.3 366.471 79.1333 363.738 79C363.404 79 363.171 78.8667 363.038 78.6C362.971 78.4 363.104 78.1667 363.438 77.9C366.171 76.0333 368.304 73.4333 369.838 70.1C371.371 66.7 372.504 62.9667 373.238 58.9C373.971 54.8333 374.504 50.8 374.838 46.8C375.238 42.8 375.671 39.2667 376.138 36.2C376.471 33.7333 377.071 31 377.938 28C378.871 25 380.171 22.2667 381.838 19.8C383.571 17.2667 385.771 15.5 388.438 14.5C386.838 14.8333 385.104 15.8667 383.238 17.6C381.438 19.3333 379.538 21.5 377.538 24.1C375.604 26.7 373.671 29.5333 371.738 32.6C369.804 35.6 367.971 38.6 366.238 41.6C364.504 44.6 362.938 47.3333 361.538 49.8C360.204 52.2 359.071 54.1333 358.138 55.6C356.004 59.0667 353.804 62.3667 351.538 65.5C349.338 68.6333 347.138 71.2667 344.938 73.4L343.338 74.7C341.671 76.1 340.004 77.2 338.338 78C336.671 78.8 334.971 79.1333 333.238 79ZM404.887 77C402.353 77 400.153 76.2 398.287 74.6C396.487 72.9333 395.587 70.4 395.587 67C395.587 64.8667 395.953 62.6667 396.687 60.4C397.487 58.0667 398.353 56 399.287 54.2C401.02 50.9333 403.187 48.1 405.787 45.7C408.453 43.2333 411.62 42 415.287 42C418.82 42 421.287 42.9667 422.687 44.9C424.087 46.8333 424.787 49.2 424.787 52C424.787 53.1333 424.687 54.3 424.487 55.5C423.953 58.7667 422.853 61.9333 421.187 65C421.653 65.6667 422.253 66.2333 422.987 66.7C423.787 67.1 424.653 67.3 425.587 67.3C427.187 67.3 428.553 66.8667 429.687 66C430.82 65.1333 431.787 64.0667 432.587 62.8C433.453 61.4667 434.187 60.2333 434.787 59.1C435.187 58.3667 435.553 58 435.887 58C436.087 58 436.187 58.1333 436.187 58.4C436.187 58.6667 435.987 59.2667 435.587 60.2C434.453 62.4667 433.12 64.4333 431.587 66.1C430.053 67.7667 428.053 68.6 425.587 68.6C423.32 68.6 421.587 67.8 420.387 66.2C418.52 69.2667 416.253 71.8333 413.587 73.9C410.92 75.9667 408.02 77 404.887 77ZM405.087 75.8C408.353 75.8 411.587 74.2 414.787 71C415.72 70.0667 416.553 69.1 417.287 68.1C418.087 67.0333 418.787 65.9667 419.387 64.9C418.52 63.9 417.887 62.8333 417.487 61.7C417.153 60.5 416.987 59.3667 416.987 58.3C416.987 56.6333 417.287 55.1667 417.887 53.9C418.487 52.5667 419.32 51.9 420.387 51.9C420.92 51.9 421.42 52.1667 421.887 52.7C422.42 53.2333 422.753 54.0667 422.887 55.2C423.087 54.2667 423.187 53.2667 423.187 52.2C423.187 49.6667 422.72 47.6667 421.787 46.2C420.853 44.6667 419.287 43.9 417.087 43.9C415.753 43.9 414.387 44.4333 412.987 45.5C411.587 46.5 410.253 47.7333 408.987 49.2C407.787 50.6667 406.72 52.1667 405.787 53.7C404.853 55.2333 404.153 56.5 403.687 57.5C402.553 59.9667 401.72 62.1667 401.187 64.1C400.72 66.0333 400.487 67.7333 400.487 69.2C400.487 71.3333 400.92 72.9667 401.787 74.1C402.72 75.2333 403.82 75.8 405.087 75.8ZM449.08 75.7C446.68 75.7 444.913 75.1333 443.78 74C442.713 72.8 442.18 71.3667 442.18 69.7C442.18 68.3667 442.48 67 443.08 65.6C443.88 63.5333 444.88 61.6333 446.08 59.9C447.346 58.1667 448.646 56.4333 449.98 54.7C451.313 52.9 452.48 50.9667 453.48 48.9C453.88 48.1 454.08 47.3667 454.08 46.7C454.08 45.8333 453.78 45.2 453.18 44.8C452.646 44.3333 452.08 44.1 451.48 44.1C450.68 44.1 449.78 44.3 448.78 44.7C447.78 45.1 446.78 45.5667 445.78 46.1C444.846 46.6333 443.946 47.2 443.08 47.8C442.213 48.4 441.48 48.7333 440.88 48.8C440.68 49.5333 440.246 50.7 439.58 52.3C438.913 53.8333 438.113 55.5333 437.18 57.4C436.246 59.2 435.28 60.9 434.28 62.5C434.013 62.9 433.78 63.1 433.58 63.1C433.38 63.1 433.28 62.9 433.28 62.5C433.28 62.0333 433.38 61.6667 433.58 61.4C434.913 59 436.08 56.7 437.08 54.5C438.08 52.3 438.846 50.3667 439.38 48.7C438.513 48.6333 437.913 48.3667 437.58 47.9C437.313 47.4333 437.18 46.8667 437.18 46.2C437.18 45.4667 437.313 44.7 437.58 43.9C437.913 43.0333 438.18 42.3667 438.38 41.9C439.446 42.4333 440.613 42.8 441.88 43C443.213 43.2 444.513 43.3 445.78 43.3C447.313 43.3 448.813 43.2333 450.28 43.1C451.746 42.9667 453.08 42.9 454.28 42.9C455.68 42.9 456.613 43.2333 457.08 43.9C457.613 44.5667 457.88 45.4 457.88 46.4C457.88 47.4667 457.646 48.6333 457.18 49.9C456.78 51.1 456.38 52.1 455.98 52.9C455.246 54.3667 454.28 55.9667 453.08 57.7C451.946 59.3667 450.88 61.1 449.88 62.9C448.88 64.7 448.18 66.4333 447.78 68.1C447.58 68.9667 447.48 69.7333 447.48 70.4C447.48 71.6667 447.746 72.5667 448.28 73.1C448.88 73.6333 449.58 73.9 450.38 73.9C451.513 73.9 452.713 73.5667 453.98 72.9C455.246 72.1667 456.246 71.3667 456.98 70.5C458.513 68.8333 459.913 66.9667 461.18 64.9C462.446 62.8333 463.713 60.6667 464.98 58.4C465.113 58.2 465.246 58.1 465.38 58.1C465.646 58.1 465.78 58.3667 465.78 58.9C465.78 59.3 465.68 59.6667 465.48 60C464.28 62.2 463.046 64.3667 461.78 66.5C460.513 68.5667 458.913 70.5667 456.98 72.5C456.046 73.4333 454.913 74.2 453.58 74.8C452.246 75.4 450.746 75.7 449.08 75.7ZM483.965 75.9C481.565 75.9 479.732 75.2 478.465 73.8C477.198 72.4 476.298 70.7 475.765 68.7C475.298 66.6333 475.065 64.6667 475.065 62.8C475.065 61.0667 475.232 59.3 475.565 57.5C475.965 55.7 476.665 54.1667 477.665 52.9C478.265 52.1667 478.965 51.6 479.765 51.2C480.632 50.8 480.998 50.8333 480.865 51.3C480.732 51.5667 480.665 51.8333 480.665 52.1C480.732 52.6333 481.032 53.0667 481.565 53.4C482.098 53.6667 482.765 53.8 483.565 53.8C484.365 53.8 485.198 53.6667 486.065 53.4C486.998 53.1333 487.832 52.7333 488.565 52.2C489.432 51.6 490.198 50.8333 490.865 49.9C491.532 48.9 491.865 47.8667 491.865 46.8C491.865 45.7333 491.565 45 490.965 44.6C490.432 44.2 489.798 44 489.065 44C488.732 44 488.365 44.0333 487.965 44.1C487.565 44.1667 487.198 44.2667 486.865 44.4C484.732 45.0667 482.598 46.3333 480.465 48.2C478.398 50 476.432 52.1 474.565 54.5C472.765 56.9 471.132 59.3 469.665 61.7C468.732 63.3 467.732 65.1667 466.665 67.3C465.598 69.3667 464.898 71.0333 464.565 72.3C464.232 73.5 463.665 74.2667 462.865 74.6C462.132 74.9333 461.365 75.0667 460.565 75C459.765 75 459.132 75 458.665 75C458.998 74.0667 459.432 72.8 459.965 71.2C460.565 69.6 461.165 68 461.765 66.4C462.365 64.7333 462.865 63.4333 463.265 62.5C464.998 58.2333 466.865 53.6667 468.865 48.8C470.932 43.9333 473.132 39.1 475.465 34.3C477.865 29.4333 480.465 24.8667 483.265 20.6C486.132 16.3333 489.198 12.6667 492.465 9.6C495.798 6.46666 499.398 4.2 503.265 2.79999C503.598 2.73333 503.965 2.66666 504.365 2.6C504.765 2.53333 505.165 2.5 505.565 2.5C506.632 2.5 507.532 2.73333 508.265 3.19999C509.198 3.79999 509.665 4.83333 509.665 6.3C509.665 7.43333 509.365 8.76667 508.765 10.3C507.698 12.9667 505.965 15.8333 503.565 18.9C501.165 21.9667 498.332 25.1 495.065 28.3C491.198 31.9667 487.498 35.2667 483.965 38.2C480.432 41.0667 477.498 43.3667 475.165 45.1C473.765 48.1667 472.598 50.9 471.665 53.3C470.732 55.6333 470.098 57.2667 469.765 58.2C471.232 56.0667 472.865 53.9667 474.665 51.9C476.465 49.7667 478.298 48 480.165 46.6C484.165 43.6 487.932 42.1 491.465 42.1C493.465 42.1 494.832 42.7 495.565 43.9C495.765 44.1667 495.898 44.5 495.965 44.9C496.032 45.3 496.065 45.6667 496.065 46C496.065 47.2667 495.732 48.5333 495.065 49.8C494.398 51 493.598 51.9333 492.665 52.6C491.598 53.4 490.332 54.0667 488.865 54.6C487.465 55.0667 486.098 55.3 484.765 55.3C483.365 55.3 482.165 55 481.165 54.4L480.365 53.9C480.232 54.9 480.098 56.0667 479.965 57.4C479.832 58.6667 479.765 60 479.765 61.4C479.765 62.0667 479.765 62.7333 479.765 63.4C479.832 64 479.898 64.6333 479.965 65.3C480.098 66.3667 480.298 67.6 480.565 69C480.898 70.3333 481.432 71.5 482.165 72.5C482.898 73.5 483.865 74.0333 485.065 74.1C486.198 74.1 487.298 73.7 488.365 72.9C489.432 72.1 490.332 71.2667 491.065 70.4C492.598 68.7333 493.898 67.0667 494.965 65.4C496.098 63.6667 497.498 61.2667 499.165 58.2C499.298 58 499.398 57.9 499.465 57.9C499.732 57.9 499.865 58.2 499.865 58.8C499.865 59.2 499.765 59.6 499.565 60C498.498 62 497.298 64.1 495.965 66.3C494.632 68.5 492.998 70.5667 491.065 72.5C490.198 73.3667 489.132 74.1667 487.865 74.9C486.665 75.5667 485.365 75.9 483.965 75.9ZM476.065 43.1C479.865 40.2333 483.298 37.3667 486.365 34.5C489.432 31.6333 492.565 28.5333 495.765 25.2C496.698 24.2 497.898 22.8667 499.365 21.2C500.898 19.5333 502.365 17.7333 503.765 15.8C505.232 13.8667 506.332 12 507.065 10.2C507.732 8.6 508.065 7.3 508.065 6.3C508.065 4.5 507.265 3.6 505.665 3.6C504.798 3.6 503.832 3.86666 502.765 4.4C501.698 4.93333 500.698 5.66667 499.765 6.6C496.632 9.53333 493.598 13.1 490.665 17.3C487.732 21.5 485.032 25.8667 482.565 30.4C480.098 34.8667 477.932 39.1 476.065 43.1ZM501.147 75.8C499.747 75.8 498.447 75.5333 497.247 75C496.114 74.4 495.18 73.4 494.447 72C493.914 70.8 493.647 69.5 493.647 68.1C493.647 66.6333 493.914 65.2667 494.447 64C494.98 62.8667 495.58 61.8667 496.247 61C496.914 60.1333 497.647 59.6333 498.447 59.5C499.047 58.1667 499.947 56.4 501.147 54.2C502.414 52 503.814 49.8 505.347 47.6C506.947 45.4 508.447 43.6333 509.847 42.3C510.18 41.9667 510.747 41.4333 511.547 40.7C512.414 39.9 513.38 39.1333 514.447 38.4C515.58 37.6667 516.614 37.2333 517.547 37.1C517.747 37.0333 518.014 37 518.347 37C519.147 37 519.747 37.2 520.147 37.6C520.547 38 520.747 38.4667 520.747 39C520.747 39.5333 520.547 40.0667 520.147 40.6C519.747 41.1333 519.114 41.5667 518.247 41.9C517.914 41.9667 517.414 42.0667 516.747 42.2C516.147 42.3333 515.247 42.4 514.047 42.4C513.58 43.0667 513.347 44 513.347 45.2C513.347 46.5333 513.547 48.0333 513.947 49.7C514.414 51.3667 514.847 53 515.247 54.6C515.714 56.1333 515.947 57.4333 515.947 58.5C516.08 60.9667 515.68 63.4667 514.747 66C513.88 68.4667 512.48 70.5667 510.547 72.3L509.147 73.3C509.347 73.3667 509.547 73.4333 509.747 73.5C509.947 73.5 510.147 73.5 510.347 73.5C511.48 73.5 512.747 73.1667 514.147 72.5C515.547 71.7667 516.78 70.8667 517.847 69.8C519.447 68.2667 520.814 66.6333 521.947 64.9C523.147 63.1667 524.247 61.3667 525.247 59.5C525.314 59.2333 525.48 59.1 525.747 59.1C526.08 59.1 526.247 59.3667 526.247 59.9C526.247 60.1667 526.147 60.4667 525.947 60.8C524.947 62.6667 523.714 64.6333 522.247 66.7C520.847 68.7 519.38 70.4 517.847 71.8C516.647 72.8667 515.347 73.6667 513.947 74.2C512.614 74.6667 511.48 74.9 510.547 74.9C509.88 74.9 509.347 74.8333 508.947 74.7C508.547 74.5667 508.18 74.3667 507.847 74.1C506.914 74.5667 505.847 74.9667 504.647 75.3C503.514 75.6333 502.347 75.8 501.147 75.8ZM504.947 73.2C506.28 72.2667 507.314 71.0667 508.047 69.6C508.847 68.1333 509.447 66.5667 509.847 64.9C510.38 62.9 510.68 60.8333 510.747 58.7C510.88 56.5667 510.947 54.6333 510.947 52.9V49.4C510.947 48 511.114 46.5667 511.447 45.1C511.847 43.6333 512.247 42.7333 512.647 42.4C511.647 42.8 510.547 43.7 509.347 45.1C508.147 46.4333 506.947 48.0333 505.747 49.9C504.547 51.7 503.447 53.4667 502.447 55.2C501.514 56.9333 500.78 58.3667 500.247 59.5C501.514 59.4333 502.38 59.8 502.847 60.6C503.314 61.3333 503.447 61.8667 503.247 62.2C502.714 62.0667 502.347 62 502.147 62C501.147 62 500.214 62.3667 499.347 63.1C498.48 63.7667 497.747 64.7667 497.147 66.1C496.547 67.3667 496.247 68.6 496.247 69.8C496.247 71.4 496.714 72.5667 497.647 73.3C498.58 74.0333 499.68 74.4 500.947 74.4C502.414 74.4 503.747 74 504.947 73.2Z" fill="#B5943E"/>
</svg>
