<?xml version="1.0" encoding="utf-8"?>
<!-- Generator: Adobe Illustrator 16.0.0, SVG Export Plug-In . SVG Version: 6.00 Build 0)  -->
<!DOCTYPE svg PUBLIC "-//W3C//DTD SVG 1.1//EN" "http://www.w3.org/Graphics/SVG/1.1/DTD/svg11.dtd">
<svg version="1.1" id="レイヤー_1" xmlns="http://www.w3.org/2000/svg" xmlns:xlink="http://www.w3.org/1999/xlink" x="0px"
	 y="0px" width="45.354px" height="51.023px" viewBox="0 0 45.354 51.023" enable-background="new 0 0 45.354 51.023"
	 xml:space="preserve">
<g display="none">
	<g display="inline">
		
			<rect x="0.082" y="21.013" transform="matrix(0.7071 -0.7071 0.7071 0.7071 -10.2935 18.4972)" fill="#828282" width="34.198" height="1.322"/>
		
			<rect x="0.082" y="21.012" transform="matrix(0.7071 0.7071 -0.7071 0.7071 20.3581 -5.8011)" fill="#828282" width="34.199" height="1.323"/>
	</g>
	<g display="inline">
		<path fill="#828282" d="M6.832,41.41c0.376,0,0.747-0.064,1.116-0.191v0.471c-0.382,0.109-0.77,0.166-1.162,0.166
			c-0.639,0-1.149-0.219-1.534-0.656c-0.386-0.434-0.578-1.045-0.578-1.834c0-0.783,0.185-1.395,0.555-1.834
			c0.369-0.438,0.882-0.658,1.537-0.658c0.402,0,0.786,0.059,1.148,0.166v0.475c-0.368-0.129-0.735-0.193-1.103-0.193
			c-0.501,0-0.892,0.18-1.175,0.539c-0.284,0.359-0.426,0.859-0.426,1.508c0,0.643,0.147,1.145,0.442,1.504
			C5.949,41.23,6.341,41.41,6.832,41.41z"/>
		<path fill="#828282" d="M10.797,36.939v4.398h2.344v0.447H10.24v-4.848h0.557V36.939z"/>
		<path fill="#828282" d="M18.318,41.199c-0.375,0.439-0.89,0.656-1.545,0.656c-0.654,0-1.169-0.219-1.543-0.656
			c-0.374-0.434-0.562-1.045-0.562-1.834s0.188-1.4,0.562-1.836c0.374-0.438,0.889-0.654,1.543-0.654
			c0.656,0,1.17,0.219,1.545,0.654c0.375,0.436,0.562,1.047,0.562,1.836C18.879,40.154,18.693,40.766,18.318,41.199z M17.932,37.838
			c-0.267-0.348-0.652-0.52-1.158-0.52c-0.504,0-0.891,0.172-1.158,0.52c-0.267,0.346-0.401,0.854-0.401,1.527
			c0,0.672,0.135,1.182,0.401,1.527c0.268,0.344,0.654,0.518,1.158,0.518c0.506,0,0.893-0.174,1.158-0.518
			c0.27-0.346,0.404-0.855,0.404-1.527C18.336,38.691,18.201,38.184,17.932,37.838z"/>
		<path fill="#828282" d="M22.035,36.873c0.482,0,0.932,0.094,1.35,0.279v0.504c-0.432-0.232-0.867-0.352-1.309-0.352
			c-0.268,0-0.482,0.061-0.646,0.186c-0.161,0.125-0.237,0.312-0.237,0.566c0,0.434,0.289,0.746,0.869,0.939
			c0.549,0.186,0.932,0.393,1.153,0.623c0.222,0.236,0.332,0.537,0.332,0.904c0,0.434-0.131,0.764-0.392,0.988
			c-0.264,0.227-0.646,0.34-1.149,0.34c-0.461,0-0.881-0.107-1.262-0.32v-0.52c0.375,0.266,0.782,0.395,1.221,0.395
			c0.701,0,1.052-0.295,1.052-0.883c0-0.238-0.078-0.438-0.228-0.598s-0.397-0.301-0.744-0.42c-0.916-0.311-1.375-0.793-1.375-1.453
			c0-0.371,0.119-0.662,0.358-0.869C21.27,36.979,21.605,36.873,22.035,36.873z"/>
		<path fill="#828282" d="M28.541,37.385h-2.303v1.58h2.172v0.426h-2.172v1.953h2.303v0.443h-2.836v-4.848h2.836V37.385
			L28.541,37.385z"/>
	</g>
</g>
<rect x="-1.175" y="1.273" fill="none" width="48.001" height="47.999"/>
<g>
	<line fill="none" stroke="#828282" stroke-width="1.4" stroke-miterlimit="10" x1="22.875" y1="43.174" x2="22.875" y2="7.65"/>
	<polyline fill="none" stroke="#828282" stroke-width="1.4" stroke-miterlimit="10" points="5.594,24.931 22.875,7.65 
		40.155,24.931 	"/>
</g>
</svg>
