<?xml version="1.0" encoding="utf-8"?>
<!-- Generator: Adobe Illustrator 16.0.0, SVG Export Plug-In . SVG Version: 6.00 Build 0)  -->
<!DOCTYPE svg PUBLIC "-//W3C//DTD SVG 1.1//EN" "http://www.w3.org/Graphics/SVG/1.1/DTD/svg11.dtd">
<svg version="1.1" id="レイヤー_1" xmlns="http://www.w3.org/2000/svg" xmlns:xlink="http://www.w3.org/1999/xlink" x="0px"
	 y="0px" width="36px" height="36px" viewBox="-6 -6 36 36" enable-background="new -6 -6 36 36" xml:space="preserve">
<g>
	<path fill="#828282" d="M1.282,28.262v-4.849h0.537l1.595,2.924h0.013l1.587-2.924h0.559v4.849H5.041v-3.957H5.027l-1.361,2.517
		H3.168l-1.362-2.517H1.792v3.957H1.282z"/>
	<path fill="#828282" d="M10.731,23.857H8.428v1.581H10.6v0.426H8.428v1.953h2.304v0.444H7.896v-4.849h2.836V23.857z"/>
	<path fill="#828282" d="M12.991,28.262v-4.849h0.544l2.351,3.985H15.9v-3.985h0.516v4.849h-0.544l-2.35-3.985h-0.014v3.985H12.991z
		"/>
	<path fill="#828282" d="M19.213,23.413v3.208c0,0.432,0.093,0.747,0.282,0.949c0.188,0.205,0.477,0.307,0.865,0.307
		c0.392,0,0.682-0.102,0.87-0.307c0.191-0.202,0.286-0.518,0.286-0.949v-3.208h0.52v3.189c0,0.57-0.146,1-0.432,1.29
		c-0.29,0.29-0.705,0.436-1.25,0.436c-0.544,0-0.961-0.146-1.249-0.436c-0.287-0.29-0.432-0.72-0.432-1.29v-3.189H19.213z"/>
</g>
<g>
	<rect x="-5.086" y="-4.646" fill="#828282" width="34.199" height="1.322"/>
	<rect x="0.649" y="-0.255" fill="#828282" width="22.729" height="1.323"/>
	<rect x="0.649" y="4.489" fill="#828282" width="22.729" height="1.323"/>
	<rect x="0.649" y="9.232" fill="#828282" width="22.729" height="1.323"/>
	<rect x="0.649" y="13.976" fill="#828282" width="22.729" height="1.325"/>
	<rect x="-5.086" y="18.236" fill="#828282" width="34.199" height="1.323"/>
</g>
</svg>
