<?xml version="1.0" encoding="utf-8"?>
<!-- Generator: Adobe Illustrator 16.0.0, SVG Export Plug-In . SVG Version: 6.00 Build 0)  -->
<!DOCTYPE svg PUBLIC "-//W3C//DTD SVG 1.1//EN" "http://www.w3.org/Graphics/SVG/1.1/DTD/svg11.dtd">
<svg version="1.1" id="レイヤー_1" xmlns="http://www.w3.org/2000/svg" xmlns:xlink="http://www.w3.org/1999/xlink" x="0px"
	 y="0px" width="36px" height="36px" viewBox="-6 -6 36 36" enable-background="new -6 -6 36 36" xml:space="preserve">
<g>
	<path fill="none" d="M-6-6h36v36H-6V-6z"/>
</g>
<g>
	
		<rect x="-5.016" y="6.79" transform="matrix(0.7071 -0.7071 0.7071 0.7071 -1.7293 10.7266)" fill="#828282" width="34.198" height="1.322"/>
	
		<rect x="-5.016" y="6.789" transform="matrix(0.7071 0.7071 -0.7071 0.7071 8.8068 -6.3618)" fill="#828282" width="34.199" height="1.322"/>
</g>
<g>
	<path fill="#828282" d="M1.734,27.896c0.376,0,0.747-0.064,1.116-0.192v0.471c-0.382,0.11-0.77,0.166-1.162,0.166
		c-0.639,0-1.149-0.218-1.534-0.655c-0.386-0.434-0.578-1.046-0.578-1.834c0-0.784,0.185-1.396,0.555-1.834
		C0.5,23.579,1.013,23.36,1.668,23.36c0.402,0,0.786,0.055,1.148,0.166v0.472c-0.368-0.129-0.735-0.193-1.103-0.193
		c-0.501,0-0.892,0.18-1.175,0.538c-0.284,0.359-0.426,0.86-0.426,1.509c0,0.641,0.147,1.143,0.442,1.504
		C0.851,27.716,1.243,27.896,1.734,27.896z"/>
	<path fill="#828282" d="M5.699,23.426v4.397h2.344v0.451H5.142v-4.849H5.699z"/>
	<path fill="#828282" d="M13.221,27.686c-0.376,0.438-0.89,0.655-1.545,0.655s-1.17-0.218-1.544-0.655
		C9.758,27.252,9.57,26.64,9.57,25.852c0-0.789,0.188-1.401,0.562-1.837c0.374-0.437,0.889-0.654,1.544-0.654
		s1.169,0.218,1.545,0.654c0.374,0.436,0.561,1.048,0.561,1.837C13.781,26.64,13.595,27.252,13.221,27.686z M12.834,24.323
		c-0.267-0.346-0.653-0.519-1.158-0.519s-0.892,0.173-1.159,0.519c-0.267,0.346-0.401,0.854-0.401,1.528
		c0,0.672,0.135,1.182,0.401,1.527c0.268,0.345,0.654,0.518,1.159,0.518s0.892-0.173,1.158-0.518
		c0.269-0.346,0.404-0.855,0.404-1.527C13.238,25.178,13.103,24.669,12.834,24.323z"/>
	<path fill="#828282" d="M16.936,23.36c0.483,0,0.933,0.093,1.35,0.278v0.505c-0.431-0.234-0.866-0.352-1.309-0.352
		c-0.267,0-0.481,0.062-0.643,0.186s-0.24,0.312-0.24,0.565c0,0.434,0.29,0.747,0.87,0.943c0.548,0.182,0.932,0.389,1.154,0.623
		c0.221,0.235,0.332,0.537,0.332,0.904c0,0.433-0.131,0.763-0.391,0.988c-0.263,0.226-0.645,0.339-1.149,0.339
		c-0.461,0-0.881-0.107-1.262-0.319v-0.523c0.375,0.266,0.782,0.398,1.221,0.398c0.7,0,1.05-0.295,1.05-0.883
		c0-0.238-0.077-0.438-0.226-0.599c-0.149-0.16-0.399-0.3-0.745-0.419c-0.915-0.31-1.375-0.794-1.375-1.453
		c0-0.372,0.12-0.662,0.36-0.87C16.172,23.464,16.507,23.36,16.936,23.36z"/>
	<path fill="#828282" d="M23.443,23.87H21.14v1.581h2.173v0.426H21.14v1.953h2.304v0.444h-2.836v-4.849h2.836V23.87z"/>
</g>
</svg>
