<?xml version="1.0" encoding="utf-8"?>
<!-- Generator: Adobe Illustrator 16.0.0, SVG Export Plug-In . SVG Version: 6.00 Build 0)  -->
<!DOCTYPE svg PUBLIC "-//W3C//DTD SVG 1.1//EN" "http://www.w3.org/Graphics/SVG/1.1/DTD/svg11.dtd">
<svg version="1.1" id="レイヤー_1" xmlns="http://www.w3.org/2000/svg" xmlns:xlink="http://www.w3.org/1999/xlink" x="0px"
	 y="0px" width="24px" height="24px" viewBox="0 0 24 24" enable-background="new 0 0 24 24" xml:space="preserve">
<g>
	<path fill="none" d="M0,0h24v24H0V0z"/>
</g>
<g>
	<g>
		
			<rect x="3.168" y="8.919" transform="matrix(0.7072 -0.7071 0.7071 0.7072 -3.1308 11.3036)" fill="#3C3C3C" width="17.826" height="1.025"/>
		
			<rect x="3.169" y="8.919" transform="matrix(-0.7072 -0.707 0.707 -0.7072 13.9585 24.6436)" fill="#3C3C3C" width="17.827" height="1.025"/>
	</g>
</g>
<g>
	<path fill="#3C3C3C" d="M5.783,21.138c0.228,0,0.453-0.039,0.676-0.116v0.285c-0.231,0.067-0.466,0.101-0.705,0.101
		c-0.386,0-0.696-0.132-0.93-0.396c-0.233-0.264-0.35-0.635-0.35-1.112c0-0.476,0.112-0.846,0.336-1.111s0.535-0.398,0.932-0.398
		c0.244,0,0.477,0.033,0.696,0.101v0.286c-0.223-0.078-0.445-0.117-0.668-0.117c-0.303,0-0.541,0.108-0.712,0.326
		s-0.258,0.521-0.258,0.914c0,0.389,0.089,0.692,0.268,0.911C5.247,21.028,5.485,21.138,5.783,21.138z"/>
	<path fill="#3C3C3C" d="M8.186,18.429v2.665h1.421v0.273H7.848v-2.938H8.186z"/>
	<path fill="#3C3C3C" d="M12.745,21.011c-0.229,0.265-0.54,0.396-0.937,0.396c-0.397,0-0.709-0.132-0.936-0.396
		c-0.227-0.264-0.34-0.635-0.34-1.112s0.113-0.849,0.34-1.113c0.227-0.265,0.539-0.396,0.936-0.396c0.397,0,0.708,0.132,0.937,0.396
		c0.227,0.265,0.34,0.636,0.34,1.113S12.972,20.747,12.745,21.011z M12.511,18.973c-0.162-0.21-0.396-0.314-0.702-0.314
		c-0.306,0-0.54,0.104-0.703,0.314c-0.162,0.209-0.243,0.518-0.243,0.926c0,0.407,0.081,0.716,0.243,0.926
		c0.163,0.209,0.396,0.313,0.703,0.313c0.306,0,0.54-0.104,0.702-0.313c0.162-0.21,0.244-0.519,0.244-0.926
		C12.755,19.49,12.673,19.182,12.511,18.973z"/>
	<path fill="#3C3C3C" d="M14.996,18.389c0.293,0,0.565,0.057,0.817,0.169v0.306c-0.261-0.142-0.524-0.213-0.793-0.213
		c-0.161,0-0.291,0.037-0.389,0.112s-0.146,0.189-0.146,0.343c0,0.263,0.176,0.453,0.527,0.571c0.332,0.11,0.565,0.236,0.7,0.378
		c0.134,0.143,0.201,0.325,0.201,0.548c0,0.263-0.079,0.463-0.237,0.6s-0.391,0.205-0.696,0.205c-0.279,0-0.534-0.064-0.765-0.193
		v-0.317c0.228,0.161,0.475,0.241,0.74,0.241c0.424,0,0.636-0.179,0.636-0.535c0-0.145-0.046-0.266-0.137-0.362
		s-0.241-0.182-0.451-0.254c-0.555-0.188-0.833-0.481-0.833-0.881c0-0.226,0.072-0.401,0.218-0.527
		C14.533,18.452,14.736,18.389,14.996,18.389z"/>
	<path fill="#3C3C3C" d="M18.94,18.698h-1.396v0.958h1.316v0.258h-1.316v1.184h1.396v0.27h-1.719v-2.938h1.719V18.698z"/>
</g>
</svg>
