<svg width="350" height="79" viewBox="0 0 350 79" fill="none" xmlns="http://www.w3.org/2000/svg">
<path d="M20.8672 63.2C20.8005 63.4 20.6339 63.5 20.3672 63.5C19.7672 63.5 19.5672 63.2333 19.7672 62.7C21.3005 59.8333 23.6339 56.8667 26.7672 53.8C29.9005 50.7333 33.7005 48.0667 38.1672 45.8C42.6339 43.4667 47.6005 42.0667 53.0672 41.6C53.5339 41.5333 53.9672 41.5 54.3672 41.5C54.7672 41.5 55.2005 41.5 55.6672 41.5C60.0005 41.5 63.1339 42.4667 65.0672 44.4C67.0005 46.2667 67.8339 48.6333 67.5672 51.5C67.2339 55.5 65.8005 59.1667 63.2672 62.5C60.8005 65.8333 57.6005 68.7 53.6672 71.1C49.8005 73.5 45.5672 75.3333 40.9672 76.6C36.3672 77.9333 31.8005 78.6 27.2672 78.6C22.4672 78.6 18.0005 77.7667 13.8672 76.1C9.80052 74.5 6.50052 71.9667 3.96719 68.5C1.50052 64.9667 0.267188 60.3667 0.267188 54.7C0.267188 54.1667 0.267188 53.6333 0.267188 53.1C0.267188 52.5667 0.300521 52.0333 0.367188 51.5C0.767188 47.2333 1.96719 42.8333 3.96719 38.3C6.03386 33.7667 8.80052 29.4333 12.2672 25.3C15.8005 21.1667 19.9339 17.4667 24.6672 14.2C29.4672 10.9333 34.7672 8.33333 40.5672 6.4C46.3672 4.46666 52.6005 3.49999 59.2672 3.49999C63.6672 3.49999 66.9005 4.3 68.9672 5.9C71.1005 7.5 72.1672 9.36667 72.1672 11.5C72.1672 13.1667 71.5339 14.9 70.2672 16.7C69.0005 18.4333 67.1672 19.9667 64.7672 21.3C62.1005 22.7667 59.1672 23.9333 55.9672 24.8C52.8339 25.6 49.8005 26.2 46.8672 26.6C43.9339 26.9333 41.5005 27.2 39.5672 27.4H39.4672C39.2672 27.4 39.1672 27.3 39.1672 27.1C39.1672 26.7667 39.4005 26.5667 39.8672 26.5C44.2672 26.0333 48.5672 25.1667 52.7672 23.9C56.9672 22.5667 60.5672 21 63.5672 19.2C65.2339 18.2 66.5672 16.9667 67.5672 15.5C68.5672 14.0333 69.0672 12.5667 69.0672 11.1C69.0672 9.43333 68.2339 7.99999 66.5672 6.79999C64.9672 5.53333 62.2672 4.89999 58.4672 4.89999C52.6672 4.89999 47.2339 5.86666 42.1672 7.8C37.1672 9.66667 32.6005 12.2333 28.4672 15.5C24.4005 18.7 20.8339 22.3667 17.7672 26.5C14.7672 30.5667 12.3672 34.8333 10.5672 39.3C8.83386 43.7 7.76719 48 7.36719 52.2C7.30052 52.8667 7.23386 53.5 7.16719 54.1C7.16719 54.7 7.16719 55.3 7.16719 55.9C7.16719 61.0333 8.13386 65.2 10.0672 68.4C12.0005 71.6 14.5672 73.9 17.7672 75.3C20.9672 76.7667 24.4672 77.5 28.2672 77.5C32.2005 77.5 36.1672 76.8333 40.1672 75.5C44.1672 74.1667 47.9005 72.3333 51.3672 70C54.8339 67.6 57.6672 64.8 59.8672 61.6C62.1339 58.4 63.4005 54.9667 63.6672 51.3C63.9339 48.5667 63.2005 46.4 61.4672 44.8C59.8005 43.1333 57.0005 42.4667 53.0672 42.8C47.8005 43.2667 43.0005 44.6333 38.6672 46.9C34.3339 49.1 30.6339 51.6667 27.5672 54.6C24.5672 57.5333 22.3339 60.4 20.8672 63.2ZM73.1055 73.6C71.0388 73.6 69.5388 73 68.6055 71.8C67.7388 70.6 67.3055 69.1333 67.3055 67.4C67.3055 65.2 67.7388 62.8 68.6055 60.2C69.5388 57.6 70.6055 55.1333 71.8055 52.8C73.0055 50.4 73.9721 48.5333 74.7055 47.2C76.1721 44.7333 77.6388 43.2 79.1055 42.6C80.6388 42 82.5055 41.7 84.7055 41.7C84.0388 41.9 83.1721 42.7 82.1055 44.1C81.0388 45.4333 79.9055 47.1 78.7055 49.1C77.5721 51.1 76.4721 53.2667 75.4055 55.6C74.4055 57.8667 73.5721 60.1 72.9055 62.3C72.3055 64.4333 72.0055 66.2667 72.0055 67.8C72.0055 68.9333 72.2055 69.8667 72.6055 70.6C73.0721 71.3333 73.7721 71.7 74.7055 71.7C75.5055 71.7 76.4388 71.4 77.5055 70.8C78.5721 70.1333 79.5388 69.3333 80.4055 68.4C83.3388 65.1333 85.7055 61.5667 87.5055 57.7C89.3721 53.7667 91.4388 49.8667 93.7055 46C95.1721 43.5333 96.6388 42 98.1055 41.4C99.6388 40.8 101.505 40.5 103.705 40.5C103.039 40.7 102.139 41.5333 101.005 43C99.8721 44.4 98.6721 46.1667 97.4055 48.3C96.2055 50.4333 95.0721 52.7333 94.0055 55.2C92.9388 57.6 92.0388 59.9333 91.3055 62.2C90.6388 64.4667 90.3055 66.4 90.3055 68C90.3055 69.0667 90.5055 69.9667 90.9055 70.7C91.3721 71.3667 92.0388 71.7 92.9055 71.7C93.7055 71.7 94.6388 71.3667 95.7055 70.7C96.7721 70.0333 97.7388 69.2667 98.6055 68.4C100.139 66.7333 101.539 64.9 102.805 62.9C104.072 60.9 105.339 58.7667 106.605 56.5C106.805 56.2333 106.972 56.1 107.105 56.1C107.372 56.1 107.505 56.3 107.505 56.7C107.505 57.0333 107.439 57.3 107.305 57.5C106.105 59.7 104.839 61.9 103.505 64.1C102.172 66.3 100.539 68.3667 98.6055 70.3C97.5388 71.3667 96.2721 72.2667 94.8055 73C93.4055 73.6667 92.0055 73.8667 90.6055 73.6C88.7388 73.2667 87.4055 72.5333 86.6055 71.4C85.8055 70.2 85.4055 68.7667 85.4055 67.1C85.4055 65.7667 85.6055 64.3667 86.0055 62.9C85.2055 64.1667 84.3388 65.4333 83.4055 66.7C82.5388 67.9667 81.5388 69.1667 80.4055 70.3C79.4721 71.2333 78.3388 72.0333 77.0055 72.7C75.7388 73.3 74.4388 73.6 73.1055 73.6ZM125.441 71.2C124.307 72.1333 123.174 72.8 122.041 73.2C120.974 73.6667 119.974 73.9 119.041 73.9C117.374 73.9 115.974 73.3333 114.841 72.2C113.774 71 113.241 69.4333 113.241 67.5C113.241 66.3667 113.507 65 114.041 63.4C114.907 61 116.207 58.7 117.941 56.5C119.674 54.3 121.341 52.0667 122.941 49.8C123.941 48.4667 124.441 47.1667 124.441 45.9C124.441 45.2333 124.241 44.6667 123.841 44.2C123.507 43.7333 122.874 43.4667 121.941 43.4C121.407 43.2667 120.807 43.2 120.141 43.2C119.474 43.2 118.807 43.2 118.141 43.2H115.341C114.941 43.2 114.574 43.2 114.241 43.2C113.907 43.2 113.607 43.1667 113.341 43.1C113.074 44.7667 112.507 46.6333 111.641 48.7C110.841 50.7667 109.907 52.8333 108.841 54.9C107.774 56.9667 106.741 58.8333 105.741 60.5C105.474 60.9 105.241 61.1 105.041 61.1C104.841 61.1 104.741 60.9 104.741 60.5C104.741 60.0333 104.841 59.6667 105.041 59.4C106.441 56.6667 107.774 54 109.041 51.4C110.374 48.7333 111.274 45.9667 111.741 43.1C110.207 42.2333 109.174 40.7333 108.641 38.6C108.574 38.2667 108.507 37.9667 108.441 37.7C108.441 37.3667 108.441 37.0667 108.441 36.8C108.441 35.6 108.674 34.6 109.141 33.8C109.674 32.9333 110.274 32.5 110.941 32.5C111.874 32.5 112.641 33.4 113.241 35.2C113.374 35.6667 113.474 36.2 113.541 36.8C113.607 37.3333 113.641 37.8667 113.641 38.4C113.641 39 113.607 39.5667 113.541 40.1C113.541 40.5667 113.507 40.9667 113.441 41.3C113.907 41.4333 114.507 41.5333 115.241 41.6C116.041 41.6667 116.907 41.7 117.841 41.7C119.241 41.7 120.707 41.6667 122.241 41.6C123.774 41.4667 125.074 41.4 126.141 41.4C127.407 41.4 128.274 41.6667 128.741 42.2C129.207 42.7333 129.441 43.4 129.441 44.2C129.441 45.2 129.174 46.3 128.641 47.5C128.174 48.6333 127.707 49.6 127.241 50.4C126.374 52 125.541 53.4333 124.741 54.7C124.007 55.9 123.174 57.2 122.241 58.6C120.841 60.7333 119.807 62.7 119.141 64.5C118.541 66.2333 118.241 67.7 118.241 68.9C118.241 70.9667 119.007 72 120.541 72C121.807 72 123.441 71.1 125.441 69.3C126.707 68.1667 127.874 66.8333 128.941 65.3C130.074 63.7 131.074 62.1 131.941 60.5C132.874 58.8333 133.641 57.4667 134.241 56.4C134.374 56.2 134.507 56.1 134.641 56.1C134.907 56.1 135.041 56.3667 135.041 56.9C135.041 57.3 134.941 57.6667 134.741 58C133.607 60.0667 132.307 62.3333 130.841 64.8C129.374 67.2667 127.574 69.4 125.441 71.2ZM153.077 71.2C151.944 72.1333 150.811 72.8 149.677 73.2C148.611 73.6667 147.611 73.9 146.677 73.9C145.011 73.9 143.611 73.3333 142.477 72.2C141.411 71 140.877 69.4333 140.877 67.5C140.877 66.3667 141.144 65 141.677 63.4C142.544 61 143.844 58.7 145.577 56.5C147.311 54.3 148.977 52.0667 150.577 49.8C151.577 48.4667 152.077 47.1667 152.077 45.9C152.077 45.2333 151.877 44.6667 151.477 44.2C151.144 43.7333 150.511 43.4667 149.577 43.4C149.044 43.2667 148.444 43.2 147.777 43.2C147.111 43.2 146.444 43.2 145.777 43.2H142.977C142.577 43.2 142.211 43.2 141.877 43.2C141.544 43.2 141.244 43.1667 140.977 43.1C140.711 44.7667 140.144 46.6333 139.277 48.7C138.477 50.7667 137.544 52.8333 136.477 54.9C135.411 56.9667 134.377 58.8333 133.377 60.5C133.111 60.9 132.877 61.1 132.677 61.1C132.477 61.1 132.377 60.9 132.377 60.5C132.377 60.0333 132.477 59.6667 132.677 59.4C134.077 56.6667 135.411 54 136.677 51.4C138.011 48.7333 138.911 45.9667 139.377 43.1C137.844 42.2333 136.811 40.7333 136.277 38.6C136.211 38.2667 136.144 37.9667 136.077 37.7C136.077 37.3667 136.077 37.0667 136.077 36.8C136.077 35.6 136.311 34.6 136.777 33.8C137.311 32.9333 137.911 32.5 138.577 32.5C139.511 32.5 140.277 33.4 140.877 35.2C141.011 35.6667 141.111 36.2 141.177 36.8C141.244 37.3333 141.277 37.8667 141.277 38.4C141.277 39 141.244 39.5667 141.177 40.1C141.177 40.5667 141.144 40.9667 141.077 41.3C141.544 41.4333 142.144 41.5333 142.877 41.6C143.677 41.6667 144.544 41.7 145.477 41.7C146.877 41.7 148.344 41.6667 149.877 41.6C151.411 41.4667 152.711 41.4 153.777 41.4C155.044 41.4 155.911 41.6667 156.377 42.2C156.844 42.7333 157.077 43.4 157.077 44.2C157.077 45.2 156.811 46.3 156.277 47.5C155.811 48.6333 155.344 49.6 154.877 50.4C154.011 52 153.177 53.4333 152.377 54.7C151.644 55.9 150.811 57.2 149.877 58.6C148.477 60.7333 147.444 62.7 146.777 64.5C146.177 66.2333 145.877 67.7 145.877 68.9C145.877 70.9667 146.644 72 148.177 72C149.444 72 151.077 71.1 153.077 69.3C154.344 68.1667 155.511 66.8333 156.577 65.3C157.711 63.7 158.711 62.1 159.577 60.5C160.511 58.8333 161.277 57.4667 161.877 56.4C162.011 56.2 162.144 56.1 162.277 56.1C162.544 56.1 162.677 56.3667 162.677 56.9C162.677 57.3 162.577 57.6667 162.377 58C161.244 60.0667 159.944 62.3333 158.477 64.8C157.011 67.2667 155.211 69.4 153.077 71.2ZM164.114 73.6C162.247 73.6 160.881 73 160.014 71.8C159.147 70.5333 158.714 69 158.714 67.2C158.714 66.6667 158.747 66.1333 158.814 65.6C158.947 65 159.081 64.4 159.214 63.8C159.947 61.1333 161.081 58.1667 162.614 54.9C164.214 51.5667 165.747 48.6 167.214 46C168.081 44.5333 168.881 43.5 169.614 42.9C170.347 42.2333 171.147 41.7667 172.014 41.5C172.881 41.1667 173.914 40.8 175.114 40.4C175.447 40.2667 175.781 40.1667 176.114 40.1C176.447 40.0333 176.814 39.9667 177.214 39.9C175.881 41.2333 174.514 42.8333 173.114 44.7C171.781 46.5667 170.314 49.1333 168.714 52.4C167.847 54.1333 166.981 56.0667 166.114 58.2C165.314 60.3333 164.614 62.3333 164.014 64.2C163.414 66.0667 163.081 67.5333 163.014 68.6C162.947 69.8667 163.114 70.7667 163.514 71.3C163.914 71.8333 164.447 72.1 165.114 72.1C166.247 72.1 167.314 71.7 168.314 70.9C169.381 70.1 170.314 69.2667 171.114 68.4C172.581 66.7333 173.947 64.9 175.214 62.9C176.547 60.9 177.847 58.7667 179.114 56.5C179.314 56.2333 179.481 56.1 179.614 56.1C179.881 56.1 180.014 56.3 180.014 56.7C180.014 57.0333 179.947 57.3 179.814 57.5C178.614 59.7 177.347 61.9 176.014 64.1C174.681 66.3 173.047 68.3667 171.114 70.3C170.247 71.1667 169.214 71.9333 168.014 72.6C166.881 73.2667 165.581 73.6 164.114 73.6ZM176.314 34.3C175.581 34.3 174.947 34.0333 174.414 33.5C173.947 32.9667 173.714 32.3333 173.714 31.6C173.714 30.6667 174.081 29.8333 174.814 29.1C175.614 28.3667 176.481 27.9333 177.414 27.8C178.147 27.8 178.747 28.0667 179.214 28.6C179.747 29.0667 180.014 29.7 180.014 30.5C180.014 31.3667 179.647 32.2333 178.914 33.1C178.181 33.9 177.314 34.3 176.314 34.3ZM187.402 74.1C183.935 74.1 181.468 73.0667 180.002 71C178.535 68.8667 177.802 66.3667 177.802 63.5C177.802 60.3667 178.468 57.2 179.802 54C180.802 51.6 182.102 49.3667 183.702 47.3C185.302 45.1667 187.202 43.4333 189.402 42.1C191.668 40.7667 194.135 40.1 196.802 40.1C198.802 40.1 200.335 40.5667 201.402 41.5C202.535 42.4333 203.102 43.7333 203.102 45.4C203.102 45.9333 203.035 46.5 202.902 47.1C202.835 47.7 202.635 48.3667 202.302 49.1C201.835 50.3 201.235 51.3667 200.502 52.3C199.768 53.2333 198.935 53.9667 198.002 54.5C197.535 54.7667 197.002 54.9 196.402 54.9C195.935 54.9 195.502 54.7667 195.102 54.5C194.702 54.2333 194.502 53.8 194.502 53.2C194.502 52.1333 195.068 51 196.202 49.8C197.402 48.5333 198.935 47.8667 200.802 47.8C201.135 46.9333 201.302 46.1667 201.302 45.5C201.302 44.4333 200.968 43.5333 200.302 42.8C199.635 42 198.602 41.6 197.202 41.6C195.468 41.6 193.768 42.2667 192.102 43.6C190.435 44.8667 188.935 46.5667 187.602 48.7C186.335 50.7667 185.302 52.9667 184.502 55.3C184.102 56.3667 183.735 57.7333 183.402 59.4C183.068 61 182.902 62.6 182.902 64.2C182.902 66.2667 183.335 68.1333 184.202 69.8C185.135 71.4 186.868 72.2 189.402 72.2C191.202 72.2 192.902 71.7 194.502 70.7C196.102 69.6333 197.535 68.3333 198.802 66.8C200.135 65.2667 201.302 63.7 202.302 62.1C203.368 60.4333 204.235 58.9667 204.902 57.7C204.968 57.4333 205.135 57.3 205.402 57.3C205.735 57.3 205.902 57.5667 205.902 58.1C205.902 58.3667 205.802 58.6667 205.602 59C204.202 61.4667 202.702 63.8667 201.102 66.2C199.502 68.4667 197.602 70.3667 195.402 71.9C193.202 73.3667 190.535 74.1 187.402 74.1ZM208.066 73.6C206 73.6 204.5 73 203.566 71.8C202.7 70.6 202.266 69.1333 202.266 67.4C202.266 65.2 202.7 62.8 203.566 60.2C204.5 57.6 205.566 55.1333 206.766 52.8C207.966 50.4 208.933 48.5333 209.666 47.2C211.133 44.7333 212.6 43.2 214.066 42.6C215.6 42 217.466 41.7 219.666 41.7C219 41.9 218.133 42.7 217.066 44.1C216 45.4333 214.866 47.1 213.666 49.1C212.533 51.1 211.433 53.2667 210.366 55.6C209.366 57.8667 208.533 60.1 207.866 62.3C207.266 64.4333 206.966 66.2667 206.966 67.8C206.966 68.9333 207.166 69.8667 207.566 70.6C208.033 71.3333 208.733 71.7 209.666 71.7C210.466 71.7 211.4 71.4 212.466 70.8C213.533 70.1333 214.5 69.3333 215.366 68.4C218.3 65.1333 220.666 61.5667 222.466 57.7C224.333 53.7667 226.4 49.8667 228.666 46C230.133 43.5333 231.6 42 233.066 41.4C234.6 40.8 236.466 40.5 238.666 40.5C238 40.7 237.1 41.5333 235.966 43C234.833 44.4 233.633 46.1667 232.366 48.3C231.166 50.4333 230.033 52.7333 228.966 55.2C227.9 57.6 227 59.9333 226.266 62.2C225.6 64.4667 225.266 66.4 225.266 68C225.266 69.0667 225.466 69.9667 225.866 70.7C226.333 71.3667 227 71.7 227.866 71.7C228.666 71.7 229.6 71.3667 230.666 70.7C231.733 70.0333 232.7 69.2667 233.566 68.4C235.1 66.7333 236.5 64.9 237.766 62.9C239.033 60.9 240.3 58.7667 241.566 56.5C241.766 56.2333 241.933 56.1 242.066 56.1C242.333 56.1 242.466 56.3 242.466 56.7C242.466 57.0333 242.4 57.3 242.266 57.5C241.066 59.7 239.8 61.9 238.466 64.1C237.133 66.3 235.5 68.3667 233.566 70.3C232.5 71.3667 231.233 72.2667 229.766 73C228.366 73.6667 226.966 73.8667 225.566 73.6C223.7 73.2667 222.366 72.5333 221.566 71.4C220.766 70.2 220.366 68.7667 220.366 67.1C220.366 65.7667 220.566 64.3667 220.966 62.9C220.166 64.1667 219.3 65.4333 218.366 66.7C217.5 67.9667 216.5 69.1667 215.366 70.3C214.433 71.2333 213.3 72.0333 211.966 72.7C210.7 73.3 209.4 73.6 208.066 73.6ZM246.102 73.6C243.702 73.6 242.035 72.9 241.102 71.5C240.168 70.1 239.702 68.3333 239.702 66.2C239.702 64 240.035 61.6 240.702 59C241.435 56.4 242.268 53.8667 243.202 51.4C244.202 48.9333 245.135 46.7667 246.002 44.9C246.935 43.0333 247.568 41.7333 247.902 41C249.102 38.4667 250.568 35.6 252.302 32.4C254.102 29.2 256.102 25.9333 258.302 22.6C260.568 19.2667 262.935 16.1 265.402 13.1C267.935 10.1 270.535 7.49999 273.202 5.3C275.935 3.1 278.635 1.6 281.302 0.799994C282.035 0.599996 282.702 0.499998 283.302 0.499998C284.435 0.499998 285.368 0.833331 286.102 1.5C286.902 2.1 287.302 3.16666 287.302 4.7C287.302 5.76666 287.035 7.1 286.502 8.7C285.635 11.0333 284.168 13.6333 282.102 16.5C280.035 19.3 277.602 22.2333 274.802 25.3C272.002 28.3 269.035 31.2667 265.902 34.2C262.835 37.1333 259.835 39.8667 256.902 42.4C253.968 44.9333 251.368 47.1 249.102 48.9C248.502 50.1667 247.935 51.4 247.402 52.6C246.935 53.8 246.502 54.9667 246.102 56.1C245.902 56.7 245.602 57.6 245.202 58.8C244.802 60 244.435 61.3333 244.102 62.8C243.768 64.2667 243.602 65.6667 243.602 67C243.602 68.3333 243.868 69.5 244.402 70.5C244.935 71.4333 245.902 71.9 247.302 71.9C248.435 71.9 249.468 71.5333 250.402 70.8C251.402 70.0667 252.302 69.2667 253.102 68.4C255.902 65.2 258.402 61.5 260.602 57.3C260.868 56.8333 261.068 56.6 261.202 56.6C261.335 56.6 261.402 56.8 261.402 57.2C261.402 57.8 261.268 58.4333 261.002 59.1C259.735 61.4333 258.568 63.4 257.502 65C256.502 66.6 255.035 68.3667 253.102 70.3C252.235 71.1667 251.202 71.9333 250.002 72.6C248.868 73.2667 247.568 73.6 246.102 73.6ZM250.202 46.6C252.268 44.8 254.668 42.6667 257.402 40.2C260.135 37.6667 262.935 34.9667 265.802 32.1C268.668 29.2333 271.368 26.3667 273.902 23.5C276.502 20.6333 278.735 17.9333 280.602 15.4C282.535 12.8667 283.835 10.6667 284.502 8.8C285.102 7.06666 285.402 5.73333 285.402 4.8C285.402 3.06667 284.635 2.2 283.102 2.2C282.235 2.2 281.202 2.53333 280.002 3.2C278.802 3.8 277.702 4.6 276.702 5.6C275.035 7.2 273.068 9.5 270.802 12.5C268.602 15.4333 266.268 18.8 263.802 22.6C261.335 26.4 258.902 30.3667 256.502 34.5C254.168 38.6333 252.068 42.6667 250.202 46.6ZM263.633 73.6C261.566 73.6 260.066 73 259.133 71.8C258.266 70.6 257.833 69.1333 257.833 67.4C257.833 65.2 258.266 62.8 259.133 60.2C260.066 57.6 261.133 55.1333 262.333 52.8C263.533 50.4 264.499 48.5333 265.233 47.2C266.699 44.7333 268.166 43.2 269.633 42.6C271.166 42 273.033 41.7 275.233 41.7C274.566 41.9 273.699 42.7 272.633 44.1C271.566 45.4333 270.433 47.1 269.233 49.1C268.099 51.1 266.999 53.2667 265.933 55.6C264.933 57.8667 264.099 60.1 263.433 62.3C262.833 64.4333 262.533 66.2667 262.533 67.8C262.533 68.9333 262.733 69.8667 263.133 70.6C263.599 71.3333 264.299 71.7 265.233 71.7C266.033 71.7 266.966 71.4 268.033 70.8C269.099 70.1333 270.066 69.3333 270.933 68.4C273.866 65.1333 276.233 61.5667 278.033 57.7C279.899 53.7667 281.966 49.8667 284.233 46C285.699 43.5333 287.166 42 288.633 41.4C290.166 40.8 292.033 40.5 294.233 40.5C293.566 40.7 292.666 41.5333 291.533 43C290.399 44.4 289.199 46.1667 287.933 48.3C286.733 50.4333 285.599 52.7333 284.533 55.2C283.466 57.6 282.566 59.9333 281.833 62.2C281.166 64.4667 280.833 66.4 280.833 68C280.833 69.0667 281.033 69.9667 281.433 70.7C281.899 71.3667 282.566 71.7 283.433 71.7C284.233 71.7 285.166 71.3667 286.233 70.7C287.299 70.0333 288.266 69.2667 289.133 68.4C290.666 66.7333 292.066 64.9 293.333 62.9C294.599 60.9 295.866 58.7667 297.133 56.5C297.333 56.2333 297.499 56.1 297.633 56.1C297.899 56.1 298.033 56.3 298.033 56.7C298.033 57.0333 297.966 57.3 297.833 57.5C296.633 59.7 295.366 61.9 294.033 64.1C292.699 66.3 291.066 68.3667 289.133 70.3C288.066 71.3667 286.799 72.2667 285.333 73C283.933 73.6667 282.533 73.8667 281.133 73.6C279.266 73.2667 277.933 72.5333 277.133 71.4C276.333 70.2 275.933 68.7667 275.933 67.1C275.933 65.7667 276.133 64.3667 276.533 62.9C275.733 64.1667 274.866 65.4333 273.933 66.7C273.066 67.9667 272.066 69.1667 270.933 70.3C269.999 71.2333 268.866 72.0333 267.533 72.7C266.266 73.3 264.966 73.6 263.633 73.6ZM333.868 73.6C331.868 73.6 330.335 73 329.268 71.8C328.201 70.5333 327.668 68.9667 327.668 67.1C327.668 65.0333 328.201 62.9667 329.268 60.9C330.335 58.7667 331.535 56.7 332.868 54.7C334.268 52.7 335.501 50.8 336.568 49C337.635 47.2 338.168 45.6 338.168 44.2C338.168 43.6667 338.035 43.2 337.768 42.8C337.501 42.3333 337.001 42.1 336.268 42.1C334.135 42.1 331.901 43.1 329.568 45.1C327.301 47.0333 325.101 49.5333 322.968 52.6C320.835 55.6667 318.901 58.8667 317.168 62.2C315.501 65.5333 314.201 68.6 313.268 71.4C312.201 71.1333 311.468 70.7333 311.068 70.2C310.735 69.6 310.568 68.9667 310.568 68.3C310.568 67.2333 310.701 66.2 310.968 65.2C311.301 64.2 311.801 62.9667 312.468 61.5C313.135 60.0333 314.001 58.1667 315.068 55.9C316.135 53.5667 317.401 50.5667 318.868 46.9C319.068 46.3667 319.201 45.9 319.268 45.5C319.335 45.1 319.368 44.7333 319.368 44.4C319.368 42.8667 318.735 42.1 317.468 42.1C315.868 42.1 314.235 42.7667 312.568 44.1C310.901 45.3667 309.268 47.0667 307.668 49.2C306.135 51.3333 304.668 53.6333 303.268 56.1C301.868 58.5667 300.601 61 299.468 63.4C298.335 65.7333 297.401 67.7667 296.668 69.5C296.001 71.0333 295.201 72.0333 294.268 72.5C293.335 72.9 292.435 73.1 291.568 73.1C291.301 73.1 290.968 73.0667 290.568 73C290.235 73 289.901 73 289.568 73C290.901 70.3333 292.301 67.4333 293.768 64.3C295.301 61.1 296.701 57.9 297.968 54.7C299.235 51.5 300.268 48.4333 301.068 45.5C301.868 42.5667 302.268 40.0333 302.268 37.9C302.268 37.6333 302.235 37.4333 302.168 37.3C302.168 37.1667 302.168 37.0333 302.168 36.9C302.168 36.7 302.235 36.6 302.368 36.6C303.035 36.6 303.568 37.0333 303.968 37.9C304.368 38.7 304.635 39.6333 304.768 40.7C304.968 41.7 305.068 42.5 305.068 43.1C305.068 44.7667 304.868 46.5 304.468 48.3C304.068 50.0333 303.601 51.5 303.068 52.7C305.601 49.3 308.201 46.4 310.868 44C313.601 41.6 316.301 40.4 318.968 40.4C320.768 40.4 322.068 40.7667 322.868 41.5C323.668 42.2333 324.068 43.2667 324.068 44.6C324.068 45.5333 323.901 46.4667 323.568 47.4C323.301 48.3333 322.835 49.6 322.168 51.2C324.701 47.7333 327.168 45.0667 329.568 43.2C332.035 41.3333 334.468 40.4 336.868 40.4C338.801 40.4 340.235 40.8333 341.168 41.7C342.168 42.5667 342.668 43.7333 342.668 45.2C342.668 46.8 342.135 48.7 341.068 50.9C340.068 53.0333 338.901 55.2667 337.568 57.6C336.235 59.8667 335.035 62.0333 333.968 64.1C332.968 66.1 332.468 67.7667 332.468 69.1C332.468 69.8333 332.635 70.5 332.968 71.1C333.301 71.7 333.901 72 334.768 72C335.901 72 336.968 71.6333 337.968 70.9C339.035 70.1 339.935 69.2667 340.668 68.4C342.201 66.7333 343.601 64.9 344.868 62.9C346.201 60.8333 347.501 58.6667 348.768 56.4C348.968 56.1333 349.101 56 349.168 56C349.435 56 349.568 56.3 349.568 56.9C349.568 57.3 349.501 57.6 349.368 57.8C348.168 60 346.901 62.1667 345.568 64.3C344.235 66.3667 342.601 68.3667 340.668 70.3C339.801 71.1667 338.801 71.9333 337.668 72.6C336.535 73.2667 335.268 73.6 333.868 73.6Z" fill="#B5943E"/>
</svg>
