<svg width="264" height="102" viewBox="0 0 264 102" fill="none" xmlns="http://www.w3.org/2000/svg">
<path d="M2.81914 81.8C2.01914 81.4 1.38581 80.8333 0.919141 80.1C0.519141 79.3667 0.319141 78.6333 0.319141 77.9C0.319141 77.1667 0.519141 76.5667 0.919141 76.1C1.18581 75.8333 1.45247 75.6667 1.71914 75.6C1.98581 75.6 2.08581 75.7667 2.01914 76.1C1.81914 77.1 2.25247 78.0333 3.31914 78.9C4.45247 79.8333 5.45247 80.4 6.31914 80.6C6.85247 80.6667 7.35247 80.7333 7.81914 80.8C8.35247 80.9333 8.85247 81 9.31914 81C11.2525 81 13.1191 80.6667 14.9191 80C17.3191 79.2 19.6858 77.5333 22.0191 75C24.4191 72.5333 26.6525 69.7667 28.7191 66.7C30.6525 63.7667 32.6525 60.2333 34.7191 56.1C36.8525 51.9 39.0525 47.5667 41.3191 43.1H20.9191C20.7191 43.1 20.6191 43.0333 20.6191 42.9C20.6191 42.5667 20.8525 42.1667 21.3191 41.7C21.8525 41.1667 22.3191 40.9 22.7191 40.9H42.4191C44.5525 36.7667 46.7858 32.7667 49.1191 28.9C51.4525 25.0333 53.8858 21.5333 56.4191 18.4C59.0191 15.2 61.7191 12.6667 64.5191 10.8C61.9858 10.5333 59.3858 10.1667 56.7191 9.7C54.1191 9.23333 51.8191 8.8 49.8191 8.4C46.9525 7.86666 44.1191 7.4 41.3191 7C38.5858 6.6 35.8858 6.4 33.2191 6.4C30.9525 6.4 28.7525 6.6 26.6191 7C24.5525 7.4 22.5525 8.06666 20.6191 9C19.0191 9.86666 17.5191 11.3333 16.1191 13.4C14.7858 15.4 14.1191 17.4667 14.1191 19.6C14.1191 20.4667 14.2525 21.3 14.5191 22.1C14.8525 22.9 15.3525 23.6667 16.0191 24.4C16.1525 24.4667 16.1191 24.6 15.9191 24.8C15.7858 24.9333 15.6191 24.9667 15.4191 24.9C14.1525 23.7667 13.2191 22.5 12.6191 21.1C12.0191 19.6333 11.7191 18.1667 11.7191 16.7C11.7191 14.5 12.2525 12.4333 13.3191 10.5C14.4525 8.56666 15.8525 7.1 17.5191 6.1C19.1858 5.16666 20.9191 4.5 22.7191 4.1C24.5858 3.7 26.5191 3.49999 28.5191 3.49999C30.3858 3.49999 32.2858 3.63333 34.2191 3.9C36.1525 4.16666 38.1525 4.5 40.2191 4.89999C43.2191 5.49999 46.3525 6.16666 49.6191 6.9C52.9525 7.56666 56.1191 8.13333 59.1191 8.59999C60.3858 8.8 61.6525 8.96666 62.9191 9.09999C64.2525 9.23333 65.5525 9.33333 66.8191 9.4C68.9525 8.4 71.0191 7.9 73.0191 7.9C73.2858 7.9 73.8525 7.93333 74.7191 8C75.5858 8.06666 76.0191 8.36666 76.0191 8.9C76.0191 9.63333 75.4858 10.1667 74.4191 10.5C73.4191 10.7667 72.3191 10.9333 71.1191 11C69.9191 11 69.0525 11 68.5191 11H67.5191C66.7191 11.5333 65.9191 12.2 65.1191 13C64.3191 13.7333 63.5191 14.5667 62.7191 15.5C59.7858 18.9667 57.1191 22.9 54.7191 27.3C52.3191 31.7 50.0191 36.2333 47.8191 40.9H72.2191L73.0191 39.5C76.8858 32.7667 81.1525 26.2667 85.8191 20C90.4858 13.7333 95.0525 7.4 99.5191 0.999997C99.7191 0.666664 100.052 0.533331 100.519 0.599996C101.052 0.599996 101.219 0.766663 101.019 1.1C98.3525 4.56666 95.7191 8.4 93.1191 12.6C90.5858 16.8 88.1858 21.0667 85.9191 25.4C83.6525 29.6667 81.5525 33.7333 79.6191 37.6C79.2191 38.2667 78.7191 39.3667 78.1191 40.9H84.9191C85.0525 40.9 85.1191 40.9667 85.1191 41.1C85.1191 41.3667 84.8525 41.7667 84.3191 42.3C83.8525 42.8333 83.4191 43.1 83.0191 43.1H77.1191C76.2525 45.3 75.2525 47.8 74.1191 50.6C73.0525 53.3333 72.0525 56.1 71.1191 58.9C70.1858 61.6333 69.4525 64.0667 68.9191 66.2C68.5191 67.8667 68.3191 69.3667 68.3191 70.7C68.3191 72.6333 68.7525 74.0333 69.6191 74.9C70.3525 75.6333 71.2858 76 72.4191 76C73.7525 76 75.1191 75.4667 76.5191 74.4C78.1858 73.1333 79.8858 71.4667 81.6191 69.4C83.3525 67.2667 84.9191 65.1667 86.3191 63.1C87.7191 60.9667 88.7191 59.3333 89.3191 58.2C89.7191 57.6 90.0858 57.3 90.4191 57.3C90.6191 57.3 90.7191 57.4333 90.7191 57.7C90.7191 57.9667 90.6191 58.3 90.4191 58.7C89.6858 60.1667 88.6525 61.9667 87.3191 64.1C85.9858 66.2333 84.4525 68.3667 82.7191 70.5C80.9858 72.5667 79.1525 74.3 77.2191 75.7C76.2858 76.3667 75.2191 76.9 74.0191 77.3C72.8858 77.7667 71.6858 78 70.4191 78C68.6191 78 66.9525 77.4667 65.4191 76.4C63.3525 74.8667 62.3191 72.2667 62.3191 68.6C62.3858 64.4667 63.2858 60.2 65.0191 55.8C66.7525 51.4 68.7191 47.1667 70.9191 43.1H46.8191C44.7525 47.4333 42.6525 51.7 40.5191 55.9C38.4525 60.0333 36.2525 63.7667 33.9191 67.1C31.6525 70.3667 29.0191 73.3 26.0191 75.9C23.0858 78.5 19.7525 80.4667 16.0191 81.8C13.9525 82.5333 11.4858 82.9 8.61914 82.9C7.48581 82.9 6.41914 82.8 5.41914 82.6C4.41914 82.4667 3.55247 82.2 2.81914 81.8ZM92.5223 73.6C90.6556 73.6 89.2889 73 88.4223 71.8C87.5556 70.5333 87.1223 69 87.1223 67.2C87.1223 66.6667 87.1556 66.1333 87.2223 65.6C87.3556 65 87.4889 64.4 87.6223 63.8C88.3556 61.1333 89.4889 58.1667 91.0223 54.9C92.6223 51.5667 94.1556 48.6 95.6223 46C96.4889 44.5333 97.2889 43.5 98.0223 42.9C98.7556 42.2333 99.5556 41.7667 100.422 41.5C101.289 41.1667 102.322 40.8 103.522 40.4C103.856 40.2667 104.189 40.1667 104.522 40.1C104.856 40.0333 105.222 39.9667 105.622 39.9C104.289 41.2333 102.922 42.8333 101.522 44.7C100.189 46.5667 98.7223 49.1333 97.1223 52.4C96.2556 54.1333 95.3889 56.0667 94.5223 58.2C93.7223 60.3333 93.0223 62.3333 92.4223 64.2C91.8223 66.0667 91.4889 67.5333 91.4223 68.6C91.3556 69.8667 91.5223 70.7667 91.9223 71.3C92.3223 71.8333 92.8556 72.1 93.5223 72.1C94.6556 72.1 95.7223 71.7 96.7223 70.9C97.7889 70.1 98.7223 69.2667 99.5223 68.4C100.989 66.7333 102.356 64.9 103.622 62.9C104.956 60.9 106.256 58.7667 107.522 56.5C107.722 56.2333 107.889 56.1 108.022 56.1C108.289 56.1 108.422 56.3 108.422 56.7C108.422 57.0333 108.356 57.3 108.222 57.5C107.022 59.7 105.756 61.9 104.422 64.1C103.089 66.3 101.456 68.3667 99.5223 70.3C98.6556 71.1667 97.6223 71.9333 96.4223 72.6C95.2889 73.2667 93.9889 73.6 92.5223 73.6ZM104.722 34.3C103.989 34.3 103.356 34.0333 102.822 33.5C102.356 32.9667 102.122 32.3333 102.122 31.6C102.122 30.6667 102.489 29.8333 103.222 29.1C104.022 28.3667 104.889 27.9333 105.822 27.8C106.556 27.8 107.156 28.0667 107.622 28.6C108.156 29.0667 108.422 29.7 108.422 30.5C108.422 31.3667 108.056 32.2333 107.322 33.1C106.589 33.9 105.722 34.3 104.722 34.3ZM109.61 73.8C108.21 73.8 106.91 73.5333 105.71 73C104.576 72.4 103.643 71.4 102.91 70C102.376 68.8 102.11 67.5 102.11 66.1C102.11 64.6333 102.376 63.2667 102.91 62C103.443 60.8667 104.043 59.8667 104.71 59C105.376 58.1333 106.11 57.6333 106.91 57.5C107.51 56.1667 108.41 54.4 109.61 52.2C110.876 50 112.276 47.8 113.81 45.6C115.41 43.4 116.91 41.6333 118.31 40.3C118.643 39.9667 119.21 39.4333 120.01 38.7C120.876 37.9 121.843 37.1333 122.91 36.4C124.043 35.6667 125.076 35.2333 126.01 35.1C126.21 35.0333 126.476 35 126.81 35C127.61 35 128.21 35.2 128.61 35.6C129.01 36 129.21 36.4667 129.21 37C129.21 37.5333 129.01 38.0667 128.61 38.6C128.21 39.1333 127.576 39.5667 126.71 39.9C126.376 39.9667 125.876 40.0667 125.21 40.2C124.61 40.3333 123.71 40.4 122.51 40.4C122.043 41.0667 121.81 42 121.81 43.2C121.81 44.5333 122.01 46.0333 122.41 47.7C122.876 49.3667 123.31 51 123.71 52.6C124.176 54.1333 124.41 55.4333 124.41 56.5C124.543 58.9667 124.143 61.4667 123.21 64C122.343 66.4667 120.943 68.5667 119.01 70.3L117.61 71.3C117.81 71.3667 118.01 71.4333 118.21 71.5C118.41 71.5 118.61 71.5 118.81 71.5C119.943 71.5 121.21 71.1667 122.61 70.5C124.01 69.7667 125.243 68.8667 126.31 67.8C127.91 66.2667 129.276 64.6333 130.41 62.9C131.61 61.1667 132.71 59.3667 133.71 57.5C133.776 57.2333 133.943 57.1 134.21 57.1C134.543 57.1 134.71 57.3667 134.71 57.9C134.71 58.1667 134.61 58.4667 134.41 58.8C133.41 60.6667 132.176 62.6333 130.71 64.7C129.31 66.7 127.843 68.4 126.31 69.8C125.11 70.8667 123.81 71.6667 122.41 72.2C121.076 72.6667 119.943 72.9 119.01 72.9C118.343 72.9 117.81 72.8333 117.41 72.7C117.01 72.5667 116.643 72.3667 116.31 72.1C115.376 72.5667 114.31 72.9667 113.11 73.3C111.976 73.6333 110.81 73.8 109.61 73.8ZM113.41 71.2C114.743 70.2667 115.776 69.0667 116.51 67.6C117.31 66.1333 117.91 64.5667 118.31 62.9C118.843 60.9 119.143 58.8333 119.21 56.7C119.343 54.5667 119.41 52.6333 119.41 50.9V47.4C119.41 46 119.576 44.5667 119.91 43.1C120.31 41.6333 120.71 40.7333 121.11 40.4C120.11 40.8 119.01 41.7 117.81 43.1C116.61 44.4333 115.41 46.0333 114.21 47.9C113.01 49.7 111.91 51.4667 110.91 53.2C109.976 54.9333 109.243 56.3667 108.71 57.5C109.976 57.4333 110.843 57.8 111.31 58.6C111.776 59.3333 111.91 59.8667 111.71 60.2C111.176 60.0667 110.81 60 110.61 60C109.61 60 108.676 60.3667 107.81 61.1C106.943 61.7667 106.21 62.7667 105.61 64.1C105.01 65.3667 104.71 66.6 104.71 67.8C104.71 69.4 105.176 70.5667 106.11 71.3C107.043 72.0333 108.143 72.4 109.41 72.4C110.876 72.4 112.21 72 113.41 71.2ZM137.668 73.7C136.001 73.7 134.501 73.2333 133.168 72.3C131.901 71.3 131.268 69.7 131.268 67.5C131.268 65.1667 131.834 62.6 132.968 59.8C134.101 57 135.168 54.5 136.168 52.3C136.701 51.2333 137.401 49.8 138.268 48C139.201 46.1333 140.201 44.3 141.268 42.5H136.568C136.368 42.5 136.268 42.3333 136.268 42C136.268 41.7333 136.368 41.4667 136.568 41.2C136.768 40.8667 137.001 40.7 137.268 40.7C139.134 40.7 140.534 40.5333 141.468 40.2C142.401 39.8667 143.201 39.4 143.868 38.8C144.934 37.8667 145.968 36.6667 146.968 35.2C148.034 33.7333 149.068 32.4667 150.068 31.4C150.801 30.4667 151.701 29.7667 152.768 29.3C153.901 28.8333 154.634 28.6667 154.968 28.8C154.634 29.2667 154.101 30.0667 153.368 31.2C152.634 32.3333 151.868 33.5667 151.068 34.9C150.268 36.2333 149.534 37.4667 148.868 38.6C148.201 39.7333 147.768 40.5 147.568 40.9H154.168C154.368 40.9 154.468 40.9667 154.468 41.1C154.468 41.3667 154.301 41.6667 153.968 42C153.701 42.3333 153.434 42.5 153.168 42.5H146.668C145.468 44.5667 144.034 47.2667 142.368 50.6C140.768 53.8667 139.334 57.0333 138.068 60.1C137.801 60.7 137.334 61.9 136.668 63.7C136.068 65.5 135.768 67.1667 135.768 68.7C135.768 69.7 135.968 70.5333 136.368 71.2C136.834 71.8667 137.601 72.2 138.668 72.2C139.801 72.2 141.034 71.8 142.368 71C143.701 70.1333 144.734 69.2667 145.468 68.4C147.001 66.7333 148.401 64.9 149.668 62.9C150.934 60.9 152.201 58.7667 153.468 56.5C153.668 56.2333 153.868 56.1 154.068 56.1C154.334 56.1 154.468 56.3 154.468 56.7C154.468 57.0333 154.401 57.3 154.268 57.5C153.068 59.7 151.768 61.9 150.368 64.1C149.034 66.3 147.401 68.3667 145.468 70.3C144.601 71.1667 143.434 71.9667 141.968 72.7C140.501 73.3667 139.068 73.7 137.668 73.7ZM161.006 75C158.473 75 156.273 74.2 154.406 72.6C152.606 70.9333 151.706 68.4 151.706 65C151.706 62.8667 152.073 60.6667 152.806 58.4C153.606 56.0667 154.473 54 155.406 52.2C157.139 48.9333 159.306 46.1 161.906 43.7C164.573 41.2333 167.739 40 171.406 40C174.939 40 177.406 40.9667 178.806 42.9C180.206 44.8333 180.906 47.2 180.906 50C180.906 51.1333 180.806 52.3 180.606 53.5C180.073 56.7667 178.973 59.9333 177.306 63C177.773 63.6667 178.373 64.2333 179.106 64.7C179.906 65.1 180.773 65.3 181.706 65.3C183.306 65.3 184.673 64.8667 185.806 64C186.939 63.1333 187.906 62.0667 188.706 60.8C189.573 59.4667 190.306 58.2333 190.906 57.1C191.306 56.3667 191.673 56 192.006 56C192.206 56 192.306 56.1333 192.306 56.4C192.306 56.6667 192.106 57.2667 191.706 58.2C190.573 60.4667 189.239 62.4333 187.706 64.1C186.173 65.7667 184.173 66.6 181.706 66.6C179.439 66.6 177.706 65.8 176.506 64.2C174.639 67.2667 172.373 69.8333 169.706 71.9C167.039 73.9667 164.139 75 161.006 75ZM161.206 73.8C164.473 73.8 167.706 72.2 170.906 69C171.839 68.0667 172.673 67.1 173.406 66.1C174.206 65.0333 174.906 63.9667 175.506 62.9C174.639 61.9 174.006 60.8333 173.606 59.7C173.273 58.5 173.106 57.3667 173.106 56.3C173.106 54.6333 173.406 53.1667 174.006 51.9C174.606 50.5667 175.439 49.9 176.506 49.9C177.039 49.9 177.539 50.1667 178.006 50.7C178.539 51.2333 178.873 52.0667 179.006 53.2C179.206 52.2667 179.306 51.2667 179.306 50.2C179.306 47.6667 178.839 45.6667 177.906 44.2C176.973 42.6667 175.406 41.9 173.206 41.9C171.873 41.9 170.506 42.4333 169.106 43.5C167.706 44.5 166.373 45.7333 165.106 47.2C163.906 48.6667 162.839 50.1667 161.906 51.7C160.973 53.2333 160.273 54.5 159.806 55.5C158.673 57.9667 157.839 60.1667 157.306 62.1C156.839 64.0333 156.606 65.7333 156.606 67.2C156.606 69.3333 157.039 70.9667 157.906 72.1C158.839 73.2333 159.939 73.8 161.206 73.8ZM210.099 71.2C208.965 72.1333 207.832 72.8 206.699 73.2C205.632 73.6667 204.632 73.9 203.699 73.9C202.032 73.9 200.632 73.3333 199.499 72.2C198.432 71 197.899 69.4333 197.899 67.5C197.899 66.3667 198.165 65 198.699 63.4C199.565 61 200.865 58.7 202.599 56.5C204.332 54.3 205.999 52.0667 207.599 49.8C208.599 48.4667 209.099 47.1667 209.099 45.9C209.099 45.2333 208.899 44.6667 208.499 44.2C208.165 43.7333 207.532 43.4667 206.599 43.4C206.065 43.2667 205.465 43.2 204.799 43.2C204.132 43.2 203.465 43.2 202.799 43.2H199.999C199.599 43.2 199.232 43.2 198.899 43.2C198.565 43.2 198.265 43.1667 197.999 43.1C197.732 44.7667 197.165 46.6333 196.299 48.7C195.499 50.7667 194.565 52.8333 193.499 54.9C192.432 56.9667 191.399 58.8333 190.399 60.5C190.132 60.9 189.899 61.1 189.699 61.1C189.499 61.1 189.399 60.9 189.399 60.5C189.399 60.0333 189.499 59.6667 189.699 59.4C191.099 56.6667 192.432 54 193.699 51.4C195.032 48.7333 195.932 45.9667 196.399 43.1C194.865 42.2333 193.832 40.7333 193.299 38.6C193.232 38.2667 193.165 37.9667 193.099 37.7C193.099 37.3667 193.099 37.0667 193.099 36.8C193.099 35.6 193.332 34.6 193.799 33.8C194.332 32.9333 194.932 32.5 195.599 32.5C196.532 32.5 197.299 33.4 197.899 35.2C198.032 35.6667 198.132 36.2 198.199 36.8C198.265 37.3333 198.299 37.8667 198.299 38.4C198.299 39 198.265 39.5667 198.199 40.1C198.199 40.5667 198.165 40.9667 198.099 41.3C198.565 41.4333 199.165 41.5333 199.899 41.6C200.699 41.6667 201.565 41.7 202.499 41.7C203.899 41.7 205.365 41.6667 206.899 41.6C208.432 41.4667 209.732 41.4 210.799 41.4C212.065 41.4 212.932 41.6667 213.399 42.2C213.865 42.7333 214.099 43.4 214.099 44.2C214.099 45.2 213.832 46.3 213.299 47.5C212.832 48.6333 212.365 49.6 211.899 50.4C211.032 52 210.199 53.4333 209.399 54.7C208.665 55.9 207.832 57.2 206.899 58.6C205.499 60.7333 204.465 62.7 203.799 64.5C203.199 66.2333 202.899 67.7 202.899 68.9C202.899 70.9667 203.665 72 205.199 72C206.465 72 208.099 71.1 210.099 69.3C211.365 68.1667 212.532 66.8333 213.599 65.3C214.732 63.7 215.732 62.1 216.599 60.5C217.532 58.8333 218.299 57.4667 218.899 56.4C219.032 56.2 219.165 56.1 219.299 56.1C219.565 56.1 219.699 56.3667 219.699 56.9C219.699 57.3 219.599 57.6667 219.399 58C218.265 60.0667 216.965 62.3333 215.499 64.8C214.032 67.2667 212.232 69.4 210.099 71.2ZM221.436 101.2C220.369 101.467 219.302 101.6 218.236 101.6C216.302 101.6 214.836 101.133 213.836 100.2C212.836 99.2667 212.336 98.1 212.336 96.7C212.336 95.5 212.736 94.2 213.536 92.8C214.336 91.4667 215.536 90.2667 217.136 89.2C219.202 87.8 221.069 86.6667 222.736 85.8C224.469 84.9333 226.336 84.0667 228.336 83.2C230.336 82.4 232.836 81.3 235.836 79.9C236.169 79.1667 236.536 78.3 236.936 77.3C237.336 76.3 238.002 74.6333 238.936 72.3C239.869 69.9667 241.236 66.5 243.036 61.9C241.569 63.7 240.102 65.3667 238.636 66.9C237.169 68.4333 235.969 69.6333 235.036 70.5C233.702 71.5 232.402 72.3 231.136 72.9C229.936 73.4333 228.736 73.7 227.536 73.7C225.936 73.7 224.802 73.2333 224.136 72.3C223.536 71.3667 223.236 70.2667 223.236 69C223.236 67.9333 223.369 66.8333 223.636 65.7C223.969 64.5667 224.336 63.5 224.736 62.5C225.669 60.1667 226.669 57.9667 227.736 55.9C228.869 53.7667 229.969 51.5667 231.036 49.3C231.302 48.7667 231.669 47.9 232.136 46.7C232.669 45.5 232.936 44.4 232.936 43.4C232.936 42.2667 232.436 41.7 231.436 41.7C230.502 41.7 229.536 42.1667 228.536 43.1C227.602 43.9667 226.769 44.9667 226.036 46.1C225.302 47.2333 224.736 48.1333 224.336 48.8C224.336 48.8 224.002 49.4333 223.336 50.7C222.736 51.9667 221.936 53.5333 220.936 55.4C220.002 57.2 219.036 58.9 218.036 60.5C217.836 60.8333 217.569 61 217.236 61C216.969 61 216.836 60.8667 216.836 60.6C216.836 60.4667 217.002 60.0667 217.336 59.4C218.802 56.8 219.936 54.6333 220.736 52.9C221.602 51.1667 222.569 49.3667 223.636 47.5C224.702 45.5667 225.936 43.7333 227.336 42C228.269 41 229.269 40.2667 230.336 39.8C231.469 39.2667 232.569 39 233.636 39C235.502 39 236.769 39.4333 237.436 40.3C238.169 41.1 238.536 42.1 238.536 43.3C238.536 44.5667 238.269 45.8667 237.736 47.2C237.202 48.5333 236.669 49.7 236.136 50.7C234.469 53.6333 233.102 56.2 232.036 58.4C230.969 60.5333 230.036 62.6 229.236 64.6C228.636 66.0667 228.336 67.2667 228.336 68.2C228.336 69.9333 229.069 70.8 230.536 70.8C231.736 70.8 232.969 70.2667 234.236 69.2C237.769 66.3333 240.636 62.9667 242.836 59.1C245.036 55.2333 247.136 51.2 249.136 47C249.802 45.6667 250.636 44.2333 251.636 42.7C252.636 41.1 253.869 39.7667 255.336 38.7C256.802 37.5667 258.502 37.0667 260.436 37.2C259.502 38.0667 258.369 39.6667 257.036 42C255.769 44.3333 254.402 47.0667 252.936 50.2C251.536 53.3333 250.136 56.6 248.736 60C247.336 63.4 246.002 66.6667 244.736 69.8C243.536 72.8667 242.502 75.4667 241.636 77.6C243.436 76.8667 245.536 75.7333 247.936 74.2C250.402 72.7333 252.702 70.8 254.836 68.4C256.369 66.8 257.736 65 258.936 63C260.202 60.9333 261.469 58.7667 262.736 56.5C262.936 56.2333 263.136 56.1 263.336 56.1C263.602 56.1 263.736 56.3 263.736 56.7C263.736 57.0333 263.669 57.3 263.536 57.5C262.336 59.7 261.069 61.9 259.736 64.1C258.402 66.3 256.769 68.3667 254.836 70.3C252.436 72.5667 250.002 74.5 247.536 76.1C245.136 77.7667 242.869 78.9667 240.736 79.7C239.136 83.3 237.436 86.6 235.636 89.6C233.902 92.6 231.902 95.1 229.636 97.1C227.369 99.1 224.636 100.467 221.436 101.2ZM220.836 99.2C223.236 98.4667 225.302 97.1667 227.036 95.3C228.769 93.5 230.269 91.4 231.536 89C232.869 86.6 234.002 84.2 234.936 81.8C232.802 82.9333 230.136 84.1 226.936 85.3C223.736 86.5667 220.702 88.2667 217.836 90.4C216.569 91.4 215.602 92.4333 214.936 93.5C214.269 94.5667 213.936 95.5667 213.936 96.5C213.936 97.4333 214.269 98.2 214.936 98.8C215.602 99.4 216.569 99.7 217.836 99.7C218.236 99.7 218.669 99.6667 219.136 99.6C219.669 99.5333 220.236 99.4 220.836 99.2Z" fill="#B5943E"/>
</svg>
