<?xml version="1.0" encoding="utf-8"?>
<!-- Generator: Adobe Illustrator 16.0.0, SVG Export Plug-In . SVG Version: 6.00 Build 0)  -->
<!DOCTYPE svg PUBLIC "-//W3C//DTD SVG 1.1//EN" "http://www.w3.org/Graphics/SVG/1.1/DTD/svg11.dtd">
<svg version="1.1" id="レイヤー_1" xmlns="http://www.w3.org/2000/svg" xmlns:xlink="http://www.w3.org/1999/xlink" x="0px"
	 y="0px" width="237px" height="70px" viewBox="103.5 28.5 237 70" enable-background="new 103.5 28.5 237 70" xml:space="preserve"
	>
<rect x="104.23" y="28.17" fill="#FFFFFF" width="235.443" height="70.536"/>
<g>
	<g>
		<path fill="#B5943E" d="M127.258,49.72c-0.248,0-0.365-0.172-0.365-0.344c0-0.186,0.117-0.359,0.365-0.359h6.088
			c0.83-1.793,1.704-4.619,1.996-6.082c0.043-0.202,0.218-0.302,0.394-0.302c0.233,0,0.48,0.157,0.48,0.416
			c0,0.272-1.093,3.931-2.097,5.968h4.763c0.233,0,0.349,0.173,0.349,0.359c0,0.172-0.116,0.344-0.349,0.344H127.258z
			 M128.102,41.787c-0.233,0-0.364-0.186-0.364-0.359c0-0.187,0.131-0.359,0.364-0.359l4.544,0.014l-0.014-2.295
			c0-0.258,0.218-0.373,0.422-0.373c0.218,0,0.422,0.114,0.422,0.373l-0.014,2.295l4.529-0.014c0.248,0,0.364,0.187,0.364,0.359
			c0,0.187-0.116,0.359-0.364,0.359H128.102z M131.219,47.41c-0.248-1.32-0.801-2.898-1.427-4.118
			c-0.029-0.058-0.043-0.115-0.043-0.172c0-0.201,0.204-0.33,0.408-0.33c0.16,0,0.306,0.072,0.378,0.229
			c0.815,1.708,1.529,4.032,1.529,4.29c0,0.287-0.233,0.474-0.451,0.474C131.438,47.783,131.263,47.668,131.219,47.41z"/>
		<path fill="#B5943E" d="M146.591,50.222l0.175-7.776c-1.5,2.095-1.908,2.152-2.039,2.152c-0.204,0-0.378-0.172-0.378-0.359
			c0-0.086,0.043-0.187,0.131-0.272c1.457-1.378,2.84-3.343,3.54-5.452c0.058-0.187,0.204-0.258,0.35-0.258
			c0.219,0,0.452,0.172,0.452,0.387c0,0.187-0.524,1.377-1.297,2.654l-0.16,8.909c-0.015,0.244-0.204,0.359-0.408,0.359
			c-0.189,0-0.364-0.1-0.364-0.33L146.591,50.222L146.591,50.222z M152.183,47.281l-1.689,0.014c-0.233,0-0.35-0.157-0.35-0.315
			c0-0.173,0.117-0.344,0.35-0.344l1.689,0.014v-0.588l0.059-3.458c-0.903,1.88-2.112,3.515-3.743,4.992
			c-0.087,0.087-0.189,0.115-0.292,0.115c-0.204,0-0.394-0.172-0.394-0.373c0-0.101,0.044-0.215,0.161-0.301
			c1.66-1.377,2.957-2.926,3.947-5.107l-3.146,0.042c-0.248,0-0.365-0.172-0.365-0.344s0.117-0.345,0.35-0.345h3.422v-2.797
			c0-0.229,0.189-0.33,0.378-0.33c0.189,0,0.378,0.101,0.378,0.33v2.797h3.729c0.233,0,0.35,0.173,0.35,0.359
			c0,0.157-0.116,0.33-0.335,0.33l-3.553-0.043c1.121,2.109,2.738,3.659,4.267,4.806c0.117,0.087,0.16,0.188,0.16,0.302
			c0,0.215-0.189,0.416-0.422,0.416c-0.087,0-0.189-0.028-0.292-0.114c-1.354-1.091-2.928-2.812-3.961-4.678l0.043,3.387v0.603
			l1.733-0.014c0.233,0,0.335,0.158,0.335,0.33c0,0.158-0.102,0.33-0.335,0.33l-1.733-0.014v2.913c0,0.216-0.189,0.33-0.365,0.33
			c-0.189,0-0.378-0.114-0.378-0.33v-2.914H152.183z"/>
		<path fill="#B5943E" d="M170.086,44.756l-1.981-0.028l-0.043,0.028c-0.393,0.373-0.801,0.718-1.208,1.033v2.482
			c0.626-0.216,1.224-0.431,1.588-0.588c0.043-0.015,0.087-0.029,0.116-0.029c0.175,0,0.292,0.158,0.292,0.315
			c0,0.115-0.043,0.215-0.189,0.287c-1.529,0.732-3.903,1.377-3.961,1.377c-0.233,0-0.35-0.187-0.35-0.358
			c0-0.144,0.087-0.287,0.277-0.33c0.393-0.086,0.961-0.258,1.559-0.444v-2.238c-0.874,0.588-1.835,1.076-2.024,1.076
			c-0.204,0-0.335-0.158-0.335-0.33c0-0.114,0.073-0.229,0.204-0.287c1.005-0.431,2.17-1.062,3.204-2.008l-2.578,0.042h-0.015
			c-0.218,0-0.335-0.157-0.335-0.315c0-0.158,0.117-0.33,0.35-0.33l2.461,0.015l-0.015-0.875c0-0.229,0.189-0.33,0.378-0.33
			c0.175,0,0.365,0.1,0.365,0.33l-0.015,0.875l2.258-0.015c0.233,0,0.335,0.158,0.335,0.33c0,0.158-0.102,0.315-0.321,0.315H170.086
			z M171.965,42.461c0.102,1.448,0.335,2.897,0.772,4.189c0.67-0.875,1.166-1.866,1.5-2.884c0.058-0.173,0.189-0.244,0.335-0.244
			c0.218,0,0.451,0.158,0.451,0.387c0,0.201-0.568,1.808-1.995,3.487c0.189,0.431,0.961,2.008,1.66,2.008
			c0.394,0,0.699-0.473,0.874-1.435c0.03-0.201,0.189-0.273,0.35-0.273c0.204,0,0.422,0.144,0.422,0.388
			c0,0.086-0.276,2.095-1.646,2.095c-0.422,0-1.296-0.215-2.214-2.181c-1.806,1.822-3.481,2.31-3.612,2.31
			c-0.248,0-0.423-0.187-0.423-0.373c0-0.144,0.088-0.287,0.306-0.359c1.369-0.502,2.52-1.292,3.438-2.28
			c-0.539-1.435-0.815-3.099-0.946-4.835l-6.962,0.015c-0.233,0-0.35-0.173-0.35-0.33c0-0.172,0.116-0.345,0.35-0.345h2.825
			l-0.015-1.434h-2.01c-0.248,0-0.35-0.143-0.35-0.302c0-0.158,0.117-0.33,0.35-0.33l2.01,0.014V38.53
			c0-0.215,0.189-0.33,0.364-0.33c0.189,0,0.378,0.115,0.378,0.33v1.219l1.865-0.014c0.218,0,0.335,0.157,0.335,0.315
			c0,0.158-0.117,0.316-0.335,0.316h-1.865v1.434l2.141,0.015h1.224c-0.059-1.076-0.073-2.195-0.088-3.285
			c0-0.229,0.204-0.358,0.393-0.358c0.189,0,0.378,0.115,0.378,0.387c0,0.33-0.014,0.674-0.014,1.019
			c0,0.717,0.014,1.463,0.058,2.223h3.816c0.233,0,0.349,0.173,0.349,0.331c0,0.172-0.116,0.344-0.349,0.344L171.965,42.461z
			 M170.567,47.869c0,0.215-0.175,0.373-0.364,0.373c-0.102,0-0.204-0.043-0.277-0.144c-0.48-0.66-1.122-1.219-1.894-1.635
			c-0.102-0.058-0.146-0.129-0.146-0.215c0-0.144,0.131-0.302,0.335-0.302c0.175,0,0.685,0.302,0.874,0.431
			c0.35-0.244,0.699-0.531,1.063-0.89c0.059-0.057,0.117-0.071,0.189-0.071c0.189,0,0.408,0.157,0.408,0.358
			c0,0.129-0.088,0.315-1.151,0.976C169.795,46.894,170.567,47.54,170.567,47.869z M174.543,40.696
			c-0.524-0.603-1.092-0.962-1.544-1.248c-0.102-0.072-0.146-0.158-0.146-0.229c0-0.173,0.175-0.33,0.378-0.33
			c0.262,0,1.981,1.076,1.981,1.549c0,0.215-0.175,0.402-0.379,0.402C174.732,40.84,174.63,40.797,174.543,40.696z"/>
		<path fill="#B5943E" d="M187.787,48.4c0.189,0,0.292,0.157,0.292,0.33c0,0.172-0.102,0.344-0.306,0.344
			c-0.626,0.029-1.471,0.043-2.229,0.043c-0.422,0-0.815,0-1.136-0.014c-0.932-0.029-1.398-0.588-1.413-1.349
			c0-0.718-0.015-2.425-0.015-4.189s0.015-3.586,0.015-4.504c0-0.215,0.189-0.33,0.365-0.33c0.189,0,0.364,0.114,0.364,0.33
			c-0.015,0.704-0.015,2.095-0.015,3.586c0,2.022,0,4.204,0.015,4.936c0,0.875,0.583,0.875,1.806,0.875
			c0.729,0,1.529-0.014,2.243-0.057L187.787,48.4L187.787,48.4z M186.243,43.924c-0.509,1.019-1.078,2.009-1.704,2.74
			c-0.087,0.115-0.204,0.158-0.306,0.158c-0.204,0-0.364-0.158-0.364-0.33c0-0.086,0.029-0.157,0.102-0.244
			c0.655-0.703,1.5-1.894,2.083-3.141l-1.602,0.014c-0.204,0-0.306-0.157-0.306-0.316c0-0.144,0.102-0.301,0.306-0.301l1.777,0.015
			l-0.043-3.702c0-0.229,0.189-0.344,0.378-0.344c0.175,0,0.364,0.114,0.364,0.344l-0.029,3.702l1.587-0.015
			c0.204,0,0.305,0.157,0.305,0.301c0,0.158-0.102,0.316-0.305,0.316l-1.603-0.014v0.789c0,0.473,0.043,3.873,0.043,3.873
			c0,0.201-0.189,0.316-0.364,0.316c-0.189,0-0.378-0.115-0.378-0.316L186.243,43.924z M185.137,41.528
			c-0.204-0.56-0.626-1.205-0.801-1.435c-0.043-0.058-0.058-0.101-0.058-0.144c0-0.158,0.175-0.288,0.349-0.288
			c0.393,0,1.136,1.435,1.136,1.708c0,0.229-0.175,0.358-0.35,0.358C185.297,41.729,185.195,41.672,185.137,41.528z M188.224,45.603
			c-0.32-0.459-0.743-0.933-1.107-1.22c-0.073-0.058-0.087-0.114-0.087-0.187c0-0.144,0.131-0.287,0.306-0.287
			c0.306,0,1.5,1.148,1.5,1.463c0,0.201-0.175,0.373-0.364,0.373C188.385,45.746,188.298,45.703,188.224,45.603z M187.583,41.744
			c-0.16,0-0.32-0.143-0.32-0.288c0-0.058,0.015-0.1,0.043-0.144c0.233-0.358,0.612-1.047,0.815-1.52
			c0.059-0.129,0.16-0.187,0.262-0.187c0.189,0,0.394,0.158,0.394,0.345c0,0.215-0.554,1.147-0.947,1.664
			C187.759,41.7,187.671,41.744,187.583,41.744z M192.419,43.178h-2.141c-0.043,2.324-0.321,5.093-1.661,6.829
			c-0.102,0.129-0.233,0.187-0.364,0.187c-0.219,0-0.423-0.158-0.423-0.359c0-0.057,0.015-0.129,0.073-0.201
			c1.442-1.779,1.646-4.591,1.646-6.958c0-0.603-0.015-1.19-0.029-1.707v-0.043c0-0.89,0.394-1.22,1.224-1.435
			c0.772-0.201,2.024-0.617,2.768-0.904c0.059-0.029,0.117-0.029,0.175-0.029c0.233,0,0.394,0.201,0.394,0.402
			c0,0.129-0.073,0.272-0.262,0.344c-0.729,0.272-2.098,0.674-2.768,0.832c-0.597,0.144-0.787,0.401-0.787,0.847v0.058
			c0,0.444,0.015,0.933,0.015,1.463h4.5c0.248,0,0.378,0.173,0.378,0.344c0,0.172-0.131,0.344-0.378,0.344l-1.587-0.014l0.014,6.957
			c0,0.229-0.204,0.33-0.394,0.33c-0.204,0-0.407-0.101-0.407-0.33L192.419,43.178z"/>
		<path fill="#B5943E" d="M205.866,42.833c-0.466,0.518-0.976,1.005-1.5,1.464c0.641-0.015,1.15-0.015,1.908-0.015
			c0.48,0,0.757,0.258,0.757,0.588c0,0.172-0.073,0.631-1.544,1.592c0.102,0.129,0.175,0.244,0.248,0.388
			c0.801-0.144,1.544-0.302,2.053-0.431c0.029,0,0.043-0.014,0.073-0.014c0.16,0,0.292,0.158,0.292,0.315
			c0,0.244-0.058,0.316-2.199,0.703c0.059,0.216,0.087,0.445,0.087,0.66c0,0.201-0.014,2.267-1.995,2.267
			c-0.714,0-1.136-0.129-1.136-0.445c0-0.172,0.146-0.344,0.364-0.344c0.029,0,0.058,0,0.102,0.014
			c0.248,0.058,0.48,0.101,0.714,0.101c0.757,0,1.238-0.459,1.238-1.563c0-0.186-0.029-0.373-0.073-0.56
			c-0.496,0.086-2.84,0.502-3.19,0.502c-0.233,0-0.349-0.157-0.349-0.33c0-0.144,0.102-0.301,0.32-0.316
			c0.801-0.086,1.922-0.243,3-0.431c-0.189-0.329-0.496-0.603-0.903-0.76c-0.131-0.043-0.189-0.129-0.189-0.216
			c0-0.144,0.16-0.287,0.378-0.287c0.32,0,0.757,0.345,0.757,0.345c0.131-0.086,1.122-0.803,1.122-1.076
			c0-0.086-0.087-0.144-0.248-0.144c-0.787,0-1.252,0-2.301,0.029c-0.903,0.674-1.733,1.191-1.923,1.191
			c-0.204,0-0.364-0.187-0.364-0.359c0-0.114,0.059-0.229,0.204-0.302c1.281-0.674,2.447-1.549,3.437-2.567l-3.321,0.029
			c-0.218,0-0.335-0.158-0.335-0.331c0-0.157,0.117-0.315,0.335-0.315l2.563,0.015l-0.014-1.564h-1.894
			c-0.219,0-0.335-0.158-0.335-0.316c0-0.143,0.116-0.301,0.335-0.301h1.894v-1.606c0-0.229,0.175-0.331,0.349-0.331
			c0.189,0,0.379,0.115,0.379,0.331v1.607h1.384c0.204,0,0.306,0.158,0.306,0.316c0,0.144-0.102,0.301-0.306,0.301h-1.384
			l-0.015,1.563h0.611c0.801-0.946,1.471-1.994,1.967-3.142c0.058-0.144,0.189-0.201,0.306-0.201c0.204,0,0.408,0.158,0.408,0.359
			c0,0.172-0.772,1.635-1.85,2.983l1.194-0.014c0.233,0,0.35,0.158,0.35,0.316c0,0.172-0.116,0.33-0.35,0.33L205.866,42.833z
			 M212.712,41.916c-0.131,1.965-0.641,3.73-1.617,5.222c0.699,0.946,1.675,1.75,2.971,2.353c0.16,0.072,0.233,0.201,0.233,0.344
			c0,0.215-0.189,0.445-0.437,0.445c-0.204,0-1.878-0.775-3.175-2.568c-1.427,1.865-3.364,2.712-3.583,2.712
			c-0.233,0-0.407-0.201-0.407-0.401c0-0.129,0.073-0.259,0.262-0.345c1.442-0.616,2.535-1.492,3.336-2.568
			c-0.787-1.32-1.195-2.783-1.355-4.161c-0.612,1.148-0.844,1.392-1.092,1.392c-0.189,0-0.35-0.129-0.35-0.315
			c0-0.057,0.029-0.129,0.073-0.201c1.122-1.622,1.792-3.127,2.229-5.28c0.043-0.215,0.189-0.301,0.35-0.301
			c0.204,0,0.422,0.144,0.422,0.373c0,0.029,0,0.058-0.015,0.101c-0.233,0.889-0.51,1.736-0.83,2.539h4.02
			c0.233,0,0.35,0.172,0.35,0.331c0,0.172-0.117,0.344-0.35,0.344L212.712,41.916z M209.464,41.916
			c0.087,1.693,0.437,3.271,1.223,4.605c0.787-1.306,1.195-2.869,1.297-4.605H209.464z"/>
		<path fill="#B5943E" d="M221.076,50.021c-0.218,0-0.335-0.158-0.335-0.33c0-0.173,0.117-0.33,0.335-0.33h5.214v-1.808
			l-3.729,0.014c-0.233,0-0.349-0.158-0.349-0.33c0-0.158,0.116-0.33,0.349-0.33l3.729,0.015l-0.015-1.148
			c0-0.258,0.189-0.373,0.393-0.373c0.19,0,0.38,0.115,0.38,0.373v1.148l3.698-0.015c0.22,0,0.336,0.172,0.336,0.33
			c0,0.172-0.116,0.33-0.336,0.33l-3.698-0.014l-0.015,1.808h5.141c0.219,0,0.336,0.172,0.336,0.344
			c0,0.158-0.117,0.316-0.336,0.316H221.076z M231.373,41.255c-0.015-0.559-0.233-0.832-0.977-0.832
			c-1.077-0.015-2.461-0.015-3.83-0.015c-1.354,0-2.695,0-3.714,0.015c-0.757,0-0.947,0.33-0.961,0.803v1.234
			c0,0.229-0.204,0.344-0.394,0.344c-0.408,0-0.422-0.201-0.422-1.004c0-0.258,0.015-0.517,0.015-0.746
			c0.014-0.703,0.437-1.248,1.529-1.262c1.238-0.014,2.433-0.029,3.642-0.029v-1.449c0-0.244,0.204-0.359,0.423-0.359
			c0.203,0,0.407,0.115,0.407,0.359l-0.015,1.449c1.194,0,2.375,0.015,3.612,0.029c0.976,0.014,1.5,0.588,1.515,1.276
			c0.015,0.172,0.015,0.43,0.015,0.674c0,0.774,0,1.033-0.437,1.033c-0.205,0-0.408-0.115-0.408-0.344V41.255L231.373,41.255z
			 M225.926,42.532c-0.102,0.331-0.583,1.377-0.874,1.938c1.471-0.101,2.913-0.229,4.312-0.417
			c-0.335-0.244-0.685-0.458-1.006-0.631c-0.115-0.058-0.16-0.144-0.16-0.229c0-0.157,0.16-0.315,0.379-0.315
			c0.408,0,2.855,1.606,2.855,2.281c0,0.229-0.189,0.402-0.379,0.402c-0.117,0-0.248-0.058-0.35-0.201
			c-0.219-0.301-0.48-0.574-0.758-0.832c-3.641,0.604-7.37,0.804-7.835,0.804c-0.262,0-0.393-0.172-0.393-0.358
			c0-0.173,0.131-0.359,0.378-0.359c0.743-0.028,1.457-0.043,2.17-0.086c0.233-0.487,0.626-1.492,0.787-1.994l-1.967,0.014
			c-0.204,0-0.305-0.158-0.305-0.33c0-0.158,0.102-0.316,0.305-0.316h7.151c0.189,0,0.292,0.158,0.292,0.316
			c0,0.172-0.103,0.33-0.292,0.33L225.926,42.532z"/>
		<path fill="#B5943E" d="M241.205,44.211c0-0.631,0.51-1.119,1.15-1.119s1.15,0.488,1.15,1.119c0,0.646-0.51,1.147-1.15,1.147
			S241.205,44.856,241.205,44.211z"/>
		<path fill="#B5943E" d="M252.615,49.49c-0.176,0-0.35-0.115-0.35-0.301c0-0.058,0.015-0.115,0.044-0.173
			c0.378-0.688,0.699-1.95,0.743-2.783c0.014-0.2,0.16-0.301,0.32-0.301c0.175,0,0.35,0.129,0.35,0.358
			c0,0.574-0.364,2.31-0.743,2.984C252.893,49.433,252.762,49.49,252.615,49.49z M254.538,44.713
			c-0.729,0.115-1.763,0.258-1.951,0.258c-0.19,0-0.292-0.172-0.292-0.344c0-0.158,0.073-0.302,0.248-0.316
			c0.232-0.014,0.524-0.042,0.859-0.086c0.277-0.358,0.582-0.803,0.874-1.291c-0.35-0.531-1.399-1.463-1.733-1.751
			c-0.073-0.071-0.103-0.143-0.103-0.229c0-0.172,0.132-0.33,0.321-0.33c0.131,0,0.262,0.072,0.568,0.33
			c0.378-0.703,0.859-1.836,1.02-2.64c0.028-0.172,0.174-0.258,0.334-0.258c0.189,0,0.408,0.144,0.408,0.359
			c0,0.33-0.801,2.151-1.297,2.983c0.321,0.331,0.641,0.688,0.83,0.933c0.48-0.875,0.918-1.779,1.137-2.439
			c0.058-0.157,0.174-0.229,0.306-0.229c0.203,0,0.423,0.158,0.423,0.373c0,0.187-0.977,2.224-2.287,4.103
			c0.801-0.1,1.631-0.23,2.053-0.288c-0.203-0.315-0.437-0.603-0.641-0.803c-0.043-0.043-0.058-0.086-0.058-0.129
			c0-0.129,0.16-0.259,0.32-0.259c0.35,0,1.311,1.406,1.311,1.693c0,0.029-0.015,0.058-0.015,0.086c0.189,0,0.408,0.015,0.554,0.015
			c0.786,0.028,0.99,0.315,0.99,1.076c0,0.473-0.015,1.649-0.015,2.338c0.787,1.363,2.098,1.636,3.568,1.636
			c0.962,0,1.98-0.115,2.724-0.201h0.044c0.219,0,0.35,0.186,0.35,0.373c0,0.172-0.117,0.359-0.35,0.388
			c-0.611,0.086-1.544,0.173-2.49,0.173c-1.807,0-3.219-0.23-4.195-1.837c-0.932,1.248-1.588,1.765-1.805,1.765
			c-0.205,0-0.394-0.201-0.394-0.401c0-0.101,0.044-0.201,0.159-0.273c0.671-0.445,1.166-0.961,1.705-1.65
			c0.014-0.66,0.014-1.765,0.014-2.195s-0.102-0.517-0.451-0.53h-0.685c-0.204,0-0.32-0.158-0.32-0.331
			c0-0.057,0.015-0.128,0.058-0.186l-0.043-0.101c-0.015-0.058-0.029-0.101-0.059-0.157c-0.219,0.058-0.729,0.157-1.325,0.258
			l0.029,5.523c0,0.273-0.188,0.402-0.378,0.402c-0.19,0-0.365-0.129-0.365-0.388L254.538,44.713z M256.359,47.683
			c-0.073-0.588-0.233-1.032-0.495-1.521c-0.029-0.043-0.029-0.087-0.029-0.129c0-0.144,0.146-0.244,0.291-0.244
			c0.495,0,0.874,1.535,0.874,1.779c0,0.215-0.189,0.359-0.364,0.359C256.504,47.927,256.388,47.855,256.359,47.683z
			 M257.742,41.313c-0.16-0.646-0.582-1.363-0.845-1.707c-0.044-0.058-0.058-0.101-0.058-0.158c0-0.157,0.189-0.272,0.379-0.272
			c0.437,0,1.252,1.549,1.252,1.98c0,0.258-0.219,0.416-0.422,0.416C257.916,41.571,257.785,41.499,257.742,41.313z M262.869,39.232
			h0.043c0.613,0,0.918,0.244,0.918,0.604c0,0.674-1.092,1.707-1.311,1.908c0.742,0.488,1.646,0.861,2.578,1.019
			c0.189,0.029,0.276,0.172,0.276,0.301c0,0.186-0.146,0.373-0.379,0.373c-0.189,0-1.573-0.245-2.971-1.277
			c-1.471,1.104-3.116,1.521-3.292,1.521c-0.219,0-0.335-0.158-0.335-0.316c0-0.129,0.073-0.258,0.247-0.301
			c1.107-0.259,2.098-0.732,2.885-1.306c-0.423-0.373-0.758-0.761-1.02-1.162c-0.365,0.459-1.093,1.234-1.398,1.234
			c-0.203,0-0.35-0.173-0.35-0.33c0-0.086,0.029-0.158,0.117-0.229c1.135-0.875,1.675-1.75,2.141-2.841
			c0.058-0.129,0.175-0.201,0.305-0.201c0.176,0,0.379,0.129,0.379,0.33c0,0.101-0.174,0.402-0.334,0.703L262.869,39.232z
			 M262.316,47.783v1.062c0,0.216-0.175,0.33-0.35,0.33c-0.189,0-0.364-0.114-0.364-0.33l0.014-1.062l-2.082,0.014
			c-0.204,0-0.307-0.144-0.307-0.287c0-0.158,0.103-0.302,0.307-0.302l2.082,0.014v-1.09h-1.514c-0.205,0-0.306-0.144-0.306-0.287
			s0.101-0.287,0.306-0.287l1.514,0.015v-0.947l-1.834,0.015c-0.205,0-0.322-0.144-0.322-0.302c0-0.144,0.117-0.287,0.322-0.287
			l1.834,0.015l0.016-0.717c0-0.216,0.174-0.331,0.349-0.331c0.16,0,0.321,0.101,0.321,0.331v0.717l1.922-0.015
			c0.204,0,0.307,0.144,0.307,0.287c0,0.158-0.103,0.302-0.307,0.302l-1.922-0.015v0.947l1.5-0.015c0.203,0,0.291,0.144,0.291,0.287
			s-0.088,0.287-0.291,0.287l-1.5-0.015l0.014,1.105l2.199-0.014c0.203,0,0.291,0.144,0.291,0.287c0,0.158-0.088,0.301-0.291,0.301
			L262.316,47.783z M263.059,39.965c0-0.101-0.088-0.158-0.262-0.158h-0.044c-0.175,0-1.078,0-1.704,0.014l-0.176,0.272
			c0.277,0.459,0.67,0.904,1.137,1.277C262.752,40.71,263.059,40.064,263.059,39.965z"/>
		<path fill="#B5943E" d="M278.336,46.191c0.232,0.544,0.568,1.061,1.033,1.52c0.627-0.243,1.719-0.66,2.316-0.976
			c0.059-0.028,0.117-0.043,0.175-0.043c0.219,0,0.394,0.188,0.394,0.388c0,0.273-0.029,0.288-2.389,1.076
			c0.889,0.704,2.098,1.249,3.553,1.463c0.205,0.029,0.307,0.201,0.307,0.359c0,0.186-0.146,0.373-0.408,0.373
			c-0.582,0-4.412-0.832-5.621-4.132c-0.467,0.287-0.932,0.56-1.398,0.804v2.065c0.816-0.172,1.559-0.373,2.141-0.531
			c0.029-0.014,0.073-0.014,0.102-0.014c0.189,0,0.336,0.157,0.336,0.33c0,0.115-0.088,0.244-0.277,0.301
			c-3,0.847-5.359,1.234-5.594,1.234c-0.275,0-0.406-0.186-0.406-0.359c0-0.172,0.115-0.344,0.35-0.373
			c0.873-0.115,1.791-0.272,2.65-0.445v-1.879c-2.068,0.961-3.787,1.348-3.918,1.348c-0.248,0-0.393-0.201-0.393-0.387
			c0-0.129,0.087-0.258,0.262-0.301c1.805-0.402,3.48-0.947,5.039-1.807l-4.501,0.029c-0.218,0-0.32-0.159-0.32-0.316
			s0.103-0.315,0.32-0.315l5.112,0.014l-0.014-0.76c0-0.216,0.189-0.316,0.379-0.316c0.174,0,0.363,0.1,0.363,0.316v0.76
			l5.084-0.014c0.203,0,0.305,0.157,0.305,0.315s-0.102,0.316-0.305,0.316L278.336,46.191z M278.031,43.666
			c0,0.56-0.35,0.904-1.165,0.904c-0.685,0-0.932-0.101-0.932-0.33c0-0.158,0.115-0.301,0.276-0.301h0.029
			c0.189,0.029,0.407,0.072,0.597,0.072c0.438,0,0.51-0.144,0.51-0.747c0-0.646-0.087-0.66-1.951-0.66v1.952
			c0,0.229-0.175,0.358-0.35,0.358c-0.174,0-0.35-0.129-0.35-0.358v-1.952c-1.805,0-1.805,0.014-1.805,0.833
			c0,0.287,0,0.603,0.014,0.903v0.015c0,0.186-0.175,0.287-0.35,0.287c-0.379,0-0.379-0.187-0.379-0.976
			c0-1.449,0.029-1.578,2.52-1.578v-0.789h-2.941c-0.203,0-0.306-0.144-0.306-0.302c0-0.144,0.103-0.287,0.306-0.287h2.941v-1.019
			l-1.588,0.014c-0.567,0.718-0.742,0.789-0.873,0.789c-0.189,0-0.35-0.158-0.35-0.316c0-0.057,0.029-0.115,0.073-0.158
			c0.423-0.373,0.874-0.99,1.136-1.578c0.059-0.129,0.16-0.172,0.277-0.172c0.189,0,0.379,0.144,0.379,0.33
			c0,0.115-0.132,0.331-0.262,0.546h1.208V38.3c0-0.229,0.175-0.33,0.349-0.33c0.176,0,0.35,0.101,0.35,0.33v0.846l2.229-0.014
			c0.189,0,0.291,0.143,0.291,0.287c0,0.143-0.102,0.287-0.291,0.287l-2.229-0.014v1.019h2.986c0.204,0,0.306,0.144,0.306,0.287
			c0,0.158-0.102,0.302-0.306,0.302h-2.986v0.788c0.467,0,0.918,0,1.398,0.015c0.83,0.014,1.224,0.287,1.238,0.875L278.031,43.666
			L278.031,43.666z M279.457,39.176c0-0.229,0.189-0.344,0.365-0.344c0.189,0,0.363,0.115,0.363,0.344v3.112
			c0,0.215-0.189,0.316-0.363,0.316c-0.189,0-0.365-0.101-0.365-0.316V39.176z M282.823,43.25c0,0.718-0.394,1.32-1.632,1.32
			c-0.845,0-1.312-0.114-1.312-0.459c0-0.186,0.133-0.373,0.365-0.373c0.029,0,0.072,0,0.102,0.015
			c0.336,0.072,0.627,0.129,0.874,0.129c0.51,0,0.815-0.201,0.831-0.731v-4.49c0-0.244,0.188-0.373,0.378-0.373
			s0.379,0.129,0.379,0.373c0,0.933,0.015,3.113,0.015,3.457V43.25L282.823,43.25z"/>
		<path fill="#B5943E" d="M294.373,42.833c-0.467,0.518-0.977,1.005-1.5,1.464c0.641-0.015,1.15-0.015,1.908-0.015
			c0.48,0,0.757,0.258,0.757,0.588c0,0.172-0.073,0.631-1.544,1.592c0.102,0.129,0.175,0.244,0.248,0.388
			c0.801-0.144,1.543-0.302,2.053-0.431c0.029,0,0.043-0.014,0.073-0.014c0.159,0,0.292,0.158,0.292,0.315
			c0,0.244-0.059,0.316-2.199,0.703c0.058,0.216,0.087,0.445,0.087,0.66c0,0.201-0.015,2.267-1.995,2.267
			c-0.715,0-1.137-0.129-1.137-0.445c0-0.172,0.146-0.344,0.365-0.344c0.029,0,0.058,0,0.102,0.014
			c0.248,0.058,0.48,0.101,0.715,0.101c0.757,0,1.237-0.459,1.237-1.563c0-0.186-0.029-0.373-0.073-0.56
			c-0.494,0.086-2.84,0.502-3.189,0.502c-0.233,0-0.35-0.157-0.35-0.33c0-0.144,0.102-0.301,0.32-0.316
			c0.802-0.086,1.924-0.243,3-0.431c-0.188-0.329-0.494-0.603-0.902-0.76c-0.131-0.043-0.189-0.129-0.189-0.216
			c0-0.144,0.16-0.287,0.379-0.287c0.32,0,0.758,0.345,0.758,0.345c0.131-0.086,1.121-0.803,1.121-1.076
			c0-0.086-0.088-0.144-0.248-0.144c-0.785,0-1.252,0-2.301,0.029c-0.904,0.674-1.733,1.191-1.923,1.191
			c-0.204,0-0.364-0.187-0.364-0.359c0-0.114,0.059-0.229,0.203-0.302c1.281-0.674,2.447-1.549,3.438-2.567l-3.32,0.029
			c-0.219,0-0.336-0.158-0.336-0.331c0-0.157,0.117-0.315,0.336-0.315l2.563,0.015l-0.015-1.564h-1.894
			c-0.219,0-0.335-0.158-0.335-0.316c0-0.143,0.116-0.301,0.335-0.301h1.894v-1.606c0-0.229,0.175-0.331,0.35-0.331
			c0.189,0,0.379,0.115,0.379,0.331v1.607h1.383c0.205,0,0.307,0.158,0.307,0.316c0,0.144-0.102,0.301-0.307,0.301h-1.383
			l-0.016,1.563h0.612c0.802-0.946,1.472-1.994,1.967-3.142c0.058-0.144,0.189-0.201,0.306-0.201c0.203,0,0.408,0.158,0.408,0.359
			c0,0.172-0.772,1.635-1.851,2.983l1.194-0.014c0.234,0,0.35,0.158,0.35,0.316c0,0.172-0.115,0.33-0.35,0.33L294.373,42.833z
			 M301.219,41.916c-0.132,1.965-0.641,3.73-1.617,5.222c0.699,0.946,1.676,1.75,2.972,2.353c0.159,0.072,0.233,0.201,0.233,0.344
			c0,0.215-0.189,0.445-0.438,0.445c-0.203,0-1.879-0.775-3.176-2.568c-1.426,1.865-3.363,2.712-3.582,2.712
			c-0.233,0-0.408-0.201-0.408-0.401c0-0.129,0.073-0.259,0.262-0.345c1.443-0.616,2.535-1.492,3.336-2.568
			c-0.786-1.32-1.195-2.783-1.354-4.161c-0.612,1.148-0.845,1.392-1.093,1.392c-0.189,0-0.35-0.129-0.35-0.315
			c0-0.057,0.029-0.129,0.073-0.201c1.122-1.622,1.792-3.127,2.229-5.28c0.044-0.215,0.189-0.301,0.35-0.301
			c0.204,0,0.423,0.144,0.423,0.373c0,0.029,0,0.058-0.016,0.101c-0.232,0.889-0.51,1.736-0.83,2.539h4.021
			c0.233,0,0.349,0.172,0.349,0.331c0,0.172-0.115,0.344-0.349,0.344L301.219,41.916z M297.971,41.916
			c0.088,1.693,0.438,3.271,1.223,4.605c0.787-1.306,1.195-2.869,1.297-4.605H297.971z"/>
		<path fill="#B5943E" d="M309.582,50.021c-0.219,0-0.334-0.158-0.334-0.33c0-0.173,0.115-0.33,0.334-0.33h5.215v-1.808
			l-3.729,0.014c-0.233,0-0.35-0.158-0.35-0.33c0-0.158,0.116-0.33,0.35-0.33l3.729,0.015l-0.014-1.148
			c0-0.258,0.188-0.373,0.393-0.373c0.189,0,0.379,0.115,0.379,0.373v1.148l3.699-0.015c0.219,0,0.334,0.172,0.334,0.33
			c0,0.172-0.115,0.33-0.334,0.33l-3.699-0.014l-0.015,1.808h5.142c0.218,0,0.334,0.172,0.334,0.344
			c0,0.158-0.116,0.316-0.334,0.316H309.582z M319.879,41.255c-0.014-0.559-0.232-0.832-0.975-0.832
			c-1.078-0.015-2.462-0.015-3.83-0.015c-1.355,0-2.695,0-3.715,0.015c-0.758,0-0.947,0.33-0.961,0.803v1.234
			c0,0.229-0.204,0.344-0.394,0.344c-0.407,0-0.423-0.201-0.423-1.004c0-0.258,0.016-0.517,0.016-0.746
			c0.014-0.703,0.437-1.248,1.529-1.262c1.238-0.014,2.432-0.029,3.641-0.029v-1.449c0-0.244,0.203-0.359,0.422-0.359
			c0.204,0,0.408,0.115,0.408,0.359l-0.015,1.449c1.194,0,2.374,0.015,3.612,0.029c0.976,0.014,1.5,0.588,1.515,1.276
			c0.015,0.172,0.015,0.43,0.015,0.674c0,0.774,0,1.033-0.438,1.033c-0.203,0-0.408-0.115-0.408-0.344V41.255z M314.434,42.532
			c-0.103,0.331-0.583,1.377-0.875,1.938c1.472-0.101,2.914-0.229,4.312-0.417c-0.335-0.244-0.685-0.458-1.005-0.631
			c-0.117-0.058-0.16-0.144-0.16-0.229c0-0.157,0.16-0.315,0.379-0.315c0.408,0,2.854,1.606,2.854,2.281
			c0,0.229-0.189,0.402-0.379,0.402c-0.116,0-0.247-0.058-0.35-0.201c-0.218-0.301-0.48-0.574-0.757-0.832
			c-3.642,0.604-7.37,0.804-7.836,0.804c-0.262,0-0.394-0.172-0.394-0.358c0-0.173,0.132-0.359,0.379-0.359
			c0.743-0.028,1.456-0.043,2.17-0.086c0.233-0.487,0.626-1.492,0.786-1.994l-1.966,0.014c-0.204,0-0.306-0.158-0.306-0.33
			c0-0.158,0.102-0.316,0.306-0.316h7.151c0.189,0,0.291,0.158,0.291,0.316c0,0.172-0.102,0.33-0.291,0.33L314.434,42.532z"/>
	</g>
	<g>
		<path fill="#B5943E" d="M123.675,65.8c-0.069,3.038-0.069,6.649-0.069,10.125c0,2.836,0,5.569,0.035,7.764v0.102
			c0,3.881-2.775,5.805-6.304,5.805c-0.959,0-2.022-0.136-3.05-0.439c-0.651-0.168-0.959-0.708-0.959-1.182
			c0-0.573,0.377-1.079,1.097-1.079c0.206,0,0.377,0.034,0.616,0.102c0.891,0.304,1.782,0.472,2.57,0.472
			c2.193,0,3.803-1.181,3.837-3.847c0.034-2.024,0.034-4.455,0.034-7.021c0-3.611-0.034-7.459-0.103-10.732v-0.034
			c0-0.709,0.583-1.08,1.165-1.08c0.583,0,1.131,0.337,1.131,1.013V65.8z"/>
		<path fill="#B5943E" d="M130.939,77.141c0-7.324,5.311-12.623,12.438-12.623c7.127,0,12.438,5.299,12.438,12.623
			c0,7.594-5.311,12.555-12.438,12.555C136.25,89.695,130.939,84.734,130.939,77.141z M153.588,77.141
			c0-6.447-4.557-10.733-10.211-10.733c-5.653,0-10.21,4.286-10.21,10.733c0,6.412,4.557,10.631,10.21,10.631
			S153.588,83.553,153.588,77.141z"/>
		<path fill="#B5943E" d="M173.564,89.661c-7.949,0-12.266-6.041-12.266-12.353c0-6.278,4.249-12.724,12.472-12.724
			c5.243,0,8.635,3.037,8.635,4.252c0,0.641-0.514,1.114-1.131,1.114c-0.308,0-0.685-0.135-0.959-0.507
			c-1.61-1.991-4.146-2.937-6.716-2.937c-6.75,0-10.073,5.873-10.073,10.666c0,4.995,3.289,10.327,9.97,10.327
			c3.083,0,6.134-1.215,7.812-3.442c0.274-0.404,0.651-0.54,0.994-0.54c0.651,0,1.268,0.54,1.268,1.216
			C183.57,85.982,179.595,89.661,173.564,89.661z"/>
		<path fill="#B5943E" d="M209.403,88.447c0,0.641-0.549,0.979-1.097,0.979c-0.583,0-1.131-0.338-1.131-0.979v-0.034
			c0.034-1.688,0.034-3.477,0.034-5.096c0-2.194,0-4.051-0.034-4.929c0-0.675-0.274-0.81-0.617-0.81
			c-1.302-0.033-4.111-0.068-6.887-0.068c-2.776,0-5.517,0.034-6.784,0.068c-0.445,0-0.754,0.034-0.754,0.674
			c-0.034,0.912-0.068,3.005-0.068,5.435c0,1.485,0,3.104,0.068,4.725v0.034c0,0.675-0.548,1.013-1.097,1.013
			c-0.548,0-1.096-0.338-1.096-1.013v-0.034c0.068-3.711,0.103-8.302,0.103-12.622c0-3.746-0.034-7.29-0.103-9.889v-0.034
			c0-0.675,0.548-1.046,1.096-1.046c0.549,0,1.097,0.372,1.097,1.046v0.034c-0.034,1.417-0.068,2.869-0.068,4.219
			c0,2.059,0.034,3.848,0.068,4.726c0,0.606,0.274,0.708,0.617,0.741c0.857,0.035,3.701,0.068,6.647,0.068
			c2.981,0,6.031-0.033,7.264-0.068c0.446,0,0.514-0.303,0.514-0.708c0.034-0.811,0.068-2.633,0.068-4.725
			c0-1.35-0.034-2.834-0.068-4.252v-0.033c0-0.709,0.548-1.047,1.096-1.047c0.583,0,1.131,0.371,1.131,1.047v0.033
			c-0.035,2.869-0.069,7.189-0.069,11.441c0,4.253,0.034,8.438,0.069,11.07L209.403,88.447L209.403,88.447z"/>
		<path fill="#B5943E" d="M221.705,88.345c0,0.71-0.583,1.047-1.165,1.047c-0.548,0-1.13-0.337-1.13-1.047v-0.033
			c0.068-3.779,0.103-7.965,0.103-12.048c0-3.646-0.034-7.224-0.103-10.362v-0.033c0-0.743,0.583-1.114,1.165-1.114
			c0.548,0,1.13,0.371,1.13,1.047v0.033c-0.034,3.273-0.068,6.986-0.068,10.834s0.035,7.83,0.068,11.644V88.345z"/>
		<path fill="#B5943E" d="M241.339,89.661c-7.949,0-12.267-6.041-12.267-12.353c0-6.278,4.249-12.724,12.473-12.724
			c5.241,0,8.634,3.037,8.634,4.252c0,0.641-0.514,1.114-1.13,1.114c-0.309,0-0.686-0.135-0.96-0.507
			c-1.61-1.991-4.146-2.937-6.716-2.937c-6.75,0-10.073,5.873-10.073,10.666c0,4.995,3.289,10.327,9.97,10.327
			c3.084,0,6.134-1.215,7.812-3.442c0.274-0.404,0.651-0.54,0.994-0.54c0.65,0,1.268,0.54,1.268,1.216
			C251.344,85.982,247.369,89.661,241.339,89.661z"/>
		<path fill="#B5943E" d="M275.46,89.426c-0.411,0-0.856-0.236-1.062-0.776c-0.411-0.979-1.714-4.455-2.775-7.561
			c-0.104-0.271-0.206-0.405-0.549-0.405c-0.549-0.032-2.193-0.032-3.94-0.032c-2.433,0-5.14,0-5.858,0.032
			c-0.309,0-0.446,0.203-0.515,0.405c-0.891,2.7-1.953,5.872-2.468,7.526c-0.171,0.573-0.65,0.811-1.096,0.811
			c-0.514,0-1.062-0.338-1.062-0.912c0-0.102,0.035-0.235,0.068-0.338c1.92-6.108,5.928-16.942,7.573-21.6
			c0.446-1.215,1.405-1.789,2.329-1.789c0.994,0,1.988,0.607,2.434,1.822c2.262,6.21,6.783,18.529,7.949,21.229
			c0.068,0.17,0.102,0.338,0.102,0.506C276.592,88.987,276.043,89.426,275.46,89.426z M270.664,78.321
			c-1.062-3.172-3.256-8.978-3.804-10.665c-0.171-0.506-0.411-0.743-0.685-0.743c-0.275,0-0.549,0.27-0.754,0.81
			c-0.72,1.924-3.77,10.598-3.77,10.867c0,0.136,0.104,0.203,0.377,0.203c0.686,0,2.535,0.033,4.317,0.033
			c1.815,0,3.563-0.033,4.077-0.033c0.24,0,0.309-0.067,0.309-0.169C270.732,78.524,270.698,78.423,270.664,78.321z"/>
		<path fill="#B5943E" d="M292.004,65.8c-0.068,3.038-0.068,6.649-0.068,10.125c0,2.836,0,5.569,0.034,7.764v0.102
			c0,3.881-2.776,5.805-6.304,5.805c-0.96,0-2.021-0.136-3.051-0.439c-0.65-0.168-0.959-0.708-0.959-1.182
			c0-0.573,0.377-1.079,1.096-1.079c0.206,0,0.377,0.034,0.617,0.102c0.891,0.304,1.781,0.472,2.57,0.472
			c2.192,0,3.803-1.181,3.837-3.847c0.034-2.024,0.034-4.455,0.034-7.021c0-3.611-0.034-7.459-0.103-10.732v-0.034
			c0-0.709,0.583-1.08,1.165-1.08s1.131,0.338,1.131,1.013V65.8L292.004,65.8z"/>
		<path fill="#B5943E" d="M314.281,89.392c-0.446,0.034-2.468,0.034-4.489,0.034c-1.986,0-4.008,0-4.453-0.034
			c-3.016-0.236-4.489-1.586-4.592-3.78c-0.068-1.417-0.068-3.848-0.068-6.514c0-4.017,0.033-8.472,0.103-10.598
			c0.068-2.194,1.438-3.51,3.974-3.645c0.652-0.034,2.57-0.068,4.455-0.068c1.918,0,3.769,0.034,4.282,0.068
			c0.72,0.034,1.097,0.506,1.097,0.979s-0.411,0.945-1.166,0.945c-0.171,0-3.426-0.034-5.858-0.034c-3.461,0-4.558,0-4.729,2.059
			c-0.068,0.81-0.034,3.645-0.068,5.637c0,0.641,0.343,0.641,0.685,0.641c0.686,0.034,2.434,0.034,4.18,0.034
			c1.748,0,3.53,0,4.215-0.034c1.062-0.032,1.166,0.743,1.166,0.979c0,0.506-0.412,1.046-1.166,1.046h-0.068
			c-1.062-0.067-2.98-0.067-4.762-0.067c-4.249,0-4.283,0-4.283,0.675c0,5.197,0,6.783,0.103,7.594
			c0.138,1.282,0.856,2.025,2.673,2.16c0.582,0.033,2.467,0.033,4.352,0.033c1.918,0,3.838,0,4.454-0.033h0.103
			c0.686,0,1.062,0.438,1.062,0.911S315.103,89.356,314.281,89.392z"/>
		<path fill="#B5943E" d="M335.172,89.223c-0.445,0.034-2.535,0.034-4.626,0.034c-2.056,0-4.146,0-4.591-0.034
			c-3.016-0.235-4.352-1.282-4.42-3.645c-0.035-0.743-0.035-1.822-0.035-3.139c0-4.759,0.137-12.353,0.137-15.762v-0.742
			c0-0.742,0.549-1.114,1.131-1.114c0.583,0,1.166,0.405,1.166,1.148v0.067c-0.104,2.126-0.206,9.18-0.206,14.142
			c0,2.396,0.034,4.286,0.068,4.928c0.138,1.991,0.926,2.126,6.305,2.126c2.09,0,4.352-0.033,5.036-0.068h0.104
			c0.719,0,1.131,0.507,1.131,1.013S335.994,89.188,335.172,89.223z"/>
	</g>
</g>
</svg>
