<svg width="544" height="88" viewBox="0 0 544 88" fill="none" xmlns="http://www.w3.org/2000/svg">
<path d="M84.9125 87.5C81.7125 87.5 78.8125 86.8 76.2125 85.4C73.6792 84 71.3792 82.1667 69.3125 79.9C67.3125 77.6333 65.4792 75.2333 63.8125 72.7C63.1458 71.7 62.3458 70.3 61.4125 68.5C60.4792 66.6333 59.5125 64.6 58.5125 62.4C57.5125 60.2 56.5125 58.0667 55.5125 56C54.5792 53.8667 53.7458 52.0667 53.0125 50.6C52.2125 48.8667 51.5458 47.7667 51.0125 47.3C50.5458 46.8333 50.4792 46.4333 50.8125 46.1C50.8792 46.1 50.9125 46.0667 50.9125 46C51.1792 45.7333 51.5125 45.6667 51.9125 45.8C52.2458 45.9333 52.5458 46.0667 52.8125 46.2C53.1458 46.3333 53.4792 46.4667 53.8125 46.6C56.2125 47.4 58.7792 47.8 61.5125 47.8C64.3792 47.8 67.2458 47.3333 70.1125 46.4C72.9792 45.4 75.6125 44.0333 78.0125 42.3C80.4125 40.5 82.3125 38.3333 83.7125 35.8C85.1792 33.2 85.9125 30.3 85.9125 27.1C85.9125 24.2333 85.2125 21.5 83.8125 18.9C82.4125 16.3 80.3458 14.1333 77.6125 12.4C74.5458 10.4667 70.6125 9 65.8125 8C61.0125 6.93333 56.0458 6.4 50.9125 6.4C46.9792 6.4 43.0125 6.8 39.0125 7.6C35.0792 8.33333 31.4125 9.46666 28.0125 11C24.6125 12.4667 21.7458 14.3333 19.4125 16.6C17.6792 18.3333 16.1125 20.5667 14.7125 23.3C13.3125 26.0333 12.6125 28.7667 12.6125 31.5C12.6125 32.7667 12.8125 34 13.2125 35.2C13.8125 37.0667 14.9458 38.5 16.6125 39.5C18.3458 40.4333 20.2792 40.9 22.4125 40.9C24.0792 40.9 25.8125 40.6 27.6125 40C27.6792 40 27.7125 40 27.7125 40C27.7792 39.9333 27.8458 39.9 27.9125 39.9C28.1125 39.9 28.2125 39.9667 28.2125 40.1C28.2125 40.4333 28.0125 40.6667 27.6125 40.8C25.8125 41.4667 23.7792 41.8 21.5125 41.8C19.3792 41.8 17.3125 41.4 15.3125 40.6C13.3792 39.8 11.7792 38.5667 10.5125 36.9C9.3125 35.2333 8.7125 33.1 8.7125 30.5C8.7125 28.3667 9.0125 26.4333 9.6125 24.7C10.2125 22.9 11.0125 21.2667 12.0125 19.8C13.7458 17.2 16.0458 14.9667 18.9125 13.1C21.7792 11.2333 25.0125 9.7 28.6125 8.5C32.2125 7.3 35.9458 6.43333 39.8125 5.9C43.6792 5.3 47.4792 5 51.2125 5C56.4792 5 61.5458 5.4 66.4125 6.2C71.3458 6.93333 75.4125 8 78.6125 9.4C83.0792 11.2667 86.2792 13.7 88.2125 16.7C90.1458 19.7 91.1125 22.8333 91.1125 26.1C91.1125 29.8333 90.2458 33.1333 88.5125 36C86.7792 38.8667 84.4792 41.3 81.6125 43.3C78.8125 45.2333 75.7125 46.7333 72.3125 47.8C68.9792 48.8 65.6792 49.3 62.4125 49.3C61.0125 49.3 59.6125 49.2333 58.2125 49.1C56.8792 48.9 55.5792 48.6333 54.3125 48.3C55.2458 49.5667 56.4125 51.2333 57.8125 53.3C59.2125 55.3 60.6458 57.4333 62.1125 59.7C63.6458 61.9 65.0458 63.9667 66.3125 65.9C67.6458 67.8333 68.7125 69.3 69.5125 70.3C70.9792 72.2333 72.7125 74.3 74.7125 76.5C76.7125 78.7 78.8792 80.5667 81.2125 82.1C83.6125 83.6333 86.0792 84.4 88.6125 84.4C90.3458 84.4 91.8458 83.9667 93.1125 83.1C94.3792 82.2333 95.3458 81.2333 96.0125 80.1C96.7458 78.8333 97.1125 77.2333 97.1125 75.3C97.1125 73.7667 96.9125 72.2333 96.5125 70.7C96.1125 69.1 95.6458 67.7 95.1125 66.5C94.2458 64.5667 93.5125 63.2 92.9125 62.4C92.5792 61.8667 92.4125 61.5333 92.4125 61.4C92.4125 61.1333 92.5458 61 92.8125 61C93.2125 61 93.7792 61.3 94.5125 61.9C95.9792 63.3667 97.1125 65.1 97.9125 67.1C98.7792 69.1 99.2125 71.1667 99.2125 73.3C99.2125 76.1667 98.4125 78.8667 96.8125 81.4C95.6792 83.2 94.0792 84.6667 92.0125 85.8C89.9458 86.9333 87.5792 87.5 84.9125 87.5ZM9.7125 84.1C9.04583 84.1 7.97917 84 6.5125 83.8C5.1125 83.6667 3.8125 83.2667 2.6125 82.6C1.4125 81.9333 0.8125 80.8667 0.8125 79.4C0.8125 78.5333 1.0125 77.8667 1.4125 77.4C1.67917 77.0667 1.94583 76.9 2.2125 76.9C2.47917 76.9 2.54583 77.0667 2.4125 77.4C2.2125 78.4 2.57917 79.3333 3.5125 80.2C4.44583 81.1333 5.37917 81.7333 6.3125 82C6.97917 82.1333 7.6125 82.2333 8.2125 82.3C8.8125 82.4333 9.37917 82.5 9.9125 82.5C12.5792 82.5 15.0125 81.8 17.2125 80.4C19.4125 79.0667 21.3792 77.3333 23.1125 75.2C24.9125 73.1333 26.5125 71.0333 27.9125 68.9C29.9125 65.8333 31.8792 62.3333 33.8125 58.4C35.7458 54.4667 37.7458 50.4333 39.8125 46.3C41.8792 42.1 44.0458 38.0333 46.3125 34.1C48.6458 30.1667 51.1792 26.6667 53.9125 23.6C56.6458 20.4667 59.6458 18.0667 62.9125 16.4C65.0458 15.2667 67.0792 14.7 69.0125 14.7C70.0792 14.7 71.0458 14.8333 71.9125 15.1C72.1792 15.1667 72.2458 15.3333 72.1125 15.6C72.0458 15.8667 71.8792 15.9667 71.6125 15.9C71.3458 15.7667 71.0458 15.7 70.7125 15.7C70.4458 15.7 70.1458 15.7 69.8125 15.7C66.3458 15.7 62.7125 17.9333 58.9125 22.4C55.9792 25.8667 53.4458 29.5667 51.3125 33.5C49.1792 37.3667 47.2125 41.3667 45.4125 45.5C43.6125 49.5667 41.7458 53.6 39.8125 57.6C37.9458 61.6 35.7125 65.4333 33.1125 69.1C31.3125 71.6333 29.2792 74 27.0125 76.2C24.7458 78.4667 22.2458 80.3 19.5125 81.7C17.9792 82.4333 16.3792 83 14.7125 83.4C13.1125 83.8667 11.4458 84.1 9.7125 84.1ZM109.879 77C107.346 77 105.146 76.2 103.279 74.6C101.479 72.9333 100.579 70.4 100.579 67C100.579 64.8667 100.946 62.6667 101.679 60.4C102.479 58.0667 103.346 56 104.279 54.2C106.012 50.9333 108.179 48.1 110.779 45.7C113.446 43.2333 116.612 42 120.279 42C123.812 42 126.279 42.9667 127.679 44.9C129.079 46.8333 129.779 49.2 129.779 52C129.779 53.1333 129.679 54.3 129.479 55.5C128.946 58.7667 127.846 61.9333 126.179 65C126.646 65.6667 127.246 66.2333 127.979 66.7C128.779 67.1 129.646 67.3 130.579 67.3C132.179 67.3 133.546 66.8667 134.679 66C135.812 65.1333 136.779 64.0667 137.579 62.8C138.446 61.4667 139.179 60.2333 139.779 59.1C140.179 58.3667 140.546 58 140.879 58C141.079 58 141.179 58.1333 141.179 58.4C141.179 58.6667 140.979 59.2667 140.579 60.2C139.446 62.4667 138.112 64.4333 136.579 66.1C135.046 67.7667 133.046 68.6 130.579 68.6C128.312 68.6 126.579 67.8 125.379 66.2C123.512 69.2667 121.246 71.8333 118.579 73.9C115.912 75.9667 113.012 77 109.879 77ZM110.079 75.8C113.346 75.8 116.579 74.2 119.779 71C120.712 70.0667 121.546 69.1 122.279 68.1C123.079 67.0333 123.779 65.9667 124.379 64.9C123.512 63.9 122.879 62.8333 122.479 61.7C122.146 60.5 121.979 59.3667 121.979 58.3C121.979 56.6333 122.279 55.1667 122.879 53.9C123.479 52.5667 124.312 51.9 125.379 51.9C125.912 51.9 126.412 52.1667 126.879 52.7C127.412 53.2333 127.746 54.0667 127.879 55.2C128.079 54.2667 128.179 53.2667 128.179 52.2C128.179 49.6667 127.712 47.6667 126.779 46.2C125.846 44.6667 124.279 43.9 122.079 43.9C120.746 43.9 119.379 44.4333 117.979 45.5C116.579 46.5 115.246 47.7333 113.979 49.2C112.779 50.6667 111.712 52.1667 110.779 53.7C109.846 55.2333 109.146 56.5 108.679 57.5C107.546 59.9667 106.712 62.1667 106.179 64.1C105.712 66.0333 105.479 67.7333 105.479 69.2C105.479 71.3333 105.912 72.9667 106.779 74.1C107.712 75.2333 108.812 75.8 110.079 75.8ZM142.772 76.3C140.639 76.3 139.105 75.6667 138.172 74.4C137.305 73.1333 136.872 71.6 136.872 69.8C136.872 68.4667 137.072 67.1667 137.472 65.9C137.872 64.4333 138.572 62.4333 139.572 59.9C140.572 57.3667 141.672 54.6333 142.872 51.7C144.139 48.7 145.405 45.8333 146.672 43.1C147.205 41.9 147.805 40.5667 148.472 39.1C149.205 37.5667 149.905 36.0667 150.572 34.6C151.305 33.1333 151.905 31.9333 152.372 31C153.572 28.6667 155.005 25.9 156.672 22.7C158.339 19.5 160.239 16.3333 162.372 13.2C164.572 10 167.005 7.26666 169.672 5C172.339 2.73333 175.239 1.36666 178.372 0.899994C178.639 0.833329 178.972 0.799996 179.372 0.799996C180.905 0.799996 182.039 1.26666 182.772 2.2C183.572 3.13333 183.972 4.26666 183.972 5.6C183.972 6.8 183.739 7.9 183.272 8.9C182.205 11.3 180.505 13.8333 178.172 16.5C175.905 19.1667 173.439 21.7667 170.772 24.3C168.172 26.7667 165.839 29 163.772 31C162.039 32.6667 160.505 34.1333 159.172 35.4C157.839 36.6 156.605 37.8 155.472 39C154.339 40.2 153.105 41.5333 151.772 43C151.039 44.6667 150.305 46.3667 149.572 48.1C148.905 49.7667 148.539 50.7333 148.472 51C150.339 48.4667 152.372 46.2667 154.572 44.4C156.839 42.4667 158.905 41.5 160.772 41.5C162.972 41.5 164.472 42.0667 165.272 43.2C166.139 44.3333 166.572 45.7667 166.572 47.5C166.572 49.1 166.305 50.8 165.772 52.6C165.239 54.4 164.605 56.1333 163.872 57.8C163.205 59.4 162.539 60.7667 161.872 61.9C161.205 62.9667 160.439 64.1 159.572 65.3C158.772 66.4333 157.872 67.5333 156.872 68.6C157.139 69.4667 157.572 70.1 158.172 70.5C158.772 70.9 159.472 71.1 160.272 71.1C161.205 71.1 162.172 70.9 163.172 70.5C164.172 70.0333 165.039 69.5 165.772 68.9C167.305 67.6333 168.705 66.1333 169.972 64.4C171.239 62.6667 172.405 60.8667 173.472 59C173.539 58.8667 173.572 58.8 173.572 58.8C173.639 58.8 173.672 58.8 173.672 58.8C173.805 58.8 173.872 59.1 173.872 59.7C173.872 59.9667 173.872 60.2333 173.872 60.5C173.872 60.7 173.805 60.9 173.672 61.1C172.539 63.1 171.372 64.9 170.172 66.5C168.972 68.0333 167.505 69.4 165.772 70.6C163.972 71.8667 162.039 72.5 159.972 72.5C159.039 72.5 158.172 72.3 157.372 71.9C156.572 71.5 156.005 70.8333 155.672 69.9C153.805 71.7 151.772 73.2333 149.572 74.5C147.439 75.7 145.172 76.3 142.772 76.3ZM153.372 39.5C154.905 37.7667 156.339 36.2333 157.672 34.9C159.005 33.5 160.639 31.8 162.572 29.8C164.439 27.9333 166.572 25.7333 168.972 23.2C171.439 20.6667 173.739 18.1 175.872 15.5C178.072 12.9 179.672 10.6 180.672 8.6C181.472 7 181.872 5.7 181.872 4.7C181.872 2.76666 180.739 1.96666 178.472 2.29999C176.272 2.56666 174.139 3.66666 172.072 5.6C170.072 7.53333 168.139 9.96666 166.272 12.9C164.472 15.7667 162.772 18.8333 161.172 22.1C159.572 25.3667 158.105 28.5333 156.772 31.6C155.505 34.6667 154.372 37.3 153.372 39.5ZM147.072 73C148.539 72 149.939 70.6333 151.272 68.9C152.605 67.1667 153.772 65.4333 154.772 63.7C155.839 61.9667 156.639 60.6 157.172 59.6C157.572 58.8667 158.105 57.7333 158.772 56.2C159.505 54.6 160.172 52.9 160.772 51.1C161.372 49.3 161.672 47.7333 161.672 46.4C161.672 45.4667 161.472 44.7333 161.072 44.2C160.739 43.6 160.105 43.3 159.172 43.3C158.305 43.3 157.272 43.8 156.072 44.8C154.939 45.7333 153.805 46.9333 152.672 48.4C151.272 50.1333 149.739 52.2333 148.072 54.7C146.405 57.1 144.872 59.6 143.472 62.2C142.139 64.8 141.139 67.1667 140.472 69.3C140.272 70.1 140.172 70.8 140.172 71.4C140.172 72.4667 140.439 73.2333 140.972 73.7C141.572 74.1667 142.272 74.4 143.072 74.4C144.405 74.4 145.739 73.9333 147.072 73ZM184.766 75.9C180.966 75.9 177.999 74.8667 175.866 72.8C173.799 70.7333 172.766 67.9667 172.766 64.5C172.766 63.3 172.899 62.0333 173.166 60.7C173.432 59.3 173.866 57.8667 174.466 56.4C175.399 54.2 176.599 52.0333 178.066 49.9C179.532 47.7667 181.299 45.9667 183.366 44.5C185.432 43.0333 187.732 42.2 190.266 42C191.199 41.9333 192.066 42 192.866 42.2C193.666 42.4 194.366 42.8 194.966 43.4C195.499 43.8667 195.866 44.4667 196.066 45.2C196.332 45.8667 196.466 46.5667 196.466 47.3C196.466 49.3667 195.832 51.4667 194.566 53.6C193.299 55.6667 191.699 57.4 189.766 58.8C187.832 60.2 185.832 60.9 183.766 60.9C181.899 60.9 180.266 60.2333 178.866 58.9C178.266 60.9667 177.966 63.0333 177.966 65.1C177.966 67.6333 178.532 69.8 179.666 71.6C180.866 73.3333 182.899 74.2 185.766 74.2C188.632 74.2 191.099 73.4333 193.166 71.9C195.299 70.3667 197.132 68.4667 198.666 66.2C200.266 63.8667 201.666 61.6333 202.866 59.5C202.999 59.3 203.132 59.2 203.266 59.2C203.532 59.2 203.666 59.4667 203.666 60C203.666 60.3333 203.566 60.7 203.366 61.1C202.099 63.3667 200.632 65.6333 198.966 67.9C197.366 70.1667 195.399 72.0667 193.066 73.6C190.799 75.1333 188.032 75.9 184.766 75.9ZM179.366 57.4C179.832 58.0667 180.366 58.5667 180.966 58.9C181.632 59.1667 182.299 59.3 182.966 59.3C184.566 59.3 186.232 58.7 187.966 57.5C189.699 56.2333 191.099 54.7667 192.166 53.1C192.632 52.3667 193.032 51.4 193.366 50.2C193.766 49 193.966 47.8667 193.966 46.8C193.966 45.8667 193.766 45.0667 193.366 44.4C193.032 43.6667 192.332 43.3 191.266 43.3C190.066 43.3 188.632 44.0333 186.966 45.5C185.366 46.9667 183.832 48.8667 182.366 51.2C181.899 52 181.366 52.9333 180.766 54C180.232 55.0667 179.766 56.2 179.366 57.4ZM244.048 75.7C241.781 75.7 240.148 74.9333 239.148 73.4C238.148 71.8 237.648 69.8333 237.648 67.5C237.648 65.1667 238.048 62.8667 238.848 60.6L239.848 57.7L236.148 63.4C235.214 64.8667 233.981 66.5333 232.448 68.4C230.981 70.2 229.414 71.7667 227.748 73.1C225.614 74.8333 223.681 75.7 221.948 75.7C220.281 75.7 218.981 75 218.048 73.6C217.181 72.2 216.748 70.4333 216.748 68.3C216.748 66.8333 216.948 65.3667 217.348 63.9C218.348 60.1667 219.881 56.7667 221.948 53.7C224.014 50.5667 226.614 47.8667 229.748 45.6C231.081 44.6 232.781 43.8 234.848 43.2C236.914 42.5333 238.981 42.2 241.048 42.2C241.848 42.2 242.648 42.2667 243.448 42.4C244.248 42.5333 244.981 42.7 245.648 42.9C246.181 41.7 246.781 40.3667 247.448 38.9C248.181 37.4333 248.881 36 249.548 34.6C250.281 33.1333 250.881 31.9333 251.348 31C252.681 28.2667 254.348 25 256.348 21.2C258.348 17.4 260.681 13.8667 263.348 10.6C265.414 8 267.781 5.73333 270.448 3.8C273.181 1.8 275.814 0.799996 278.348 0.799996C279.881 0.799996 281.014 1.26666 281.748 2.2C282.548 3.13333 282.948 4.26666 282.948 5.6C282.948 6.8 282.714 7.9 282.248 8.9C281.181 11.3 279.481 13.8333 277.148 16.5C274.881 19.1667 272.414 21.7667 269.748 24.3C267.148 26.7667 264.814 29 262.748 31C261.014 32.6667 259.481 34.1333 258.148 35.4C256.814 36.6 255.581 37.8 254.448 39C253.314 40.2 252.081 41.5333 250.748 43C249.281 46.3333 247.914 49.6667 246.648 53C245.448 56.3333 244.448 59.4333 243.648 62.3C242.914 65.1667 242.548 67.5667 242.548 69.5C242.548 72.2333 243.381 73.7 245.048 73.9C246.181 73.9 247.248 73.5333 248.248 72.8C249.248 72.0667 250.114 71.2667 250.848 70.4C252.381 68.7333 253.781 66.9 255.048 64.9C256.314 62.9 257.581 60.7667 258.848 58.5C259.048 58.2333 259.248 58.1 259.448 58.1C259.714 58.1 259.848 58.3 259.848 58.7C259.848 59.0333 259.781 59.3 259.648 59.5C258.448 61.7 257.148 63.9 255.748 66.1C254.414 68.3 252.781 70.3667 250.848 72.3C249.981 73.1667 248.981 73.9667 247.848 74.7C246.714 75.3667 245.448 75.7 244.048 75.7ZM252.348 39.5C253.881 37.7667 255.314 36.2333 256.648 34.9C257.981 33.5 259.614 31.8 261.548 29.8C263.414 27.9333 265.548 25.7333 267.948 23.2C270.414 20.6667 272.714 18.1 274.848 15.5C277.048 12.9 278.648 10.6 279.648 8.6C280.448 7 280.848 5.7 280.848 4.7C280.848 3.03333 280.014 2.2 278.348 2.2C276.281 2.2 274.114 3.16666 271.848 5.09999C269.648 6.96666 267.481 9.53333 265.348 12.8C263.548 15.6 261.848 18.6667 260.248 22C258.648 25.2667 257.181 28.4333 255.848 31.5C254.514 34.5667 253.348 37.2333 252.348 39.5ZM224.048 72.6C225.248 72.6 226.681 71.8 228.348 70.2C230.081 68.5333 231.848 66.5 233.648 64.1C235.514 61.6333 237.214 59.2333 238.748 56.9C239.214 56.2333 239.814 55.1333 240.548 53.6C241.348 52.0667 242.181 50.4333 243.048 48.7C243.914 46.9 244.648 45.3333 245.248 44C244.848 43.8667 244.448 43.8 244.048 43.8C243.714 43.8 243.348 43.8 242.948 43.8C240.881 43.8 238.814 44.3667 236.748 45.5C234.748 46.5667 232.948 48 231.348 49.8C229.081 52.2667 227.181 54.9333 225.648 57.8C224.114 60.6 223.048 63.0667 222.448 65.2C222.114 66.4 221.948 67.6333 221.948 68.9C221.948 69.9 222.081 70.7667 222.348 71.5C222.681 72.2333 223.248 72.6 224.048 72.6ZM269.824 75.9C266.024 75.9 263.058 74.8667 260.924 72.8C258.858 70.7333 257.824 67.9667 257.824 64.5C257.824 63.3 257.958 62.0333 258.224 60.7C258.491 59.3 258.924 57.8667 259.524 56.4C260.458 54.2 261.658 52.0333 263.124 49.9C264.591 47.7667 266.358 45.9667 268.424 44.5C270.491 43.0333 272.791 42.2 275.324 42C276.258 41.9333 277.124 42 277.924 42.2C278.724 42.4 279.424 42.8 280.024 43.4C280.558 43.8667 280.924 44.4667 281.124 45.2C281.391 45.8667 281.524 46.5667 281.524 47.3C281.524 49.3667 280.891 51.4667 279.624 53.6C278.358 55.6667 276.758 57.4 274.824 58.8C272.891 60.2 270.891 60.9 268.824 60.9C266.958 60.9 265.324 60.2333 263.924 58.9C263.324 60.9667 263.024 63.0333 263.024 65.1C263.024 67.6333 263.591 69.8 264.724 71.6C265.924 73.3333 267.958 74.2 270.824 74.2C273.691 74.2 276.158 73.4333 278.224 71.9C280.358 70.3667 282.191 68.4667 283.724 66.2C285.324 63.8667 286.724 61.6333 287.924 59.5C288.058 59.3 288.191 59.2 288.324 59.2C288.591 59.2 288.724 59.4667 288.724 60C288.724 60.3333 288.624 60.7 288.424 61.1C287.158 63.3667 285.691 65.6333 284.024 67.9C282.424 70.1667 280.458 72.0667 278.124 73.6C275.858 75.1333 273.091 75.9 269.824 75.9ZM264.424 57.4C264.891 58.0667 265.424 58.5667 266.024 58.9C266.691 59.1667 267.358 59.3 268.024 59.3C269.624 59.3 271.291 58.7 273.024 57.5C274.758 56.2333 276.158 54.7667 277.224 53.1C277.691 52.3667 278.091 51.4 278.424 50.2C278.824 49 279.024 47.8667 279.024 46.8C279.024 45.8667 278.824 45.0667 278.424 44.4C278.091 43.6667 277.391 43.3 276.324 43.3C275.124 43.3 273.691 44.0333 272.024 45.5C270.424 46.9667 268.891 48.8667 267.424 51.2C266.958 52 266.424 52.9333 265.824 54C265.291 55.0667 264.824 56.2 264.424 57.4ZM309.805 87.8C309.071 87.8 308.038 87.7 306.705 87.5C305.371 87.3667 304.171 86.9667 303.105 86.3C302.038 85.6333 301.505 84.6333 301.505 83.3C301.505 82.5667 301.705 81.9 302.105 81.3C302.438 80.9667 302.738 80.7667 303.005 80.7C303.205 80.7 303.271 80.8667 303.205 81.2C302.938 82.2 303.271 83.1333 304.205 84C305.071 84.9333 305.971 85.5333 306.905 85.8C307.971 86.0667 309.105 86.2 310.305 86.2C313.038 86.2 315.538 85.5 317.805 84.1C320.071 82.7667 322.105 81.0333 323.905 78.9C325.771 76.8333 327.438 74.7333 328.905 72.6C332.305 67.6 335.371 62.4667 338.105 57.2C340.838 51.8667 343.605 46.5667 346.405 41.3C349.205 36.0333 352.338 30.9667 355.805 26.1C356.938 24.5 358.338 22.7 360.005 20.7C361.671 18.6333 363.505 16.6667 365.505 14.8C367.505 12.9333 369.571 11.4667 371.705 10.4C370.838 10.4 370.105 10.3667 369.505 10.3C368.905 10.2333 367.905 10.1667 366.505 10.1C363.905 9.9 360.905 9.8 357.505 9.8C355.638 9.8 353.805 9.83333 352.005 9.9C350.271 9.9 348.638 9.96666 347.105 10.1C341.638 10.4333 336.171 11.4667 330.705 13.2C325.305 14.9333 320.671 17.5667 316.805 21.1C314.538 23.1667 312.671 25.5 311.205 28.1C309.738 30.7 309.005 33.2667 309.005 35.8C309.005 38.6667 309.771 40.7333 311.305 42C312.905 43.2 314.771 43.8 316.905 43.8C318.571 43.8 320.238 43.5 321.905 42.9C325.171 41.7667 327.838 39.7667 329.905 36.9C332.038 33.9667 332.971 30.7 332.705 27.1C332.638 26.5 332.505 25.9 332.305 25.3C332.105 24.7 331.838 24.3 331.505 24.1C331.238 23.9 331.105 23.7 331.105 23.5C331.171 23.3 331.371 23.2 331.705 23.2C333.171 23.3333 334.171 24.1667 334.705 25.7C335.305 27.1667 335.605 28.5667 335.605 29.9C335.605 31.9667 335.071 33.9667 334.005 35.9C332.938 37.7667 331.538 39.4333 329.805 40.9C328.138 42.3 326.338 43.3667 324.405 44.1C322.338 44.9 320.138 45.3 317.805 45.3C314.738 45.3 312.038 44.4333 309.705 42.7C307.438 40.9667 306.305 38.1333 306.305 34.2C306.305 31.2667 307.005 28.5 308.405 25.9C309.871 23.3 311.638 20.9667 313.705 18.9C318.171 14.5 323.338 11.5 329.205 9.9C335.138 8.3 341.171 7.5 347.305 7.5C352.105 7.5 356.905 7.76666 361.705 8.29999C366.505 8.76666 371.271 9 376.005 9H378.605C378.938 9.06666 379.238 9.2 379.505 9.4C379.838 9.53333 379.938 9.76666 379.805 10.1C379.805 10.5 379.571 10.7 379.105 10.7C378.171 10.7 377.438 10.8333 376.905 11.1C375.505 11.5667 374.305 12.4333 373.305 13.7C372.305 14.9 371.338 16.3667 370.405 18.1C369.138 20.3667 368.371 23.0333 368.105 26.1C367.905 29.1 367.771 31.8667 367.705 34.4C367.638 37.9333 367.505 41.6 367.305 45.4C367.171 49.2 366.605 52.9333 365.605 56.6C364.871 59.4667 363.771 62.1667 362.305 64.7C360.905 67.2333 359.071 69.5333 356.805 71.6C358.538 70.9333 360.271 69.6667 362.005 67.8C363.738 65.9333 365.371 63.9 366.905 61.7C368.505 59.5 369.805 57.6333 370.805 56.1C373.671 51.7 376.671 46.8667 379.805 41.6C383.005 36.3333 386.338 31.1333 389.805 26C393.271 20.8 396.871 16.2 400.605 12.2C403.871 8.66666 407.071 6.09999 410.205 4.5C413.405 2.9 416.305 2.1 418.905 2.1C421.171 2.1 423.138 2.66666 424.805 3.8C426.471 4.86666 427.638 6.4 428.305 8.4C428.305 8.46666 428.305 8.53333 428.305 8.6C428.371 8.6 428.405 8.63333 428.405 8.7C428.405 9.16666 428.171 9.43333 427.705 9.5C427.238 9.56666 426.938 9.5 426.805 9.3C426.205 6.56667 424.471 5.2 421.605 5.2C419.738 5.2 417.438 5.93333 414.705 7.39999C411.971 8.86666 408.871 11.2667 405.405 14.6C401.805 18.0667 398.238 22.1667 394.705 26.9C391.171 31.6333 387.705 36.5 384.305 41.5C380.971 46.5 377.638 51.2 374.305 55.6C373.105 57.2 371.571 59.1333 369.705 61.4C367.905 63.6667 365.905 65.9333 363.705 68.2C361.505 70.4 359.271 72.2333 357.005 73.7C354.738 75.1 352.571 75.7333 350.505 75.6C350.105 75.6 349.871 75.4667 349.805 75.2C349.805 74.9333 349.971 74.7 350.305 74.5C352.571 72.9 354.405 70.7667 355.805 68.1C357.205 65.4333 358.338 62.5333 359.205 59.4C360.338 55.0667 361.071 50.6667 361.405 46.2C361.805 41.7333 362.305 37.2667 362.905 32.8C363.238 30.7333 363.638 28.5667 364.105 26.3C364.638 23.9667 365.438 21.8667 366.505 20C367.371 18.4667 368.571 16.8 370.105 15C371.638 13.2 373.338 11.9 375.205 11.1C374.071 10.8333 372.771 11.2333 371.305 12.3C369.905 13.3667 368.505 14.7667 367.105 16.5C365.705 18.1667 364.438 19.8 363.305 21.4C362.238 23 361.471 24.1667 361.005 24.9C357.805 29.9667 354.871 35.2667 352.205 40.8C349.605 46.3333 346.938 51.8 344.205 57.2C341.471 62.6 338.305 67.7 334.705 72.5C332.771 75.1 330.571 77.5667 328.105 79.9C325.638 82.3 323.005 84.1667 320.205 85.5C318.538 86.3667 316.805 86.9667 315.005 87.3C313.271 87.6333 311.538 87.8 309.805 87.8ZM390.905 80.1C388.371 80.1 386.338 79.3 384.805 77.7C383.338 76.1 382.605 73.7333 382.605 70.6C382.671 67.4667 383.205 64.2333 384.205 60.9C385.271 57.5667 386.605 54.2667 388.205 51C389.871 47.6667 391.571 44.5 393.305 41.5C397.238 34.7667 401.171 28.8 405.105 23.6C409.105 18.4 412.338 14.0333 414.805 10.5C415.005 10.1667 415.371 10.0333 415.905 10.1C416.438 10.1 416.571 10.2667 416.305 10.6C413.638 14.0667 410.938 18.3333 408.205 23.4C405.538 28.4 402.771 33.8 399.905 39.6C399.438 40.6 398.705 42.2333 397.705 44.5C396.771 46.7 395.738 49.2333 394.605 52.1C393.538 54.9667 392.505 57.8333 391.505 60.7C390.505 63.5 389.738 66 389.205 68.2C389.005 69.0667 388.838 69.9 388.705 70.7C388.571 71.4333 388.505 72.1667 388.505 72.9C388.505 74.5 388.838 75.7667 389.505 76.7C390.238 77.7 391.338 78.2 392.805 78.2C394.338 78.2 395.971 77.4667 397.705 76C399.438 74.6 401.138 72.8667 402.805 70.8C404.271 69.0667 405.605 67.2333 406.805 65.3C408.071 63.3667 409.105 61.6333 409.905 60.1C410.238 59.7 410.471 59.5 410.605 59.5C410.805 59.5 410.905 59.6667 410.905 60C410.905 60.4 410.771 60.8667 410.505 61.4C409.705 62.9333 408.638 64.7333 407.305 66.8C405.971 68.8 404.471 70.7333 402.805 72.6C400.938 74.6667 398.971 76.4333 396.905 77.9C394.838 79.3667 392.838 80.1 390.905 80.1ZM431.477 75.7C429.344 75.7 427.877 75.0333 427.077 73.7C426.277 72.3 425.877 70.7667 425.877 69.1C425.877 68.7667 425.911 68.2 425.977 67.4C426.111 66.5333 426.244 65.7333 426.377 65C425.444 66.2667 424.311 67.6667 422.977 69.2C421.711 70.7333 420.411 72.0333 419.077 73.1C416.944 74.8333 415.011 75.7 413.277 75.7C411.611 75.7 410.311 75 409.377 73.6C408.511 72.2 408.077 70.4333 408.077 68.3C408.077 65.5667 408.677 62.8 409.877 60C411.077 57.2 412.644 54.5667 414.577 52.1C416.577 49.5667 418.777 47.4 421.177 45.6C422.577 44.6 424.277 43.8 426.277 43.2C428.344 42.5333 430.411 42.2 432.477 42.2C434.811 42.2 436.844 42.5667 438.577 43.3C440.377 43.9667 441.611 44.9333 442.277 46.2C440.877 48 439.444 50.2333 437.977 52.9C436.511 55.5 435.244 57.8667 434.177 60C433.444 61.4667 432.644 63.3 431.777 65.5C430.911 67.6333 430.477 69.4667 430.477 71C430.477 71.6667 430.644 72.3333 430.977 73C431.311 73.6667 431.944 74 432.877 74C433.944 74 434.977 73.6 435.977 72.8C436.977 72 437.811 71.2 438.477 70.4C440.011 68.7333 441.411 66.9 442.677 64.9C443.944 62.9 445.211 60.7667 446.477 58.5C446.677 58.2333 446.877 58.1 447.077 58.1C447.344 58.1 447.477 58.3 447.477 58.7C447.477 59.0333 447.411 59.3 447.277 59.5C446.144 61.7 444.877 63.9 443.477 66.1C442.077 68.3 440.411 70.3667 438.477 72.3C437.544 73.2333 436.444 74.0333 435.177 74.7C433.911 75.3667 432.677 75.7 431.477 75.7ZM415.477 72.6C416.744 72.6 418.111 71.9333 419.577 70.6C421.111 69.2 422.577 67.5333 423.977 65.6C425.444 63.6 426.744 61.7 427.877 59.9C429.077 58.0333 430.011 56.6 430.677 55.6C432.077 53.4 433.377 51.5667 434.577 50.1C435.777 48.6333 437.644 47.5 440.177 46.7C440.311 46.7 440.411 46.7 440.477 46.7C440.611 46.6333 440.744 46.6 440.877 46.6C440.277 45.6667 439.277 44.9667 437.877 44.5C436.477 44.0333 435.111 43.8 433.777 43.8C431.711 43.8 429.711 44.3667 427.777 45.5C425.844 46.6333 424.077 48.0667 422.477 49.8C420.944 51.6 419.444 53.5667 417.977 55.7C416.511 57.8333 415.311 60 414.377 62.2C413.511 64.4 413.077 66.5 413.077 68.5C413.077 69.5667 413.244 70.5333 413.577 71.4C413.977 72.2 414.611 72.6 415.477 72.6ZM465.32 73.2C464.186 74.1333 463.053 74.8 461.92 75.2C460.853 75.6667 459.853 75.9 458.92 75.9C457.253 75.9 455.853 75.3333 454.72 74.2C453.653 73 453.12 71.4333 453.12 69.5C453.12 68.3667 453.386 67 453.92 65.4C454.786 63 456.086 60.7 457.82 58.5C459.553 56.3 461.22 54.0667 462.82 51.8C463.82 50.4667 464.32 49.1667 464.32 47.9C464.32 47.2333 464.12 46.6667 463.72 46.2C463.386 45.7333 462.753 45.4667 461.82 45.4C461.286 45.2667 460.686 45.2 460.02 45.2C459.353 45.2 458.686 45.2 458.02 45.2H455.22C454.82 45.2 454.453 45.2 454.12 45.2C453.786 45.2 453.486 45.1667 453.22 45.1C452.953 46.7667 452.386 48.6333 451.52 50.7C450.72 52.7667 449.786 54.8333 448.72 56.9C447.653 58.9667 446.62 60.8333 445.62 62.5C445.353 62.9 445.12 63.1 444.92 63.1C444.72 63.1 444.62 62.9 444.62 62.5C444.62 62.0333 444.72 61.6667 444.92 61.4C446.32 58.6667 447.653 56 448.92 53.4C450.253 50.7333 451.153 47.9667 451.62 45.1C450.086 44.2333 449.053 42.7333 448.52 40.6C448.453 40.2667 448.386 39.9667 448.32 39.7C448.32 39.3667 448.32 39.0667 448.32 38.8C448.32 37.6 448.553 36.6 449.02 35.8C449.553 34.9333 450.153 34.5 450.82 34.5C451.753 34.5 452.52 35.4 453.12 37.2C453.253 37.6667 453.353 38.2 453.42 38.8C453.486 39.3333 453.52 39.8667 453.52 40.4C453.52 41 453.486 41.5667 453.42 42.1C453.42 42.5667 453.386 42.9667 453.32 43.3C453.786 43.4333 454.386 43.5333 455.12 43.6C455.92 43.6667 456.786 43.7 457.72 43.7C459.12 43.7 460.586 43.6667 462.12 43.6C463.653 43.4667 464.953 43.4 466.02 43.4C467.286 43.4 468.153 43.6667 468.62 44.2C469.086 44.7333 469.32 45.4 469.32 46.2C469.32 47.2 469.053 48.3 468.52 49.5C468.053 50.6333 467.586 51.6 467.12 52.4C466.253 54 465.42 55.4333 464.62 56.7C463.886 57.9 463.053 59.2 462.12 60.6C460.72 62.7333 459.686 64.7 459.02 66.5C458.42 68.2333 458.12 69.7 458.12 70.9C458.12 72.9667 458.886 74 460.42 74C461.686 74 463.32 73.1 465.32 71.3C466.586 70.1667 467.753 68.8333 468.82 67.3C469.953 65.7 470.953 64.1 471.82 62.5C472.753 60.8333 473.52 59.4667 474.12 58.4C474.253 58.2 474.386 58.1 474.52 58.1C474.786 58.1 474.92 58.3667 474.92 58.9C474.92 59.3 474.82 59.6667 474.62 60C473.486 62.0667 472.186 64.3333 470.72 66.8C469.253 69.2667 467.453 71.4 465.32 73.2ZM476.356 75.6C474.49 75.6 473.123 75 472.256 73.8C471.39 72.5333 470.956 71 470.956 69.2C470.956 68.6667 470.99 68.1333 471.056 67.6C471.19 67 471.323 66.4 471.456 65.8C472.19 63.1333 473.323 60.1667 474.856 56.9C476.456 53.5667 477.99 50.6 479.456 48C480.323 46.5333 481.123 45.5 481.856 44.9C482.59 44.2333 483.39 43.7667 484.256 43.5C485.123 43.1667 486.156 42.8 487.356 42.4C487.69 42.2667 488.023 42.1667 488.356 42.1C488.69 42.0333 489.056 41.9667 489.456 41.9C488.123 43.2333 486.756 44.8333 485.356 46.7C484.023 48.5667 482.556 51.1333 480.956 54.4C480.09 56.1333 479.223 58.0667 478.356 60.2C477.556 62.3333 476.856 64.3333 476.256 66.2C475.656 68.0667 475.323 69.5333 475.256 70.6C475.19 71.8667 475.356 72.7667 475.756 73.3C476.156 73.8333 476.69 74.1 477.356 74.1C478.49 74.1 479.556 73.7 480.556 72.9C481.623 72.1 482.556 71.2667 483.356 70.4C484.823 68.7333 486.19 66.9 487.456 64.9C488.79 62.9 490.09 60.7667 491.356 58.5C491.556 58.2333 491.723 58.1 491.856 58.1C492.123 58.1 492.256 58.3 492.256 58.7C492.256 59.0333 492.19 59.3 492.056 59.5C490.856 61.7 489.59 63.9 488.256 66.1C486.923 68.3 485.29 70.3667 483.356 72.3C482.49 73.1667 481.456 73.9333 480.256 74.6C479.123 75.2667 477.823 75.6 476.356 75.6ZM488.556 36.3C487.823 36.3 487.19 36.0333 486.656 35.5C486.19 34.9667 485.956 34.3333 485.956 33.6C485.956 32.6667 486.323 31.8333 487.056 31.1C487.856 30.3667 488.723 29.9333 489.656 29.8C490.39 29.8 490.99 30.0667 491.456 30.6C491.99 31.0667 492.256 31.7 492.256 32.5C492.256 33.3667 491.89 34.2333 491.156 35.1C490.423 35.9 489.556 36.3 488.556 36.3ZM500.344 75.8C496.477 75.8 493.744 74.8 492.144 72.8C491.344 71.9333 490.777 70.9 490.444 69.7C490.11 68.5 489.944 67.2667 489.944 66C489.944 64.4 490.144 62.8 490.544 61.2C490.944 59.5333 491.444 58 492.044 56.6C492.977 54.4 494.21 52.2 495.744 50C497.277 47.7333 499.11 45.8333 501.244 44.3C503.444 42.7667 505.844 42 508.444 42C510.177 42 511.544 42.4333 512.544 43.3C513.544 44.1667 514.044 45.5 514.044 47.3C514.044 49.3667 513.41 51.4667 512.144 53.6C510.877 55.6667 509.277 57.4 507.344 58.8C505.41 60.2 503.41 60.9 501.344 60.9C499.477 60.9 497.844 60.2333 496.444 58.9C496.044 59.9667 495.71 61.1667 495.444 62.5C495.177 63.7667 495.044 65.0667 495.044 66.4C495.044 68.4667 495.444 70.2667 496.244 71.8C497.11 73.3333 498.644 74.1 500.844 74.1C502.444 74.1 503.977 73.7 505.444 72.9C506.977 72.0333 508.344 71 509.544 69.8C510.877 68.4 512.144 66.9 513.344 65.3C514.544 63.7 515.71 61.8333 516.844 59.7C516.977 59.5 517.077 59.4 517.144 59.4C517.41 59.4 517.544 59.7 517.544 60.3C517.544 60.7 517.41 61.1333 517.144 61.6C516.144 63.4 514.977 65.2333 513.644 67.1C512.31 68.9 510.944 70.4667 509.544 71.8C508.277 73 506.91 73.9667 505.444 74.7C503.977 75.4333 502.277 75.8 500.344 75.8ZM496.944 57.4C497.41 58.0667 497.944 58.5667 498.544 58.9C499.21 59.1667 499.877 59.3 500.544 59.3C502.144 59.3 503.81 58.7 505.544 57.5C507.277 56.2333 508.677 54.7667 509.744 53.1C510.21 52.3667 510.61 51.4 510.944 50.2C511.344 49 511.544 47.8667 511.544 46.8C511.544 45.8667 511.344 45.0667 510.944 44.4C510.61 43.6667 509.91 43.3 508.844 43.3C507.644 43.3 506.21 44.0333 504.544 45.5C502.944 46.9667 501.41 48.8667 499.944 51.2C499.477 52 498.944 52.9333 498.344 54C497.81 55.0667 497.344 56.2 496.944 57.4ZM507.844 37H507.644C507.177 37 506.944 36.7667 506.944 36.3C506.944 36.0333 507.077 35.8333 507.344 35.7C508.61 34.8333 510.077 33.7 511.744 32.3C513.477 30.8333 515.044 29.5667 516.444 28.5C516.777 28.3 517.01 28.2 517.144 28.2C517.61 28.2 518.044 28.4333 518.444 28.9C518.844 29.3 519.044 29.7333 519.044 30.2C519.044 30.5333 518.877 30.8 518.544 31L507.844 37ZM526.516 75.8C522.649 75.8 519.916 74.8 518.316 72.8C517.516 71.9333 516.949 70.9 516.616 69.7C516.282 68.5 516.116 67.2667 516.116 66C516.116 64.4 516.316 62.8 516.716 61.2C517.116 59.5333 517.616 58 518.216 56.6C519.149 54.4 520.382 52.2 521.916 50C523.449 47.7333 525.282 45.8333 527.416 44.3C529.616 42.7667 532.016 42 534.616 42C536.349 42 537.716 42.4333 538.716 43.3C539.716 44.1667 540.216 45.5 540.216 47.3C540.216 49.3667 539.582 51.4667 538.316 53.6C537.049 55.6667 535.449 57.4 533.516 58.8C531.582 60.2 529.582 60.9 527.516 60.9C525.649 60.9 524.016 60.2333 522.616 58.9C522.216 59.9667 521.882 61.1667 521.616 62.5C521.349 63.7667 521.216 65.0667 521.216 66.4C521.216 68.4667 521.616 70.2667 522.416 71.8C523.282 73.3333 524.816 74.1 527.016 74.1C528.616 74.1 530.149 73.7 531.616 72.9C533.149 72.0333 534.516 71 535.716 69.8C537.049 68.4 538.316 66.9 539.516 65.3C540.716 63.7 541.882 61.8333 543.016 59.7C543.149 59.5 543.249 59.4 543.316 59.4C543.582 59.4 543.716 59.7 543.716 60.3C543.716 60.7 543.582 61.1333 543.316 61.6C542.316 63.4 541.149 65.2333 539.816 67.1C538.482 68.9 537.116 70.4667 535.716 71.8C534.449 73 533.082 73.9667 531.616 74.7C530.149 75.4333 528.449 75.8 526.516 75.8ZM523.116 57.4C523.582 58.0667 524.116 58.5667 524.716 58.9C525.382 59.1667 526.049 59.3 526.716 59.3C528.316 59.3 529.982 58.7 531.716 57.5C533.449 56.2333 534.849 54.7667 535.916 53.1C536.382 52.3667 536.782 51.4 537.116 50.2C537.516 49 537.716 47.8667 537.716 46.8C537.716 45.8667 537.516 45.0667 537.116 44.4C536.782 43.6667 536.082 43.3 535.016 43.3C533.816 43.3 532.382 44.0333 530.716 45.5C529.116 46.9667 527.582 48.8667 526.116 51.2C525.649 52 525.116 52.9333 524.516 54C523.982 55.0667 523.516 56.2 523.116 57.4Z" fill="#B5943E"/>
</svg>
