<svg width="201" height="83" viewBox="0 0 201 83" fill="none" xmlns="http://www.w3.org/2000/svg">
<path d="M25.1156 82.2C19.9156 82.2 15.5823 81.3667 12.1156 79.7C8.71563 78.0333 6.08229 75.8333 4.21563 73.1C2.34896 70.3 1.14896 67.2667 0.615625 64C0.415625 62.4667 0.315625 60.9333 0.315625 59.4C0.315625 55.4667 0.882292 51.5333 2.01563 47.6C3.34896 43 5.28229 38.5333 7.81563 34.2C10.349 29.8667 13.349 25.8333 16.8156 22.1C20.2823 18.3667 24.0823 15.1 28.2156 12.3C32.4156 9.5 36.8156 7.36666 41.4156 5.9C45.8156 4.56666 49.9156 3.9 53.7156 3.9C54.9156 3.9 56.049 3.96666 57.1156 4.09999C58.249 4.23333 59.3156 4.43333 60.3156 4.7C62.849 5.43333 64.8823 6.6 66.4156 8.2C67.949 9.73333 68.7156 11.6667 68.7156 14C68.7156 14.6667 68.6156 15.4 68.4156 16.2C70.349 18.1333 71.749 20.4667 72.6156 23.2C73.4823 25.9333 73.9156 28.8667 73.9156 32C73.9156 34.0667 73.7156 36.1667 73.3156 38.3C72.9823 40.4333 72.4823 42.5667 71.8156 44.7C70.2823 49.5667 67.9823 54.2333 64.9156 58.7C61.9156 63.1667 58.349 67.1667 54.2156 70.7C50.0823 74.2333 45.549 77.0333 40.6156 79.1C35.6823 81.1667 30.5156 82.2 25.1156 82.2ZM25.2156 80.8L25.5156 80.7C30.5823 80.6333 35.349 79.4333 39.8156 77.1C44.2823 74.7667 48.3156 71.7 51.9156 67.9C55.5823 64.1 58.7156 59.9333 61.3156 55.4C63.9156 50.8 65.8823 46.2667 67.2156 41.8C68.349 38 68.9156 34.2 68.9156 30.4C68.9156 28.4667 68.7156 26.5667 68.3156 24.7C67.9823 22.8333 67.4156 21.1333 66.6156 19.6C65.949 20.4 65.249 20.9333 64.5156 21.2C64.049 21.4 63.7156 21.5 63.5156 21.5C63.249 21.5 63.1156 21.4 63.1156 21.2C63.1823 21 63.349 20.8 63.6156 20.6C64.4156 19.9333 65.0156 18.9667 65.4156 17.7C64.149 15.9667 62.5156 14.6 60.5156 13.6C58.5156 12.6 56.049 12.1 53.1156 12.1C50.249 12.1 47.149 12.7667 43.8156 14.1C40.549 15.4333 37.349 17.3667 34.2156 19.9C32.2823 21.5 30.549 23.4333 29.0156 25.7C27.549 27.9667 26.4156 30.2667 25.6156 32.6C24.8156 34.8667 24.4156 36.8667 24.4156 38.6C24.4156 40.6 24.949 41.9 26.0156 42.5C26.549 42.7667 26.8156 43.0667 26.8156 43.4C26.8156 43.6 26.6823 43.7333 26.4156 43.8C26.149 43.8667 25.849 43.8333 25.5156 43.7C24.3156 43.2333 23.4156 42.4333 22.8156 41.3C22.2823 40.1 22.0156 38.7 22.0156 37.1C22.0156 34.3667 22.7823 31.3 24.3156 27.9C25.849 24.5 27.9156 21.6667 30.5156 19.4C33.9156 16.4667 37.6156 14.2667 41.6156 12.8C45.6156 11.2667 49.4823 10.5 53.2156 10.5C55.949 10.5 58.349 10.8333 60.4156 11.5C62.4823 12.1667 64.3156 13.0333 65.9156 14.1C65.849 12.2333 65.149 10.7 63.8156 9.5C62.549 8.3 60.949 7.4 59.0156 6.8C57.0823 6.26666 55.0156 5.99999 52.8156 5.99999C51.349 5.99999 49.749 6.13333 48.0156 6.4C46.2823 6.66666 44.449 7.1 42.5156 7.7C39.9156 8.5 37.249 9.86666 34.5156 11.8C31.7823 13.6667 29.1156 15.9333 26.5156 18.6C23.9156 21.2 21.4823 24 19.2156 27C16.949 30 15.0156 33.0333 13.4156 36.1C11.6823 39.3 10.1823 43.1 8.91563 47.5C7.71563 51.8333 7.11563 56.1667 7.11563 60.5C7.11563 61.5 7.14896 62.5333 7.21563 63.6C7.28229 64.6 7.41563 65.5667 7.61563 66.5C8.08229 69.0333 8.98229 71.4 10.3156 73.6C11.7156 75.8 13.6156 77.5333 16.0156 78.8C18.4823 80.1333 21.549 80.8 25.2156 80.8ZM71.4211 74.4C71.0211 74.8667 70.6211 75.1 70.2211 75.1C69.9544 75.1 69.7878 75 69.7211 74.8C69.6544 74.5333 69.7211 74.2667 69.9211 74C71.0544 72.7333 72.4211 71 74.0211 68.8C75.6211 66.6 77.2211 64.1667 78.8211 61.5C80.4211 58.8333 81.8211 56.1 83.0211 53.3C84.2211 50.4333 84.9544 47.7 85.2211 45.1C83.6878 44.2333 82.6544 42.7333 82.1211 40.6C82.0544 40.2667 81.9878 39.9667 81.9211 39.7C81.9211 39.3667 81.9211 39.0667 81.9211 38.8C81.9211 37.6 82.1544 36.6 82.6211 35.8C83.1544 34.9333 83.7544 34.5 84.4211 34.5C85.3544 34.5 86.1211 35.4 86.7211 37.2C86.8544 37.6667 86.9544 38.2 87.0211 38.8C87.0878 39.3333 87.1211 39.8667 87.1211 40.4C87.1211 41 87.0878 41.5667 87.0211 42.1C87.0211 42.5667 86.9878 42.9667 86.9211 43.3C87.3878 43.4333 87.9878 43.5333 88.7211 43.6C89.5211 43.6667 90.3878 43.7 91.3211 43.7C92.7211 43.7 94.1878 43.6667 95.7211 43.6C97.2544 43.4667 98.5544 43.4 99.6211 43.4C100.888 43.4 101.754 43.6667 102.221 44.2C102.688 44.7333 102.921 45.4 102.921 46.2C102.921 47.2 102.654 48.3 102.121 49.5C101.654 50.6333 101.188 51.6 100.721 52.4C99.8544 54 99.0211 55.4333 98.2211 56.7C97.4878 57.9 96.6544 59.2 95.7211 60.6C94.3211 62.7333 93.2878 64.7 92.6211 66.5C92.0211 68.2333 91.7211 69.7 91.7211 70.9C91.7211 72.9667 92.4878 74 94.0211 74C95.2878 74 96.9211 73.1 98.9211 71.3C100.188 70.1667 101.354 68.8333 102.421 67.3C103.554 65.7 104.554 64.1 105.421 62.5C106.354 60.8333 107.121 59.4667 107.721 58.4C107.854 58.2 107.988 58.1 108.121 58.1C108.388 58.1 108.521 58.3667 108.521 58.9C108.521 59.3 108.421 59.6667 108.221 60C107.088 62.0667 105.788 64.3333 104.321 66.8C102.854 69.2667 101.054 71.4 98.9211 73.2C97.7878 74.1333 96.6544 74.8 95.5211 75.2C94.4544 75.6667 93.4544 75.9 92.5211 75.9C90.8544 75.9 89.4544 75.3333 88.3211 74.2C87.2544 73 86.7211 71.4333 86.7211 69.5C86.7211 68.3667 86.9878 67 87.5211 65.4C88.3878 63 89.6878 60.7 91.4211 58.5C93.1544 56.3 94.8211 54.0667 96.4211 51.8C97.4211 50.4667 97.9211 49.1667 97.9211 47.9C97.9211 47.2333 97.7211 46.6667 97.3211 46.2C96.9878 45.7333 96.3544 45.4667 95.4211 45.4C94.8878 45.2667 94.2878 45.2 93.6211 45.2C92.9544 45.2 92.2878 45.2 91.6211 45.2H88.8211C88.4211 45.2 88.0544 45.2 87.7211 45.2C87.3878 45.2 87.0878 45.1667 86.8211 45.1C86.4878 47.6333 85.6878 50.3667 84.4211 53.3C83.2211 56.1667 81.7878 59 80.1211 61.8C78.5211 64.6 76.9211 67.1 75.3211 69.3C73.7878 71.5 72.4878 73.2 71.4211 74.4ZM131.399 75.7C129.133 75.7 127.499 74.9333 126.499 73.4C125.499 71.8 124.999 69.8333 124.999 67.5C124.999 65.1667 125.399 62.8667 126.199 60.6L127.199 57.7L123.499 63.4C122.566 64.8667 121.333 66.5333 119.799 68.4C118.333 70.2 116.766 71.7667 115.099 73.1C112.966 74.8333 111.033 75.7 109.299 75.7C107.633 75.7 106.333 75 105.399 73.6C104.533 72.2 104.099 70.4333 104.099 68.3C104.099 66.8333 104.299 65.3667 104.699 63.9C105.699 60.1667 107.233 56.7667 109.299 53.7C111.366 50.5667 113.966 47.8667 117.099 45.6C118.433 44.6 120.133 43.8 122.199 43.2C124.266 42.5333 126.333 42.2 128.399 42.2C129.199 42.2 129.999 42.2667 130.799 42.4C131.599 42.5333 132.333 42.7 132.999 42.9C133.533 41.7 134.133 40.3667 134.799 38.9C135.533 37.4333 136.233 36 136.899 34.6C137.633 33.1333 138.233 31.9333 138.699 31C140.033 28.2667 141.699 25 143.699 21.2C145.699 17.4 148.033 13.8667 150.699 10.6C152.766 8 155.133 5.73333 157.799 3.8C160.533 1.8 163.166 0.799996 165.699 0.799996C167.233 0.799996 168.366 1.26666 169.099 2.2C169.899 3.13333 170.299 4.26666 170.299 5.6C170.299 6.8 170.066 7.9 169.599 8.9C168.533 11.3 166.833 13.8333 164.499 16.5C162.233 19.1667 159.766 21.7667 157.099 24.3C154.499 26.7667 152.166 29 150.099 31C148.366 32.6667 146.833 34.1333 145.499 35.4C144.166 36.6 142.933 37.8 141.799 39C140.666 40.2 139.433 41.5333 138.099 43C136.633 46.3333 135.266 49.6667 133.999 53C132.799 56.3333 131.799 59.4333 130.999 62.3C130.266 65.1667 129.899 67.5667 129.899 69.5C129.899 72.2333 130.733 73.7 132.399 73.9C133.533 73.9 134.599 73.5333 135.599 72.8C136.599 72.0667 137.466 71.2667 138.199 70.4C139.733 68.7333 141.133 66.9 142.399 64.9C143.666 62.9 144.933 60.7667 146.199 58.5C146.399 58.2333 146.599 58.1 146.799 58.1C147.066 58.1 147.199 58.3 147.199 58.7C147.199 59.0333 147.133 59.3 146.999 59.5C145.799 61.7 144.499 63.9 143.099 66.1C141.766 68.3 140.133 70.3667 138.199 72.3C137.333 73.1667 136.333 73.9667 135.199 74.7C134.066 75.3667 132.799 75.7 131.399 75.7ZM139.699 39.5C141.233 37.7667 142.666 36.2333 143.999 34.9C145.333 33.5 146.966 31.8 148.899 29.8C150.766 27.9333 152.899 25.7333 155.299 23.2C157.766 20.6667 160.066 18.1 162.199 15.5C164.399 12.9 165.999 10.6 166.999 8.6C167.799 7 168.199 5.7 168.199 4.7C168.199 3.03333 167.366 2.2 165.699 2.2C163.633 2.2 161.466 3.16666 159.199 5.09999C156.999 6.96666 154.833 9.53333 152.699 12.8C150.899 15.6 149.199 18.6667 147.599 22C145.999 25.2667 144.533 28.4333 143.199 31.5C141.866 34.5667 140.699 37.2333 139.699 39.5ZM111.399 72.6C112.599 72.6 114.033 71.8 115.699 70.2C117.433 68.5333 119.199 66.5 120.999 64.1C122.866 61.6333 124.566 59.2333 126.099 56.9C126.566 56.2333 127.166 55.1333 127.899 53.6C128.699 52.0667 129.533 50.4333 130.399 48.7C131.266 46.9 131.999 45.3333 132.599 44C132.199 43.8667 131.799 43.8 131.399 43.8C131.066 43.8 130.699 43.8 130.299 43.8C128.233 43.8 126.166 44.3667 124.099 45.5C122.099 46.5667 120.299 48 118.699 49.8C116.433 52.2667 114.533 54.9333 112.999 57.8C111.466 60.6 110.399 63.0667 109.799 65.2C109.466 66.4 109.299 67.6333 109.299 68.9C109.299 69.9 109.433 70.7667 109.699 71.5C110.033 72.2333 110.599 72.6 111.399 72.6ZM155.176 75.8C151.309 75.8 148.576 74.8 146.976 72.8C146.176 71.9333 145.609 70.9 145.276 69.7C144.942 68.5 144.776 67.2667 144.776 66C144.776 64.4 144.976 62.8 145.376 61.2C145.776 59.5333 146.276 58 146.876 56.6C147.809 54.4 149.042 52.2 150.576 50C152.109 47.7333 153.942 45.8333 156.076 44.3C158.276 42.7667 160.676 42 163.276 42C165.009 42 166.376 42.4333 167.376 43.3C168.376 44.1667 168.876 45.5 168.876 47.3C168.876 49.3667 168.242 51.4667 166.976 53.6C165.709 55.6667 164.109 57.4 162.176 58.8C160.242 60.2 158.242 60.9 156.176 60.9C154.309 60.9 152.676 60.2333 151.276 58.9C150.876 59.9667 150.542 61.1667 150.276 62.5C150.009 63.7667 149.876 65.0667 149.876 66.4C149.876 68.4667 150.276 70.2667 151.076 71.8C151.942 73.3333 153.476 74.1 155.676 74.1C157.276 74.1 158.809 73.7 160.276 72.9C161.809 72.0333 163.176 71 164.376 69.8C165.709 68.4 166.976 66.9 168.176 65.3C169.376 63.7 170.542 61.8333 171.676 59.7C171.809 59.5 171.909 59.4 171.976 59.4C172.242 59.4 172.376 59.7 172.376 60.3C172.376 60.7 172.242 61.1333 171.976 61.6C170.976 63.4 169.809 65.2333 168.476 67.1C167.142 68.9 165.776 70.4667 164.376 71.8C163.109 73 161.742 73.9667 160.276 74.7C158.809 75.4333 157.109 75.8 155.176 75.8ZM151.776 57.4C152.242 58.0667 152.776 58.5667 153.376 58.9C154.042 59.1667 154.709 59.3 155.376 59.3C156.976 59.3 158.642 58.7 160.376 57.5C162.109 56.2333 163.509 54.7667 164.576 53.1C165.042 52.3667 165.442 51.4 165.776 50.2C166.176 49 166.376 47.8667 166.376 46.8C166.376 45.8667 166.176 45.0667 165.776 44.4C165.442 43.6667 164.742 43.3 163.676 43.3C162.476 43.3 161.042 44.0333 159.376 45.5C157.776 46.9667 156.242 48.8667 154.776 51.2C154.309 52 153.776 52.9333 153.176 54C152.642 55.0667 152.176 56.2 151.776 57.4ZM191.148 73.2C190.014 74.1333 188.881 74.8 187.748 75.2C186.681 75.6667 185.681 75.9 184.748 75.9C183.081 75.9 181.681 75.3333 180.548 74.2C179.481 73 178.948 71.4333 178.948 69.5C178.948 68.3667 179.214 67 179.748 65.4C180.614 63 181.914 60.7 183.648 58.5C185.381 56.3 187.048 54.0667 188.648 51.8C189.648 50.4667 190.148 49.1667 190.148 47.9C190.148 47.2333 189.948 46.6667 189.548 46.2C189.214 45.7333 188.581 45.4667 187.648 45.4C187.114 45.2667 186.514 45.2 185.848 45.2C185.181 45.2 184.514 45.2 183.848 45.2H181.048C180.648 45.2 180.281 45.2 179.948 45.2C179.614 45.2 179.314 45.1667 179.048 45.1C178.781 46.7667 178.214 48.6333 177.348 50.7C176.548 52.7667 175.614 54.8333 174.548 56.9C173.481 58.9667 172.448 60.8333 171.448 62.5C171.181 62.9 170.948 63.1 170.748 63.1C170.548 63.1 170.448 62.9 170.448 62.5C170.448 62.0333 170.548 61.6667 170.748 61.4C172.148 58.6667 173.481 56 174.748 53.4C176.081 50.7333 176.981 47.9667 177.448 45.1C175.914 44.2333 174.881 42.7333 174.348 40.6C174.281 40.2667 174.214 39.9667 174.148 39.7C174.148 39.3667 174.148 39.0667 174.148 38.8C174.148 37.6 174.381 36.6 174.848 35.8C175.381 34.9333 175.981 34.5 176.648 34.5C177.581 34.5 178.348 35.4 178.948 37.2C179.081 37.6667 179.181 38.2 179.248 38.8C179.314 39.3333 179.348 39.8667 179.348 40.4C179.348 41 179.314 41.5667 179.248 42.1C179.248 42.5667 179.214 42.9667 179.148 43.3C179.614 43.4333 180.214 43.5333 180.948 43.6C181.748 43.6667 182.614 43.7 183.548 43.7C184.948 43.7 186.414 43.6667 187.948 43.6C189.481 43.4667 190.781 43.4 191.848 43.4C193.114 43.4 193.981 43.6667 194.448 44.2C194.914 44.7333 195.148 45.4 195.148 46.2C195.148 47.2 194.881 48.3 194.348 49.5C193.881 50.6333 193.414 51.6 192.948 52.4C192.081 54 191.248 55.4333 190.448 56.7C189.714 57.9 188.881 59.2 187.948 60.6C186.548 62.7333 185.514 64.7 184.848 66.5C184.248 68.2333 183.948 69.7 183.948 70.9C183.948 72.9667 184.714 74 186.248 74C187.514 74 189.148 73.1 191.148 71.3C192.414 70.1667 193.581 68.8333 194.648 67.3C195.781 65.7 196.781 64.1 197.648 62.5C198.581 60.8333 199.348 59.4667 199.948 58.4C200.081 58.2 200.214 58.1 200.348 58.1C200.614 58.1 200.748 58.3667 200.748 58.9C200.748 59.3 200.648 59.6667 200.448 60C199.314 62.0667 198.014 64.3333 196.548 66.8C195.081 69.2667 193.281 71.4 191.148 73.2Z" fill="#B5943E"/>
</svg>
