<svg width="245" height="108" viewBox="0 0 245 108" fill="none" xmlns="http://www.w3.org/2000/svg">
<path d="M9.52891 82.1C8.86224 82.1 7.79557 82 6.32891 81.8C4.92891 81.6 3.62891 81.1667 2.42891 80.5C1.22891 79.8333 0.628906 78.8 0.628906 77.4C0.628906 76.5333 0.828906 75.8667 1.22891 75.4C1.49557 75.0667 1.76224 74.9 2.02891 74.9C2.29557 74.9 2.36224 75.0667 2.22891 75.4C2.02891 76.4 2.39557 77.3333 3.32891 78.2C4.26224 79.1333 5.19557 79.7333 6.12891 80C6.79557 80.1333 7.42891 80.2333 8.02891 80.3C8.62891 80.4333 9.19557 80.5 9.72891 80.5C12.3956 80.5 14.8289 79.8 17.0289 78.4C19.2289 77.0667 21.1956 75.3333 22.9289 73.2C24.7289 71.1333 26.3289 69.0333 27.7289 66.9C29.7289 63.8333 31.6956 60.3333 33.6289 56.4C35.5622 52.4667 37.5622 48.4333 39.6289 44.3C41.6956 40.1 43.8622 36.0333 46.1289 32.1C48.4622 28.1667 50.9956 24.6667 53.7289 21.6C56.4622 18.4667 59.4622 16.0667 62.7289 14.4C64.8622 13.2667 66.8956 12.7 68.8289 12.7C69.8956 12.7 70.8622 12.8333 71.7289 13.1C71.9956 13.1667 72.0622 13.3333 71.9289 13.6C71.8622 13.8667 71.6956 13.9667 71.4289 13.9C71.1622 13.7667 70.8622 13.7 70.5289 13.7C70.2622 13.7 69.9622 13.7 69.6289 13.7C66.1622 13.7 62.5289 15.9333 58.7289 20.4C55.3289 24.4 52.4956 28.7 50.2289 33.3C47.9622 37.8333 45.7622 42.4667 43.6289 47.2H43.7289C44.3956 47.5333 45.1289 47.8333 45.9289 48.1C48.8622 49.0333 51.7956 49.5 54.7289 49.5C57.9289 49.5 61.1289 48.9667 64.3289 47.9C67.5289 46.8333 70.4289 45.3 73.0289 43.3C75.6956 41.3 77.8289 38.9 79.4289 36.1C81.0289 33.2333 81.8289 30.0333 81.8289 26.5C81.8289 23.3667 81.0622 20.3667 79.5289 17.5C77.9956 14.6333 75.6622 12.2333 72.5289 10.3C69.2622 8.16666 65.3622 6.63333 60.8289 5.7C56.3622 4.7 51.6956 4.2 46.8289 4.2C41.2289 4.2 35.7622 5.1 30.4289 6.9C25.1622 8.63333 20.8622 11.1 17.5289 14.3C15.7956 15.9667 14.2289 18.2 12.8289 21C11.4956 23.7333 10.8289 26.4667 10.8289 29.2C10.8289 29.8 10.8622 30.4 10.9289 31C10.9956 31.6 11.1289 32.2 11.3289 32.8C11.9289 34.6667 13.0622 36.1 14.7289 37.1C16.4622 38.1 18.3622 38.6 20.4289 38.6C21.2956 38.6 22.1622 38.5 23.0289 38.3C23.9622 38.1 24.8622 37.8667 25.7289 37.6H25.9289C26.1289 37.6 26.2289 37.7 26.2289 37.9C26.2289 38.1667 26.0622 38.3667 25.7289 38.5C23.8622 39.1 21.8622 39.4 19.7289 39.4C17.5956 39.4 15.5289 39.0333 13.5289 38.3C11.5956 37.5 9.99557 36.3 8.72891 34.7C7.52891 33.0333 6.92891 30.8667 6.92891 28.2C6.92891 26.1333 7.19557 24.2 7.72891 22.4C8.32891 20.6 9.12891 18.9333 10.1289 17.4C12.3289 14.0667 15.4289 11.3333 19.4289 9.2C23.4956 7 27.9622 5.36667 32.8289 4.3C37.7622 3.16666 42.6289 2.59999 47.4289 2.59999C52.3622 2.59999 57.1289 2.93333 61.7289 3.6C66.3289 4.26667 70.3289 5.36667 73.7289 6.9C78.6622 8.96666 82.1956 11.6667 84.3289 15C86.5289 18.2667 87.6289 21.7 87.6289 25.3C87.6289 29.4333 86.6622 33.1333 84.7289 36.4C82.7956 39.6 80.2289 42.3 77.0289 44.5C73.8289 46.7 70.3289 48.3667 66.5289 49.5C62.7956 50.6333 59.1289 51.2 55.5289 51.2C53.7289 51.2 51.9622 51.0667 50.2289 50.8C48.4956 50.4667 46.7956 50.0667 45.1289 49.6C44.7956 49.4667 44.4622 49.3333 44.1289 49.2C43.8622 49.0667 43.5622 48.9333 43.2289 48.8C43.1622 48.8 43.0956 48.8 43.0289 48.8C42.9622 48.7333 42.8956 48.7 42.8289 48.7C41.3622 51.9 39.8289 55.0667 38.2289 58.2C36.6956 61.2667 34.9289 64.2333 32.9289 67.1C31.1289 69.6333 29.0956 72 26.8289 74.2C24.5622 76.4667 22.0622 78.3 19.3289 79.7C17.7956 80.4333 16.1956 81 14.5289 81.4C12.9289 81.8667 11.2622 82.1 9.52891 82.1ZM69.7891 76C68.3891 76 66.9891 75.7 65.5891 75.1C64.1891 74.5 63.3224 73.3667 62.9891 71.7C62.9224 71.4333 62.8891 71.2 62.8891 71C62.8224 70.7333 62.7891 70.4667 62.7891 70.2C62.7891 67.4 64.1891 65.4 66.9891 64.2C67.3224 64.0667 67.6557 64.0333 67.9891 64.1C68.2557 64.1 68.2557 64.2667 67.9891 64.6C67.2557 65 66.6224 65.5 66.0891 66.1C65.2224 67.0333 64.7891 68.2667 64.7891 69.8C64.7891 70.6667 65.0557 71.5 65.5891 72.3C66.0557 73.1 66.8224 73.6333 67.8891 73.9C68.6891 74.1 69.5224 74.2 70.3891 74.2C72.9224 74.2 75.3891 73.4333 77.7891 71.9C80.1224 70.3667 82.2891 68.3667 84.2891 65.9C86.3557 63.4333 88.2224 60.8 89.8891 58C91.6224 55.2 93.1224 52.5 94.3891 49.9C95.6557 47.2333 96.6557 45 97.3891 43.2C95.8557 42.2 94.8224 40.6667 94.2891 38.6C94.2224 38.2667 94.1557 37.9667 94.0891 37.7C94.0891 37.3667 94.0891 37.0667 94.0891 36.8C94.0891 35.6 94.3224 34.6 94.7891 33.8C95.3224 32.9333 95.9224 32.5 96.5891 32.5C97.5224 32.5 98.2891 33.4 98.8891 35.2C99.0224 35.6667 99.1224 36.2 99.1891 36.8C99.2557 37.3333 99.2891 37.8667 99.2891 38.4C99.2891 39 99.2557 39.5667 99.1891 40.1C99.1891 40.5667 99.1557 40.9667 99.0891 41.3C99.5557 41.4333 100.156 41.5333 100.889 41.6C101.689 41.6667 102.556 41.7 103.489 41.7C104.889 41.7 106.356 41.6667 107.889 41.6C109.422 41.4667 110.722 41.4 111.789 41.4C113.056 41.4 113.922 41.6667 114.389 42.2C114.856 42.7333 115.089 43.4 115.089 44.2C115.089 45.2 114.822 46.3 114.289 47.5C113.822 48.6333 113.356 49.6 112.889 50.4C112.022 52 111.189 53.4333 110.389 54.7C109.656 55.9 108.822 57.2 107.889 58.6C106.489 60.7333 105.456 62.7 104.789 64.5C104.189 66.2333 103.889 67.7 103.889 68.9C103.889 70.9667 104.656 72 106.189 72C107.456 72 109.089 71.1 111.089 69.3C112.356 68.1667 113.522 66.8333 114.589 65.3C115.722 63.7 116.722 62.1 117.589 60.5C118.522 58.8333 119.289 57.4667 119.889 56.4C120.022 56.2 120.156 56.1 120.289 56.1C120.556 56.1 120.689 56.3667 120.689 56.9C120.689 57.3 120.589 57.6667 120.389 58C119.256 60.0667 117.956 62.3333 116.489 64.8C115.022 67.2667 113.222 69.4 111.089 71.2C109.956 72.1333 108.822 72.8 107.689 73.2C106.622 73.6667 105.622 73.9 104.689 73.9C103.022 73.9 101.622 73.3333 100.489 72.2C99.4224 71 98.8891 69.4333 98.8891 67.5C98.8891 66.3667 99.1557 65 99.6891 63.4C100.556 61 101.856 58.7 103.589 56.5C105.322 54.3 106.989 52.0667 108.589 49.8C109.589 48.4667 110.089 47.1667 110.089 45.9C110.089 45.2333 109.889 44.6667 109.489 44.2C109.156 43.7333 108.522 43.4667 107.589 43.4C107.056 43.2667 106.456 43.2 105.789 43.2C105.122 43.2 104.456 43.2 103.789 43.2H101.089C100.622 43.2 100.222 43.2 99.8891 43.2C99.5557 43.2 99.2557 43.1667 98.9891 43.1C97.7224 46.4333 96.1224 49.9667 94.1891 53.7C92.2557 57.4333 90.0224 61 87.4891 64.4C85.0224 67.7333 82.2557 70.5333 79.1891 72.8C77.9224 73.6667 76.4557 74.4 74.7891 75C73.0557 75.6667 71.3891 76 69.7891 76ZM126.59 75C124.057 75 121.857 74.2 119.99 72.6C118.19 70.9333 117.29 68.4 117.29 65C117.29 62.8667 117.657 60.6667 118.39 58.4C119.19 56.0667 120.057 54 120.99 52.2C122.723 48.9333 124.89 46.1 127.49 43.7C130.157 41.2333 133.323 40 136.99 40C140.523 40 142.99 40.9667 144.39 42.9C145.79 44.8333 146.49 47.2 146.49 50C146.49 51.1333 146.39 52.3 146.19 53.5C145.657 56.7667 144.557 59.9333 142.89 63C143.357 63.6667 143.957 64.2333 144.69 64.7C145.49 65.1 146.357 65.3 147.29 65.3C148.89 65.3 150.257 64.8667 151.39 64C152.523 63.1333 153.49 62.0667 154.29 60.8C155.157 59.4667 155.89 58.2333 156.49 57.1C156.89 56.3667 157.257 56 157.59 56C157.79 56 157.89 56.1333 157.89 56.4C157.89 56.6667 157.69 57.2667 157.29 58.2C156.157 60.4667 154.823 62.4333 153.29 64.1C151.757 65.7667 149.757 66.6 147.29 66.6C145.023 66.6 143.29 65.8 142.09 64.2C140.223 67.2667 137.957 69.8333 135.29 71.9C132.623 73.9667 129.723 75 126.59 75ZM126.79 73.8C130.057 73.8 133.29 72.2 136.49 69C137.423 68.0667 138.257 67.1 138.99 66.1C139.79 65.0333 140.49 63.9667 141.09 62.9C140.223 61.9 139.59 60.8333 139.19 59.7C138.857 58.5 138.69 57.3667 138.69 56.3C138.69 54.6333 138.99 53.1667 139.59 51.9C140.19 50.5667 141.023 49.9 142.09 49.9C142.623 49.9 143.123 50.1667 143.59 50.7C144.123 51.2333 144.457 52.0667 144.59 53.2C144.79 52.2667 144.89 51.2667 144.89 50.2C144.89 47.6667 144.423 45.6667 143.49 44.2C142.557 42.6667 140.99 41.9 138.79 41.9C137.457 41.9 136.09 42.4333 134.69 43.5C133.29 44.5 131.957 45.7333 130.69 47.2C129.49 48.6667 128.423 50.1667 127.49 51.7C126.557 53.2333 125.857 54.5 125.39 55.5C124.257 57.9667 123.423 60.1667 122.89 62.1C122.423 64.0333 122.19 65.7333 122.19 67.2C122.19 69.3333 122.623 70.9667 123.49 72.1C124.423 73.2333 125.523 73.8 126.79 73.8ZM152.183 107.3C149.716 107.3 148.016 106.333 147.083 104.4C146.149 102.533 145.683 100.3 145.683 97.7C145.683 94.7667 146.016 91.5667 146.683 88.1C147.283 84.7 148.016 81.4667 148.883 78.4C149.816 75.2667 150.849 71.9667 151.983 68.5C153.183 65.0333 154.516 61.6 155.983 58.2C157.383 54.8667 159.149 50.9333 161.283 46.4C163.483 41.8667 165.916 37.2 168.583 32.4C171.316 27.5333 174.216 22.9333 177.283 18.6C180.416 14.2 183.649 10.4 186.983 7.19999C190.383 4 193.816 1.86666 197.283 0.799994C197.683 0.733328 198.083 0.666662 198.483 0.599996C198.949 0.533331 199.383 0.499998 199.783 0.499998C200.783 0.499998 201.649 0.73333 202.383 1.19999C203.316 1.79999 203.783 2.86666 203.783 4.4C203.783 5.46666 203.483 6.76667 202.883 8.3C201.816 10.9667 200.049 13.8333 197.583 16.9C195.183 19.9667 192.349 23.1 189.083 26.3C185.083 30.1667 181.249 33.6 177.583 36.6C173.916 39.5333 170.916 41.8333 168.583 43.5C166.649 47.4333 164.883 51.1333 163.283 54.6C161.683 58 160.383 60.9 159.383 63.3C158.383 65.7 157.716 67.3333 157.383 68.2C156.649 70.4667 155.749 73 154.683 75.8C153.683 78.6 152.749 81.4 151.883 84.2C151.616 85.0667 151.283 86.3 150.883 87.9C150.483 89.5 150.116 91.2 149.783 93C149.516 94.8667 149.383 96.6667 149.383 98.4C149.383 100.267 149.683 101.9 150.283 103.3C150.883 104.7 151.916 105.4 153.383 105.4C154.116 105.4 154.849 105.133 155.583 104.6C156.383 104.067 157.283 103.167 158.283 101.9C160.016 99.7667 161.483 97.1 162.683 93.9C163.883 90.7 164.783 87.6 165.383 84.6C165.516 83.8667 165.649 82.9 165.783 81.7C165.983 80.5667 166.083 79.3667 166.083 78.1C166.083 77.1667 165.983 76.2333 165.783 75.3C165.649 74.3667 165.383 73.6 164.983 73C164.449 72.4 163.783 72.1 162.983 72.1C162.249 72.1 161.616 72.3 161.083 72.7C160.283 73.3667 159.949 74.1333 160.083 75C158.749 74.0667 158.083 72.9667 158.083 71.7C158.083 70.5 158.549 69.4667 159.483 68.6C160.483 67.6667 161.616 67.2 162.883 67.2C164.349 67.2 165.549 67.6333 166.483 68.5C167.416 69.3667 168.049 70.4 168.383 71.6V71.7C171.383 70.5667 173.916 68.6333 175.983 65.9C178.116 63.1 179.949 60.2333 181.483 57.3C181.683 56.8333 181.883 56.6 182.083 56.6C182.283 56.6 182.383 56.8667 182.383 57.4C182.383 57.9333 182.283 58.4 182.083 58.8C180.549 61.6667 178.716 64.4 176.583 67C174.516 69.6 171.916 71.6 168.783 73C168.916 73.4667 168.983 73.9667 168.983 74.5C168.983 75.1 168.983 75.7 168.983 76.3C168.983 77.6333 168.883 79.0667 168.683 80.6C168.549 82.2 168.283 83.8333 167.883 85.5C167.083 88.7667 165.949 92 164.483 95.2C163.016 98.4667 161.316 101.167 159.383 103.3C158.316 104.367 157.183 105.3 155.983 106.1C154.783 106.9 153.516 107.3 152.183 107.3ZM169.683 41.5C173.616 38.5667 177.116 35.6333 180.183 32.7C183.316 29.7667 186.516 26.6 189.783 23.2C190.716 22.2 191.916 20.8667 193.383 19.2C194.916 17.5333 196.416 15.7333 197.883 13.8C199.349 11.8667 200.449 10 201.183 8.2C201.849 6.66667 202.183 5.36667 202.183 4.3C202.183 2.5 201.349 1.6 199.683 1.6C198.816 1.6 197.849 1.86666 196.783 2.4C195.716 2.93333 194.716 3.66667 193.783 4.6C191.183 7.06667 188.483 10.3 185.683 14.3C182.883 18.3 180.116 22.6667 177.383 27.4C174.649 32.1333 172.083 36.8333 169.683 41.5ZM184.18 73.6C182.314 73.6 180.947 73 180.08 71.8C179.214 70.5333 178.78 69 178.78 67.2C178.78 66.6667 178.814 66.1333 178.88 65.6C179.014 65 179.147 64.4 179.28 63.8C180.014 61.1333 181.147 58.1667 182.68 54.9C184.28 51.5667 185.814 48.6 187.28 46C188.147 44.5333 188.947 43.5 189.68 42.9C190.414 42.2333 191.214 41.7667 192.08 41.5C192.947 41.1667 193.98 40.8 195.18 40.4C195.514 40.2667 195.847 40.1667 196.18 40.1C196.514 40.0333 196.88 39.9667 197.28 39.9C195.947 41.2333 194.58 42.8333 193.18 44.7C191.847 46.5667 190.38 49.1333 188.78 52.4C187.914 54.1333 187.047 56.0667 186.18 58.2C185.38 60.3333 184.68 62.3333 184.08 64.2C183.48 66.0667 183.147 67.5333 183.08 68.6C183.014 69.8667 183.18 70.7667 183.58 71.3C183.98 71.8333 184.514 72.1 185.18 72.1C186.314 72.1 187.38 71.7 188.38 70.9C189.447 70.1 190.38 69.2667 191.18 68.4C192.647 66.7333 194.014 64.9 195.28 62.9C196.614 60.9 197.914 58.7667 199.18 56.5C199.38 56.2333 199.547 56.1 199.68 56.1C199.947 56.1 200.08 56.3 200.08 56.7C200.08 57.0333 200.014 57.3 199.88 57.5C198.68 59.7 197.414 61.9 196.08 64.1C194.747 66.3 193.114 68.3667 191.18 70.3C190.314 71.1667 189.28 71.9333 188.08 72.6C186.947 73.2667 185.647 73.6 184.18 73.6ZM196.38 34.3C195.647 34.3 195.014 34.0333 194.48 33.5C194.014 32.9667 193.78 32.3333 193.78 31.6C193.78 30.6667 194.147 29.8333 194.88 29.1C195.68 28.3667 196.547 27.9333 197.48 27.8C198.214 27.8 198.814 28.0667 199.28 28.6C199.814 29.0667 200.08 29.7 200.08 30.5C200.08 31.3667 199.714 32.2333 198.98 33.1C198.247 33.9 197.38 34.3 196.38 34.3ZM203.668 73.6C201.268 73.6 199.601 72.9 198.668 71.5C197.735 70.1 197.268 68.3333 197.268 66.2C197.268 64 197.601 61.6 198.268 59C199.001 56.4 199.835 53.8667 200.768 51.4C201.768 48.9333 202.701 46.7667 203.568 44.9C204.501 43.0333 205.135 41.7333 205.468 41C206.668 38.4667 208.135 35.6 209.868 32.4C211.668 29.2 213.668 25.9333 215.868 22.6C218.135 19.2667 220.501 16.1 222.968 13.1C225.501 10.1 228.101 7.49999 230.768 5.3C233.501 3.1 236.201 1.6 238.868 0.799994C239.601 0.599996 240.268 0.499998 240.868 0.499998C242.001 0.499998 242.935 0.833331 243.668 1.5C244.468 2.1 244.868 3.16666 244.868 4.7C244.868 5.76666 244.601 7.1 244.068 8.7C243.201 11.0333 241.735 13.6333 239.668 16.5C237.601 19.3 235.168 22.2333 232.368 25.3C229.568 28.3 226.601 31.2667 223.468 34.2C220.401 37.1333 217.401 39.8667 214.468 42.4C211.535 44.9333 208.935 47.1 206.668 48.9C206.068 50.1667 205.501 51.4 204.968 52.6C204.501 53.8 204.068 54.9667 203.668 56.1C203.468 56.7 203.168 57.6 202.768 58.8C202.368 60 202.001 61.3333 201.668 62.8C201.335 64.2667 201.168 65.6667 201.168 67C201.168 68.3333 201.435 69.5 201.968 70.5C202.501 71.4333 203.468 71.9 204.868 71.9C206.001 71.9 207.035 71.5333 207.968 70.8C208.968 70.0667 209.868 69.2667 210.668 68.4C213.468 65.2 215.968 61.5 218.168 57.3C218.435 56.8333 218.635 56.6 218.768 56.6C218.901 56.6 218.968 56.8 218.968 57.2C218.968 57.8 218.835 58.4333 218.568 59.1C217.301 61.4333 216.135 63.4 215.068 65C214.068 66.6 212.601 68.3667 210.668 70.3C209.801 71.1667 208.768 71.9333 207.568 72.6C206.435 73.2667 205.135 73.6 203.668 73.6ZM207.768 46.6C209.835 44.8 212.235 42.6667 214.968 40.2C217.701 37.6667 220.501 34.9667 223.368 32.1C226.235 29.2333 228.935 26.3667 231.468 23.5C234.068 20.6333 236.301 17.9333 238.168 15.4C240.101 12.8667 241.401 10.6667 242.068 8.8C242.668 7.06666 242.968 5.73333 242.968 4.8C242.968 3.06667 242.201 2.2 240.668 2.2C239.801 2.2 238.768 2.53333 237.568 3.2C236.368 3.8 235.268 4.6 234.268 5.6C232.601 7.2 230.635 9.5 228.368 12.5C226.168 15.4333 223.835 18.8 221.368 22.6C218.901 26.4 216.468 30.3667 214.068 34.5C211.735 38.6333 209.635 42.6667 207.768 46.6ZM227.699 73.8C223.833 73.8 221.099 72.8 219.499 70.8C218.699 69.9333 218.133 68.9 217.799 67.7C217.466 66.5 217.299 65.2667 217.299 64C217.299 62.4 217.499 60.8 217.899 59.2C218.299 57.5333 218.799 56 219.399 54.6C220.333 52.4 221.566 50.2 223.099 48C224.633 45.7333 226.466 43.8333 228.599 42.3C230.799 40.7667 233.199 40 235.799 40C237.533 40 238.899 40.4333 239.899 41.3C240.899 42.1667 241.399 43.5 241.399 45.3C241.399 47.3667 240.766 49.4667 239.499 51.6C238.233 53.6667 236.633 55.4 234.699 56.8C232.766 58.2 230.766 58.9 228.699 58.9C226.833 58.9 225.199 58.2333 223.799 56.9C223.399 57.9667 223.066 59.1667 222.799 60.5C222.533 61.7667 222.399 63.0667 222.399 64.4C222.399 66.4667 222.799 68.2667 223.599 69.8C224.466 71.3333 225.999 72.1 228.199 72.1C229.799 72.1 231.333 71.7 232.799 70.9C234.333 70.0333 235.699 69 236.899 67.8C238.233 66.4 239.499 64.9 240.699 63.3C241.899 61.7 243.066 59.8333 244.199 57.7C244.333 57.5 244.433 57.4 244.499 57.4C244.766 57.4 244.899 57.7 244.899 58.3C244.899 58.7 244.766 59.1333 244.499 59.6C243.499 61.4 242.333 63.2333 240.999 65.1C239.666 66.9 238.299 68.4667 236.899 69.8C235.633 71 234.266 71.9667 232.799 72.7C231.333 73.4333 229.633 73.8 227.699 73.8ZM224.299 55.4C224.766 56.0667 225.299 56.5667 225.899 56.9C226.566 57.1667 227.233 57.3 227.899 57.3C229.499 57.3 231.166 56.7 232.899 55.5C234.633 54.2333 236.033 52.7667 237.099 51.1C237.566 50.3667 237.966 49.4 238.299 48.2C238.699 47 238.899 45.8667 238.899 44.8C238.899 43.8667 238.699 43.0667 238.299 42.4C237.966 41.6667 237.266 41.3 236.199 41.3C234.999 41.3 233.566 42.0333 231.899 43.5C230.299 44.9667 228.766 46.8667 227.299 49.2C226.833 50 226.299 50.9333 225.699 52C225.166 53.0667 224.699 54.2 224.299 55.4Z" fill="#B5943E"/>
</svg>
